<svg width="35" height="54" viewBox="0 0 35 54" fill="none" xmlns="http://www.w3.org/2000/svg">
<path d="M17.3858 33.6606C19.992 33.6606 22.5953 33.684 25.2016 33.6461C25.8808 33.6344 26.0528 33.8735 26.0266 34.4973C25.9857 35.4214 26.0236 36.3485 26.0149 37.2726C26.012 37.6574 26.0557 37.9635 26.5571 37.9315C26.9623 37.9052 26.9915 38.1967 26.9915 38.4941C26.9944 39.1821 26.9973 39.873 26.9973 40.561C26.9973 44.651 26.9857 48.7411 27.009 52.8312C27.0119 53.4609 26.8487 53.732 26.1752 53.6853C25.4027 53.6329 24.6243 53.6445 23.8518 53.6824C23.2717 53.7116 23.0647 53.5221 23.0676 52.9186C23.0909 49.3242 23.0763 45.7297 23.0763 42.1323C23.0763 41.1207 23.0501 40.1091 23.0851 39.0975C23.1055 38.5262 22.9452 38.3104 22.333 38.3133C18.995 38.3396 15.66 38.3396 12.3221 38.3133C11.7332 38.3075 11.5962 38.5291 11.5991 39.0684C11.6137 43.4587 11.6078 47.852 11.6078 52.2423C11.6078 52.4784 11.5904 52.7175 11.6108 52.9536C11.6545 53.4667 11.4737 53.6999 10.9199 53.6766C10.0599 53.6416 9.19695 53.6504 8.33696 53.6737C7.86761 53.6853 7.69561 53.5163 7.69561 53.0382C7.70727 48.1931 7.70727 43.3509 7.69853 38.5057C7.69853 38.1122 7.80056 37.879 8.24076 37.9198C8.67221 37.9606 8.72177 37.6924 8.71886 37.3484C8.71011 36.3368 8.73635 35.3252 8.71011 34.3136C8.69553 33.8064 8.87628 33.6432 9.38061 33.6461C12.048 33.6694 14.7184 33.6606 17.3858 33.6606Z" fill="#0B7C18"/>
<path d="M11.9635 46.1932C11.9635 43.9543 11.9781 41.7154 11.9518 39.4765C11.946 38.8993 12.1063 38.6894 12.7127 38.6924C15.8116 38.7186 18.9134 38.7128 22.0123 38.6953C22.5341 38.6924 22.7324 38.8527 22.7294 39.392C22.7149 43.9135 22.7149 48.4321 22.7265 52.9536C22.7265 53.458 22.6012 53.6854 22.0414 53.6883C21.4497 53.6941 21.3855 53.4113 21.3884 52.9332C21.403 50.6739 21.4147 48.4117 21.3797 46.1524C21.3709 45.6306 21.2631 45.0738 21.0532 44.5957C20.7646 43.9398 20.0124 43.9514 19.718 44.6073C19.5402 45.0067 19.4586 45.4761 19.4527 45.9163C19.4265 48.2834 19.4265 50.6535 19.4498 53.0207C19.4556 53.6037 19.1787 53.7932 18.7123 53.6358C18.5286 53.5746 18.3391 53.2044 18.3362 52.9741C18.307 50.6914 18.3274 48.4117 18.31 46.1291C18.307 45.6831 18.24 45.2283 18.135 44.7939C18.0359 44.38 17.7677 43.9398 17.31 44.0622C16.9923 44.1467 16.6716 44.5316 16.5258 44.8581C16.3655 45.2137 16.3713 45.6568 16.3684 46.062C16.3538 48.2368 16.3801 50.4116 16.3451 52.5834C16.3393 52.9741 16.7124 53.6883 15.8116 53.662C14.9341 53.6387 15.3073 52.942 15.2985 52.5426C15.2606 50.4553 15.2927 48.368 15.2723 46.2778C15.2665 45.788 15.2402 45.2662 15.0595 44.8231C14.9283 44.4995 14.5639 44.1147 14.249 44.0593C13.7564 43.9718 13.5202 44.4528 13.4299 44.8901C13.3453 45.2866 13.3162 45.7006 13.3162 46.1058C13.3045 48.3884 13.3016 50.6681 13.3191 52.9507C13.322 53.4434 13.2316 53.6999 12.6515 53.6883C12.1093 53.6795 11.9518 53.4842 11.9577 52.9653C11.9752 50.7118 11.9635 48.4525 11.9635 46.1932Z" fill="#0B7C18"/>
<path d="M9.4972 33.3487C8.45647 33.5353 8.45647 33.5353 8.45355 34.7422C8.45355 35.4739 8.43897 36.2056 8.45647 36.9373C8.46521 37.3513 8.35735 37.5962 7.88508 37.5758C7.30204 37.5495 7.32827 37.9693 7.32827 38.3745C7.33119 42.8494 7.3341 47.3272 7.32827 51.8021C7.32536 53.1956 7.47112 53.0265 6.07472 53.0323C4.27894 53.0411 4.27894 53.0352 4.27894 51.2249C4.27894 45.6947 4.27603 40.1645 4.29644 34.6343C4.29644 34.2553 4.49759 33.8793 4.5967 33.4974C4.64918 33.2933 4.71331 33.0863 4.71914 32.8793C4.73372 32.1476 4.73664 31.4159 4.72497 30.6842C4.71914 30.311 4.85616 30.1245 5.2468 30.1274C6.45079 30.1332 7.65769 30.1332 8.86168 30.1245C9.24941 30.1215 9.39517 30.2965 9.38642 30.6754C9.37185 31.2352 9.37185 31.7949 9.38934 32.3546C9.39808 32.684 9.4593 33.0134 9.4972 33.3487Z" fill="#0B7C18"/>
<path d="M25.3823 33.375C25.3823 32.5675 25.3823 31.8299 25.3823 31.0894C25.3852 30.1303 25.3852 30.1274 26.3356 30.1245C27.3676 30.1216 28.4025 30.1362 29.4345 30.1216C29.8717 30.1157 30.0612 30.279 30.0437 30.7279C30.0204 31.2877 29.9971 31.8503 30.0525 32.4042C30.102 32.8736 30.2711 33.3283 30.3761 33.7919C30.4227 33.9988 30.4635 34.2116 30.4635 34.4215C30.4694 40.3832 30.4606 46.3477 30.4781 52.3094C30.481 52.8837 30.2828 53.0761 29.726 53.0382C29.1458 53.0003 28.5628 53.0119 27.9827 53.0324C27.56 53.0469 27.4113 52.8574 27.4171 52.4551C27.4288 51.5718 27.4171 50.6914 27.4171 49.8081C27.4171 46.0183 27.4113 42.2314 27.4259 38.4416C27.4288 37.9023 27.3909 37.5088 26.6941 37.5292C26.5688 37.5321 26.3327 37.2027 26.321 37.0161C26.2773 36.2232 26.3006 35.4244 26.3006 34.6285C26.3035 33.4945 26.3035 33.4945 25.3823 33.375Z" fill="#0B7C18"/>
<path d="M30.825 46.0067C30.825 43.9864 30.825 41.9633 30.825 39.943C30.825 38.9985 30.8279 38.9985 31.7987 38.9956C32.3351 38.9956 32.8744 39.0218 33.4108 38.9897C33.9676 38.9577 34.163 39.1676 34.1571 39.7331C34.1338 42.2052 34.1484 44.6803 34.1484 47.1524C34.1484 48.8723 34.1367 50.5923 34.1542 52.3152C34.16 52.8312 34.0026 53.0644 33.4546 53.0353C32.8103 53.0003 32.1631 53.0003 31.5188 53.0353C30.9854 53.0644 30.8075 52.8604 30.8134 52.3298C30.8396 50.2221 30.8279 48.1144 30.825 46.0067Z" fill="#0B7C18"/>
<path d="M0.608676 45.9338C0.608676 43.8698 0.623252 41.8029 0.59993 39.7389C0.5941 39.1792 0.771929 38.9576 1.3404 38.9897C1.96134 39.0247 2.58812 39.0247 3.21197 38.9897C3.78336 38.9576 3.95244 39.185 3.94953 39.7418C3.92912 42.9457 3.94078 46.1495 3.94078 49.3563C3.94078 50.3678 3.9262 51.3794 3.94661 52.3881C3.95536 52.8545 3.7921 53.0528 3.31109 53.0353C2.64642 53.009 1.97592 53.0032 1.31125 53.0382C0.771929 53.0644 0.59993 52.8487 0.605761 52.324C0.620337 50.1929 0.608676 48.0648 0.608676 45.9338Z" fill="#0B7C18"/>
<path d="M4.98151 17.5132C4.98151 15.8982 4.999 14.2831 4.96985 12.6681C4.9611 12.1201 5.10686 11.8868 5.68991 11.9102C6.63444 11.9481 7.58481 11.9306 8.53226 11.9189C8.94039 11.9131 9.10947 12.0676 9.10947 12.4874C9.10073 15.8661 9.10073 19.2478 9.10947 22.6265C9.10947 23.058 8.91998 23.1863 8.52059 23.1833C7.57315 23.1717 6.6257 23.16 5.67825 23.1863C5.15351 23.2008 4.9611 23.0259 4.96985 22.4837C4.999 20.8308 4.98151 19.172 4.98151 17.5132ZM6.44787 13.8342C6.73064 14.0733 6.8939 14.2103 7.05424 14.3473C7.17959 14.1695 7.40698 13.9916 7.40406 13.8167C7.40406 13.6447 7.17084 13.4756 7.03966 13.3036C6.88224 13.4436 6.72481 13.5835 6.44787 13.8342ZM8.17077 14.2657C8.24365 14.2627 8.31653 14.2598 8.38941 14.2569C8.38941 13.9683 8.38941 13.6768 8.38941 13.3882C8.30195 13.3911 8.21741 13.394 8.12995 13.3969C8.14453 13.6855 8.15911 13.977 8.17077 14.2657ZM5.65784 14.3473C6.11553 13.9158 6.10096 13.6331 5.65784 13.3649C5.65784 13.6797 5.65784 13.9566 5.65784 14.3473Z" fill="#0B7C18"/>
<path d="M29.7843 17.5744C29.7843 19.2303 29.7726 20.8832 29.793 22.5391C29.7989 23.0055 29.6531 23.2008 29.1692 23.1892C28.2013 23.1629 27.2335 23.1658 26.2685 23.1833C25.8429 23.1892 25.6505 23.058 25.6534 22.5945C25.668 19.242 25.668 15.8894 25.6592 12.5369C25.6592 12.1084 25.7904 11.9072 26.2481 11.916C27.2364 11.9335 28.2246 11.9364 29.2129 11.916C29.6764 11.9072 29.7959 12.123 29.793 12.5457C29.7755 14.2219 29.7814 15.8982 29.7843 17.5744ZM28.3179 13.8546C28.0439 13.5922 27.8894 13.4465 27.7378 13.2978C27.6037 13.464 27.3705 13.6301 27.3646 13.7992C27.3588 13.9741 27.5804 14.1549 27.6999 14.3327C27.8661 14.2074 28.0293 14.082 28.3179 13.8546ZM29.1021 13.3882C29.003 13.3911 28.901 13.3911 28.8018 13.394C28.8193 13.6884 28.8397 13.98 28.8572 14.2744C28.9389 14.2686 29.0205 14.2657 29.1021 14.2598C29.1021 13.9683 29.1021 13.6797 29.1021 13.3882ZM26.3618 14.4114C26.7962 13.977 26.7116 13.6884 26.5746 13.3969C26.5046 13.394 26.4318 13.3911 26.3618 13.3882C26.3618 13.671 26.3618 13.9566 26.3618 14.4114Z" fill="#0B7C18"/>
<path d="M7.0251 29.8884C6.20884 29.8884 5.38966 29.8622 4.5734 29.8972C4.00493 29.9205 3.76005 29.7514 3.78629 29.1363C3.83001 28.0839 3.81252 27.0286 3.78337 25.9762C3.77754 25.7692 3.64052 25.4981 3.47436 25.3815C3.08663 25.1045 2.99626 24.6702 3.39273 24.4166C4.20025 23.9006 4.98444 23.3175 6.05142 23.4604C6.59948 23.5332 7.1767 23.5332 7.72476 23.4604C8.83546 23.3146 9.73043 23.7723 10.5963 24.3553C11.0539 24.6643 11.019 25.0929 10.5817 25.3902C10.4184 25.501 10.2902 25.7838 10.2843 25.9937C10.2552 27.0694 10.2493 28.1451 10.2785 29.2208C10.2931 29.731 10.1036 29.9088 9.60508 29.8943C8.748 29.868 7.8851 29.8884 7.0251 29.8884ZM7.99879 27.0665C7.96089 25.2182 8.29031 25.364 6.54992 25.3698C6.52951 25.3698 6.49745 25.364 6.48579 25.3757C6.33419 25.5331 6.06308 25.6847 6.05142 25.8508C6.00477 26.6613 6.00769 27.4775 6.05142 28.288C6.06016 28.4512 6.33128 28.7282 6.48579 28.7311C8.2495 28.7719 7.96672 28.8973 7.99587 27.3872C8.0017 27.2793 7.99879 27.1714 7.99879 27.0665ZM4.47719 27.014C4.47719 27.4222 4.43638 27.8361 4.49469 28.2355C4.52092 28.4192 4.7454 28.5766 4.8795 28.7428C5.03109 28.5882 5.30512 28.4396 5.31386 28.2763C5.35759 27.463 5.35468 26.6438 5.31678 25.8275C5.30803 25.673 5.06316 25.5302 4.92906 25.3815C4.78038 25.5389 4.53258 25.6788 4.50052 25.8567C4.43347 26.2327 4.48011 26.6263 4.47719 27.014ZM8.72468 27.0315H8.7276C8.7276 27.4601 8.69553 27.8944 8.74509 28.3171C8.76258 28.4687 8.97248 28.597 9.09491 28.7369C9.24359 28.5999 9.50888 28.4687 9.51762 28.323C9.55844 27.4863 9.55844 26.6496 9.51762 25.8129C9.50888 25.6643 9.24359 25.5302 9.09491 25.3902C8.97248 25.5506 8.76549 25.6993 8.74217 25.8742C8.68678 26.2531 8.72468 26.6467 8.72468 27.0315Z" fill="#0B7C18"/>
<path d="M27.7145 29.8942C26.8749 29.8942 26.0353 29.8738 25.1957 29.9029C24.6768 29.9204 24.464 29.7572 24.4815 29.2062C24.5165 28.1305 24.5106 27.0548 24.4727 25.979C24.464 25.7662 24.2832 25.5039 24.1025 25.3698C23.7789 25.1249 23.7119 24.6555 24.0763 24.4223C24.9042 23.8917 25.7059 23.3029 26.7991 23.4603C27.3472 23.539 27.9244 23.539 28.4724 23.4603C29.5686 23.3058 30.4344 23.781 31.2798 24.3553C31.7521 24.6759 31.7171 25.0695 31.2536 25.3814C31.102 25.4835 30.9795 25.7429 30.9766 25.9353C30.9475 27.0548 30.9475 28.1742 30.9649 29.2907C30.9708 29.7397 30.7959 29.9029 30.3586 29.8942C29.4782 29.8796 28.5949 29.8913 27.7145 29.8942ZM26.7641 27.0635C26.8107 29.0284 26.4318 28.7194 28.1838 28.7485C28.2042 28.7485 28.2363 28.7573 28.248 28.7456C28.4054 28.594 28.6882 28.4453 28.6969 28.2821C28.7435 27.4687 28.7435 26.6525 28.6969 25.8391C28.6882 25.6759 28.4229 25.4135 28.2509 25.3902C26.8137 25.1978 26.7641 25.2531 26.7641 26.6758C26.7641 26.807 26.7641 26.9352 26.7641 27.0635ZM29.4199 27.0285C29.4199 27.4571 29.382 27.8885 29.4374 28.3083C29.4578 28.4686 29.6852 28.7019 29.8338 28.7106C29.9709 28.7194 30.2478 28.4832 30.2536 28.3462C30.2915 27.492 30.2944 26.635 30.2536 25.7837C30.2478 25.6409 29.9767 25.4047 29.8338 25.4077C29.6939 25.4106 29.4607 25.6525 29.4374 25.8129C29.3791 26.2123 29.4199 26.6233 29.4199 27.0285ZM26.0353 27.1276C26.0353 26.6787 26.0732 26.2239 26.0149 25.7808C25.9945 25.6321 25.7525 25.4485 25.5805 25.4077C25.4931 25.3872 25.2394 25.6467 25.2336 25.7866C25.2015 26.6408 25.2015 27.5008 25.2336 28.355C25.2394 28.492 25.496 28.7427 25.5893 28.7223C25.7584 28.6844 25.9916 28.4978 26.0149 28.3462C26.0761 27.9468 26.0353 27.5358 26.0353 27.1276Z" fill="#0B7C18"/>
<path d="M7.063 11.607C6.46246 11.607 5.85901 11.5953 5.25847 11.6099C4.84451 11.6216 4.67834 11.4408 4.69 11.0327C4.70458 10.473 4.71041 9.91325 4.68417 9.35644C4.66377 8.91624 4.87075 8.39441 4.29353 8.10289C4.24981 8.08248 4.31394 7.61313 4.44513 7.52567C5.01068 7.14961 5.5704 6.74439 6.32836 6.81436C6.88226 6.86683 7.4653 6.73273 7.99879 6.84934C8.62556 6.98636 9.2261 7.28079 9.80914 7.56649C9.89369 7.6073 9.84413 8.00377 9.79165 8.2195C9.74209 8.41773 9.5322 8.59265 9.52345 8.78505C9.48847 9.51386 9.48555 10.2456 9.51471 10.9773C9.53511 11.4641 9.33688 11.6274 8.87044 11.6099C8.26699 11.5895 7.66354 11.607 7.063 11.607ZM6.38958 9.47596C6.3925 9.47596 6.39541 9.47596 6.39833 9.47596C6.39833 9.77623 6.3546 10.0823 6.41582 10.368C6.44789 10.5196 6.64612 10.7178 6.7948 10.7441C7.66354 10.9044 7.82096 10.7616 7.82096 9.9045C7.82096 9.49928 7.84137 9.09115 7.80347 8.68885C7.78889 8.53726 7.66645 8.30987 7.5411 8.26614C6.77439 7.99503 6.38958 8.28072 6.38667 9.08824C6.38667 9.21942 6.38958 9.34769 6.38958 9.47596ZM8.97247 9.48179H8.96956C8.96956 9.16112 8.99288 8.84044 8.95498 8.52268C8.94332 8.42356 8.76549 8.2778 8.66637 8.2778C8.56726 8.2778 8.3836 8.43231 8.37777 8.52268C8.35153 9.16112 8.34862 9.80247 8.37777 10.4409C8.3836 10.5429 8.576 10.6829 8.70427 10.7149C8.76549 10.7295 8.94624 10.5458 8.9579 10.438C8.9958 10.1261 8.97247 9.80247 8.97247 9.48179ZM5.2439 9.4643C5.2439 9.78789 5.22349 10.1115 5.25556 10.4292C5.26722 10.54 5.4159 10.6362 5.50044 10.7383C5.60539 10.6508 5.79779 10.5663 5.80071 10.473C5.82694 9.8287 5.82694 9.18444 5.80362 8.54017C5.80071 8.44397 5.61705 8.29238 5.5121 8.28655C5.42756 8.28072 5.27013 8.45563 5.25847 8.56349C5.22058 8.86085 5.2439 9.16403 5.2439 9.4643Z" fill="#0B7C18"/>
<path d="M27.6591 11.607C27.0556 11.607 26.4551 11.5924 25.8545 11.6128C25.4202 11.6274 25.2278 11.467 25.2453 11.0123C25.2715 10.368 25.2627 9.72373 25.2511 9.07654C25.2453 8.73255 25.3735 8.32733 24.8809 8.14659C24.8459 8.13493 24.8721 7.62185 25.0004 7.53147C25.5572 7.14083 26.1198 6.73853 26.8778 6.81141C27.4113 6.86097 27.9564 6.86097 28.4899 6.81141C29.2508 6.74436 29.7988 7.17873 30.3586 7.56063C30.4664 7.63351 30.4373 7.98625 30.3877 8.19032C30.3294 8.42936 30.102 8.64218 30.0875 8.87539C30.0466 9.6042 30.0583 10.3359 30.0729 11.0676C30.0787 11.4525 29.9096 11.6099 29.5336 11.604C28.9068 11.6011 28.2829 11.607 27.6591 11.607ZM28.3733 9.49051C28.3733 9.2981 28.3558 9.10278 28.3762 8.91329C28.4403 8.37397 28.1984 8.21947 27.6766 8.21947C27.146 8.21947 26.872 8.34191 26.9332 8.93661C26.9769 9.35932 26.9594 9.79078 26.939 10.2193C26.9157 10.6449 27.1139 10.7703 27.5104 10.7761C28.3412 10.7936 28.3675 10.7849 28.3733 9.93945C28.3733 9.78786 28.3733 9.63918 28.3733 9.49051ZM29.5248 9.51674C29.5219 9.51674 29.5219 9.51674 29.519 9.51674C29.519 9.19607 29.5423 8.87248 29.5073 8.55763C29.4957 8.45269 29.3353 8.2836 29.2508 8.28652C29.1458 8.29235 28.9622 8.44102 28.9593 8.53723C28.933 9.17566 28.9301 9.81993 28.9563 10.4584C28.9593 10.5575 29.1342 10.6537 29.2304 10.7499C29.3295 10.6391 29.4957 10.5371 29.5132 10.4146C29.551 10.1173 29.5248 9.8141 29.5248 9.51674ZM25.7846 9.45844H25.7875C25.7875 9.78203 25.7671 10.1056 25.7992 10.4263C25.8108 10.5371 25.9595 10.6362 26.044 10.7382C26.1606 10.642 26.3705 10.5487 26.3764 10.4467C26.4084 9.82576 26.4084 9.19898 26.3793 8.57804C26.3735 8.47018 26.1752 8.36814 26.0644 8.26611C25.9711 8.38564 25.8166 8.4935 25.7962 8.62177C25.7583 8.89288 25.7846 9.17858 25.7846 9.45844Z" fill="#0B7C18"/>
<path d="M27.6941 5.76193C26.7058 5.76484 26.4434 5.58701 26.4376 4.91651C26.4318 4.23435 26.7845 3.94865 27.6241 3.94574C28.5307 3.94574 28.8747 4.21103 28.8689 4.91651C28.866 5.59284 28.6299 5.76193 27.6941 5.76193Z" fill="#0B7C18"/>
<path d="M7.06591 5.76482C6.14178 5.76482 5.89399 5.58407 5.89399 4.91357C5.89399 4.20517 6.22633 3.94863 7.14462 3.95155C7.97255 3.95446 8.33112 4.2489 8.3282 4.92815C8.32237 5.58116 8.04543 5.76482 7.06591 5.76482Z" fill="#0B7C18"/>
<path d="M7.47112 3.72708C7.23499 3.72708 6.93181 3.72708 6.72774 3.72708C6.78021 3.17027 6.87933 2.66593 6.86184 2.16743C6.84726 1.77387 7.0834 1.29869 6.59364 0.972185C6.53242 0.931372 6.61988 0.46202 6.75106 0.386225C6.93181 0.281276 7.26414 0.287107 7.4478 0.39497C7.57607 0.470766 7.66936 0.913881 7.59356 0.978016C7.21458 1.30161 7.26123 1.68642 7.30787 2.09746C7.36617 2.61346 7.41282 3.13237 7.47112 3.72708Z" fill="#0B7C18"/>
<path d="M27.6736 5.90186C27.9739 5.90186 28.2771 5.86688 28.5686 5.91644C28.7056 5.93976 28.9068 6.12925 28.9068 6.24586C28.9097 6.3683 28.7144 6.5986 28.5978 6.60443C27.9797 6.63942 27.3588 6.63942 26.7437 6.60152C26.6242 6.59569 26.4288 6.36247 26.4347 6.24295C26.4405 6.12342 26.6417 5.93976 26.7787 5.91644C27.0702 5.86688 27.3763 5.90186 27.6736 5.90186Z" fill="#0B7C18"/>
<path d="M7.15337 5.90478C7.43032 5.90478 7.71601 5.86688 7.98421 5.91936C8.12414 5.94559 8.32238 6.12925 8.32821 6.24878C8.33404 6.37122 8.13872 6.5986 8.01919 6.60735C7.40117 6.64525 6.78022 6.64525 6.16219 6.61026C6.04558 6.60443 5.85318 6.37122 5.85318 6.24586C5.8561 6.12925 6.05725 5.93976 6.19426 5.91644C6.50619 5.86688 6.8327 5.90186 7.15337 5.90186C7.15337 5.90186 7.15337 5.90186 7.15337 5.90478Z" fill="#0B7C18"/>
<path d="M27.9448 0.319231C28.0206 0.514552 28.1984 0.849803 28.1547 0.88187C27.6532 1.24919 27.8981 1.76227 27.8865 2.19955C27.8719 2.68057 27.9797 3.16158 28.0439 3.71547C27.8311 3.71547 27.5221 3.71547 27.2597 3.71547C27.3588 2.96334 27.4667 2.22871 27.5454 1.49115C27.5541 1.4037 27.42 1.29 27.3384 1.20255C26.9652 0.806074 26.9215 0.462077 27.4754 0.199707C27.4521 0.409603 27.4142 0.622415 27.4229 0.829396C27.4229 0.861464 27.7261 0.928514 27.7349 0.908107C27.8252 0.721533 27.8806 0.517467 27.9448 0.319231Z" fill="#0B7C18"/>
</svg>
