<svg width="35" height="54" viewBox="0 0 35 54" fill="none" xmlns="http://www.w3.org/2000/svg">
<path d="M0.453718 53.6888C0.538685 52.7342 0.621153 51.7996 0.703621 50.8649C0.718615 50.6825 0.7561 50.4976 0.741106 50.3152C0.728611 50.1602 0.698622 49.9728 0.60366 49.8628C0.228806 49.4305 0.131344 48.9557 0.333765 48.4309C0.55118 47.8686 1.05348 47.7062 1.58078 47.6037C1.72322 47.5762 1.87067 47.5737 2.0481 47.5562C2.00561 47.1564 1.97063 46.7765 1.92814 46.3967C1.87316 45.9019 1.80819 45.4096 1.75821 44.9148C1.70323 44.37 1.85817 44.1925 2.39546 44.1376C2.61537 44.1151 2.83529 44.0751 3.0552 44.0751C3.28012 44.0751 3.34009 43.9851 3.3126 43.7727C3.23513 43.1604 3.17016 42.5482 3.10268 41.9359C3.09519 41.871 3.08769 41.8085 3.08519 41.7435C3.0552 41.3062 3.17016 41.1662 3.60499 41.0988C3.98984 41.0388 4.00733 41.0363 3.95735 40.6464C3.68996 38.4773 4.21225 36.4881 5.29183 34.6163C5.38679 34.4514 5.44677 34.2389 5.44677 34.049C5.46176 31.5825 5.46176 29.1134 5.46426 26.6469C5.46426 26.5569 5.45177 26.467 5.44427 26.3545C5.30932 26.3545 5.19687 26.3545 5.06192 26.3545C5.05192 26.1996 5.04443 26.0646 5.03693 25.9347C5.01944 25.9197 5.00194 25.8947 4.99195 25.8972C4.66458 25.9422 4.63209 25.7697 4.64708 25.4948C4.67207 24.99 4.65208 24.4827 4.65208 23.9754C4.65208 23.2907 4.74205 23.1358 5.41428 22.9683C5.71167 22.8934 5.75915 22.7609 5.75665 22.4935C5.74415 21.2965 5.74915 20.0995 5.75665 18.9024C5.75915 18.3976 5.85661 18.3052 6.35642 18.2427C6.3914 18.2377 6.42639 18.2252 6.42639 18.2252C6.53884 17.3205 6.6488 16.4384 6.75876 15.5537C6.82873 14.9964 6.9037 14.4417 6.97617 13.8844C6.99866 13.7094 6.98117 13.5895 6.77625 13.4995C6.46887 13.3646 6.46637 13.0747 6.78375 12.9672C7.1636 12.8373 7.1761 12.5774 7.19609 12.265C7.21858 11.9276 7.1661 11.6428 6.98117 11.3354C6.45138 10.4482 6.42889 9.4636 6.56383 8.46899C6.6513 7.81924 6.84123 7.21198 7.35603 6.75466C7.39851 6.71717 7.421 6.6447 7.426 6.58473C7.46598 6.16239 7.51096 5.74256 7.52346 5.32022C7.52846 5.18277 7.46348 5.02284 7.38351 4.90788C7.24607 4.71546 7.19609 4.50804 7.37852 4.36559C7.64841 4.15318 7.63841 3.88328 7.64091 3.60089C7.64341 3.44595 7.64091 3.29101 7.64091 3.15107C7.49847 3.08609 7.37852 3.03111 7.19109 2.94615C7.33353 2.85868 7.4335 2.8162 7.50597 2.74872C7.57844 2.67875 7.65841 2.58379 7.6634 2.49632C7.6684 2.42885 7.57344 2.32889 7.49847 2.2889C7.10612 2.08148 6.93369 1.69913 7.05864 1.2693C7.1711 0.874455 7.52096 0.649542 7.95079 0.694525C8.31315 0.73201 8.53806 0.951924 8.64802 1.2818C8.77797 1.66415 8.61553 1.96153 8.33065 2.20893C7.9433 2.5463 7.9433 2.5513 8.36563 2.84369C8.39312 2.86118 8.40312 2.90366 8.41811 2.92615C8.41061 2.94615 8.41061 2.95864 8.40312 2.96364C8.29316 3.04861 8.09824 3.12108 8.08574 3.21604C8.04825 3.49593 8.07574 3.78582 8.09824 4.06821C8.10323 4.13568 8.1857 4.20316 8.24068 4.26063C8.47559 4.49804 8.47809 4.70546 8.26317 4.95786C8.2007 5.03283 8.15072 5.15278 8.15571 5.24775C8.17571 5.69757 8.21569 6.1474 8.25567 6.59472C8.26067 6.6522 8.29066 6.72467 8.33314 6.76216C8.91042 7.27696 9.08285 7.97668 9.16782 8.6939C9.26528 9.51608 9.19281 10.3308 8.85294 11.1005C8.83795 11.133 8.82795 11.1729 8.80296 11.1979C8.40062 11.6003 8.49308 12.0951 8.52557 12.5849C8.53806 12.7473 8.58305 12.8448 8.74798 12.8798C8.81796 12.8948 8.88293 12.9372 8.9479 12.9722C9.2028 13.1097 9.2203 13.3421 8.9579 13.467C8.72799 13.577 8.67801 13.7019 8.7155 13.9519C8.87793 14.9964 9.01538 16.046 9.15032 17.0956C9.19031 17.4055 9.19031 17.7204 9.19281 18.0328C9.19531 18.1727 9.2153 18.2452 9.38274 18.2602C9.84006 18.2977 9.95251 18.4226 9.95251 18.8899C9.95751 20.1319 9.96001 21.3765 9.95251 22.6185C9.95251 22.8134 9.99 22.9034 10.2024 22.9558C10.9946 23.1558 11.0246 23.2107 11.0321 24.0279C11.0371 24.6177 11.0446 25.205 11.0471 25.7947C11.0471 25.8097 11.0321 25.8272 11.0146 25.8622C10.9196 25.8697 10.8122 25.8797 10.6747 25.8922C10.6597 26.0396 10.6447 26.1871 10.6297 26.3545C10.5098 26.3545 10.3948 26.3545 10.2549 26.3545C10.2549 27.3541 10.2549 28.3362 10.2549 29.3458C10.6572 29.0635 11.0446 28.7736 11.4469 28.5112C12.8189 27.619 14.2009 26.7394 15.5728 25.8472C15.6828 25.7747 15.7877 25.6473 15.8252 25.5248C15.9252 25.2 16.1501 24.9975 16.4125 24.8201C16.5574 24.7226 16.7074 24.6327 16.8548 24.5377C17.2247 24.3053 17.2572 23.9529 16.9398 23.6506C16.7773 23.4956 16.8273 23.2532 17.0372 23.0833C17.0897 23.0408 17.0972 22.9408 17.1222 22.8659C17.2122 22.5935 17.1672 22.3561 16.9723 22.1337C16.9473 22.1062 17.0572 21.9287 17.1347 21.8463C17.2247 21.7488 17.3046 21.6738 17.1797 21.5489C17.1522 21.5214 17.1247 21.4439 17.1372 21.4314C17.4296 21.1515 17.0647 21.0441 16.9823 20.8592C17.0023 20.8242 17.0123 20.7817 17.0372 20.7642C17.4446 20.4743 17.3046 20.0445 17.3171 19.6571C17.3196 19.5921 17.2722 19.5247 17.2422 19.4622C17.2172 19.4147 17.1547 19.3697 17.1572 19.3298C17.1672 19.2023 17.2022 19.0774 17.2272 18.9499C17.2996 19.0324 17.3696 19.1123 17.4871 19.2448C17.5021 19.2448 17.597 19.2448 17.697 19.2448C17.7295 19.1423 17.7595 19.0424 17.8044 18.8999C17.9594 19.0923 17.9969 19.2848 17.8669 19.4172C17.6645 19.6221 17.7695 19.8495 17.7595 20.0645C17.7495 20.2819 17.702 20.5118 17.9719 20.6667C18.1468 20.7667 18.0643 20.9641 17.9269 21.0566C17.7895 21.149 17.802 21.2065 17.8569 21.344C17.9019 21.4564 17.8669 21.6014 17.8669 21.7313C17.8419 21.7388 17.8194 21.7438 17.7945 21.7513C17.8394 21.7788 17.8844 21.8038 17.9294 21.8313C18.1693 21.9912 18.1768 22.1586 17.9744 22.3686C17.9194 22.4235 17.8894 22.531 17.8944 22.611C17.9019 22.7334 17.9494 22.8509 17.9794 22.9708C17.9544 22.9808 17.9294 22.9908 17.9044 23.0008C17.9644 23.0408 18.0244 23.0808 18.0818 23.1233C18.3143 23.3007 18.3143 23.5131 18.0793 23.6905C17.8319 23.878 17.8569 24.3303 18.1243 24.4877C18.2743 24.5777 18.4242 24.6652 18.5766 24.7526C18.9315 24.9601 19.2039 25.2274 19.2664 25.6623C19.2764 25.7397 19.3463 25.8322 19.4138 25.8772C20.4759 26.5544 21.563 27.1917 22.6001 27.9014C23.7821 28.7111 24.9667 29.5283 26.0712 30.4379C27.833 31.8899 29.32 33.5917 30.2671 35.7034C30.9968 37.3327 31.3342 39.0271 31.0193 40.8114C30.9893 40.9863 31.0368 41.0563 31.2167 41.0863C31.769 41.1787 31.829 41.2512 31.784 41.816C31.734 42.4382 31.6565 43.0605 31.5891 43.6827C31.5766 43.7902 31.5666 43.8977 31.5516 44.0401C31.9214 44.0801 32.2663 44.1126 32.6087 44.1526C32.996 44.1975 33.161 44.3925 33.1235 44.7873C33.0435 45.602 32.9535 46.4167 32.8711 47.2314C32.8611 47.3313 32.8561 47.4313 32.8486 47.5287C33.126 47.5762 33.3909 47.5987 33.6408 47.6712C34.6329 47.9586 34.7578 48.5608 34.6204 49.328C34.5854 49.518 34.4205 49.6954 34.288 49.8553C34.1806 49.9853 34.1331 50.0977 34.1606 50.2752C34.328 51.3098 34.4804 52.3469 34.6379 53.384C34.6504 53.4739 34.6579 53.5639 34.6729 53.6788C23.2673 53.6888 11.8843 53.6888 0.453718 53.6888ZM0.851063 53.299C12.0067 53.299 23.1199 53.299 34.2505 53.299C34.233 53.1341 34.223 53.0066 34.2031 52.8792C34.0681 52.0345 33.9332 51.1898 33.7957 50.3451C33.7532 50.0828 33.7532 49.8428 33.9731 49.6404C34.0881 49.5355 34.1606 49.383 34.268 49.2281C32.2638 49.1131 30.3096 48.9957 28.3553 48.8932C26.5186 48.7983 24.6793 48.6833 22.84 48.6408C19.4538 48.5633 16.0676 48.4959 12.6814 48.4959C10.6497 48.4959 8.61553 48.6133 6.58633 48.7258C4.98945 48.8132 3.39507 48.9682 1.80069 49.1006C1.43334 49.1306 1.06848 49.2006 0.703621 49.2531C0.683628 49.2731 0.661137 49.2931 0.641145 49.313C1.28589 49.7629 1.14595 50.3776 1.06848 50.9824C1.05598 51.0824 1.05099 51.1848 1.04099 51.2848C0.976014 51.9545 0.913539 52.6218 0.851063 53.299ZM5.6142 33.954C5.64419 33.9765 5.67168 33.9965 5.70167 34.019C5.72416 33.969 5.73916 33.9141 5.77164 33.8741C6.18398 33.3468 6.59132 32.8145 7.02116 32.2997C7.18359 32.1048 7.28105 31.9198 7.26606 31.6599C7.24607 31.3026 7.26106 30.9427 7.26606 30.5829C7.26606 30.5029 7.26356 30.3804 7.31104 30.3505C7.49847 30.2305 7.46598 30.0531 7.46848 29.8831C7.47098 29.5508 7.47848 29.2209 7.47098 28.8885C7.46598 28.6836 7.50347 28.5562 7.75337 28.5661C7.97828 28.5761 8.13572 28.5886 8.13322 28.886C8.12573 29.5608 8.06075 30.2455 8.43311 30.8652C8.67301 30.6603 8.93541 30.4054 9.22779 30.188C9.40772 30.0556 9.45771 29.9031 9.45021 29.6957C9.44021 29.3333 9.44771 28.9685 9.44771 28.6186C9.84505 28.5462 9.86005 28.5586 9.86005 28.8835C9.86005 29.1309 9.86005 29.3808 9.86005 29.6282C9.89753 29.6332 9.93502 29.6382 9.9725 29.6432C10.0025 29.5133 10.0575 29.3833 10.06 29.2534C10.07 28.5537 10.065 27.8564 10.0675 27.1567C10.0675 26.8468 10.0675 26.5369 10.0675 26.2221C10.2324 26.2046 10.3574 26.1896 10.4823 26.1771C10.4948 26.0096 10.5048 25.8672 10.5148 25.7223C10.6547 25.7123 10.7697 25.7023 10.8622 25.6948C10.9646 25.3974 10.8372 25.225 10.6048 25.1175C10.3873 25.02 10.1699 24.9226 9.94252 24.8551C8.9529 24.5702 7.9383 24.5752 6.93119 24.6627C6.36391 24.7127 5.79663 24.8826 5.24935 25.055C4.83701 25.185 4.78453 25.3374 4.867 25.6923C4.97695 25.7048 5.09191 25.7198 5.21436 25.7348C5.22436 25.8947 5.23185 26.0371 5.24185 26.1946C5.3743 26.1946 5.48176 26.1946 5.6192 26.1946C5.61421 28.7911 5.6142 31.3726 5.6142 33.954ZM5.91659 22.7934C6.58882 22.7334 7.21858 22.631 7.84833 22.6335C8.48558 22.6335 9.12533 22.7359 9.78008 22.7959C9.78258 22.7509 9.79257 22.6809 9.79257 22.611C9.79257 21.3765 9.79008 20.1444 9.78508 18.9099C9.78508 18.8274 9.77508 18.745 9.76509 18.6625C9.74259 18.5001 9.65013 18.4201 9.48519 18.4226C8.4481 18.4251 7.4085 18.4176 6.37141 18.4301C5.97656 18.4351 5.92908 18.4976 5.92408 18.8874C5.91659 19.6971 5.91909 20.5068 5.91659 21.319C5.91409 21.8013 5.91659 22.2861 5.91659 22.7934ZM10.9246 25.07C10.9246 24.6827 10.9296 24.2628 10.9221 23.8405C10.9146 23.3682 10.8347 23.2632 10.3898 23.1333C9.51019 22.8759 8.61553 22.7309 7.69589 22.7684C6.83873 22.8034 5.98906 22.8859 5.17688 23.1907C4.97445 23.2657 4.80702 23.3757 4.80452 23.6156C4.79702 24.1004 4.80202 24.5852 4.80202 25.0425C6.86372 24.2803 8.88543 24.2653 10.9246 25.07ZM9.04537 9.19121C9.02537 8.99629 9.01538 8.6914 8.9554 8.39402C8.85044 7.86922 8.713 7.34943 8.30565 6.96208C8.00827 6.67719 7.75087 6.6497 7.45349 6.92209C7.25856 7.10202 7.09613 7.34193 6.98367 7.58684C6.67629 8.25408 6.62631 8.97129 6.67379 9.69351C6.71128 10.2683 6.84622 10.8231 7.1536 11.3179C7.56344 11.9776 8.11073 11.9801 8.52557 11.3304C8.92541 10.7131 9.02537 10.0184 9.04537 9.19121ZM9.02787 18.2327C9.03537 18.1227 9.06036 18.0128 9.04786 17.9078C8.88293 16.5583 8.713 15.2064 8.53806 13.8569C8.53057 13.7969 8.47059 13.6969 8.43311 13.6969C8.01577 13.6845 7.59593 13.6895 7.1611 13.6895C7.06364 15.2314 6.61381 16.6933 6.6538 18.2327C7.45099 18.2327 8.21319 18.2327 9.02787 18.2327ZM15.3054 46.9965C15.3054 46.4492 15.3279 45.9169 15.2979 45.3896C15.2779 45.0472 14.9231 44.7848 14.5782 44.7898C14.2608 44.7948 13.8735 45.0822 13.8635 45.3696C13.8435 45.9069 13.8585 46.4467 13.8585 46.9965C14.3658 46.9965 14.8281 46.9965 15.3054 46.9965ZM20.8583 46.994C20.8583 46.4542 20.8683 45.9494 20.8558 45.4421C20.8483 45.0922 20.5484 44.8148 20.1935 44.7948C19.8536 44.7748 19.4463 45.0597 19.4313 45.3821C19.4063 45.9119 19.4238 46.4442 19.4238 46.994C19.9036 46.994 20.3685 46.994 20.8583 46.994ZM26.3661 47.1764C26.3661 46.6491 26.3811 46.1543 26.3611 45.662C26.3486 45.3846 25.9988 45.1197 25.7164 45.1222C25.3865 45.1247 25.0791 45.3821 25.0616 45.7095C25.0416 46.1218 25.0466 46.5366 25.0591 46.949C25.0616 47.0089 25.1691 47.1114 25.2341 47.1164C25.6014 47.1514 25.9688 47.1589 26.3661 47.1764ZM9.65263 47.1364C9.65263 46.6141 9.67012 46.1443 9.64513 45.6795C9.62764 45.3721 9.33775 45.1372 9.04786 45.1347C8.74798 45.1322 8.39312 45.3721 8.37813 45.647C8.35064 46.1468 8.37063 46.6516 8.37063 47.1364C8.81046 47.1364 9.2203 47.1364 9.65263 47.1364ZM31.2792 47.4638C31.2792 46.989 31.2917 46.5766 31.2717 46.1643C31.2642 46.0168 31.2117 45.8519 31.1293 45.7295C30.9893 45.5245 30.7819 45.3946 30.5145 45.4671C30.2646 45.532 30.0972 45.7619 30.0922 46.0443C30.0872 46.4117 30.0797 46.779 30.0947 47.1464C30.0972 47.2264 30.1871 47.3613 30.2521 47.3688C30.587 47.4188 30.9243 47.4338 31.2792 47.4638ZM3.63498 47.4538C4.00483 47.4263 4.3447 47.4063 4.67957 47.3663C4.73205 47.3613 4.81452 47.2663 4.81702 47.2114C4.82701 46.789 4.83951 46.3642 4.80952 45.9419C4.77953 45.552 4.37969 45.3571 4.02982 45.5295C3.76992 45.657 3.65247 45.8819 3.63998 46.1518C3.62248 46.5666 3.63498 46.979 3.63498 47.4538ZM7.76836 3.02611C7.76836 3.326 7.75837 3.61089 7.77086 3.89578C7.77836 4.10569 7.72338 4.26063 7.55095 4.39308C7.34103 4.55552 7.36102 4.68797 7.51846 4.88039C7.60093 4.98035 7.6684 5.13029 7.6634 5.25275C7.64591 5.69757 7.59343 6.1399 7.55345 6.57973C7.76836 6.57973 7.94829 6.57973 8.15071 6.57973C8.12323 6.1324 8.08324 5.67508 8.07574 5.21776C8.07325 5.09031 8.13572 4.94037 8.21569 4.83541C8.36813 4.63299 8.33814 4.42057 8.10573 4.32061C8.02576 4.28562 7.9433 4.26063 7.86333 4.23064C7.89082 4.22065 7.91831 4.20815 7.9458 4.19816C7.9458 4.00573 7.9458 3.81331 7.9458 3.62088C7.9458 3.42096 7.9458 3.22104 7.9458 3.03361C8.07075 3.00112 8.15571 2.98113 8.23818 2.95864C7.80335 2.94115 7.9208 2.65876 7.95079 2.41385C7.95579 2.37137 7.90081 2.32139 7.87332 2.27391C7.85333 2.28141 7.83584 2.2889 7.81585 2.2989C7.79585 2.47133 7.77836 2.64126 7.75837 2.8062C7.64841 2.84369 7.55095 2.87617 7.45099 2.90866C7.45349 2.92865 7.45349 2.94864 7.45599 2.96864C7.55095 2.98613 7.64591 3.00362 7.76836 3.02611ZM14.3333 43.3729C14.3333 42.933 14.3433 42.5307 14.3308 42.1284C14.3208 41.8335 14.1109 41.6161 13.861 41.6061C13.6161 41.5961 13.3487 41.801 13.3312 42.0759C13.3037 42.5007 13.3237 42.928 13.3237 43.3729C13.6561 43.3729 13.9734 43.3729 14.3333 43.3729ZM16.0801 43.3429C16.0801 42.8956 16.1001 42.4657 16.0726 42.0384C16.0551 41.7685 15.8227 41.5861 15.5978 41.5886C15.3604 41.5911 15.108 41.7885 15.0905 42.0509C15.0655 42.4782 15.083 42.9056 15.083 43.3429C15.4104 43.3429 15.7278 43.3429 16.0801 43.3429ZM18.8116 43.3354C19.1739 43.3354 19.4988 43.3354 19.8537 43.3354C19.8337 42.8906 19.8287 42.4682 19.7912 42.0484C19.7637 41.7535 19.5513 41.5786 19.2989 41.5886C19.0265 41.6011 18.8216 41.801 18.8141 42.0909C18.8041 42.4957 18.8116 42.9006 18.8116 43.3354ZM21.5605 43.3704C21.5605 42.9355 21.578 42.5207 21.5555 42.1109C21.538 41.8035 21.3181 41.6061 21.0682 41.6086C20.8083 41.6111 20.5909 41.796 20.5734 42.0984C20.5484 42.5157 20.5659 42.933 20.5659 43.3704C20.9207 43.3704 21.2281 43.3704 21.5605 43.3704ZM26.4186 43.5828C26.4186 43.1255 26.4336 42.6831 26.4136 42.2433C26.4036 42.0184 26.2736 41.826 26.0237 41.816C25.7988 41.806 25.6414 41.9709 25.6289 42.1683C25.6014 42.6307 25.6189 43.0955 25.6189 43.5828C25.9013 43.5828 26.1562 43.5828 26.4186 43.5828ZM25.0241 43.5353C25.0016 43.023 24.9966 42.5657 24.9542 42.1109C24.9342 41.8984 24.7942 41.721 24.5518 41.741C24.3194 41.7585 24.1845 41.9334 24.1745 42.1508C24.1545 42.5882 24.1695 43.0255 24.1695 43.4828C24.4544 43.4978 24.7168 43.5153 25.0241 43.5353ZM10.7072 43.4728C10.7072 42.9855 10.7222 42.5207 10.6997 42.0584C10.6897 41.846 10.5123 41.756 10.3074 41.756C10.1075 41.756 9.92252 41.9584 9.90753 42.2408C9.88754 42.6581 9.90253 43.078 9.90253 43.5303C10.1824 43.5103 10.4323 43.4928 10.7072 43.4728ZM7.84583 2.17645C8.2032 2.18894 8.50058 1.89156 8.51307 1.5142C8.52307 1.19433 8.21319 0.876954 7.88332 0.869457C7.49347 0.85946 7.20358 1.12436 7.19859 1.50421C7.19109 1.88406 7.46098 2.16395 7.84583 2.17645ZM9.26028 43.5778C9.26028 43.1929 9.26028 42.8456 9.26028 42.5007C9.26028 42.3908 9.26278 42.2808 9.24779 42.1708C9.2103 41.8984 8.9529 41.7235 8.76548 41.8685C8.63553 41.9684 8.50808 42.1533 8.49308 42.3083C8.4556 42.7256 8.48059 43.1455 8.48059 43.5778C8.72799 43.5778 8.9704 43.5778 9.26028 43.5778ZM29.9847 43.9027C30.2346 43.9177 30.4645 43.9302 30.7119 43.9451C30.7119 43.4728 30.7419 43.0305 30.6944 42.5957C30.6794 42.4507 30.462 42.3308 30.3371 42.1983C30.2196 42.3383 30.0172 42.4682 30.0022 42.6182C29.9547 43.033 29.9847 43.4578 29.9847 43.9027ZM29.4149 43.7927C29.4149 43.5178 29.4224 43.2604 29.4124 43.0055C29.4049 42.7981 29.4074 42.5782 29.34 42.3858C29.3 42.2658 29.1025 42.0884 29.0376 42.1109C28.8951 42.1608 28.7027 42.3133 28.6927 42.4382C28.6502 42.8781 28.6752 43.3254 28.6752 43.7902C28.9276 43.7927 29.155 43.7927 29.4149 43.7927ZM4.17227 43.9426C4.39968 43.9252 4.6071 43.9227 4.81202 43.8877C4.8595 43.8802 4.92447 43.7777 4.92447 43.7177C4.92447 43.3604 4.91448 43.003 4.88949 42.6457C4.87699 42.4457 4.79702 42.2608 4.56961 42.2183C4.40968 42.1883 4.18476 42.4132 4.17477 42.6432C4.15727 43.063 4.17227 43.4828 4.17227 43.9426ZM6.21147 43.7877C6.21147 43.3354 6.22397 42.923 6.20647 42.5107C6.19898 42.3133 6.12151 42.1084 5.8791 42.1059C5.64919 42.1034 5.52424 42.2908 5.51174 42.4857C5.48675 42.9205 5.50425 43.3579 5.50425 43.7877C5.73416 43.7877 5.96157 43.7877 6.21147 43.7877ZM8.38313 12.7473C8.36063 12.4424 8.33814 12.175 8.32065 11.9276C7.98328 11.9276 7.6909 11.9276 7.38351 11.9276C7.37102 12.18 7.35603 12.4574 7.34103 12.7473C7.6859 12.7473 8.01327 12.7473 8.38313 12.7473Z" fill="#4F4F4F"/>
<path d="M0.851058 53.299C0.913534 52.6217 0.97601 51.9545 1.03849 51.2873C1.04848 51.1873 1.05098 51.0848 1.06597 50.9849C1.14344 50.3826 1.28089 49.7654 0.638641 49.3155C0.658634 49.2955 0.681125 49.2756 0.701117 49.2556C1.06597 49.2031 1.43083 49.1356 1.79819 49.1031C3.39257 48.9682 4.98694 48.8157 6.58382 48.7283C8.61303 48.6183 10.6472 48.5009 12.6789 48.4984C16.0651 48.4959 19.4513 48.5658 22.8375 48.6433C24.6768 48.6858 26.516 48.7982 28.3528 48.8957C30.3096 48.9982 32.2638 49.1156 34.2655 49.2306C34.1581 49.383 34.0856 49.538 33.9706 49.6429C33.7482 49.8453 33.7507 50.0852 33.7932 50.3476C33.9306 51.1923 34.0681 52.037 34.2005 52.8816C34.2205 53.0091 34.2305 53.1365 34.248 53.3015C23.1174 53.299 12.0067 53.299 0.851058 53.299ZM17.9469 50.0378C17.9494 49.8078 17.697 49.5529 17.4721 49.5579C17.2347 49.5629 17.0023 49.8203 16.9998 50.0777C16.9973 50.3151 17.2072 50.5176 17.4646 50.5226C17.7345 50.5326 17.9444 50.3201 17.9469 50.0378ZM18.9465 51.1923C18.9415 50.9149 18.7566 50.73 18.4767 50.7275C18.2293 50.725 17.9969 50.9574 18.0044 51.2048C18.0119 51.4772 18.2143 51.6721 18.4842 51.6671C18.7591 51.6621 18.949 51.4672 18.9465 51.1923ZM17.4721 51.922C17.2072 51.9295 16.9873 52.1619 16.9998 52.4268C17.0098 52.6567 17.2422 52.8642 17.4821 52.8617C17.7345 52.8592 17.9519 52.6342 17.9469 52.3843C17.9419 52.1144 17.7345 51.9145 17.4721 51.922ZM19.8461 52.3918C19.8436 52.1369 19.6187 51.9095 19.3713 51.9145C19.1264 51.9195 18.9015 52.1569 18.9065 52.4043C18.9115 52.6367 19.1389 52.8567 19.3738 52.8567C19.6512 52.8567 19.8486 52.6617 19.8461 52.3918ZM15.9777 51.2123C15.9777 51.4597 16.1801 51.6671 16.43 51.6771C16.6674 51.6871 16.9098 51.4447 16.9073 51.2023C16.9048 50.9399 16.6899 50.725 16.435 50.7275C16.1676 50.7325 15.9777 50.9349 15.9777 51.2123ZM16.1126 52.3818C16.1101 52.1319 15.9052 51.9195 15.6653 51.917C15.4029 51.9145 15.183 52.1444 15.193 52.4168C15.2005 52.6742 15.4004 52.8667 15.6528 52.8592C15.9252 52.8517 16.1151 52.6517 16.1126 52.3818Z" fill="#4F4F4F"/>
<path d="M5.61421 33.954C5.61421 31.3725 5.61421 28.7911 5.61421 26.1946C5.47676 26.1946 5.3693 26.1946 5.23686 26.1946C5.22686 26.0371 5.21936 25.8947 5.20937 25.7347C5.08691 25.7198 4.97196 25.7073 4.862 25.6923C4.77953 25.3374 4.83201 25.185 5.24435 25.055C5.79164 24.8826 6.35642 24.7126 6.9262 24.6627C7.9333 24.5752 8.95041 24.5677 9.93752 24.8551C10.1649 24.9201 10.3848 25.0175 10.5998 25.1175C10.8322 25.2224 10.9596 25.3974 10.8572 25.6948C10.7622 25.7023 10.6497 25.7123 10.5098 25.7222C10.4998 25.8672 10.4898 26.0096 10.4773 26.1771C10.3524 26.1896 10.2274 26.2046 10.0625 26.2221C10.0625 26.5369 10.0625 26.8468 10.0625 27.1567C10.0625 27.8564 10.065 28.5561 10.055 29.2534C10.0525 29.3833 9.9975 29.5133 9.96751 29.6432C9.93002 29.6382 9.89254 29.6332 9.85505 29.6282C9.85505 29.3808 9.85505 29.1309 9.85505 28.8835C9.85505 28.5561 9.84006 28.5461 9.44271 28.6186C9.44271 28.9685 9.43522 29.3333 9.44521 29.6957C9.45021 29.9031 9.40023 30.0531 9.2228 30.188C8.93041 30.4054 8.66552 30.6578 8.42811 30.8652C8.05576 30.2455 8.12073 29.5608 8.12823 28.886C8.13073 28.5886 7.97329 28.5761 7.74838 28.5661C7.49847 28.5561 7.46099 28.6836 7.46599 28.8885C7.47348 29.2184 7.46599 29.5508 7.46349 29.8831C7.46099 30.0531 7.49597 30.2305 7.30605 30.3504C7.26107 30.3804 7.26356 30.5029 7.26107 30.5829C7.25607 30.9427 7.24357 31.3001 7.26107 31.6599C7.27606 31.9198 7.1786 32.1048 7.01616 32.2997C6.58633 32.8145 6.18149 33.3468 5.76665 33.8741C5.73416 33.9166 5.71917 33.9715 5.69668 34.019C5.67169 33.9965 5.6442 33.974 5.61421 33.954ZM6.36641 31.585C6.37391 31.585 6.38141 31.585 6.38891 31.5825C6.34392 30.8353 6.29894 30.0905 6.25646 29.3433C6.24646 29.1784 6.25396 29.0135 6.25146 28.846C6.24896 28.7061 6.26395 28.5586 6.05154 28.5561C5.84662 28.5536 5.84662 28.6886 5.83912 28.836C5.80163 29.4083 5.73916 29.9806 5.72417 30.5554C5.70417 31.2626 5.71667 31.9723 5.72666 32.6795C5.73166 32.9994 5.99156 32.8395 6.144 32.8695C6.30144 32.8994 6.37641 32.842 6.37141 32.6595C6.35642 32.3022 6.36641 31.9423 6.36641 31.585Z" fill="#4F4F4F"/>
<path d="M5.91658 22.7934C5.91658 22.2861 5.91658 21.7988 5.91658 21.314C5.91908 20.5043 5.91658 19.6946 5.92408 18.8824C5.92658 18.4926 5.97656 18.4301 6.3714 18.4251C7.4085 18.4126 8.44809 18.4201 9.48519 18.4176C9.65012 18.4176 9.74259 18.4976 9.76508 18.6575C9.77757 18.74 9.78507 18.8224 9.78507 18.9049C9.78757 20.1394 9.79007 21.3714 9.79257 22.606C9.79257 22.6759 9.78257 22.7484 9.78007 22.7909C9.12533 22.7309 8.48558 22.631 7.84833 22.6285C7.21857 22.6335 6.58882 22.7334 5.91658 22.7934Z" fill="#4F4F4F"/>
<path d="M10.9246 25.07C8.88292 24.2653 6.86371 24.2803 4.80202 25.04C4.80202 24.5827 4.79702 24.0979 4.80452 23.6131C4.80701 23.3732 4.97445 23.2632 5.17687 23.1882C5.98905 22.8834 6.83872 22.8009 7.69589 22.7659C8.61553 22.7284 9.51018 22.8759 10.3898 23.1308C10.8347 23.2607 10.9146 23.3657 10.9221 23.838C10.9296 24.2603 10.9246 24.6827 10.9246 25.07Z" fill="#4F4F4F"/>
<path d="M9.04535 9.1912C9.02536 10.0159 8.9254 10.7131 8.52805 11.3304C8.11322 11.9801 7.56593 11.9776 7.15609 11.3179C6.84871 10.8231 6.71376 10.2683 6.67628 9.6935C6.62879 8.97128 6.67877 8.25406 6.98615 7.58682C7.09861 7.34442 7.26105 7.10201 7.45597 6.92208C7.75336 6.64969 8.01076 6.67718 8.30814 6.96207C8.71298 7.34942 8.85293 7.86921 8.95789 8.39401C9.01536 8.69139 9.02536 8.99627 9.04535 9.1912Z" fill="#4F4F4F"/>
<path d="M9.02786 18.2327C8.21318 18.2327 7.45098 18.2327 6.65629 18.2327C6.6163 16.6933 7.06613 15.2314 7.16359 13.6895C7.59592 13.6895 8.01576 13.6845 8.43559 13.697C8.47308 13.697 8.53305 13.7994 8.54055 13.8569C8.71548 15.2064 8.88542 16.5558 9.05035 17.9078C9.06035 18.0128 9.03536 18.1202 9.02786 18.2327Z" fill="#4F4F4F"/>
<path d="M15.3054 46.9964C14.8281 46.9964 14.3658 46.9964 13.856 46.9964C13.856 46.4467 13.841 45.9069 13.861 45.3696C13.8735 45.0822 14.2583 44.7948 14.5757 44.7898C14.9206 44.7848 15.2754 45.0472 15.2954 45.3896C15.3279 45.9169 15.3054 46.4492 15.3054 46.9964Z" fill="white"/>
<path d="M20.8583 46.994C20.3685 46.994 19.9036 46.994 19.4213 46.994C19.4213 46.4442 19.4013 45.9119 19.4288 45.3821C19.4438 45.0597 19.8512 44.7748 20.191 44.7948C20.5459 44.8173 20.8458 45.0947 20.8533 45.4421C20.8658 45.9469 20.8583 46.4542 20.8583 46.994Z" fill="white"/>
<path d="M26.3661 47.1764C25.9663 47.1589 25.5989 47.1514 25.2341 47.1189C25.1691 47.1139 25.0616 47.0114 25.0591 46.9515C25.0441 46.5391 25.0391 46.1243 25.0616 45.712C25.0791 45.3846 25.3865 45.1272 25.7164 45.1247C25.9988 45.1222 26.3486 45.3896 26.3611 45.6645C26.3836 46.1568 26.3661 46.6516 26.3661 47.1764Z" fill="white"/>
<path d="M9.65264 47.1364C9.22031 47.1364 8.81047 47.1364 8.37064 47.1364C8.37064 46.6516 8.35065 46.1493 8.37813 45.647C8.39313 45.3721 8.74799 45.1322 9.04787 45.1347C9.33776 45.1372 9.62765 45.3721 9.64514 45.6795C9.67263 46.1468 9.65264 46.6141 9.65264 47.1364Z" fill="white"/>
<path d="M31.2792 47.4638C30.9218 47.4338 30.5845 47.4163 30.2521 47.3688C30.1871 47.3588 30.0971 47.2264 30.0946 47.1464C30.0796 46.779 30.0871 46.4117 30.0921 46.0443C30.0971 45.7619 30.2646 45.532 30.5145 45.4671C30.7844 45.3971 30.9893 45.5245 31.1292 45.7294C31.2117 45.8519 31.2642 46.0168 31.2717 46.1643C31.2917 46.5766 31.2792 46.989 31.2792 47.4638Z" fill="white"/>
<path d="M3.63497 47.4538C3.63497 46.9789 3.62247 46.5666 3.63997 46.1518C3.64996 45.8819 3.76742 45.657 4.02982 45.5295C4.37968 45.3571 4.77952 45.552 4.80951 45.9418C4.842 46.3642 4.827 46.789 4.81701 47.2114C4.81701 47.2663 4.73204 47.3613 4.67956 47.3663C4.34469 47.4063 4.00732 47.4263 3.63497 47.4538Z" fill="white"/>
<path d="M7.76835 3.02612C7.6459 3.00363 7.55094 2.98614 7.45847 2.97114C7.45597 2.95115 7.45597 2.93116 7.45347 2.91117C7.55343 2.87868 7.6509 2.84619 7.76085 2.80871C7.77835 2.64377 7.79834 2.47134 7.81833 2.3014C7.83832 2.29391 7.85582 2.28641 7.87581 2.27641C7.9033 2.32389 7.95828 2.37387 7.95328 2.41636C7.92329 2.66126 7.80584 2.94365 8.24067 2.96115C8.1557 2.98364 8.07323 3.00363 7.94828 3.03612C7.94828 3.22354 7.94828 3.42347 7.94828 3.62339C7.94828 3.81581 7.94828 4.00824 7.94828 4.20066C7.92079 4.21066 7.8933 4.22315 7.86581 4.23315C7.94578 4.26314 8.02825 4.28813 8.10822 4.32311C8.33813 4.42058 8.37062 4.63549 8.21817 4.83791C8.13821 4.94287 8.07573 5.09281 8.07823 5.22026C8.08573 5.67759 8.12571 6.13491 8.1532 6.58223C7.94828 6.58223 7.77085 6.58223 7.55593 6.58223C7.59592 6.1424 7.6484 5.70008 7.66589 5.25525C7.67089 5.1328 7.60092 4.98286 7.52095 4.8829C7.36101 4.69047 7.34352 4.55802 7.55343 4.39559C7.72587 4.26064 7.78334 4.1057 7.77335 3.89828C7.75835 3.61089 7.76835 3.326 7.76835 3.02612Z" fill="#4F4F4F"/>
<path d="M14.3333 43.3729C13.9759 43.3729 13.6586 43.3729 13.3237 43.3729C13.3237 42.9305 13.3037 42.5007 13.3312 42.0759C13.3487 41.801 13.6161 41.5986 13.861 41.6061C14.1109 41.6161 14.3208 41.831 14.3308 42.1284C14.3408 42.5307 14.3333 42.9305 14.3333 43.3729Z" fill="white"/>
<path d="M16.0801 43.3429C15.7278 43.3429 15.4104 43.3429 15.083 43.3429C15.083 42.908 15.063 42.4782 15.0905 42.0509C15.1055 41.791 15.3579 41.5936 15.5978 41.5886C15.8252 41.5861 16.0551 41.7685 16.0726 42.0384C16.1001 42.4657 16.0801 42.8955 16.0801 43.3429Z" fill="white"/>
<path d="M18.8116 43.3354C18.8116 42.9006 18.8041 42.4957 18.8141 42.0909C18.8216 41.801 19.029 41.6011 19.2989 41.5886C19.5513 41.5761 19.7637 41.751 19.7912 42.0484C19.8287 42.4682 19.8337 42.8906 19.8537 43.3354C19.4988 43.3354 19.1764 43.3354 18.8116 43.3354Z" fill="white"/>
<path d="M21.5605 43.3704C21.2306 43.3704 20.9207 43.3704 20.5634 43.3704C20.5634 42.9355 20.5434 42.5157 20.5709 42.0984C20.5908 41.796 20.8083 41.611 21.0657 41.6085C21.3156 41.606 21.5355 41.8035 21.553 42.1108C21.578 42.5232 21.5605 42.9355 21.5605 43.3704Z" fill="white"/>
<path d="M26.4186 43.5828C26.1562 43.5828 25.9013 43.5828 25.6189 43.5828C25.6189 43.0955 25.5989 42.6306 25.6289 42.1683C25.6414 41.9709 25.7963 41.8035 26.0237 41.816C26.2761 41.8285 26.4036 42.0184 26.4136 42.2433C26.4336 42.6831 26.4186 43.1255 26.4186 43.5828Z" fill="white"/>
<path d="M25.0241 43.5353C24.7167 43.5153 24.4568 43.5003 24.1695 43.4803C24.1695 43.023 24.1545 42.5832 24.1745 42.1483C24.1845 41.9334 24.3194 41.756 24.5518 41.7385C24.7942 41.721 24.9342 41.8984 24.9542 42.1084C24.9966 42.5657 25.0016 43.023 25.0241 43.5353Z" fill="white"/>
<path d="M10.7072 43.4728C10.4323 43.4928 10.1824 43.5103 9.90252 43.5303C9.90252 43.078 9.88753 42.6581 9.90752 42.2408C9.92002 41.9584 10.1074 41.7585 10.3074 41.756C10.5148 41.756 10.6897 41.8459 10.6997 42.0584C10.7222 42.5232 10.7072 42.988 10.7072 43.4728Z" fill="white"/>
<path d="M7.84583 2.17645C7.46098 2.16395 7.19108 1.88406 7.19858 1.50421C7.20607 1.12686 7.49346 0.859461 7.88331 0.869458C8.21318 0.876955 8.52056 1.19433 8.51306 1.51421C8.50057 1.89156 8.20319 2.18894 7.84583 2.17645Z" fill="#4F4F4F"/>
<path d="M9.26029 43.5778C8.97041 43.5778 8.728 43.5778 8.4781 43.5778C8.4781 43.1454 8.45311 42.7231 8.4906 42.3083C8.50559 42.1508 8.63304 41.9684 8.76299 41.8685C8.95042 41.726 9.20782 41.8984 9.2453 42.1708C9.2603 42.2783 9.2578 42.3907 9.2578 42.5007C9.2603 42.8456 9.26029 43.1929 9.26029 43.5778Z" fill="white"/>
<path d="M29.9847 43.9027C29.9847 43.4578 29.9547 43.0355 29.9997 42.6182C30.0172 42.4682 30.2171 42.3383 30.3346 42.1983C30.4595 42.3308 30.6769 42.4507 30.6919 42.5957C30.7394 43.028 30.7094 43.4703 30.7094 43.9452C30.4645 43.9302 30.2346 43.9177 29.9847 43.9027Z" fill="white"/>
<path d="M29.4149 43.7927C29.155 43.7927 28.9301 43.7927 28.6777 43.7927C28.6777 43.3279 28.6527 42.8806 28.6952 42.4407C28.7077 42.3158 28.9001 42.1633 29.0401 42.1134C29.105 42.0909 29.3 42.2683 29.3425 42.3883C29.4074 42.5807 29.4049 42.8006 29.4149 43.008C29.4224 43.2604 29.4149 43.5178 29.4149 43.7927Z" fill="white"/>
<path d="M4.17226 43.9426C4.17226 43.4853 4.15977 43.063 4.17726 42.6456C4.18726 42.4157 4.41217 42.1908 4.57211 42.2208C4.79952 42.2633 4.87699 42.4482 4.89198 42.6481C4.91697 43.0055 4.92447 43.3629 4.92697 43.7202C4.92697 43.7802 4.86199 43.8827 4.81451 43.8902C4.60709 43.9226 4.39717 43.9251 4.17226 43.9426Z" fill="white"/>
<path d="M6.21147 43.7877C5.96157 43.7877 5.73415 43.7877 5.50424 43.7877C5.50424 43.3554 5.48675 42.918 5.51174 42.4857C5.52424 42.2908 5.64919 42.1034 5.8791 42.1059C6.1215 42.1109 6.19647 42.3158 6.20647 42.5107C6.22396 42.9205 6.21147 43.3329 6.21147 43.7877Z" fill="white"/>
<path d="M8.38313 12.7473C8.01327 12.7473 7.6859 12.7473 7.34103 12.7473C7.35603 12.4574 7.36852 12.1775 7.38352 11.9276C7.6909 11.9276 7.98328 11.9276 8.32065 11.9276C8.33815 12.175 8.36064 12.4424 8.38313 12.7473Z" fill="#4F4F4F"/>
<path d="M17.9469 50.0378C17.9444 50.3202 17.7345 50.5326 17.4646 50.5251C17.2072 50.5176 16.9973 50.3177 16.9998 50.0803C17.0023 49.8229 17.2372 49.5655 17.4721 49.5605C17.6995 49.5555 17.9494 49.8104 17.9469 50.0378Z" fill="white"/>
<path d="M18.9465 51.1923C18.9515 51.4672 18.7591 51.6621 18.4817 51.6671C18.2118 51.6721 18.0094 51.4772 18.0019 51.2048C17.9969 50.9574 18.2268 50.725 18.4742 50.7275C18.7566 50.73 18.9415 50.9124 18.9465 51.1923Z" fill="white"/>
<path d="M17.4721 51.922C17.737 51.9146 17.9419 52.1145 17.9469 52.3844C17.9519 52.6343 17.7345 52.8592 17.4821 52.8617C17.2422 52.8642 17.0097 52.6568 16.9998 52.4269C16.9873 52.162 17.2047 51.9295 17.4721 51.922Z" fill="white"/>
<path d="M19.8461 52.3919C19.8486 52.6617 19.6512 52.8567 19.3738 52.8567C19.1389 52.8567 18.9115 52.6393 18.9065 52.4043C18.9015 52.1569 19.1289 51.9195 19.3713 51.9145C19.6187 51.9095 19.8436 52.1369 19.8461 52.3919Z" fill="white"/>
<path d="M15.9777 51.2123C15.9777 50.9349 16.1676 50.7325 16.435 50.73C16.6899 50.725 16.9048 50.9424 16.9073 51.2048C16.9098 51.4472 16.6674 51.6871 16.43 51.6796C16.1776 51.6671 15.9777 51.4597 15.9777 51.2123Z" fill="white"/>
<path d="M16.1126 52.3819C16.1151 52.6543 15.9252 52.8517 15.6528 52.8592C15.4004 52.8667 15.2005 52.6742 15.193 52.4168C15.183 52.1445 15.4029 51.9145 15.6653 51.917C15.9052 51.9195 16.1101 52.132 16.1126 52.3819Z" fill="white"/>
<path d="M6.36641 31.585C6.36641 31.9448 6.35641 32.3022 6.37141 32.6595C6.3789 32.8395 6.30143 32.8994 6.14399 32.8695C5.99155 32.8395 5.73166 32.9994 5.72666 32.6795C5.71666 31.9723 5.70417 31.2626 5.72416 30.5554C5.73915 29.9831 5.80163 29.4108 5.83911 28.836C5.84911 28.6911 5.84911 28.5536 6.05153 28.5561C6.26145 28.5586 6.24895 28.7061 6.25145 28.846C6.25395 29.011 6.24895 29.1784 6.25645 29.3433C6.29893 30.0905 6.34392 30.8377 6.3889 31.5825C6.3814 31.5825 6.37391 31.5825 6.36641 31.585Z" fill="#4F4F4F"/>
</svg>
