<svg width="49" height="54" viewBox="0 0 49 54" fill="none" xmlns="http://www.w3.org/2000/svg">
<g clip-path="url(#clip0_230_107777)">
<path d="M0.618866 53.7937C2.01887 51.2937 3.91887 49.5937 6.21887 48.1937C9.41887 46.1937 13.0189 44.8937 16.7189 44.1937C17.4189 44.0937 17.7189 43.7937 17.9189 43.0937C18.3189 41.3937 18.8189 39.7937 19.4189 37.9937C18.0189 37.3937 16.8189 38.0937 15.8189 39.1937C15.3189 37.3937 16.2189 36.3937 18.4189 36.0937C17.4189 34.7937 16.8189 34.7937 13.5189 35.7937C13.7189 33.5937 15.9189 32.4937 18.7189 32.7937C17.8189 32.3937 16.8189 31.9937 15.9189 31.5937C17.1189 29.4937 20.4189 30.1937 22.1189 32.9937C25.3189 31.7937 27.6189 32.6937 28.2189 35.4937C27.2189 35.2937 26.3189 34.9937 25.2189 34.7937C26.1189 35.6937 26.9189 36.2937 27.5189 37.0937C28.1189 37.9937 28.3189 39.0937 27.6189 40.5937C26.8189 38.4937 25.7189 36.9937 23.6189 37.3937C24.0189 38.1937 24.5189 38.9937 24.6189 39.8937C24.7189 40.3937 24.3189 41.0937 23.9189 41.5937C23.5189 40.0937 23.0189 38.9937 21.2189 38.3937C20.9189 40.0937 20.5189 41.6937 20.3189 43.0937C25.2189 43.3937 29.9189 43.7937 34.8189 44.0937C34.3189 35.6937 31.1189 28.0937 25.6189 21.1937C23.9189 22.2937 22.2189 23.3937 22.2189 25.4937C22.2189 27.2937 22.9189 29.0937 23.2189 30.6937C18.8189 29.3937 17.8189 24.7937 21.3189 20.3937C18.6189 20.8937 16.2189 21.5937 14.8189 24.0937C13.5189 26.3937 13.7189 28.8937 14.1189 31.6937C11.5189 29.2937 10.6189 26.5937 11.0189 23.3937C11.4189 20.1937 13.1189 17.7937 16.3189 16.1937C12.8189 16.5937 11.1189 17.7937 8.41887 21.3937C7.41887 19.8937 7.81887 16.8937 9.31887 14.4937C11.6189 10.7937 15.1189 9.49374 19.6189 10.4937C19.6189 6.29374 21.3189 3.39374 25.1189 1.69374C28.0189 0.393742 31.1189 0.593742 33.5189 2.19374C29.7189 2.59374 27.6189 4.99374 26.2189 8.19374C28.4189 5.79374 31.0189 4.69374 34.2189 4.99374C37.4189 5.29374 39.8189 6.79374 41.5189 9.69374C34.9189 7.59374 30.0189 10.2937 29.0189 14.4937C31.3189 12.8937 33.6189 12.5937 35.9189 14.0937C37.7189 15.2937 38.6189 16.9937 38.4189 19.2937C37.0189 17.4937 35.4189 16.2937 33.2189 16.3937C31.3189 16.4937 29.9189 17.5937 28.7189 18.7937C36.9189 26.5937 41.4189 36.3937 44.9189 46.6937C45.6189 48.6937 45.9189 50.7937 47.6189 52.2937C48.0189 52.5937 48.1189 53.1937 48.5189 53.7937C32.5189 53.7937 16.6189 53.7937 0.618866 53.7937Z" fill="#4F4F4F"/>
</g>
<defs>
<clipPath id="clip0_230_107777">
<rect width="47.8" height="53" fill="white" transform="translate(0.618866 0.793732)"/>
</clipPath>
</defs>
</svg>
