<svg width="65" height="54" viewBox="0 0 65 54" fill="none" xmlns="http://www.w3.org/2000/svg">
<g clip-path="url(#clip0_230_107693)">
<path d="M34.4404 1.14002C33.5963 2.73451 33.4766 4.16406 34.2917 5.68093C34.8641 6.74501 35.2878 7.89318 35.6921 9.03487C35.9314 9.7173 35.6727 9.99222 34.932 10.0504C34.5892 10.0763 34.2399 10.0375 33.8938 10.0601C33.5187 10.086 33.4378 10.2833 33.6513 10.5906C33.7548 10.7393 33.8712 10.8849 33.9941 11.0175C34.3951 11.4541 34.5795 11.8649 34.0555 12.3791C33.9229 12.5085 33.9391 12.9386 34.0491 13.1392C34.6312 14.1903 35.2619 15.2156 36.3034 15.8948C36.4036 15.9594 36.5265 16.0306 36.5783 16.1309C36.6591 16.2796 36.74 16.464 36.7141 16.6128C36.7012 16.6872 36.4554 16.7292 36.3098 16.7745C36.0931 16.8424 35.8732 16.9039 35.6533 16.9685C35.7632 17.2143 35.8247 17.499 35.9896 17.6995C36.284 18.0585 36.6656 18.3431 36.9664 18.6989C37.2381 19.0191 37.2122 19.2875 36.7659 19.5042C36.1675 19.7985 35.5951 20.1543 35.042 20.5295C34.9223 20.6103 34.8318 20.9176 34.8868 21.0534C35.2684 21.972 35.6824 22.8743 36.1061 23.7734C36.5815 24.7858 36.5686 24.8634 35.5854 25.3259C35.2684 25.4747 35.1067 25.6364 35.2361 26.031C35.4236 26.6067 35.4851 27.2309 35.7115 27.7872C36.1902 28.9742 37.0246 29.8248 38.2795 30.2129C38.2989 30.2193 38.3248 30.2193 38.3377 30.2291C38.5188 30.394 38.6967 30.5622 38.8778 30.7304C38.6256 30.7886 38.3151 30.9697 38.1275 30.8856C37.2801 30.5072 36.4651 30.0544 35.6403 29.6242C35.1746 29.3817 34.683 29.1682 34.2593 28.8674C33.8583 28.5828 33.3861 28.2594 33.1952 27.8389C32.7101 26.7813 31.9274 26.0116 31.0833 25.2741C29.4014 23.8058 28.0721 22.0819 27.3735 19.9344C27.186 19.3587 27.1083 18.7474 26.9854 18.1523C26.9013 17.7545 26.7235 17.431 26.2577 17.5087C25.6109 17.6219 25.3133 17.2661 25.129 16.7421C24.8152 15.843 24.5274 14.9342 24.2072 14.0351C24.0196 13.5111 23.79 13.0066 23.5797 12.4891C23.5312 12.502 23.4827 12.5149 23.4342 12.5247C23.3307 13.0389 23.2595 13.5596 23.1172 14.0642C22.9394 14.6851 22.7291 15.2997 22.4866 15.9012C22.2052 16.6031 22.1664 17.2402 22.5577 17.9388C22.7388 18.2655 22.7582 18.7636 22.6677 19.142C22.4574 20.0185 22.5092 20.2416 23.1884 20.827C23.7512 21.3154 24.2589 21.8685 24.7894 22.3956C25.1548 22.7579 25.116 23.1428 24.7635 23.4565C24.4012 23.7767 23.9937 24.0451 23.5894 24.3168C22.7679 24.8731 22.7097 25.3194 23.5086 25.9113C24.5371 26.6681 25.6141 27.3603 26.6814 28.0653C27.0081 28.282 27.0986 28.4728 27.0048 28.9062C26.7881 29.8992 27.4867 30.5137 28.1271 31.1185C28.3374 31.3158 28.5605 31.5001 28.7772 31.6909C28.7416 31.7524 28.7061 31.8138 28.6705 31.8753C28.4861 31.8106 28.2759 31.7847 28.1271 31.6748C27.5579 31.2608 27.0081 30.8177 26.4485 30.3875C26.2545 30.2388 26.0637 30.09 25.8631 29.9509C24.7635 29.1844 23.6541 28.434 22.5706 27.6481C22.1437 27.3408 21.7977 27.2697 21.306 27.5608C20.1805 28.227 19.2426 28.0556 18.3564 27.1015C18.0782 26.804 17.8421 26.4708 17.5769 26.1636C17.247 25.7819 16.8686 25.7011 16.4546 26.031C15.3647 26.901 14.1421 27.3926 12.7417 27.5802C12.069 27.6707 11.4383 28.1041 10.7947 28.3952C10.6135 28.4793 10.4615 28.641 10.2772 28.7089C10.1737 28.7445 10.0281 28.6572 9.89877 28.6281C9.93758 28.5052 9.95052 28.3693 10.0184 28.2691C10.0831 28.1721 10.1996 28.1074 10.3031 28.0459C11.5903 27.2503 12.5056 26.1377 13.091 24.7534C13.5179 23.7508 14.1842 22.9455 15.0801 22.3407C16.1021 21.6518 16.7328 20.7138 17.1015 19.5366C17.4088 18.5501 17.8421 17.6057 18.2206 16.6419C18.3305 16.3605 18.4793 16.257 18.8286 16.3508C19.5337 16.5449 19.9541 16.3961 20.2064 15.7039C20.7401 14.2453 21.8203 13.1812 22.7259 11.991C23.1172 11.48 23.3372 11.48 23.6283 12.0427C24.0325 12.8287 24.3786 13.6469 24.7408 14.4523C24.8314 14.6496 24.8929 14.8598 25.0449 15.2738C25.5591 14.5299 26.0637 13.9704 26.3742 13.3138C27.0242 11.9392 27.5805 10.5226 28.1498 9.1125C28.3147 8.70174 28.4182 8.40742 29.0004 8.58531C29.2365 8.65646 29.6699 8.36861 29.8963 8.12928C30.8924 7.08784 31.4972 5.82001 31.7172 4.40663C31.9468 2.92857 32.8847 1.88713 33.7645 0.803652C34.0879 0.405837 34.4825 0.629001 34.683 0.952428C35.1584 1.72542 35.6824 2.49841 35.9735 3.34579C36.491 4.84973 36.934 6.36336 38.0078 7.59562C38.1372 7.7444 38.2472 7.93846 38.2957 8.12928C38.7161 9.77229 39.6832 11.0886 40.7731 12.3403C41.0254 12.6281 41.213 12.971 41.4685 13.3462C41.6076 13.1521 41.724 12.971 41.8566 12.8028C42.7072 11.7484 43.5643 10.6973 44.4182 9.64292C44.7772 9.19982 45.0294 9.29361 45.3593 9.73024C46.087 10.6941 46.4849 11.784 46.7792 12.9322C46.9603 13.6405 47.1576 14.3455 47.3969 15.0312C47.4584 15.2091 47.7365 15.4581 47.8756 15.4355C48.7197 15.2932 49.0626 15.8204 49.3181 16.4543C49.6447 17.2629 49.9261 18.0908 50.2398 18.9059C50.4759 19.5107 50.7379 20.1058 50.9805 20.7074C51.2101 21.2734 51.5465 21.6162 52.2322 21.6809C52.9631 21.7488 53.2639 22.3536 53.4579 23.0263C53.6552 23.7023 53.9075 24.3653 54.2018 25.0057C54.9813 26.6778 56.3947 27.8033 57.7466 28.9709C58.0053 29.1941 58.3417 29.3235 58.6392 29.4949C58.5454 29.6016 58.4517 29.7083 58.3579 29.8151C58.1832 29.7374 57.9827 29.6954 57.8404 29.5822C56.1359 28.185 54.4573 26.7619 53.542 24.679C53.3156 24.1616 53.1766 23.6053 52.989 23.0716C52.782 22.4765 52.4197 22.1531 51.7341 22.1143C51.4527 22.0981 51.0678 21.7908 50.9449 21.5192C50.2884 20.0605 49.6997 18.5663 49.082 17.0882C48.9558 16.7907 48.862 16.4575 48.655 16.2214C48.4966 16.0403 48.1764 15.8721 47.95 15.898C47.4713 15.9497 47.1738 15.7557 47.0411 15.3643C46.7533 14.5234 46.5528 13.6534 46.2649 12.8093C45.99 12.0072 45.6569 11.2277 45.3367 10.4418C45.2979 10.3448 45.175 10.2833 45.2008 10.3092C45.01 11.0789 44.8192 11.8875 44.609 12.6928C44.5184 13.0454 44.3761 13.385 44.292 13.7407C44.0559 14.7466 44.1853 14.973 45.1588 15.3191C45.7507 15.5293 46.0288 16.0241 45.7086 16.6386C45.1297 17.7448 45.4628 18.6213 46.1744 19.4848C46.4428 19.8115 46.6336 20.206 46.8956 20.5392C47.6007 21.4351 47.84 22.3892 47.4196 23.4953C47.3225 23.7476 47.3743 24.1195 47.4875 24.3783C48.0179 25.5814 48.5936 26.7619 49.1564 27.9489C49.2243 28.0944 49.3278 28.2238 49.3989 28.3693C49.4216 28.4179 49.4022 28.4858 49.4022 28.6928C49.1758 28.5731 48.9494 28.5278 48.8588 28.3888C47.8174 26.8363 46.7792 25.2839 45.7862 23.7055C45.534 23.3012 45.4661 22.787 45.2526 22.3536C45.0133 21.8749 44.7804 21.3574 44.4084 20.9952C43.5772 20.1802 42.9077 19.2907 42.5779 18.1652C42.2059 16.9039 41.8825 15.6263 41.462 14.3811C41.2712 13.8151 40.9251 13.2944 40.5952 12.7866C40.33 12.3791 39.9969 12.0169 39.6735 11.6514C38.991 10.8784 38.5447 9.98898 38.1857 9.0187C37.9334 8.3298 37.4386 7.73793 37.1119 7.07167C36.6753 6.18871 36.271 5.28635 35.8958 4.37429C35.6209 3.70156 35.4463 2.98355 35.1681 2.31082C35.0032 1.92271 34.725 1.58958 34.4404 1.14002ZM31.1124 22.7449C31.1835 22.7191 31.2514 22.6932 31.3226 22.6641C31.1997 22.0334 31.0477 21.406 30.9668 20.7688C30.886 20.1543 30.7242 19.488 30.8827 18.922C31.08 18.2234 31.0218 17.6574 30.6822 17.0688C30.4914 16.7357 30.2909 16.4058 30.1 16.0694C29.7443 15.4355 29.8736 14.9309 30.514 14.5914C30.8148 14.4296 31.1479 14.31 31.4811 14.2323C32.0277 14.103 32.0632 13.841 31.7883 13.4076C31.5166 12.9807 31.2288 12.5505 31.038 12.0848C30.9086 11.7646 30.8536 11.3733 30.8989 11.0337C31.038 10.0601 31.245 9.09956 31.4228 8.13251C30.6369 9.04134 29.7701 9.88549 30.3264 11.2439C30.6013 11.9166 30.3361 12.502 29.7572 12.9613C29.2947 13.3268 28.8613 13.7278 28.4376 14.1353C28.0915 14.4684 28.0301 14.8663 28.2791 15.2997C28.622 15.898 28.871 16.5804 29.3206 17.085C30.155 18.0197 30.417 18.8703 29.4467 19.86C29.1621 20.1511 29.2785 20.4648 29.5599 20.7688C29.9577 21.1957 30.2941 21.6776 30.6531 22.1369C30.8051 22.3342 30.9571 22.5412 31.1124 22.7449ZM16.8622 24.8408C16.9171 24.8149 17.0821 24.7567 17.2341 24.6726C17.8001 24.3621 18.3532 24.0645 18.1009 23.2301C18.0491 23.0587 18.2206 22.7547 18.3758 22.6026C18.9127 22.0787 19.4722 21.5806 20.0479 21.1019C21.0602 20.2578 21.0667 20.2675 20.1902 19.239C19.7698 18.7474 19.773 18.4337 20.2032 17.9582C20.3681 17.7771 20.5395 17.6025 20.7109 17.4246C20.6721 17.3825 20.6333 17.3437 20.5977 17.3017C20.1546 17.6704 19.7051 18.0358 19.2717 18.4143C18.9192 18.7215 18.9515 19.0417 19.2879 19.3425C19.4075 19.4525 19.5369 19.5495 19.6566 19.6595C20.1838 20.1349 20.1999 20.3936 19.6307 20.8206C19.097 21.2184 18.4696 21.4965 17.9618 21.9202C17.6319 22.1951 17.3538 22.6091 17.2179 23.0166C17.0174 23.615 16.9689 24.2554 16.8622 24.8408ZM32.7683 17.8774C32.4416 18.2105 32.3543 18.576 32.6195 18.9382C33.4798 20.0993 33.5348 21.2378 32.5937 22.3795C32.5678 22.4086 32.5548 22.4506 32.5354 22.4862C32.0665 23.408 32.1182 23.9384 32.8006 24.7082C33.0562 24.996 33.3602 25.245 33.6416 25.5135C33.5413 25.1512 33.3537 24.8472 33.2146 24.5206C32.8006 23.5535 32.9656 22.6091 33.3828 21.6906C33.8486 20.6718 33.8259 19.6918 33.2308 18.7312C33.0594 18.4595 32.9235 18.1685 32.7683 17.8774ZM44.5055 18.8185C44.5378 18.7959 44.5734 18.7733 44.6057 18.7506C44.3923 18.3463 44.2403 17.8935 43.9589 17.5442C43.0015 16.3605 42.8431 15.1153 43.477 13.7343C43.6128 13.4335 43.6161 13.0745 43.7034 12.6379C42.8301 13.1133 42.6328 13.5726 42.7202 14.2938C42.7654 14.6851 42.7331 15.1444 42.5649 15.4937C42.2997 16.0435 42.3935 16.4608 42.7654 16.878C43.3444 17.5248 43.9233 18.1717 44.5055 18.8185ZM21.6586 25.7302C21.7362 25.7075 21.8138 25.6849 21.8915 25.659C20.9729 24.4041 20.6851 23.0263 20.9179 21.503C20.5816 21.917 20.3843 22.3536 20.1644 22.7805C19.8894 23.3142 19.9541 23.7929 20.3455 24.2359C20.7821 24.7373 21.222 25.2321 21.6586 25.7302Z" fill="#4F4F4F"/>
<path d="M4.73365 53.3444C5.28994 53.1277 5.8333 52.8657 6.40253 52.704C9.11285 51.931 11.8038 51.0675 14.5497 50.4659C16.6616 50.0034 18.8448 49.8384 21.0053 49.625C23.4795 49.3824 25.9181 49.004 28.2985 48.2763C28.3956 48.2472 28.5088 48.2278 28.5799 48.1631C28.8613 47.8979 29.1298 47.6133 29.4014 47.3383C29.1395 47.1055 28.9131 46.8079 28.6123 46.6494C26.7008 45.6371 24.5985 45.2619 22.5027 44.8609C22.0079 44.7671 21.5066 44.641 21.0538 44.4275C20.7756 44.2981 20.4296 43.9941 20.4037 43.7418C20.3811 43.509 20.6915 43.1014 20.9438 43.0012C22.2828 42.474 23.6283 41.9533 25.0093 41.5587C26.7008 41.0768 28.4312 40.7275 30.1453 40.3135C30.3749 40.2585 30.5949 40.1583 30.8213 40.0774C30.8277 40.0127 30.8375 39.9448 30.8439 39.8801C30.1194 39.7055 29.3885 39.5437 28.6673 39.3562C28.0204 39.188 27.3509 39.0651 26.7493 38.7902C26.4324 38.6446 26.096 38.2403 26.054 37.9169C26.0281 37.7164 26.51 37.3218 26.827 37.2345C28.9583 36.6491 31.1059 36.1219 33.2502 35.5785C33.4637 35.5235 33.6771 35.4718 33.8906 35.3489C31.8142 35.0966 29.7378 34.8314 27.6582 34.5985C24.7311 34.2719 21.8009 33.9485 18.8674 33.6671C16.0892 33.4019 13.3012 33.2531 10.523 33.5895C8.61154 33.8223 6.71625 34.1716 4.81127 34.4659C4.65926 34.4886 4.49754 34.4692 4.3326 34.3916C4.87919 34.2589 5.42578 34.1328 5.97237 33.9937C7.07849 33.7124 8.04877 33.2078 8.82823 32.341C8.97378 32.1793 9.30367 32.1922 9.54301 32.1082C9.71442 32.0467 9.90848 31.9885 10.0314 31.8656C10.316 31.5777 10.5456 31.2349 10.827 30.9438C11.2507 30.5104 11.5547 30.5428 11.9364 31.0182C12.0496 31.1605 12.1207 31.361 12.263 31.4516C12.428 31.5583 12.7773 31.6812 12.8323 31.6165C13.2398 31.1346 14.0742 31.2672 14.3136 30.5654C14.3394 30.4878 14.4623 30.4425 14.6532 30.2937C14.7922 30.7239 14.9087 31.0829 15.0251 31.4451C15.7496 31.0311 15.7787 31.0441 16.0083 31.8721C16.3156 31.9335 16.6196 31.995 16.9754 32.0661C17.2632 31.6295 17.5705 31.1605 17.9392 30.5978C18.0524 30.8306 18.1365 30.96 18.1785 31.0991C18.4017 31.8397 18.7671 32.0661 19.5272 31.982C19.8183 31.9497 20.1288 32.0629 20.4102 32.0047C20.9373 31.8947 21.2349 31.4969 21.471 31.0247C21.5519 30.8597 21.8041 30.6236 21.8979 30.656C22.0726 30.7174 22.2084 30.9341 22.3281 31.112C22.5901 31.5033 22.7744 31.9561 23.0914 32.2925C23.3695 32.5868 23.7026 32.5124 23.887 32.0823C23.9549 31.9238 24.094 31.8009 24.2945 31.5389C24.5177 32.0079 24.6923 32.3701 24.8702 32.7388C25.1387 32.5513 25.3974 32.3734 25.6594 32.1922C25.7888 32.4833 25.889 32.7971 26.0604 33.0623C26.1316 33.169 26.3742 33.2434 26.5132 33.2143C26.7752 33.1593 27.0372 32.9103 27.2603 32.9523C27.4447 32.9879 27.5676 33.3275 27.752 33.583C27.9137 33.4407 28.0301 33.2563 28.1789 33.224C28.3665 33.1852 28.7028 33.2013 28.761 33.3081C29.2009 34.1296 30.0386 34.2654 30.7889 34.4789C33.6383 35.2874 36.5524 34.9284 39.4471 34.8476C39.6896 34.8411 39.9387 34.8185 40.178 34.8508C40.7861 34.9284 41.2421 34.7247 41.5849 34.2104C41.8275 33.845 42.1348 33.6056 42.5358 34.1263C42.8043 33.8094 43.0339 33.5377 43.2926 33.2304C43.4285 33.3792 43.5417 33.5054 43.6743 33.6477C43.8877 33.4633 44.0818 33.2951 44.3276 33.0817C44.4796 33.3404 44.609 33.5571 44.7513 33.7997C45.6795 33.4924 46.0418 32.6903 46.4169 31.9012C46.4752 31.9012 46.5301 31.8979 46.5884 31.8979C46.7662 32.3054 46.9441 32.713 47.1058 33.0849C47.3613 33.0978 47.633 33.1108 47.9047 33.1237C47.8918 33.1496 47.8821 33.1755 47.8691 33.2013C48.1149 33.1011 48.364 33.0008 48.6098 32.9006C48.6486 32.9523 48.6874 33.0041 48.7294 33.0526C48.9882 32.4833 49.2502 31.9173 49.5089 31.3481C49.5736 31.361 49.635 31.374 49.6997 31.3869C49.7676 31.8559 49.8356 32.3249 49.9099 32.8585C50.3013 32.6353 50.5536 32.7615 50.6053 33.2304C51.0322 33.0202 51.194 32.2408 51.8246 32.8488C51.9993 32.286 52.161 31.7718 52.3195 31.2575C52.3906 31.264 52.4618 31.2737 52.5329 31.2802C52.6882 31.9076 52.8434 32.5351 53.0246 33.266C53.2509 33.059 53.3933 32.9264 53.5356 32.7971C53.7911 32.5674 54.0369 32.341 54.3344 32.7615C54.3926 32.8423 54.6126 32.907 54.6967 32.8617C55.2206 32.5707 55.4923 32.8326 55.6637 33.3145C56.1683 33.1043 56.6081 32.4413 57.0836 33.266C57.2485 33.1496 57.3908 33.0687 57.504 32.9588C57.8177 32.6612 57.9665 32.6936 58.2317 33.0881C58.4387 33.3954 58.8851 33.6089 59.2667 33.7221C59.7098 33.8514 60.1949 33.8288 60.6639 33.8708C60.7448 33.8773 60.8515 33.8644 60.9 33.9096C61.7183 34.6568 62.7662 34.4077 63.7203 34.5662C63.8173 34.5824 63.9176 34.5953 64.0178 34.6083C64.0243 34.66 64.0275 34.7085 64.034 34.7603C63.7656 34.7861 63.4939 34.8379 63.2254 34.8346C60.0753 34.7991 56.9218 34.6762 53.7717 34.7311C50.0523 34.7958 46.3328 35.019 42.6167 35.1613C41.6011 35.2001 40.5758 35.1225 39.5667 35.2325C38.7582 35.3198 37.969 35.5947 37.1799 35.8146C35.5789 36.261 33.9779 36.717 32.3867 37.1957C32.17 37.2604 32.0018 37.49 31.8077 37.6452C32.005 37.8037 32.1797 38.0463 32.4028 38.1077C33.5316 38.4312 34.6798 38.6996 35.815 39.0036C36.0867 39.0748 36.3519 39.1912 36.6074 39.3109C37.0764 39.534 37.154 39.9577 36.7303 40.2391C36.3875 40.4655 35.967 40.6175 35.5595 40.6919C33.4249 41.0897 31.2805 41.4293 29.1459 41.8401C28.47 41.9694 27.8199 42.2573 27.1601 42.4708C27.1601 42.5581 27.1633 42.6454 27.1633 42.7327C27.4706 42.8298 27.7681 42.9721 28.0819 43.0141C31.0865 43.4216 34.0329 44.0814 36.8855 45.1132C37.5292 45.346 38.1534 45.6695 38.7323 46.0349C39.9775 46.8241 40.0163 48.3798 38.7291 49.1107C37.8849 49.5894 36.8952 49.8417 35.9444 50.1036C32.3705 51.0836 28.7352 51.6949 25.0319 51.9536C22.1373 52.1542 19.2523 52.5099 16.3576 52.759C14.8375 52.8883 13.3109 52.9142 11.7908 53.0307C9.62386 53.1956 7.46014 53.3994 5.29317 53.5837C5.12499 53.5967 4.95358 53.587 4.78216 53.587C4.76922 53.5061 4.74982 53.4252 4.73365 53.3444Z" fill="#4F4F4F"/>
<path d="M61.6018 40.928C61.2267 41.0477 60.8612 41.2191 60.4795 41.2806C58.4581 41.6137 56.4399 42.0309 54.4056 42.2056C51.1066 42.4837 47.798 42.6357 44.4893 42.7554C43.0533 42.8071 41.6108 42.6131 40.1716 42.5872C39.4665 42.5743 38.7614 42.7036 38.0531 42.7489C37.6682 42.7716 37.2801 42.7521 36.892 42.7521C36.8791 42.6907 36.8694 42.6292 36.8564 42.5646C37.0052 42.5031 37.1475 42.419 37.2995 42.3802C39.1107 41.9403 40.9154 41.4584 42.7396 41.0865C45.6925 40.4817 48.6809 40.5852 51.6694 40.7631C53.6585 40.8795 55.6475 41.0509 57.6366 41.0477C58.8689 41.0445 60.1011 40.7566 61.3334 40.6111C61.411 40.6014 61.5016 40.6984 61.5857 40.7469C61.5921 40.8019 61.5986 40.8633 61.6018 40.928Z" fill="#4F4F4F"/>
<path d="M0.48381 39.6667C1.011 39.5373 1.53495 39.3821 2.0686 39.2818C4.35847 38.8516 6.63863 38.3568 8.94143 38.0398C11.2248 37.7261 13.5115 37.9622 15.7916 38.3277C18.0718 38.6932 20.3681 38.9616 22.6612 39.2139C23.2531 39.2786 23.8708 39.1201 24.4789 39.0845C24.6115 39.078 24.7505 39.1524 24.8864 39.188C24.7926 39.298 24.7182 39.4694 24.5985 39.5049C21.5907 40.4332 18.5602 41.1221 15.3841 40.4494C13.4856 40.0483 11.5806 39.6537 9.66591 39.34C7.26931 38.9487 4.88889 39.2365 2.51493 39.6408C1.85514 39.754 1.19212 39.8284 0.52909 39.9222C0.516153 39.8381 0.499982 39.7508 0.48381 39.6667Z" fill="#4F4F4F"/>
<path d="M60.4731 47.0634C60.3793 47.1669 60.3017 47.3254 60.1852 47.3675C58.5454 47.9593 56.9348 48.6676 55.2497 49.0784C52.8919 49.6509 50.4533 49.7641 48.0405 49.46C45.4952 49.1398 43.0145 49.4859 40.5273 49.9031C40.0195 49.9872 39.5118 50.0907 39.004 50.1845C38.9846 50.1263 38.9619 50.0713 38.9425 50.0131C39.0978 49.9355 39.2498 49.8417 39.4115 49.777C40.5273 49.3565 41.6302 48.8811 42.7719 48.5383C43.8554 48.2148 44.9712 48.0014 46.087 47.7976C48.4707 47.361 50.8673 47.6294 53.2639 47.6391C55.1656 47.6488 57.0706 47.4289 58.9691 47.2672C59.4478 47.2252 59.9103 47.0182 60.3825 46.8856C60.4084 46.947 60.4407 47.0052 60.4731 47.0634Z" fill="#4F4F4F"/>
<path d="M23.3242 45.8862C23.2046 45.9606 23.0946 46.0673 22.962 46.1029C21.3093 46.5751 19.676 47.209 17.9909 47.4483C16.7004 47.6327 15.3291 47.3804 14.0095 47.2025C12.0399 46.9341 10.0961 46.4198 8.08758 46.5654C6.81651 46.6559 5.55191 46.85 4.28084 46.9923C4.07385 47.0149 3.86362 46.9955 3.65663 46.9955C3.65016 46.9147 3.64369 46.8338 3.63399 46.753C4.27114 46.5977 4.91152 46.4489 5.54544 46.284C6.93618 45.9185 8.30751 45.4366 9.72089 45.1973C12.2469 44.7704 14.7631 44.9515 17.2794 45.4916C19.0647 45.8732 20.8953 45.9929 22.7259 45.7148C22.907 45.6889 23.0914 45.7115 23.2757 45.7115C23.2951 45.7697 23.3113 45.828 23.3242 45.8862Z" fill="#4F4F4F"/>
<path d="M45.4693 38.2403C45.5954 38.1401 45.6569 38.0528 45.7377 38.0301C47.177 37.6129 48.6065 37.1472 50.0652 36.8076C50.987 36.5909 51.9508 36.5068 52.8984 36.4518C55.0104 36.3289 57.1256 36.2836 59.2376 36.1542C59.878 36.1154 60.5054 35.8987 61.1393 35.7694C61.3593 35.7241 61.5857 35.695 61.8088 35.6594C61.8315 35.7176 61.8541 35.7758 61.8767 35.834C61.7441 35.9246 61.6245 36.0346 61.4822 36.1025C59.2214 37.1439 56.8474 37.7034 54.3571 37.7746C53.4838 37.7972 52.6138 37.9072 51.7405 37.9525C49.6803 38.0528 47.6201 38.1433 45.4693 38.2403Z" fill="#4F4F4F"/>
</g>
<defs>
<clipPath id="clip0_230_107693">
<rect width="63.5502" height="53" fill="white" transform="translate(0.48381 0.59021)"/>
</clipPath>
</defs>
</svg>
