<svg width="112" height="75" viewBox="0 0 112 75" fill="none" xmlns="http://www.w3.org/2000/svg">
<rect width="83.2077" height="46.0416" transform="translate(14.114 13.8606)" fill="white" style="mix-blend-mode:multiply"/>
<g filter="url(#filter0_d_1_5267)">
<path d="M83.8005 11.8606C92.2578 11.8606 99.114 18.7168 99.114 27.1741V46.5471C99.114 55.0044 92.2578 61.8606 83.8005 61.8606H27.4275C18.9702 61.8606 12.114 55.0044 12.114 46.5471V27.1741C12.114 20.0824 16.935 14.117 23.4783 12.3752V14.4553C18.0537 16.138 14.114 21.1963 14.114 27.1741V46.5471L14.1179 46.8909C14.2972 53.9707 20.0039 59.6774 27.0837 59.8567L27.4275 59.8606H83.8005L84.1443 59.8567C91.2241 59.6774 96.9308 53.9707 97.1101 46.8909L97.114 46.5471V27.1741C97.114 19.9362 91.3382 14.0467 84.1443 13.8645L83.8005 13.8606H62.9871V11.8606H83.8005Z" fill="#0B7C18"/>
</g>
<path d="M31.6001 11.0823L29.2637 17.8606H27.8511L30.7944 10.0403H31.6968L31.6001 11.0823ZM33.5552 17.8606L31.2134 11.0823L31.1113 10.0403H32.019L34.9731 17.8606H33.5552ZM33.4424 14.9602V16.0291H29.1885V14.9602H33.4424ZM37.4229 13.1663V20.095H36.1284V12.0491H37.3208L37.4229 13.1663ZM41.2095 14.9011V15.0139C41.2095 15.4364 41.1593 15.8285 41.0591 16.1902C40.9624 16.5483 40.8174 16.8616 40.624 17.1301C40.4342 17.3951 40.1997 17.601 39.9204 17.7478C39.6411 17.8946 39.3188 17.968 38.9536 17.968C38.592 17.968 38.2751 17.9018 38.0029 17.7693C37.7344 17.6332 37.507 17.4417 37.3208 17.1946C37.1346 16.9475 36.9842 16.6575 36.8696 16.3245C36.7586 15.9879 36.6799 15.6191 36.6333 15.218V14.783C36.6799 14.3569 36.7586 13.9701 36.8696 13.6228C36.9842 13.2755 37.1346 12.9765 37.3208 12.7258C37.507 12.4752 37.7344 12.2818 38.0029 12.1458C38.2715 12.0097 38.5848 11.9417 38.9429 11.9417C39.3081 11.9417 39.6322 12.0133 39.915 12.1565C40.1979 12.2961 40.436 12.4967 40.6294 12.7581C40.8228 13.0159 40.9678 13.3274 41.0645 13.6926C41.1611 14.0543 41.2095 14.4571 41.2095 14.9011ZM39.915 15.0139V14.9011C39.915 14.6326 39.89 14.3837 39.8398 14.1545C39.7897 13.9218 39.7109 13.7177 39.6035 13.5422C39.4961 13.3668 39.3582 13.2307 39.1899 13.134C39.0252 13.0338 38.8265 12.9836 38.5938 12.9836C38.3646 12.9836 38.1676 13.023 38.0029 13.1018C37.8382 13.177 37.7004 13.2826 37.5894 13.4187C37.4784 13.5548 37.3924 13.7141 37.3315 13.8967C37.2707 14.0758 37.2277 14.2709 37.2026 14.4822V15.5242C37.2456 15.782 37.319 16.0183 37.4229 16.2332C37.5267 16.448 37.6735 16.6199 37.8633 16.7488C38.0566 16.8741 38.3037 16.9368 38.6045 16.9368C38.8372 16.9368 39.036 16.8866 39.2007 16.7864C39.3654 16.6861 39.4997 16.5483 39.6035 16.3728C39.7109 16.1938 39.7897 15.9879 39.8398 15.7551C39.89 15.5224 39.915 15.2753 39.915 15.0139ZM44.1104 13.1663V20.095H42.8159V12.0491H44.0083L44.1104 13.1663ZM47.897 14.9011V15.0139C47.897 15.4364 47.8468 15.8285 47.7466 16.1902C47.6499 16.5483 47.5049 16.8616 47.3115 17.1301C47.1217 17.3951 46.8872 17.601 46.6079 17.7478C46.3286 17.8946 46.0063 17.968 45.6411 17.968C45.2795 17.968 44.9626 17.9018 44.6904 17.7693C44.4219 17.6332 44.1945 17.4417 44.0083 17.1946C43.8221 16.9475 43.6717 16.6575 43.5571 16.3245C43.4461 15.9879 43.3674 15.6191 43.3208 15.218V14.783C43.3674 14.3569 43.4461 13.9701 43.5571 13.6228C43.6717 13.2755 43.8221 12.9765 44.0083 12.7258C44.1945 12.4752 44.4219 12.2818 44.6904 12.1458C44.959 12.0097 45.2723 11.9417 45.6304 11.9417C45.9956 11.9417 46.3197 12.0133 46.6025 12.1565C46.8854 12.2961 47.1235 12.4967 47.3169 12.7581C47.5103 13.0159 47.6553 13.3274 47.752 13.6926C47.8486 14.0543 47.897 14.4571 47.897 14.9011ZM46.6025 15.0139V14.9011C46.6025 14.6326 46.5775 14.3837 46.5273 14.1545C46.4772 13.9218 46.3984 13.7177 46.291 13.5422C46.1836 13.3668 46.0457 13.2307 45.8774 13.134C45.7127 13.0338 45.514 12.9836 45.2812 12.9836C45.0521 12.9836 44.8551 13.023 44.6904 13.1018C44.5257 13.177 44.3879 13.2826 44.2769 13.4187C44.1659 13.5548 44.0799 13.7141 44.019 13.8967C43.9582 14.0758 43.9152 14.2709 43.8901 14.4822V15.5242C43.9331 15.782 44.0065 16.0183 44.1104 16.2332C44.2142 16.448 44.361 16.6199 44.5508 16.7488C44.7441 16.8741 44.9912 16.9368 45.292 16.9368C45.5247 16.9368 45.7235 16.8866 45.8882 16.7864C46.0529 16.6861 46.1872 16.5483 46.291 16.3728C46.3984 16.1938 46.4772 15.9879 46.5273 15.7551C46.5775 15.5224 46.6025 15.2753 46.6025 15.0139ZM50.8838 9.6106V17.8606H49.584V9.6106H50.8838ZM55.3638 17.968C54.9341 17.968 54.5456 17.8982 54.1982 17.7585C53.8545 17.6153 53.5609 17.4166 53.3174 17.1624C53.0775 16.9081 52.8931 16.6091 52.7642 16.2654C52.6353 15.9216 52.5708 15.551 52.5708 15.1536V14.9387C52.5708 14.484 52.637 14.0722 52.7695 13.7034C52.902 13.3346 53.0864 13.0194 53.3228 12.7581C53.5591 12.4931 53.8384 12.2908 54.1606 12.1511C54.4829 12.0115 54.832 11.9417 55.208 11.9417C55.6234 11.9417 55.9868 12.0115 56.2983 12.1511C56.6099 12.2908 56.8677 12.4877 57.0718 12.7419C57.2795 12.9926 57.4334 13.2916 57.5337 13.6389C57.6375 13.9862 57.6895 14.3694 57.6895 14.7883V15.3416H53.1992V14.4124H56.4111V14.3103C56.404 14.0776 56.3574 13.8591 56.2715 13.655C56.1891 13.4509 56.062 13.2862 55.8901 13.1609C55.7183 13.0356 55.4891 12.9729 55.2026 12.9729C54.9878 12.9729 54.7962 13.0194 54.6279 13.1125C54.4632 13.2021 54.3254 13.3328 54.2144 13.5046C54.1034 13.6765 54.0174 13.8842 53.9565 14.1277C53.8993 14.3676 53.8706 14.6379 53.8706 14.9387V15.1536C53.8706 15.4078 53.9046 15.6441 53.9727 15.8625C54.0443 16.0774 54.1481 16.2654 54.2842 16.4265C54.4202 16.5876 54.585 16.7148 54.7783 16.8079C54.9717 16.8974 55.1919 16.9421 55.439 16.9421C55.7505 16.9421 56.028 16.8795 56.2715 16.7542C56.515 16.6288 56.7262 16.4516 56.9053 16.2224L57.5874 16.8831C57.4621 17.0657 57.2992 17.2411 57.0986 17.4094C56.8981 17.5741 56.6528 17.7084 56.3628 17.8123C56.0763 17.9161 55.7433 17.968 55.3638 17.968Z" fill="#0B7C18"/>
<path d="M60.6676 45.1602C59.6876 46.1103 58.6176 45.9602 57.5876 45.5102C56.4976 45.0502 55.4976 45.0302 54.3476 45.5102C52.9076 46.1302 52.1476 45.9503 51.2876 45.1602C46.4076 40.1302 47.1276 32.4702 52.6676 32.1902C54.0176 32.2602 54.9576 32.9302 55.7476 32.9902C56.9276 32.7502 58.0576 32.0602 59.3176 32.1502C60.8276 32.2702 61.9676 32.8702 62.7176 33.9502C59.5976 35.8202 60.3376 39.9303 63.1976 41.0802C62.6276 42.5802 61.8876 44.0702 60.6576 45.1702L60.6676 45.1602ZM55.6476 32.1302C55.4976 29.9002 57.3076 28.0602 59.3876 27.8802C59.6776 30.4602 57.0476 32.3802 55.6476 32.1302Z" fill="black"/>
<defs>
<filter id="filter0_d_1_5267" x="0.114014" y="0.860596" width="111" height="74" filterUnits="userSpaceOnUse" color-interpolation-filters="sRGB">
<feFlood flood-opacity="0" result="BackgroundImageFix"/>
<feColorMatrix in="SourceAlpha" type="matrix" values="0 0 0 0 0 0 0 0 0 0 0 0 0 0 0 0 0 0 127 0" result="hardAlpha"/>
<feOffset dy="1"/>
<feGaussianBlur stdDeviation="6"/>
<feComposite in2="hardAlpha" operator="out"/>
<feColorMatrix type="matrix" values="0 0 0 0 0.0355208 0 0 0 0 0.775 0 0 0 0 0.120592 0 0 0 0.58 0"/>
<feBlend mode="normal" in2="BackgroundImageFix" result="effect1_dropShadow_1_5267"/>
<feBlend mode="normal" in="SourceGraphic" in2="effect1_dropShadow_1_5267" result="shape"/>
</filter>
</defs>
</svg>
