<svg width="43" height="43" viewBox="0 0 43 43" fill="none" xmlns="http://www.w3.org/2000/svg">
<g clip-path="url(#clip0_1_6197)">
<path d="M5.84106 21.6267C5.84106 23.695 6.24845 25.7431 7.03996 27.654C7.83147 29.5649 8.99161 31.3011 10.4541 32.7636C11.9167 34.2262 13.6529 35.3863 15.5638 36.1778C17.4747 36.9693 19.5227 37.3767 21.5911 37.3767C23.6594 37.3767 25.7075 36.9693 27.6183 36.1778C29.5292 35.3863 31.2655 34.2262 32.728 32.7636C34.1905 31.3011 35.3507 29.5649 36.1422 27.654C36.9337 25.7431 37.3411 23.695 37.3411 21.6267C37.3411 19.5584 36.9337 17.5103 36.1422 15.5994C35.3507 13.6886 34.1905 11.9523 32.728 10.4898C31.2655 9.02725 29.5292 7.86712 27.6183 7.07561C25.7075 6.28409 23.6594 5.87671 21.5911 5.87671C19.5227 5.87671 17.4747 6.28409 15.5638 7.07561C13.6529 7.86712 11.9167 9.02725 10.4541 10.4898C8.99161 11.9523 7.83147 13.6886 7.03996 15.5994C6.24845 17.5103 5.84106 19.5584 5.84106 21.6267Z" stroke="white" stroke-width="2" stroke-linecap="round" stroke-linejoin="round"/>
<path d="M16.3411 21.6267L19.8411 25.1267L26.8411 18.1267" stroke="white" stroke-width="2" stroke-linecap="round" stroke-linejoin="round"/>
</g>
<defs>
<clipPath id="clip0_1_6197">
<rect width="42" height="42" fill="white" transform="translate(0.591064 0.626709)"/>
</clipPath>
</defs>
</svg>
