<svg width="293" height="176" viewBox="0 0 293 176" fill="none" xmlns="http://www.w3.org/2000/svg">
<g clip-path="url(#clip0_2001_107560)">
<path d="M125.194 135.291L105.835 154.651L115.515 164.33L134.873 144.971L125.194 135.291Z" fill="black"/>
<path d="M147.283 93.2143L95.225 144.95L102.907 152.599L103.109 152.398L122.518 133.073L124.741 130.858L126.965 133.073L136.669 142.735L138.994 144.95L136.669 147.164L117.261 166.59L117.059 166.691L147.283 196.786L199.24 144.95L147.283 93.2143Z" fill="black"/>
<path d="M147.613 88.7028L91.3169 145.001L147.613 201.299L203.91 145.001L147.613 88.7028Z" stroke="black" stroke-miterlimit="10"/>
<path d="M143.288 232.296C143.188 232.296 143.188 232.296 143.087 232.296C141.879 232.195 140.671 232.195 139.463 232.095C137.55 231.894 136.141 230.185 136.241 228.276C136.443 226.366 138.154 224.959 140.067 225.059C141.174 225.16 142.282 225.26 143.389 225.26C145.302 225.361 146.812 226.969 146.711 228.879C146.711 230.889 145.1 232.296 143.288 232.296ZM160.704 231.291C158.993 231.291 157.583 230.085 157.281 228.376C156.979 226.466 158.288 224.657 160.201 224.356C161.308 224.155 162.416 223.954 163.523 223.753C165.436 223.35 167.248 224.557 167.65 226.466C168.053 228.376 166.845 230.185 164.932 230.587C163.724 230.788 162.516 231.09 161.308 231.291C161.107 231.291 160.906 231.291 160.704 231.291ZM122.651 228.778C122.349 228.778 121.946 228.778 121.644 228.577C120.436 228.175 119.329 227.873 118.221 227.471C116.409 226.868 115.402 224.858 116.107 223.049C116.711 221.24 118.725 220.235 120.537 220.938C121.543 221.34 122.651 221.642 123.758 221.943C125.57 222.546 126.678 224.456 126.074 226.265C125.57 227.773 124.161 228.778 122.651 228.778ZM180.838 225.361C179.53 225.361 178.221 224.557 177.617 223.25C176.811 221.441 177.617 219.431 179.429 218.627C180.436 218.224 181.442 217.722 182.449 217.219C184.16 216.415 186.274 217.119 187.181 218.828C187.986 220.536 187.281 222.647 185.57 223.552C184.462 224.054 183.355 224.557 182.248 225.059C181.744 225.26 181.241 225.361 180.838 225.361ZM103.523 220.235C102.919 220.235 102.315 220.034 101.711 219.732C100.705 219.129 99.5972 218.426 98.5905 217.822C96.9798 216.717 96.5771 214.606 97.5838 212.998C98.6912 211.39 100.805 210.988 102.416 211.993C103.322 212.596 104.329 213.199 105.235 213.802C106.846 214.807 107.45 216.918 106.443 218.627C105.839 219.632 104.631 220.235 103.523 220.235ZM198.758 214.606C197.751 214.606 196.644 214.104 196.04 213.299C194.831 211.792 195.133 209.581 196.644 208.374C197.55 207.671 198.355 206.967 199.261 206.264C200.771 205.058 202.986 205.158 204.194 206.666C205.402 208.173 205.301 210.385 203.791 211.591C202.885 212.395 201.878 213.098 200.972 213.903C200.268 214.405 199.563 214.606 198.758 214.606ZM87.1141 207.269C86.2081 207.269 85.302 206.967 84.5974 206.264C83.792 205.359 82.886 204.555 82.0806 203.65C80.7719 202.243 80.8726 200.032 82.3826 198.725C83.792 197.419 86.0068 197.519 87.3155 199.027C88.0202 199.831 88.8255 200.635 89.6309 201.439C90.9396 202.846 90.9396 205.058 89.5302 206.364C88.8255 206.867 87.9195 207.269 87.1141 207.269ZM213.556 199.831C212.851 199.831 212.046 199.63 211.442 199.127C209.932 197.921 209.63 195.71 210.838 194.202C211.543 193.298 212.147 192.393 212.851 191.489C213.959 189.88 216.174 189.579 217.684 190.685C219.294 191.79 219.596 194.001 218.489 195.509C217.784 196.514 217.08 197.519 216.274 198.424C215.67 199.328 214.664 199.831 213.556 199.831ZM74.4296 190.584C73.2216 190.584 72.0135 189.981 71.4095 188.875C70.8055 187.87 70.2015 186.765 69.5975 185.659C68.6914 183.95 69.3961 181.84 71.1075 180.935C72.8189 180.03 74.933 180.734 75.839 182.443C76.3424 183.448 76.9464 184.453 77.4497 185.357C78.4565 187.066 77.8524 189.177 76.141 190.182C75.537 190.484 74.933 190.584 74.4296 190.584ZM224.227 181.739C223.724 181.739 223.321 181.639 222.818 181.438C221.006 180.633 220.2 178.623 221.006 176.814C221.408 175.809 221.912 174.804 222.314 173.698C223.019 171.889 225.033 170.984 226.845 171.688C228.657 172.392 229.563 174.402 228.858 176.211C228.455 177.317 227.952 178.422 227.449 179.628C226.845 180.935 225.536 181.739 224.227 181.739ZM66.1747 171.386C64.6646 171.386 63.2552 170.381 62.8525 168.874C62.5505 167.668 62.2485 166.562 61.9465 165.356C61.5438 163.446 62.6512 161.637 64.5639 161.134C66.4767 160.732 68.2887 161.838 68.7921 163.748C69.0941 164.853 69.2955 165.959 69.5975 166.964C70.1008 168.773 69.0941 170.783 67.1814 171.286C66.7787 171.286 66.4767 171.386 66.1747 171.386ZM230.066 161.637C229.865 161.637 229.663 161.637 229.462 161.637C227.549 161.335 226.241 159.526 226.543 157.616C226.744 156.511 226.845 155.405 227.046 154.3C227.147 153.395 227.247 152.39 227.348 151.485C227.549 149.576 229.16 148.068 231.174 148.269C233.086 148.47 234.496 150.078 234.395 151.988C234.294 152.993 234.194 153.998 234.093 155.104C233.992 156.31 233.791 157.516 233.59 158.722C233.288 160.431 231.778 161.637 230.066 161.637ZM230.469 137.816C228.757 137.816 227.247 136.509 227.046 134.801C226.945 133.695 226.744 132.589 226.543 131.484C226.241 129.574 227.549 127.765 229.361 127.463C231.274 127.162 233.086 128.468 233.388 130.278C233.59 131.484 233.791 132.69 233.892 133.896C234.093 135.806 232.784 137.514 230.871 137.816C230.771 137.816 230.569 137.816 230.469 137.816ZM65.0673 129.876C64.7653 129.876 64.5639 129.876 64.2619 129.775C62.3492 129.373 61.1411 127.463 61.6445 125.554C61.9465 124.347 62.2485 123.141 62.5505 122.036C63.0539 120.126 64.9666 119.02 66.8794 119.523C68.7921 120.025 69.8995 121.935 69.3961 123.845C69.0941 124.951 68.7921 125.956 68.5908 127.061C68.1881 128.77 66.678 129.876 65.0673 129.876ZM225.234 117.613C223.825 117.613 222.516 116.809 222.012 115.402C221.61 114.397 221.207 113.291 220.704 112.286C219.898 110.477 220.704 108.467 222.516 107.663C224.328 106.859 226.341 107.663 227.147 109.472C227.65 110.577 228.153 111.683 228.556 112.789C229.261 114.598 228.355 116.608 226.643 117.312C226.039 117.513 225.637 117.613 225.234 117.613ZM72.2149 110.175C71.7115 110.175 71.1075 110.075 70.6042 109.773C68.8928 108.869 68.1881 106.758 69.0941 105.049C69.6981 103.944 70.2015 102.939 70.8055 101.833C71.7115 100.124 73.9263 99.5213 75.537 100.526C77.2484 101.431 77.8524 103.642 76.8457 105.25C76.3424 106.256 75.7384 107.16 75.235 108.165C74.7316 109.472 73.5236 110.175 72.2149 110.175ZM215.167 99.2198C214.06 99.2198 213.053 98.7172 212.348 97.8126C211.643 96.908 211.039 96.0034 210.335 95.0988C209.127 93.5912 209.429 91.3799 210.939 90.1738C212.449 88.9677 214.664 89.2692 215.872 90.7769C216.576 91.6815 217.382 92.6866 218.086 93.6917C219.194 95.2998 218.892 97.4106 217.281 98.6167C216.576 99.0187 215.872 99.2198 215.167 99.2198ZM84.094 92.8876C83.2886 92.8876 82.4833 92.5861 81.7786 91.983C80.3692 90.6764 80.1678 88.4651 81.4766 87.058C82.2819 86.1534 83.0873 85.2488 83.9933 84.3442C85.302 82.937 87.5168 82.937 88.9262 84.2437C90.3356 85.5503 90.3356 87.7615 89.0268 89.1687C88.2215 89.9728 87.5168 90.7769 86.7114 91.6815C86.0067 92.4855 85 92.8876 84.094 92.8876ZM200.771 83.9422C199.966 83.9422 199.16 83.6406 198.556 83.138C197.65 82.4345 196.845 81.7309 195.939 81.0273C194.429 79.8212 194.127 77.61 195.335 76.1023C196.543 74.5946 198.758 74.2931 200.268 75.4992C201.274 76.2028 202.18 77.0069 203.086 77.811C204.597 79.0171 204.798 81.2284 203.489 82.736C202.784 83.5401 201.778 83.9422 200.771 83.9422ZM99.7986 79.1176C98.6912 79.1176 97.5839 78.6151 96.8792 77.61C95.7718 76.0018 96.1745 73.7906 97.7852 72.7855C98.7919 72.0819 99.7986 71.4788 100.805 70.7752C102.416 69.7701 104.631 70.2727 105.637 71.8809C106.644 73.489 106.141 75.7003 104.53 76.7054C103.624 77.3084 102.617 77.9115 101.711 78.5146C101.208 78.9166 100.503 79.1176 99.7986 79.1176ZM183.154 72.6849C182.65 72.6849 182.147 72.5844 181.644 72.3834C180.637 71.8809 179.63 71.4788 178.624 70.9762C176.811 70.1722 176.006 68.162 176.811 66.3528C177.516 64.5436 179.63 63.7395 181.442 64.5436C182.55 65.0461 183.657 65.5487 184.764 66.0512C186.476 66.8553 187.281 68.966 186.375 70.6747C185.771 71.9814 184.462 72.6849 183.154 72.6849ZM118.423 69.5691C117.013 69.5691 115.604 68.6645 115.1 67.2574C114.396 65.4482 115.403 63.438 117.215 62.7344C118.322 62.3323 119.53 61.9303 120.637 61.5282C122.449 60.9252 124.463 61.9303 125.067 63.84C125.671 65.6492 124.664 67.6594 122.751 68.2625C121.644 68.564 120.637 68.9661 119.631 69.3681C119.228 69.4686 118.825 69.5691 118.423 69.5691ZM163.221 66.1517C163.02 66.1517 162.818 66.1517 162.516 66.0512C161.409 65.8502 160.302 65.6492 159.194 65.4482C157.281 65.1466 155.973 63.3374 156.275 61.4277C156.577 59.518 158.389 58.2114 160.302 58.5129C161.51 58.7139 162.718 58.915 163.926 59.116C165.838 59.518 167.046 61.3272 166.644 63.2369C166.342 64.9456 164.932 66.1517 163.221 66.1517ZM138.859 64.9456C137.047 64.9456 135.537 63.639 135.335 61.8298C135.134 59.9201 136.543 58.2114 138.456 58.0104C139.664 57.9099 140.872 57.8094 142.08 57.7089C143.993 57.6083 145.704 59.116 145.805 61.0257C145.906 62.9354 144.396 64.6441 142.483 64.7446C141.375 64.8451 140.268 64.8451 139.161 65.0461C139.06 64.9456 138.959 64.9456 138.859 64.9456Z" fill="black"/>
<path d="M64.4453 147.959L68.855 139.082L58.6 139.871L64.4453 147.959Z" fill="#0B7C18"/>
<path d="M143.137 260.408C143.036 260.408 143.036 260.408 142.936 260.408C141.327 260.308 139.718 260.208 138.11 260.107C135.596 259.907 133.686 257.6 133.887 255.092C134.088 252.584 136.401 250.678 138.914 250.879C140.422 250.979 141.83 251.079 143.338 251.18C145.851 251.28 147.862 253.487 147.762 255.995C147.661 258.502 145.65 260.408 143.137 260.408ZM166.261 259.004C164.049 259.004 162.038 257.399 161.737 255.092C161.335 252.584 163.044 250.177 165.557 249.775C167.066 249.575 168.473 249.274 169.881 248.973C172.394 248.471 174.807 250.076 175.31 252.584C175.813 255.092 174.204 257.499 171.69 258.001C170.082 258.302 168.574 258.603 166.965 258.904C166.764 259.004 166.462 259.004 166.261 259.004ZM115.89 255.694C115.488 255.694 114.985 255.593 114.583 255.493C113.075 254.991 111.466 254.49 109.958 253.988C107.545 253.186 106.238 250.478 107.143 248.07C107.947 245.663 110.662 244.359 113.075 245.261C114.483 245.763 115.89 246.164 117.298 246.666C119.711 247.368 121.118 249.976 120.414 252.383C119.711 254.39 117.8 255.694 115.89 255.694ZM192.804 251.18C190.994 251.18 189.285 250.177 188.581 248.371C187.576 246.064 188.581 243.356 190.994 242.252C192.301 241.65 193.709 241.048 195.016 240.346C197.328 239.243 200.043 240.146 201.249 242.453C202.355 244.76 201.451 247.468 199.138 248.672C197.731 249.374 196.222 250.076 194.815 250.678C194.01 251.079 193.407 251.18 192.804 251.18ZM90.5538 244.459C89.7495 244.459 88.9452 244.258 88.1409 243.757C86.7333 242.954 85.4263 242.052 84.0187 241.149C81.9073 239.744 81.3041 236.835 82.7116 234.729C84.1192 232.622 87.0349 232.021 89.1463 233.425C90.3528 234.227 91.6598 235.03 92.8663 235.832C95.0782 237.136 95.782 239.945 94.3744 242.152C93.6706 243.656 92.062 244.459 90.5538 244.459ZM216.632 237.036C215.225 237.036 213.918 236.434 213.013 235.23C211.404 233.224 211.806 230.315 213.817 228.71C215.024 227.808 216.13 226.905 217.235 225.902C219.146 224.297 222.061 224.497 223.771 226.403C225.379 228.309 225.178 231.218 223.268 232.923C222.061 233.926 220.754 234.93 219.548 235.933C218.543 236.635 217.537 237.036 216.632 237.036ZM68.837 227.306C67.6305 227.306 66.424 226.804 65.5191 225.902C64.4132 224.798 63.3072 223.595 62.2013 222.391C60.4921 220.485 60.5926 217.576 62.5029 215.871C64.4132 214.165 67.3289 214.266 69.0381 216.172C70.0435 217.275 71.0489 218.378 72.0543 219.382C73.864 221.187 73.864 224.096 71.9538 225.902C71.1494 226.804 70.0435 227.306 68.837 227.306ZM236.137 217.375C235.132 217.375 234.126 217.074 233.322 216.372C231.311 214.767 230.909 211.959 232.518 209.852C233.423 208.648 234.327 207.545 235.132 206.341C236.64 204.235 239.455 203.733 241.566 205.238C243.678 206.743 244.18 209.551 242.672 211.658C241.767 212.962 240.762 214.266 239.757 215.57C238.852 216.773 237.545 217.375 236.137 217.375ZM52.0466 205.238C50.438 205.238 48.9299 204.435 48.025 202.931C47.2207 201.526 46.4163 200.122 45.7125 198.718C44.5061 196.411 45.4109 193.702 47.6228 192.499C49.9353 191.295 52.6499 192.198 53.8564 194.404C54.5602 195.708 55.2639 197.012 55.9677 198.316C57.2748 200.523 56.4704 203.332 54.2585 204.636C53.6553 205.037 52.851 205.238 52.0466 205.238ZM250.213 193.602C249.61 193.602 249.006 193.502 248.403 193.201C246.091 192.198 244.985 189.489 245.99 187.082C246.593 185.778 247.096 184.373 247.699 182.969C248.604 180.562 251.319 179.358 253.631 180.261C256.044 181.164 257.251 183.872 256.346 186.179C255.743 187.684 255.139 189.188 254.536 190.593C253.732 192.599 252.023 193.602 250.213 193.602ZM41.1882 179.86C39.1774 179.86 37.2671 178.556 36.7644 176.549C36.3622 175.045 35.9601 173.44 35.5579 171.935C34.9547 169.427 36.4628 166.92 38.9763 166.318C41.4898 165.716 44.0033 167.22 44.6066 169.728C44.9082 171.133 45.3104 172.537 45.7125 174.042C46.4163 176.449 45.0088 179.057 42.4952 179.759C42.0931 179.759 41.5904 179.86 41.1882 179.86ZM257.955 167.02C257.754 167.02 257.452 167.02 257.251 166.92C254.737 166.518 253.028 164.111 253.43 161.603C253.631 160.199 253.832 158.694 254.033 157.19C254.134 155.986 254.335 154.682 254.436 153.478C254.637 150.97 256.849 149.064 259.463 149.265C261.976 149.466 263.886 151.673 263.685 154.281C263.585 155.585 263.484 156.989 263.283 158.293C263.082 159.898 262.881 161.503 262.579 163.008C262.177 165.415 260.166 167.02 257.955 167.02ZM258.457 135.523C256.145 135.523 254.134 133.817 253.832 131.51C253.631 130.006 253.43 128.601 253.229 127.097C252.827 124.589 254.536 122.181 257.05 121.78C259.563 121.379 261.976 123.084 262.378 125.592C262.68 127.197 262.881 128.802 263.082 130.307C263.384 132.814 261.574 135.121 259.061 135.422C258.859 135.523 258.658 135.523 258.457 135.523ZM39.7806 124.99C39.479 124.99 39.0769 124.99 38.7752 124.89C36.2617 124.288 34.7536 121.881 35.2563 119.373C35.6585 117.768 35.9601 116.263 36.4628 114.658C37.1666 112.151 39.6801 110.746 42.0931 111.448C44.6066 112.151 46.0142 114.658 45.3104 117.066C44.9082 118.47 44.6066 119.874 44.2044 121.379C43.8023 123.586 41.892 124.99 39.7806 124.99ZM251.52 108.74C249.71 108.74 247.9 107.637 247.197 105.831C246.694 104.427 246.091 103.123 245.488 101.718C244.482 99.4112 245.488 96.7028 247.8 95.5994C250.112 94.5963 252.827 95.5994 253.933 97.9065C254.637 99.4112 255.24 100.816 255.843 102.32C256.748 104.728 255.642 107.336 253.229 108.339C252.726 108.64 252.123 108.74 251.52 108.74ZM49.2315 99.0099C48.5277 99.0099 47.8239 98.8093 47.1201 98.5084C44.8077 97.3047 43.9028 94.5963 45.1093 92.2892C45.8131 90.8849 46.6174 89.4805 47.4217 88.0762C48.7288 85.8694 51.5439 85.0669 53.7558 86.3709C55.9677 87.6749 56.7721 90.4836 55.465 92.6904C54.7612 93.9944 54.0575 95.2985 53.3537 96.6025C52.5493 98.1072 50.9407 99.0099 49.2315 99.0099ZM238.148 84.5654C236.74 84.5654 235.333 83.8632 234.428 82.6595C233.523 81.4557 232.618 80.252 231.713 79.1486C230.105 77.1424 230.507 74.2334 232.518 72.6285C234.529 71.0235 237.444 71.4248 239.053 73.431C240.058 74.735 241.064 75.9387 241.969 77.2427C243.477 79.3492 242.974 82.1579 240.963 83.6625C240.058 84.2644 239.153 84.5654 238.148 84.5654ZM64.8153 76.1393C63.7094 76.1393 62.6034 75.7381 61.6986 74.9356C59.7883 73.2304 59.5872 70.3214 61.2964 68.4155C62.4024 67.2118 63.4078 66.0081 64.6143 64.9047C66.424 63.0991 69.3397 62.9988 71.1494 64.8043C72.9592 66.6099 73.0597 69.5189 71.25 71.3245C70.2445 72.4279 69.2391 73.431 68.2337 74.5344C67.4294 75.6378 66.1224 76.1393 64.8153 76.1393ZM219.246 64.3028C218.241 64.3028 217.135 64.0019 216.331 63.1994C215.225 62.2966 214.018 61.2935 212.812 60.3907C210.801 58.8861 210.399 55.9771 211.907 53.8706C213.415 51.8644 216.331 51.4632 218.442 52.9678C219.749 53.9709 220.956 54.974 222.263 55.9771C224.273 57.5821 224.474 60.491 222.866 62.4972C221.86 63.8013 220.553 64.3028 219.246 64.3028ZM85.6273 57.883C84.1192 57.883 82.7116 57.1808 81.8068 55.8768C80.3992 53.7703 80.9019 50.8613 83.0133 49.457C84.3203 48.5542 85.7279 47.6514 87.0349 46.8489C89.2468 45.5449 92.0619 46.1468 93.369 48.3536C94.676 50.5604 94.0728 53.369 91.8609 54.6731C90.6544 55.4755 89.3474 56.278 88.1409 57.0805C87.4371 57.6823 86.5322 57.883 85.6273 57.883ZM195.921 49.457C195.217 49.457 194.614 49.3566 193.91 49.0557C192.603 48.4539 191.195 47.852 189.888 47.2502C187.576 46.2471 186.47 43.5387 187.475 41.2316C188.481 38.9244 191.195 37.821 193.508 38.8241C195.016 39.426 196.423 40.1282 197.932 40.8303C200.244 41.9337 201.249 44.6421 200.144 46.9492C199.339 48.4539 197.63 49.457 195.921 49.457ZM110.36 45.3443C108.45 45.3443 106.741 44.1406 106.037 42.335C105.132 39.9275 106.439 37.3195 108.852 36.4167C110.36 35.9152 111.869 35.3133 113.377 34.9121C115.79 34.1096 118.404 35.5139 119.208 37.9214C120.012 40.3288 118.605 42.9368 116.192 43.7393C114.784 44.1405 113.377 44.6421 111.969 45.1436C111.366 45.2439 110.863 45.3443 110.36 45.3443ZM169.579 40.73C169.277 40.73 168.976 40.73 168.674 40.6297C167.267 40.3288 165.758 40.1282 164.25 39.8272C161.737 39.426 160.028 37.1189 160.329 34.5108C160.731 32.0031 163.044 30.2978 165.557 30.5987C167.166 30.7994 168.775 31.1003 170.283 31.4012C172.796 31.9028 174.405 34.3102 173.902 36.818C173.701 39.2254 171.791 40.73 169.579 40.73ZM137.305 39.2254C134.993 39.2254 132.982 37.4198 132.681 35.0124C132.479 32.5046 134.289 30.1975 136.803 29.9969C138.411 29.7963 140.02 29.696 141.629 29.5956C144.142 29.4953 146.354 31.4012 146.555 33.909C146.656 36.4167 144.745 38.6235 142.232 38.8241C140.724 38.9245 139.316 39.0248 137.808 39.1251C137.607 39.2254 137.506 39.2254 137.305 39.2254Z" fill="black"/>
<path d="M36.7915 149.439L42.485 137.602L29.3 138.588L36.7915 149.439Z" fill="#0B7C18"/>
<path d="M142.348 290C142.248 290 142.148 290 142.047 290C140.04 289.899 138.033 289.799 136.026 289.597C132.814 289.295 130.506 286.477 130.807 283.357C131.108 280.136 133.918 277.821 137.029 278.123C138.836 278.324 140.743 278.425 142.549 278.525C145.761 278.626 148.169 281.344 148.069 284.565C148.069 287.584 145.46 290 142.348 290ZM171.252 288.289C168.442 288.289 166.033 286.276 165.531 283.457C165.03 280.337 167.137 277.317 170.349 276.814C172.155 276.512 173.962 276.21 175.768 275.808C178.879 275.103 181.99 277.217 182.593 280.337C183.195 283.457 181.187 286.578 178.076 287.182C176.069 287.584 174.162 287.987 172.155 288.289C171.854 288.289 171.553 288.289 171.252 288.289ZM108.226 284.162C107.624 284.162 107.122 284.061 106.52 283.961C104.613 283.357 102.706 282.753 100.8 282.048C97.7888 281.042 96.1831 277.72 97.287 274.7C98.2906 271.681 101.602 270.07 104.613 271.177C106.319 271.781 108.126 272.385 109.932 272.889C112.943 273.794 114.75 277.015 113.746 280.136C113.043 282.451 110.735 284.162 108.226 284.162ZM204.471 278.425C202.263 278.425 200.155 277.116 199.152 274.902C197.847 271.983 199.152 268.56 202.163 267.252C203.869 266.547 205.575 265.742 207.181 264.937C210.091 263.528 213.503 264.735 214.908 267.554C216.313 270.473 215.109 273.895 212.299 275.304C210.492 276.21 208.686 277.015 206.879 277.821C205.976 278.223 205.173 278.425 204.471 278.425ZM76.613 269.97C75.6094 269.97 74.5054 269.668 73.6022 269.164C71.8961 268.158 70.19 267.051 68.4838 265.943C65.7741 264.131 65.0716 260.609 66.8781 257.891C68.6846 255.173 72.1972 254.469 74.9069 256.28C76.4122 257.287 78.018 258.293 79.6237 259.3C82.3334 260.911 83.2367 264.534 81.5306 267.252C80.527 268.963 78.6202 269.97 76.613 269.97ZM234.177 260.609C232.471 260.609 230.765 259.803 229.561 258.394C227.554 255.878 228.055 252.254 230.564 250.241C232.07 249.134 233.475 247.926 234.88 246.718C237.288 244.604 241.002 244.906 243.009 247.423C245.116 249.838 244.815 253.563 242.306 255.576C240.801 256.884 239.195 258.193 237.589 259.401C236.686 260.206 235.382 260.609 234.177 260.609ZM49.5159 248.329C48.0105 248.329 46.5051 247.725 45.4012 246.617C43.9961 245.208 42.5911 243.698 41.2865 242.189C39.1789 239.773 39.3796 236.149 41.6879 234.036C44.0965 231.922 47.7095 232.123 49.817 234.438C51.0213 235.847 52.326 237.156 53.6307 238.464C55.8386 240.779 55.8386 244.403 53.5303 246.718C52.4263 247.825 50.921 248.329 49.5159 248.329ZM258.565 235.948C257.36 235.948 256.056 235.545 255.052 234.74C252.543 232.828 252.041 229.103 254.048 226.587C255.152 225.077 256.256 223.668 257.36 222.158C259.167 219.541 262.78 218.937 265.389 220.749C267.998 222.561 268.601 226.184 266.794 228.801C265.59 230.412 264.385 232.022 263.181 233.633C261.977 235.243 260.271 235.948 258.565 235.948ZM28.5408 220.749C26.5336 220.749 24.6268 219.742 23.5228 217.83C22.5192 216.119 21.5156 214.307 20.6124 212.596C19.107 209.777 20.211 206.255 23.021 204.745C25.8311 203.235 29.3437 204.342 30.8491 207.16C31.7523 208.771 32.6555 210.381 33.5588 211.992C35.1645 214.81 34.2613 218.333 31.4512 219.944C30.4476 220.447 29.444 220.749 28.5408 220.749ZM276.228 206.053C275.425 206.053 274.722 205.852 273.92 205.55C271.009 204.241 269.604 200.819 270.909 197.9C271.611 196.189 272.314 194.478 273.016 192.767C274.12 189.747 277.533 188.237 280.443 189.445C283.454 190.552 284.959 193.975 283.755 196.894C283.052 198.806 282.249 200.618 281.447 202.53C280.543 204.745 278.436 206.053 276.228 206.053ZM14.9923 188.741C12.4833 188.741 10.175 187.029 9.47252 184.513C8.97072 182.601 8.46892 180.587 7.96713 178.675C7.26461 175.555 9.17143 172.434 12.2826 171.73C15.3937 171.025 18.5049 172.938 19.3077 176.058C19.7092 177.87 20.211 179.681 20.7128 181.393C21.616 184.513 19.8095 187.734 16.6984 188.539C15.9959 188.74 15.4941 188.741 14.9923 188.741ZM285.862 172.736C285.561 172.736 285.26 172.736 284.959 172.636C281.848 172.132 279.64 169.113 280.142 165.992C280.443 164.181 280.644 162.369 280.945 160.456C281.145 158.846 281.246 157.336 281.447 155.725C281.748 152.504 284.558 150.089 287.669 150.391C290.88 150.693 293.189 153.41 292.988 156.631C292.887 158.343 292.687 160.054 292.486 161.765C292.285 163.778 291.984 165.791 291.683 167.703C291.081 170.622 288.672 172.736 285.862 172.736ZM286.464 133.078C283.554 133.078 281.145 130.964 280.744 128.045C280.543 126.233 280.242 124.321 279.941 122.509C279.439 119.389 281.547 116.369 284.658 115.765C287.769 115.262 290.78 117.376 291.382 120.496C291.683 122.509 291.984 124.522 292.285 126.435C292.687 129.656 290.479 132.474 287.267 132.877C286.966 133.078 286.665 133.078 286.464 133.078ZM13.1858 119.892C12.7844 119.892 12.3829 119.892 11.8811 119.791C8.77 119.087 6.76281 115.967 7.46533 112.846C7.86677 110.833 8.36856 108.921 8.87035 107.008C9.67323 103.888 12.8847 102.076 15.9959 102.881C19.107 103.687 20.9135 106.908 20.1106 110.028C19.6088 111.84 19.2074 113.651 18.8059 115.463C18.2038 118.08 15.7952 119.892 13.1858 119.892ZM277.834 99.459C275.525 99.459 273.317 98.0498 272.414 95.8354C271.712 94.1243 271.009 92.4131 270.307 90.702C269.002 87.783 270.307 84.3607 273.217 83.0521C276.127 81.7436 279.54 83.0521 280.844 85.9711C281.647 87.7829 282.45 89.6954 283.153 91.5072C284.357 94.5269 282.852 97.8485 279.941 99.0564C279.239 99.3583 278.536 99.459 277.834 99.459ZM24.9279 87.2797C24.0246 87.2797 23.1214 87.0784 22.3185 86.6757C19.5084 85.1659 18.3041 81.7436 19.8095 78.8246C20.7128 77.0128 21.7164 75.201 22.72 73.4899C24.3257 70.6715 27.8383 69.7656 30.6483 71.2755C33.4584 72.8859 34.3616 76.4089 32.8562 79.2272C31.953 80.8377 31.0498 82.4482 30.2469 84.1594C29.143 86.0718 27.0354 87.2797 24.9279 87.2797ZM261.174 69.061C259.367 69.061 257.661 68.2558 256.457 66.6453C255.353 65.1355 254.249 63.6256 253.145 62.2165C251.138 59.7001 251.64 56.0765 254.149 54.0633C256.658 52.0502 260.271 52.5535 262.278 55.0699C263.482 56.6804 264.787 58.2909 265.891 59.9014C267.798 62.5184 267.195 66.142 264.586 68.0545C263.482 68.6584 262.278 69.061 261.174 69.061ZM44.4979 58.4922C43.0929 58.4922 41.7882 57.9889 40.6843 57.083C38.2757 54.9692 38.0749 51.245 40.1825 48.9299C41.4872 47.4201 42.8922 45.9102 44.2972 44.5011C46.5051 42.186 50.2184 42.0853 52.5267 44.2997C54.835 46.5142 54.9353 50.2384 52.7274 52.5535C51.4227 53.862 50.2184 55.2712 49.0141 56.6804C47.7095 57.8883 46.1037 58.4922 44.4979 58.4922ZM237.489 43.6958C236.184 43.6958 234.88 43.2932 233.776 42.3873C232.371 41.1794 230.865 40.0722 229.46 38.8643C226.951 36.9519 226.45 33.2276 228.356 30.7112C230.263 28.1949 233.977 27.6916 236.485 29.604C238.091 30.8119 239.697 32.1204 241.202 33.429C243.611 35.4421 244.012 39.1663 241.905 41.5821C240.801 42.9912 239.195 43.6958 237.489 43.6958ZM70.491 35.5427C68.6846 35.5427 66.7777 34.6368 65.6738 33.0263C63.8673 30.4093 64.5698 26.7857 67.1792 24.9739C68.8853 23.8667 70.491 22.7595 72.1972 21.6522C74.9069 19.9411 78.5198 20.7463 80.1255 23.5647C81.8317 26.2824 81.0288 29.906 78.2187 31.5165C76.613 32.5231 75.1076 33.5296 73.6022 34.5362C72.7993 35.2408 71.595 35.5427 70.491 35.5427ZM208.285 24.9739C207.482 24.9739 206.578 24.7726 205.776 24.37C204.069 23.5647 202.464 22.8601 200.657 22.0549C197.747 20.847 196.342 17.4247 197.546 14.4051C198.75 11.486 202.163 10.0769 205.173 11.2847C207.08 12.09 208.887 12.8952 210.693 13.8011C213.604 15.2103 214.808 18.6326 213.403 21.5516C212.6 23.6653 210.492 24.9739 208.285 24.9739ZM101.301 19.7398C98.8928 19.7398 96.6849 18.23 95.882 15.9149C94.778 12.8952 96.3838 9.57357 99.3946 8.46636C101.301 7.76177 103.208 7.15784 105.115 6.55391C108.126 5.54735 111.438 7.25851 112.341 10.3788C113.345 13.3985 111.638 16.7201 108.527 17.626C106.721 18.23 105.015 18.7332 103.309 19.4378C102.606 19.6391 102.004 19.7398 101.301 19.7398ZM175.467 14.1031C175.066 14.1031 174.764 14.1031 174.363 14.0024C172.557 13.5998 170.75 13.2978 168.944 13.0965C165.832 12.5932 163.625 9.67422 164.126 6.45324C164.628 3.33292 167.539 1.11851 170.75 1.62179C172.757 1.92376 174.764 2.22572 176.671 2.62834C179.782 3.23228 181.89 6.25193 181.288 9.47291C180.585 12.09 178.177 14.1031 175.467 14.1031ZM135.122 12.09C132.212 12.09 129.703 9.87556 129.402 6.85589C129.101 3.63491 131.409 0.816538 134.621 0.514572C136.628 0.31326 138.635 0.212605 140.642 0.0112938C143.753 -0.190017 146.563 2.32637 146.764 5.44669C146.965 8.66767 144.456 11.3854 141.345 11.5867C139.538 11.6873 137.631 11.788 135.825 11.9893C135.424 12.09 135.323 12.09 135.122 12.09Z" fill="black"/>
<path d="M9.12537 150.918L16.115 136.122L0 137.503L9.12537 150.918Z" fill="#0B7C18"/>
</g>
<defs>
<clipPath id="clip0_2001_107560">
<rect width="293" height="176" fill="white"/>
</clipPath>
</defs>
</svg>
