<svg width="112" height="75" viewBox="0 0 112 75" fill="none" xmlns="http://www.w3.org/2000/svg">
<rect width="83.2077" height="46.0416" transform="translate(14.3743 13.8606)" fill="white" style="mix-blend-mode:multiply"/>
<g filter="url(#filter0_d_1_5258)">
<path d="M84.0608 11.8606C92.5181 11.8606 99.3743 18.7168 99.3743 27.1741V46.5471C99.3743 55.0044 92.5181 61.8606 84.0608 61.8606H27.6877C19.2305 61.8606 12.3743 55.0044 12.3743 46.5471V27.1741C12.3743 20.1769 17.0675 14.2756 23.4778 12.4465V14.5393C18.1882 16.3011 14.3743 21.2925 14.3743 27.1741V46.5471L14.3782 46.8909C14.5575 53.9707 20.2642 59.6774 27.344 59.8567L27.6877 59.8606H84.0608L84.4045 59.8567C91.4843 59.6774 97.1911 53.9707 97.3704 46.8909L97.3743 46.5471V27.1741C97.3743 19.9362 91.5985 14.0467 84.4045 13.8645L84.0608 13.8606H81.9875V11.8606H84.0608Z" fill="#0B7C18"/>
</g>
<path d="M30.0588 10.0403V17.8606H28.7107V10.0403H30.0588ZM33.2493 13.4617V14.5305H29.7151V13.4617H33.2493ZM33.6951 10.0403V11.1145H29.7151V10.0403H33.6951ZM38.2341 16.6951V13.9236C38.2341 13.7159 38.1965 13.5369 38.1213 13.3865C38.0461 13.2361 37.9316 13.1197 37.7776 13.0374C37.6272 12.955 37.4374 12.9138 37.2083 12.9138C36.997 12.9138 36.8144 12.9496 36.6604 13.0212C36.5064 13.0929 36.3865 13.1895 36.3005 13.3113C36.2146 13.433 36.1716 13.5709 36.1716 13.7249H34.8826C34.8826 13.4957 34.9381 13.2737 35.0491 13.0588C35.1601 12.844 35.3212 12.6524 35.5325 12.4841C35.7437 12.3158 35.9962 12.1833 36.2898 12.0867C36.5834 11.99 36.9128 11.9417 37.2781 11.9417C37.7149 11.9417 38.1016 12.0151 38.4382 12.1619C38.7784 12.3087 39.0452 12.5307 39.2385 12.8279C39.4355 13.1215 39.5339 13.4903 39.5339 13.9343V16.5178C39.5339 16.7828 39.5518 17.0209 39.5876 17.2322C39.627 17.4399 39.6825 17.6207 39.7542 17.7747V17.8606H38.4275C38.3666 17.7209 38.3183 17.5437 38.2825 17.3289C38.2502 17.1104 38.2341 16.8992 38.2341 16.6951ZM38.4221 14.3264L38.4329 15.1267H37.5037C37.2638 15.1267 37.0525 15.15 36.8699 15.1965C36.6873 15.2395 36.5351 15.304 36.4133 15.3899C36.2916 15.4758 36.2003 15.5797 36.1394 15.7014C36.0785 15.8232 36.0481 15.961 36.0481 16.115C36.0481 16.269 36.0839 16.4104 36.1555 16.5393C36.2271 16.6646 36.331 16.7631 36.467 16.8347C36.6067 16.9063 36.775 16.9421 36.9719 16.9421C37.2369 16.9421 37.4679 16.8884 37.6648 16.781C37.8653 16.67 38.0229 16.5357 38.1375 16.3782C38.252 16.217 38.3129 16.0649 38.3201 15.9216L38.739 16.4963C38.696 16.6431 38.6226 16.8007 38.5188 16.969C38.415 17.1373 38.2789 17.2984 38.1106 17.4524C37.9459 17.6028 37.7472 17.7263 37.5144 17.823C37.2852 17.9197 37.0203 17.968 36.7195 17.968C36.3399 17.968 36.0015 17.8928 35.7043 17.7424C35.4071 17.5885 35.1744 17.3826 35.0061 17.1248C34.8378 16.8634 34.7537 16.568 34.7537 16.2385C34.7537 15.9306 34.811 15.6584 34.9255 15.4221C35.0437 15.1822 35.2156 14.9817 35.4412 14.8206C35.6703 14.6594 35.9496 14.5377 36.2791 14.4553C36.6085 14.3694 36.9845 14.3264 37.407 14.3264H38.4221ZM43.7615 16.9368C43.9727 16.9368 44.1625 16.8956 44.3308 16.8132C44.5027 16.7273 44.6405 16.6091 44.7444 16.4587C44.8518 16.3083 44.9109 16.1347 44.9216 15.9377H46.1409C46.1337 16.3137 46.0227 16.6557 45.8079 16.9636C45.593 17.2716 45.3083 17.5168 44.9539 17.6995C44.5994 17.8785 44.2073 17.968 43.7776 17.968C43.3336 17.968 42.9469 17.8928 42.6174 17.7424C42.288 17.5885 42.0141 17.3772 41.7957 17.1086C41.5772 16.8401 41.4125 16.5304 41.3015 16.1794C41.1941 15.8285 41.1404 15.4526 41.1404 15.0515V14.8635C41.1404 14.4625 41.1941 14.0865 41.3015 13.7356C41.4125 13.3811 41.5772 13.0696 41.7957 12.801C42.0141 12.5325 42.288 12.323 42.6174 12.1726C42.9469 12.0186 43.3318 11.9417 43.7722 11.9417C44.2377 11.9417 44.6459 12.0347 44.9968 12.2209C45.3477 12.4036 45.6235 12.6596 45.824 12.989C46.0281 13.3149 46.1337 13.6944 46.1409 14.1277H44.9216C44.9109 13.9128 44.8572 13.7195 44.7605 13.5476C44.6674 13.3722 44.5349 13.2325 44.363 13.1287C44.1947 13.0248 43.9924 12.9729 43.7561 12.9729C43.4947 12.9729 43.2781 13.0266 43.1062 13.134C42.9343 13.2379 42.8 13.3811 42.7034 13.5637C42.6067 13.7428 42.5369 13.9451 42.4939 14.1707C42.4545 14.3927 42.4348 14.6236 42.4348 14.8635V15.0515C42.4348 15.2914 42.4545 15.5242 42.4939 15.7498C42.5333 15.9753 42.6013 16.1777 42.698 16.3567C42.7983 16.5321 42.9343 16.6736 43.1062 16.781C43.2781 16.8848 43.4965 16.9368 43.7615 16.9368ZM50.1965 17.968C49.7668 17.968 49.3783 17.8982 49.031 17.7585C48.6873 17.6153 48.3936 17.4166 48.1501 17.1624C47.9102 16.9081 47.7258 16.6091 47.5969 16.2654C47.468 15.9216 47.4036 15.551 47.4036 15.1536V14.9387C47.4036 14.484 47.4698 14.0722 47.6023 13.7034C47.7348 13.3346 47.9192 13.0194 48.1555 12.7581C48.3918 12.4931 48.6711 12.2908 48.9934 12.1511C49.3157 12.0115 49.6648 11.9417 50.0408 11.9417C50.4561 11.9417 50.8196 12.0115 51.1311 12.1511C51.4426 12.2908 51.7004 12.4877 51.9045 12.7419C52.1122 12.9926 52.2662 13.2916 52.3665 13.6389C52.4703 13.9862 52.5222 14.3694 52.5222 14.7883V15.3416H48.032V14.4124H51.2439V14.3103C51.2367 14.0776 51.1902 13.8591 51.1042 13.655C51.0219 13.4509 50.8948 13.2862 50.7229 13.1609C50.551 13.0356 50.3219 12.9729 50.0354 12.9729C49.8206 12.9729 49.629 13.0194 49.4607 13.1125C49.296 13.2021 49.1581 13.3328 49.0471 13.5046C48.9361 13.6765 48.8502 13.8842 48.7893 14.1277C48.732 14.3676 48.7034 14.6379 48.7034 14.9387V15.1536C48.7034 15.4078 48.7374 15.6441 48.8054 15.8625C48.877 16.0774 48.9809 16.2654 49.1169 16.4265C49.253 16.5876 49.4177 16.7148 49.6111 16.8079C49.8044 16.8974 50.0247 16.9421 50.2717 16.9421C50.5833 16.9421 50.8608 16.8795 51.1042 16.7542C51.3477 16.6288 51.559 16.4516 51.738 16.2224L52.4202 16.8831C52.2948 17.0657 52.1319 17.2411 51.9314 17.4094C51.7309 17.5741 51.4856 17.7084 51.1956 17.8123C50.9091 17.9161 50.5761 17.968 50.1965 17.968ZM54.0374 9.6106H55.3318V16.6199L55.2083 17.8606H54.0374V9.6106ZM59.1238 14.9011V15.0139C59.1238 15.4436 59.0754 15.8393 58.9788 16.2009C58.8857 16.559 58.7424 16.8705 58.5491 17.1355C58.3593 17.4005 58.123 17.6064 57.8401 17.7532C57.5608 17.8964 57.2367 17.968 56.8679 17.968C56.5063 17.968 56.1912 17.9 55.9226 17.7639C55.6541 17.6278 55.4285 17.4345 55.2458 17.1838C55.0668 16.9332 54.9218 16.6342 54.8108 16.2869C54.6998 15.9395 54.621 15.5564 54.5745 15.1375V14.7776C54.621 14.3551 54.6998 13.9719 54.8108 13.6282C54.9218 13.2808 55.0668 12.9819 55.2458 12.7312C55.4285 12.477 55.6523 12.2818 55.9172 12.1458C56.1858 12.0097 56.4991 11.9417 56.8572 11.9417C57.2296 11.9417 57.5572 12.0133 57.8401 12.1565C58.1265 12.2997 58.3647 12.5038 58.5544 12.7688C58.7442 13.0302 58.8857 13.3417 58.9788 13.7034C59.0754 14.065 59.1238 14.4643 59.1238 14.9011ZM57.8293 15.0139V14.9011C57.8293 14.6397 57.8079 14.3944 57.7649 14.1653C57.7219 13.9325 57.6503 13.7284 57.55 13.553C57.4534 13.3775 57.3209 13.2397 57.1526 13.1394C56.9879 13.0356 56.782 12.9836 56.5349 12.9836C56.3057 12.9836 56.1088 13.023 55.9441 13.1018C55.7794 13.1806 55.6415 13.288 55.5305 13.4241C55.4195 13.5601 55.3318 13.7177 55.2673 13.8967C55.2065 14.0758 55.1653 14.2691 55.1438 14.4768V15.449C55.176 15.7175 55.2441 15.9646 55.3479 16.1902C55.4553 16.4122 55.6057 16.5912 55.7991 16.7273C55.9924 16.8598 56.2413 16.926 56.5457 16.926C56.7856 16.926 56.9879 16.8777 57.1526 16.781C57.3173 16.6843 57.448 16.55 57.5447 16.3782C57.6449 16.2027 57.7166 15.9986 57.7595 15.7659C57.8061 15.5331 57.8293 15.2825 57.8293 15.0139ZM60.4724 15.0193V14.8958C60.4724 14.4768 60.5333 14.0883 60.655 13.7302C60.7768 13.3686 60.9522 13.0553 61.1814 12.7903C61.4141 12.5217 61.697 12.314 62.03 12.1672C62.3666 12.0168 62.7462 11.9417 63.1687 11.9417C63.5948 11.9417 63.9744 12.0168 64.3074 12.1672C64.644 12.314 64.9286 12.5217 65.1614 12.7903C65.3941 13.0553 65.5714 13.3686 65.6931 13.7302C65.8149 14.0883 65.8757 14.4768 65.8757 14.8958V15.0193C65.8757 15.4382 65.8149 15.8267 65.6931 16.1848C65.5714 16.5429 65.3941 16.8562 65.1614 17.1248C64.9286 17.3897 64.6458 17.5974 64.3127 17.7478C63.9797 17.8946 63.602 17.968 63.1794 17.968C62.7533 17.968 62.372 17.8946 62.0354 17.7478C61.7024 17.5974 61.4195 17.3897 61.1868 17.1248C60.954 16.8562 60.7768 16.5429 60.655 16.1848C60.5333 15.8267 60.4724 15.4382 60.4724 15.0193ZM61.7668 14.8958V15.0193C61.7668 15.2807 61.7937 15.5278 61.8474 15.7605C61.9011 15.9932 61.9853 16.1973 62.0999 16.3728C62.2144 16.5483 62.3612 16.6861 62.5403 16.7864C62.7193 16.8866 62.9324 16.9368 63.1794 16.9368C63.4194 16.9368 63.627 16.8866 63.8025 16.7864C63.9815 16.6861 64.1283 16.5483 64.2429 16.3728C64.3575 16.1973 64.4417 15.9932 64.4954 15.7605C64.5527 15.5278 64.5813 15.2807 64.5813 15.0193V14.8958C64.5813 14.6379 64.5527 14.3944 64.4954 14.1653C64.4417 13.9325 64.3557 13.7266 64.2375 13.5476C64.123 13.3686 63.9762 13.2289 63.7971 13.1287C63.6217 13.0248 63.4122 12.9729 63.1687 12.9729C62.9252 12.9729 62.7139 13.0248 62.5349 13.1287C62.3595 13.2289 62.2144 13.3686 62.0999 13.5476C61.9853 13.7266 61.9011 13.9325 61.8474 14.1653C61.7937 14.3944 61.7668 14.6379 61.7668 14.8958ZM67.2136 15.0193V14.8958C67.2136 14.4768 67.2745 14.0883 67.3962 13.7302C67.518 13.3686 67.6934 13.0553 67.9226 12.7903C68.1554 12.5217 68.4382 12.314 68.7712 12.1672C69.1078 12.0168 69.4874 11.9417 69.9099 11.9417C70.336 11.9417 70.7156 12.0168 71.0486 12.1672C71.3852 12.314 71.6698 12.5217 71.9026 12.7903C72.1353 13.0553 72.3126 13.3686 72.4343 13.7302C72.5561 14.0883 72.6169 14.4768 72.6169 14.8958V15.0193C72.6169 15.4382 72.5561 15.8267 72.4343 16.1848C72.3126 16.5429 72.1353 16.8562 71.9026 17.1248C71.6698 17.3897 71.387 17.5974 71.054 17.7478C70.7209 17.8946 70.3432 17.968 69.9207 17.968C69.4945 17.968 69.1132 17.8946 68.7766 17.7478C68.4436 17.5974 68.1607 17.3897 67.928 17.1248C67.6952 16.8562 67.518 16.5429 67.3962 16.1848C67.2745 15.8267 67.2136 15.4382 67.2136 15.0193ZM68.5081 14.8958V15.0193C68.5081 15.2807 68.5349 15.5278 68.5886 15.7605C68.6423 15.9932 68.7265 16.1973 68.8411 16.3728C68.9556 16.5483 69.1025 16.6861 69.2815 16.7864C69.4605 16.8866 69.6736 16.9368 69.9207 16.9368C70.1606 16.9368 70.3682 16.8866 70.5437 16.7864C70.7227 16.6861 70.8695 16.5483 70.9841 16.3728C71.0987 16.1973 71.1829 15.9932 71.2366 15.7605C71.2939 15.5278 71.3225 15.2807 71.3225 15.0193V14.8958C71.3225 14.6379 71.2939 14.3944 71.2366 14.1653C71.1829 13.9325 71.0969 13.7266 70.9788 13.5476C70.8642 13.3686 70.7174 13.2289 70.5383 13.1287C70.3629 13.0248 70.1534 12.9729 69.9099 12.9729C69.6664 12.9729 69.4552 13.0248 69.2761 13.1287C69.1007 13.2289 68.9556 13.3686 68.8411 13.5476C68.7265 13.7266 68.6423 13.9325 68.5886 14.1653C68.5349 14.3944 68.5081 14.6379 68.5081 14.8958ZM75.5071 9.6106V17.8606H74.2073V9.6106H75.5071ZM79.1165 12.0491L76.5867 14.8528L75.2009 16.2708L74.8625 15.175L75.9099 13.8806L77.5535 12.0491H79.1165ZM77.8328 17.8606L75.9475 15.1321L76.7639 14.2244L79.3313 17.8606H77.8328Z" fill="#0B7C18"/>
<path d="M65.8743 36.9064C65.8743 31.3864 61.3943 26.9064 55.8743 26.9064C50.3543 26.9064 45.8743 31.3864 45.8743 36.9064C45.8743 41.7464 49.3143 45.7764 53.8743 46.7064V39.9064H51.8743V36.9064H53.8743V34.4064C53.8743 32.4764 55.4443 30.9064 57.3743 30.9064H59.8743V33.9064H57.8743C57.3243 33.9064 56.8743 34.3564 56.8743 34.9064V36.9064H59.8743V39.9064H56.8743V46.8564C61.9243 46.3564 65.8743 42.0964 65.8743 36.9064Z" fill="black"/>
<defs>
<filter id="filter0_d_1_5258" x="0.374268" y="0.860596" width="111" height="74" filterUnits="userSpaceOnUse" color-interpolation-filters="sRGB">
<feFlood flood-opacity="0" result="BackgroundImageFix"/>
<feColorMatrix in="SourceAlpha" type="matrix" values="0 0 0 0 0 0 0 0 0 0 0 0 0 0 0 0 0 0 127 0" result="hardAlpha"/>
<feOffset dy="1"/>
<feGaussianBlur stdDeviation="6"/>
<feComposite in2="hardAlpha" operator="out"/>
<feColorMatrix type="matrix" values="0 0 0 0 0.0355208 0 0 0 0 0.775 0 0 0 0 0.120592 0 0 0 0.58 0"/>
<feBlend mode="normal" in2="BackgroundImageFix" result="effect1_dropShadow_1_5258"/>
<feBlend mode="normal" in="SourceGraphic" in2="effect1_dropShadow_1_5258" result="shape"/>
</filter>
</defs>
</svg>
