<svg width="112" height="75" viewBox="0 0 112 75" fill="none" xmlns="http://www.w3.org/2000/svg">
<rect width="83.2077" height="46.0416" transform="translate(14.6345 13.8606)" fill="white" style="mix-blend-mode:multiply"/>
<g filter="url(#filter0_d_1_5249)">
<path d="M84.321 11.8606C92.7783 11.8606 99.6345 18.7168 99.6345 27.1741V46.5471C99.6345 55.0044 92.7783 61.8606 84.321 61.8606H27.948C19.4907 61.8606 12.6345 55.0044 12.6345 46.5471V27.1741C12.6345 20.2718 17.2015 14.4363 23.4783 12.5237V14.6292C18.324 16.4659 14.6345 21.3893 14.6345 27.1741V46.5471L14.6384 46.8909C14.8177 53.9707 20.5245 59.6774 27.6042 59.8567L27.948 59.8606H84.321L84.6648 59.8567C91.7446 59.6774 97.4513 53.9707 97.6306 46.8909L97.6345 46.5471V27.1741C97.6345 19.9362 91.8587 14.0467 84.6648 13.8645L84.321 13.8606H66.988V11.8606H84.321Z" fill="#0B7C18"/>
</g>
<path d="M32.7156 11.8853V14.8716C32.6046 15.0184 32.4309 15.1795 32.1946 15.355C31.9618 15.5269 31.6521 15.6755 31.2654 15.8008C30.8787 15.9261 30.3971 15.9888 29.8206 15.9888C29.33 15.9888 28.8806 15.9064 28.4724 15.7417C28.0642 15.5734 27.7115 15.3281 27.4143 15.0059C27.1207 14.6836 26.8933 14.2915 26.7322 13.8296C26.571 13.3641 26.4905 12.8341 26.4905 12.2397V11.6973C26.4905 11.1064 26.5639 10.5801 26.7107 10.1182C26.8611 9.65267 27.0759 9.25879 27.3552 8.93652C27.6345 8.61426 27.9711 8.37077 28.365 8.20605C28.7625 8.03776 29.2118 7.95361 29.7131 7.95361C30.3541 7.95361 30.884 8.06104 31.303 8.27588C31.7255 8.48714 32.0514 8.78076 32.2805 9.15674C32.5097 9.53271 32.6547 9.9624 32.7156 10.4458H31.3943C31.3513 10.1737 31.2672 9.93018 31.1418 9.71533C31.0201 9.50049 30.8446 9.33219 30.6155 9.21045C30.3899 9.08512 30.0963 9.02246 29.7346 9.02246C29.4231 9.02246 29.1492 9.08154 28.9128 9.19971C28.6765 9.31787 28.4796 9.49154 28.322 9.7207C28.1681 9.94987 28.0517 10.2292 27.9729 10.5586C27.8941 10.888 27.8547 11.264 27.8547 11.6865V12.2397C27.8547 12.6694 27.8995 13.0508 27.989 13.3838C28.0821 13.7168 28.2146 13.9979 28.3865 14.2271C28.5619 14.4562 28.775 14.6299 29.0256 14.748C29.2763 14.8626 29.5592 14.9199 29.8743 14.9199C30.1822 14.9199 30.4347 14.8949 30.6316 14.8447C30.8285 14.791 30.9843 14.7284 31.0989 14.6567C31.217 14.5815 31.3083 14.5099 31.3728 14.4419V12.8896H29.7454V11.8853H32.7156ZM34.3328 13.04V12.9165C34.3328 12.4976 34.3936 12.109 34.5154 11.751C34.6371 11.3893 34.8126 11.076 35.0417 10.811C35.2745 10.5425 35.5574 10.3348 35.8904 10.188C36.227 10.0376 36.6065 9.9624 37.0291 9.9624C37.4552 9.9624 37.8347 10.0376 38.1677 10.188C38.5043 10.3348 38.789 10.5425 39.0217 10.811C39.2545 11.076 39.4317 11.3893 39.5535 11.751C39.6752 12.109 39.7361 12.4976 39.7361 12.9165V13.04C39.7361 13.459 39.6752 13.8475 39.5535 14.2056C39.4317 14.5636 39.2545 14.877 39.0217 15.1455C38.789 15.4105 38.5061 15.6182 38.1731 15.7686C37.8401 15.9154 37.4623 15.9888 37.0398 15.9888C36.6137 15.9888 36.2323 15.9154 35.8958 15.7686C35.5627 15.6182 35.2799 15.4105 35.0471 15.1455C34.8144 14.877 34.6371 14.5636 34.5154 14.2056C34.3936 13.8475 34.3328 13.459 34.3328 13.04ZM35.6272 12.9165V13.04C35.6272 13.3014 35.6541 13.5485 35.7078 13.7812C35.7615 14.014 35.8456 14.2181 35.9602 14.3936C36.0748 14.569 36.2216 14.7069 36.4006 14.8071C36.5797 14.9074 36.7927 14.9575 37.0398 14.9575C37.2797 14.9575 37.4874 14.9074 37.6628 14.8071C37.8419 14.7069 37.9887 14.569 38.1033 14.3936C38.2179 14.2181 38.302 14.014 38.3557 13.7812C38.413 13.5485 38.4417 13.3014 38.4417 13.04V12.9165C38.4417 12.6587 38.413 12.4152 38.3557 12.186C38.302 11.9533 38.2161 11.7474 38.0979 11.5684C37.9833 11.3893 37.8365 11.2497 37.6575 11.1494C37.482 11.0456 37.2725 10.9937 37.0291 10.9937C36.7856 10.9937 36.5743 11.0456 36.3953 11.1494C36.2198 11.2497 36.0748 11.3893 35.9602 11.5684C35.8456 11.7474 35.7615 11.9533 35.7078 12.186C35.6541 12.4152 35.6272 12.6587 35.6272 12.9165ZM41.074 13.04V12.9165C41.074 12.4976 41.1348 12.109 41.2566 11.751C41.3783 11.3893 41.5538 11.076 41.783 10.811C42.0157 10.5425 42.2986 10.3348 42.6316 10.188C42.9682 10.0376 43.3477 9.9624 43.7703 9.9624C44.1964 9.9624 44.5759 10.0376 44.9089 10.188C45.2455 10.3348 45.5302 10.5425 45.7629 10.811C45.9957 11.076 46.1729 11.3893 46.2947 11.751C46.4164 12.109 46.4773 12.4976 46.4773 12.9165V13.04C46.4773 13.459 46.4164 13.8475 46.2947 14.2056C46.1729 14.5636 45.9957 14.877 45.7629 15.1455C45.5302 15.4105 45.2473 15.6182 44.9143 15.7686C44.5813 15.9154 44.2035 15.9888 43.781 15.9888C43.3549 15.9888 42.9736 15.9154 42.637 15.7686C42.304 15.6182 42.0211 15.4105 41.7883 15.1455C41.5556 14.877 41.3783 14.5636 41.2566 14.2056C41.1348 13.8475 41.074 13.459 41.074 13.04ZM42.3684 12.9165V13.04C42.3684 13.3014 42.3953 13.5485 42.449 13.7812C42.5027 14.014 42.5868 14.2181 42.7014 14.3936C42.816 14.569 42.9628 14.7069 43.1418 14.8071C43.3209 14.9074 43.5339 14.9575 43.781 14.9575C44.0209 14.9575 44.2286 14.9074 44.4041 14.8071C44.5831 14.7069 44.7299 14.569 44.8445 14.3936C44.9591 14.2181 45.0432 14.014 45.0969 13.7812C45.1542 13.5485 45.1829 13.3014 45.1829 13.04V12.9165C45.1829 12.6587 45.1542 12.4152 45.0969 12.186C45.0432 11.9533 44.9573 11.7474 44.8391 11.5684C44.7245 11.3893 44.5777 11.2497 44.3987 11.1494C44.2232 11.0456 44.0138 10.9937 43.7703 10.9937C43.5268 10.9937 43.3155 11.0456 43.1365 11.1494C42.961 11.2497 42.816 11.3893 42.7014 11.5684C42.5868 11.7474 42.5027 11.9533 42.449 12.186C42.3953 12.4152 42.3684 12.6587 42.3684 12.9165ZM51.7844 10.0698H52.9607V15.7202C52.9607 16.243 52.8497 16.687 52.6277 17.0522C52.4057 17.4175 52.0959 17.695 51.6985 17.8848C51.301 18.0781 50.8409 18.1748 50.3181 18.1748C50.0961 18.1748 49.849 18.1426 49.5769 18.0781C49.3083 18.0137 49.047 17.9098 48.7927 17.7666C48.5421 17.627 48.3326 17.4425 48.1643 17.2134L48.7712 16.4507C48.9789 16.6978 49.2081 16.8786 49.4587 16.9932C49.7094 17.1077 49.9726 17.165 50.2483 17.165C50.5455 17.165 50.7979 17.1095 51.0056 16.9985C51.2169 16.8911 51.3798 16.7318 51.4944 16.5205C51.609 16.3092 51.6663 16.0514 51.6663 15.7471V11.3857L51.7844 10.0698ZM47.8367 13.04V12.9272C47.8367 12.4868 47.8904 12.0858 47.9978 11.7241C48.1052 11.3589 48.2592 11.0456 48.4597 10.7842C48.6602 10.5192 48.9037 10.3169 49.1902 10.1772C49.4766 10.034 49.8007 9.9624 50.1624 9.9624C50.5383 9.9624 50.8588 10.0304 51.1238 10.1665C51.3923 10.3026 51.6161 10.4977 51.7952 10.752C51.9742 11.0026 52.1139 11.3034 52.2141 11.6543C52.318 12.0016 52.3949 12.3883 52.4451 12.8145V13.1743C52.3985 13.5897 52.3197 13.9692 52.2087 14.313C52.0977 14.6567 51.9509 14.9539 51.7683 15.2046C51.5857 15.4552 51.3601 15.6486 51.0916 15.7847C50.8266 15.9207 50.5133 15.9888 50.1516 15.9888C49.7971 15.9888 49.4766 15.9154 49.1902 15.7686C48.9073 15.6217 48.6638 15.4159 48.4597 15.1509C48.2592 14.8859 48.1052 14.5744 47.9978 14.2163C47.8904 13.8547 47.8367 13.4626 47.8367 13.04ZM49.1311 12.9272V13.04C49.1311 13.305 49.1562 13.5521 49.2063 13.7812C49.26 14.0104 49.3406 14.2127 49.448 14.3882C49.559 14.5601 49.6986 14.6961 49.8669 14.7964C50.0388 14.8931 50.2411 14.9414 50.4739 14.9414C50.7782 14.9414 51.0271 14.877 51.2205 14.748C51.4174 14.6191 51.5678 14.4455 51.6716 14.2271C51.7791 14.005 51.8542 13.758 51.8972 13.4858V12.5137C51.8757 12.3024 51.831 12.1055 51.7629 11.9229C51.6985 11.7402 51.6108 11.5809 51.4998 11.4448C51.3888 11.3052 51.2491 11.1978 51.0808 11.1226C50.9125 11.0438 50.7138 11.0044 50.4846 11.0044C50.2519 11.0044 50.0496 11.0545 49.8777 11.1548C49.7058 11.255 49.5644 11.3929 49.4534 11.5684C49.3459 11.7438 49.2654 11.9479 49.2117 12.1807C49.158 12.4134 49.1311 12.6623 49.1311 12.9272ZM56.1892 7.63135V15.8813H54.8894V7.63135H56.1892ZM60.6692 15.9888C60.2395 15.9888 59.851 15.9189 59.5037 15.7793C59.1599 15.6361 58.8663 15.4373 58.6228 15.1831C58.3829 14.9289 58.1985 14.6299 58.0696 14.2861C57.9407 13.9424 57.8762 13.5718 57.8762 13.1743V12.9595C57.8762 12.5047 57.9425 12.0929 58.075 11.7241C58.2074 11.3553 58.3918 11.0402 58.6282 10.7788C58.8645 10.5138 59.1438 10.3115 59.4661 10.1719C59.7883 10.0322 60.1375 9.9624 60.5134 9.9624C60.9288 9.9624 61.2922 10.0322 61.6038 10.1719C61.9153 10.3115 62.1731 10.5085 62.3772 10.7627C62.5849 11.0133 62.7389 11.3123 62.8391 11.6597C62.943 12.007 62.9949 12.3901 62.9949 12.8091V13.3623H58.5046V12.4331H61.7166V12.3311C61.7094 12.0983 61.6628 11.8799 61.5769 11.6758C61.4945 11.4717 61.3674 11.307 61.1956 11.1816C61.0237 11.0563 60.7945 10.9937 60.5081 10.9937C60.2932 10.9937 60.1016 11.0402 59.9333 11.1333C59.7686 11.2228 59.6308 11.3535 59.5198 11.5254C59.4088 11.6973 59.3228 11.9049 59.262 12.1484C59.2047 12.3883 59.176 12.6587 59.176 12.9595V13.1743C59.176 13.4285 59.21 13.6649 59.2781 13.8833C59.3497 14.0981 59.4535 14.2861 59.5896 14.4473C59.7257 14.6084 59.8904 14.7355 60.0837 14.8286C60.2771 14.9181 60.4973 14.9629 60.7444 14.9629C61.0559 14.9629 61.3334 14.9002 61.5769 14.7749C61.8204 14.6496 62.0317 14.4723 62.2107 14.2432L62.8928 14.9038C62.7675 15.0864 62.6046 15.2619 62.4041 15.4302C62.2035 15.5949 61.9583 15.7292 61.6682 15.833C61.3818 15.9368 61.0487 15.9888 60.6692 15.9888Z" fill="#0B7C18"/>
<path d="M56.1355 46.2564C54.5937 46.2567 53.0755 45.8768 51.7156 45.1502C50.3557 44.4236 49.1959 43.3727 48.3392 42.0908C47.4824 40.8089 46.955 39.3355 46.8038 37.801C46.6525 36.2666 46.8821 34.7185 47.4721 33.294C48.0621 31.8695 48.9943 30.6125 50.1862 29.6344C51.3781 28.6562 52.7929 27.9872 54.3051 27.6864C55.8174 27.3857 57.3805 27.4626 58.8559 27.9104C60.3313 28.3581 61.6736 29.1629 62.7637 30.2533C62.8686 30.3578 62.9518 30.482 63.0086 30.6187C63.0653 30.7555 63.0946 30.9021 63.0946 31.0502C63.0946 31.1982 63.0653 31.3448 63.0086 31.4816C62.9518 31.6183 62.8686 31.7425 62.7637 31.847C62.5502 32.0544 62.2644 32.1703 61.9668 32.1703C61.6692 32.1703 61.3834 32.0544 61.1699 31.847C60.5116 31.1818 59.7273 30.6544 58.863 30.2955C57.9986 29.9365 57.0715 29.7533 56.1355 29.7564C54.7746 29.7574 53.4425 30.1481 52.2966 30.8823C51.1508 31.6165 50.2391 32.6635 49.6696 33.8995C49.1 35.1355 48.8963 36.5087 49.0826 37.8568C49.2689 39.2049 49.8374 40.4714 50.7209 41.5066C51.6043 42.5418 52.7657 43.3023 54.0678 43.6982C55.3698 44.0941 56.758 44.1089 58.0682 43.7407C59.3783 43.3725 60.5556 42.6368 61.4608 41.6206C62.366 40.6044 62.9613 39.3502 63.1762 38.0064H56.1355C55.8372 38.0064 55.551 37.8879 55.3401 37.6769C55.1291 37.4659 55.0105 37.1798 55.0105 36.8814C55.0105 36.583 55.1291 36.2969 55.3401 36.0859C55.551 35.8749 55.8372 35.7564 56.1355 35.7564H64.3855C64.6839 35.7564 64.9701 35.8749 65.181 36.0859C65.392 36.2969 65.5105 36.583 65.5105 36.8814C65.5056 39.3663 64.5163 41.748 62.7592 43.5051C61.0021 45.2621 58.6204 46.2515 56.1355 46.2564Z" fill="black"/>
<defs>
<filter id="filter0_d_1_5249" x="0.634521" y="0.860596" width="111" height="74" filterUnits="userSpaceOnUse" color-interpolation-filters="sRGB">
<feFlood flood-opacity="0" result="BackgroundImageFix"/>
<feColorMatrix in="SourceAlpha" type="matrix" values="0 0 0 0 0 0 0 0 0 0 0 0 0 0 0 0 0 0 127 0" result="hardAlpha"/>
<feOffset dy="1"/>
<feGaussianBlur stdDeviation="6"/>
<feComposite in2="hardAlpha" operator="out"/>
<feColorMatrix type="matrix" values="0 0 0 0 0.0355208 0 0 0 0 0.775 0 0 0 0 0.120592 0 0 0 0.58 0"/>
<feBlend mode="normal" in2="BackgroundImageFix" result="effect1_dropShadow_1_5249"/>
<feBlend mode="normal" in="SourceGraphic" in2="effect1_dropShadow_1_5249" result="shape"/>
</filter>
</defs>
</svg>
