<svg width="60" height="40" viewBox="0 0 60 40" fill="none" xmlns="http://www.w3.org/2000/svg">
<path d="M12.9424 39.8635C11.5213 39.8635 10.0932 39.7939 8.6721 39.8844C7.17435 39.975 6.73548 39.3202 6.8539 37.92C6.95143 36.7427 7.06289 35.5027 6.79817 34.3811C6.47076 32.9879 5.7393 31.6991 5.2238 30.3476C4.562 28.5921 3.69819 26.8645 3.35684 25.0463C2.44426 20.149 1.76157 15.2239 0.995278 10.3127C0.918649 9.84593 0.688762 9.2956 0.84202 8.91942C1.10674 8.28549 1.57348 7.35898 2.05415 7.29628C2.58359 7.22662 3.5519 7.87448 3.74695 8.41785C4.31122 9.96436 4.49234 11.6502 4.99391 13.2246C5.2447 14.0048 5.87166 14.6666 6.33143 15.3771C6.53345 14.6039 6.9166 13.8167 6.90267 13.0504C6.833 10.2082 6.60312 7.36594 6.49166 4.52371C6.44986 3.43697 6.30357 2.09945 7.90581 2.01585C9.47322 1.93226 9.52198 3.22798 9.62648 4.33562C9.90513 7.32414 10.142 10.3196 10.4555 13.3012C10.5042 13.7819 10.8804 14.2277 11.1103 14.6875C11.3471 14.1859 11.779 13.6913 11.793 13.1828C11.9253 9.62998 11.9671 6.07022 12.0577 2.51046C12.0856 1.41676 11.9741 0.0861998 13.6112 0.121031C15.1577 0.155862 15.1925 1.45159 15.2204 2.55226C15.3318 6.11202 15.3527 9.66481 15.4712 13.2246C15.4921 13.7888 15.8613 14.3461 16.0633 14.9034C16.3071 14.374 16.7042 13.8655 16.7739 13.3151C17.0525 11.1208 17.2336 8.91245 17.4496 6.71111C17.5123 6.08415 17.568 5.45022 17.6725 4.83022C17.8536 3.77135 18.1671 2.55226 19.5186 2.9981C20.0968 3.19315 20.6889 4.38438 20.6889 5.12977C20.6819 7.89538 20.3893 10.654 20.2988 13.4196C20.2152 15.9484 20.2082 18.4771 20.2849 20.9989C20.2988 21.5283 20.8004 22.0369 21.079 22.5594C21.4761 22.1414 21.9916 21.7791 22.2563 21.2845C22.7788 20.3162 23.0087 19.1529 23.6565 18.296C24.3323 17.4043 25.2866 16.645 26.2758 16.1086C26.7495 15.8508 27.6761 16.0738 28.1916 16.4012C28.4214 16.5475 28.2821 17.5506 28.0662 18.0661C26.6381 21.5771 25.1752 25.0742 23.6705 28.5573C23.3639 29.2679 22.9878 30.069 22.4026 30.5288C19.9156 32.4932 19.3514 35.238 19.2329 38.129C19.1842 39.4456 18.7523 39.9611 17.4287 39.8914C15.9518 39.8009 14.4402 39.8635 12.9424 39.8635Z" fill="url(#paint0_linear_1_5428)"/>
<path d="M39.9579 12.284C39.8256 9.91543 39.6863 7.5469 39.5748 5.17837C39.526 4.13343 39.4355 2.99793 40.9263 2.88647C42.3752 2.78198 42.5773 3.93141 42.6957 4.94152C43.0161 7.68623 43.2182 10.4449 43.5316 13.1965C43.6013 13.7817 43.9426 14.332 44.1586 14.9033C44.4024 14.3111 44.8274 13.7329 44.8552 13.1338C44.9806 9.97116 45.0085 6.80848 45.0712 3.64579C45.0851 3.01186 44.9249 2.27344 45.2035 1.77884C45.5658 1.12401 46.2763 0.657268 46.8336 0.106934C47.3074 0.719965 48.1572 1.30513 48.199 1.94603C48.415 5.10174 48.415 8.26443 48.4916 11.4271C48.5056 12.061 48.4359 12.7019 48.5404 13.3219C48.624 13.7887 48.9235 14.2206 49.1325 14.6734C49.3833 14.2484 49.7943 13.8444 49.85 13.3986C50.1775 10.6539 50.4213 7.89521 50.686 5.14354C50.7278 4.66983 50.5676 4.07074 50.8044 3.75029C51.2921 3.08849 51.9747 2.56602 52.5808 1.98782C53.0058 2.62872 53.779 3.26265 53.7929 3.91051C53.8417 6.19545 53.6397 8.48735 53.5282 10.7792C53.4864 11.65 53.3401 12.5278 53.4237 13.3846C53.5004 14.0882 53.8487 14.757 54.0786 15.4397C54.4896 14.8406 55.0678 14.2972 55.2698 13.6424C55.7296 12.1377 56.0291 10.5772 56.3496 9.03071C56.5864 7.89521 57.1437 6.88511 58.3489 7.29611C58.9062 7.49117 59.5122 8.77993 59.4147 9.47655C58.5997 15.2586 57.6592 21.0266 56.677 26.7807C56.5098 27.77 56.2242 28.9403 55.5624 29.609C53.2356 31.9776 53.2635 34.8686 53.5143 37.7805C53.6606 39.4872 53.1381 39.9748 51.4732 39.9052C48.5543 39.7798 45.6215 39.8355 42.6957 39.8773C41.6229 39.8912 41.1422 39.5499 41.1213 38.4005C41.0656 35.3144 40.1182 32.716 37.889 30.3126C36.3007 28.6059 35.6249 26.0284 34.6218 23.8062C33.751 21.8626 32.9429 19.8841 32.1975 17.8918C31.5845 16.2478 32.1627 15.5233 33.7998 16.0736C34.8308 16.4219 35.813 17.23 36.5375 18.0799C37.1784 18.8322 37.3595 19.9468 37.8541 20.8455C38.2094 21.4864 38.7528 22.0158 39.2126 22.601C39.526 21.8556 40.0903 21.1241 40.1182 20.3648C40.2296 17.6828 40.16 14.9938 40.16 12.3049C40.0833 12.284 40.0206 12.284 39.9579 12.284Z" fill="url(#paint1_linear_1_5428)"/>
<defs>
<linearGradient id="paint0_linear_1_5428" x1="0.790466" y1="3.72352" x2="28.4242" y2="4.26245" gradientUnits="userSpaceOnUse">
<stop stop-color="#28B67E"/>
<stop offset="1" stop-color="#0B7C18"/>
</linearGradient>
<linearGradient id="paint1_linear_1_5428" x1="31.9586" y1="3.71257" x2="59.5392" y2="4.24906" gradientUnits="userSpaceOnUse">
<stop stop-color="#28B67E"/>
<stop offset="1" stop-color="#0B7C18"/>
</linearGradient>
</defs>
</svg>
