<svg width="207" height="280" viewBox="0 0 207 280" fill="none" xmlns="http://www.w3.org/2000/svg">
<path d="M92.4953 69.9783L82.5224 79.9917L87.5088 84.9984L97.4816 74.985L92.4953 69.9783Z" fill="black"/>
<path d="M104.067 48.2164L77.3633 74.9769L81.3041 78.9337L81.4078 78.8296L91.3634 68.8334L92.5042 67.6881L93.6449 68.8334L98.6228 73.8315L99.8154 74.9769L98.6228 76.1223L88.6671 86.1705L88.5634 86.2226L104.067 101.789L130.719 74.9769L104.067 48.2164Z" fill="black"/>
<path d="M104.045 45.8808L75.043 75.0005L104.045 104.12L133.047 75.0005L104.045 45.8808Z" stroke="black" stroke-miterlimit="10"/>
<path d="M102.097 120.22C102.045 120.22 102.045 120.22 101.993 120.22C101.371 120.168 100.749 120.168 100.126 120.116C99.1413 120.012 98.4153 119.127 98.4672 118.137C98.5709 117.148 99.4524 116.419 100.438 116.471C101.008 116.523 101.578 116.575 102.149 116.575C103.134 116.627 103.912 117.461 103.86 118.45C103.86 119.491 103.03 120.22 102.097 120.22ZM111.067 119.699C110.186 119.699 109.46 119.074 109.304 118.189C109.149 117.2 109.823 116.263 110.808 116.107C111.378 116.003 111.949 115.899 112.519 115.794C113.504 115.586 114.438 116.211 114.645 117.2C114.853 118.189 114.23 119.127 113.245 119.335C112.623 119.439 112.001 119.595 111.378 119.699C111.275 119.699 111.171 119.699 111.067 119.699ZM91.4671 118.398C91.3116 118.398 91.1042 118.398 90.9486 118.293C90.3264 118.085 89.756 117.929 89.1856 117.721C88.2523 117.408 87.7338 116.367 88.0967 115.43C88.4079 114.493 89.4449 113.972 90.3783 114.337C90.8968 114.545 91.4671 114.701 92.0375 114.857C92.9709 115.17 93.5412 116.159 93.2301 117.096C92.9709 117.877 92.2449 118.398 91.4671 118.398ZM121.438 116.627C120.764 116.627 120.09 116.211 119.778 115.534C119.364 114.597 119.778 113.556 120.712 113.139C121.23 112.931 121.749 112.671 122.267 112.41C123.149 111.994 124.238 112.358 124.704 113.243C125.119 114.128 124.756 115.222 123.875 115.69C123.304 115.951 122.734 116.211 122.164 116.471C121.904 116.575 121.645 116.627 121.438 116.627ZM81.6152 113.972C81.3041 113.972 80.993 113.868 80.6819 113.712C80.1634 113.4 79.593 113.035 79.0745 112.723C78.2448 112.15 78.0374 111.057 78.5559 110.224C79.1263 109.391 80.2152 109.182 81.0449 109.703C81.5115 110.015 82.03 110.328 82.4967 110.64C83.3263 111.161 83.6375 112.254 83.1189 113.139C82.8078 113.66 82.1856 113.972 81.6152 113.972ZM130.667 111.057C130.149 111.057 129.579 110.796 129.267 110.38C128.645 109.599 128.801 108.454 129.579 107.829C130.045 107.464 130.46 107.1 130.927 106.735C131.704 106.111 132.845 106.163 133.467 106.944C134.09 107.725 134.038 108.87 133.26 109.495C132.793 109.911 132.275 110.276 131.808 110.692C131.445 110.953 131.082 111.057 130.667 111.057ZM73.1633 107.256C72.6966 107.256 72.23 107.1 71.867 106.735C71.4522 106.267 70.9855 105.85 70.5707 105.382C69.8966 104.653 69.9485 103.508 70.7263 102.831C71.4522 102.154 72.5929 102.206 73.267 102.987C73.63 103.403 74.0448 103.82 74.4596 104.236C75.1337 104.965 75.1337 106.111 74.4078 106.788C74.0448 107.048 73.5781 107.256 73.1633 107.256ZM138.29 103.403C137.927 103.403 137.512 103.299 137.201 103.039C136.423 102.414 136.267 101.269 136.89 100.488C137.253 100.019 137.564 99.5508 137.927 99.0822C138.497 98.2492 139.638 98.093 140.416 98.6657C141.245 99.2384 141.401 100.384 140.83 101.165C140.467 101.685 140.105 102.206 139.69 102.675C139.379 103.143 138.86 103.403 138.29 103.403ZM66.6299 98.6136C66.0077 98.6136 65.3855 98.3012 65.0744 97.7285C64.7632 97.2079 64.4521 96.6352 64.141 96.0625C63.6744 95.1774 64.0373 94.0841 64.9188 93.6155C65.8003 93.147 66.8892 93.5114 67.3559 94.3965C67.6151 94.9171 67.9262 95.4377 68.1855 95.9063C68.704 96.7914 68.3929 97.8847 67.5114 98.4054C67.2003 98.5616 66.8892 98.6136 66.6299 98.6136ZM143.786 94.032C143.527 94.032 143.319 93.98 143.06 93.8759C142.127 93.4594 141.712 92.4181 142.127 91.4809C142.334 90.9603 142.593 90.4397 142.801 89.867C143.164 88.9298 144.201 88.4613 145.134 88.8257C146.068 89.1902 146.534 90.2314 146.171 91.1686C145.964 91.7413 145.705 92.314 145.445 92.9387C145.134 93.6155 144.46 94.032 143.786 94.032ZM62.378 88.6695C61.6003 88.6695 60.8743 88.1489 60.6669 87.368C60.5114 86.7432 60.3558 86.1705 60.2002 85.5457C59.9928 84.5565 60.5632 83.6194 61.5484 83.3591C62.5336 83.1508 63.4669 83.7235 63.7262 84.7127C63.8818 85.2854 63.9855 85.8581 64.141 86.3787C64.4003 87.3159 63.8818 88.3571 62.8966 88.6175C62.6892 88.6175 62.5336 88.6695 62.378 88.6695ZM146.793 83.6194C146.69 83.6194 146.586 83.6194 146.482 83.6194C145.497 83.4632 144.823 82.5261 144.979 81.5369C145.082 80.9642 145.134 80.3915 145.238 79.8188C145.29 79.3502 145.342 78.8296 145.393 78.361C145.497 77.3718 146.327 76.5909 147.364 76.695C148.349 76.7991 149.075 77.6321 149.023 78.6213C148.971 79.142 148.919 79.6626 148.868 80.2353C148.816 80.86 148.712 81.4848 148.608 82.1096C148.453 82.9946 147.675 83.6194 146.793 83.6194ZM147.001 71.2804C146.119 71.2804 145.342 70.6036 145.238 69.7185C145.186 69.1458 145.082 68.5731 144.979 68.0004C144.823 67.0112 145.497 66.0741 146.43 65.9179C147.416 65.7617 148.349 66.4385 148.505 67.3757C148.608 68.0004 148.712 68.6252 148.764 69.25C148.868 70.2392 148.193 71.1242 147.208 71.2804C147.156 71.2804 147.053 71.2804 147.001 71.2804ZM61.8077 67.1674C61.6521 67.1674 61.5484 67.1674 61.3929 67.1153C60.4077 66.9071 59.7854 65.9179 60.0447 64.9287C60.2002 64.3039 60.3558 63.6792 60.5114 63.1065C60.7706 62.1173 61.7558 61.5446 62.741 61.8049C63.7262 62.0652 64.2966 63.0544 64.0373 64.0436C63.8818 64.6163 63.7262 65.1369 63.6225 65.7096C63.4151 66.5947 62.6373 67.1674 61.8077 67.1674ZM144.305 60.8157C143.579 60.8157 142.905 60.3992 142.645 59.6703C142.438 59.1497 142.23 58.577 141.971 58.0564C141.556 57.1192 141.971 56.0779 142.905 55.6614C143.838 55.2449 144.875 55.6615 145.29 56.5986C145.549 57.1713 145.808 57.744 146.016 58.3167C146.379 59.2538 145.912 60.2951 145.031 60.6595C144.719 60.7636 144.512 60.8157 144.305 60.8157ZM65.4892 56.963C65.2299 56.963 64.9188 56.911 64.6595 56.7548C63.7781 56.2862 63.4151 55.1929 63.8818 54.3078C64.1929 53.7351 64.4521 53.2145 64.7632 52.6418C65.2299 51.7567 66.3707 51.4443 67.2003 51.965C68.0818 52.4335 68.3929 53.5789 67.8744 54.4119C67.6151 54.9326 67.304 55.4011 67.0447 55.9218C66.7855 56.5986 66.1633 56.963 65.4892 56.963ZM139.119 51.2881C138.549 51.2881 138.03 51.0278 137.667 50.5593C137.305 50.0907 136.993 49.6221 136.63 49.1535C136.008 48.3726 136.164 47.2272 136.942 46.6024C137.719 45.9777 138.86 46.1339 139.482 46.9148C139.845 47.3834 140.26 47.904 140.623 48.4247C141.193 49.2577 141.038 50.351 140.208 50.9758C139.845 51.184 139.482 51.2881 139.119 51.2881ZM71.6077 48.0082C71.1929 48.0082 70.7781 47.852 70.4151 47.5396C69.6892 46.8628 69.5855 45.7174 70.2596 44.9885C70.6744 44.5199 71.0892 44.0514 71.5559 43.5828C72.23 42.8539 73.3707 42.8539 74.0966 43.5307C74.8226 44.2075 74.8226 45.3529 74.1485 46.0818C73.7337 46.4983 73.3707 46.9148 72.9559 47.3834C72.5929 47.7999 72.0744 48.0082 71.6077 48.0082ZM131.704 43.3745C131.29 43.3745 130.875 43.2183 130.564 42.958C130.097 42.5936 129.682 42.2291 129.216 41.8647C128.438 41.2399 128.282 40.0945 128.904 39.3136C129.527 38.5326 130.667 38.3765 131.445 39.0012C131.964 39.3657 132.43 39.7822 132.897 40.1987C133.675 40.8234 133.779 41.9688 133.104 42.7498C132.742 43.1663 132.223 43.3745 131.704 43.3745ZM79.6967 40.8755C79.1263 40.8755 78.5559 40.6152 78.193 40.0945C77.6226 39.2615 77.83 38.1161 78.6596 37.5955C79.1782 37.2311 79.6967 36.9187 80.2152 36.5542C81.0448 36.0336 82.1856 36.2939 82.7041 37.1269C83.2226 37.96 82.9634 39.1053 82.1337 39.626C81.6671 39.9384 81.1486 40.2507 80.6819 40.5631C80.4226 40.7714 80.0597 40.8755 79.6967 40.8755ZM122.63 37.5434C122.371 37.5434 122.112 37.4914 121.853 37.3873C121.334 37.1269 120.816 36.9187 120.297 36.6584C119.364 36.2419 118.949 35.2006 119.364 34.2635C119.727 33.3263 120.816 32.9098 121.749 33.3263C122.319 33.5866 122.89 33.847 123.46 34.1073C124.341 34.5238 124.756 35.6171 124.29 36.5022C123.978 37.179 123.304 37.5434 122.63 37.5434ZM89.2894 35.9295C88.5634 35.9295 87.8375 35.4609 87.5782 34.732C87.2153 33.7949 87.7338 32.7536 88.6671 32.3892C89.2375 32.1809 89.8597 31.9727 90.4301 31.7644C91.3634 31.452 92.4005 31.9727 92.7116 32.9619C93.0227 33.899 92.5042 34.9403 91.519 35.2527C90.9486 35.4089 90.4301 35.6171 89.9116 35.8254C89.7042 35.8774 89.4968 35.9295 89.2894 35.9295ZM112.364 34.1593C112.26 34.1593 112.156 34.1593 112.001 34.1073C111.43 34.0031 110.86 33.899 110.29 33.7949C109.304 33.6387 108.63 32.7016 108.786 31.7124C108.941 30.7232 109.875 30.0463 110.86 30.2025C111.482 30.3067 112.104 30.4108 112.727 30.5149C113.712 30.7232 114.334 31.6603 114.127 32.6495C113.971 33.5346 113.245 34.1593 112.364 34.1593ZM99.8153 33.5346C98.882 33.5346 98.1042 32.8578 98.0005 31.9206C97.8968 30.9314 98.6228 30.0463 99.6079 29.9422C100.23 29.8901 100.852 29.8381 101.475 29.786C102.46 29.734 103.341 30.5149 103.393 31.5041C103.445 32.4933 102.667 33.3784 101.682 33.4305C101.112 33.4825 100.541 33.4825 99.9709 33.5866C99.9191 33.5346 99.8672 33.5346 99.8153 33.5346Z" fill="black"/>
<path d="M60.9262 76.7991L63.1558 72.1134L57.9706 72.5299L60.9262 76.7991Z" fill="#0B7C18"/>
<path d="M101.63 134.902C101.578 134.902 101.578 134.902 101.526 134.902C100.697 134.85 99.8672 134.798 99.0376 134.745C97.7413 134.641 96.7561 133.444 96.8598 132.142C96.9635 130.841 98.1561 129.852 99.4524 129.956C100.23 130.008 100.956 130.06 101.734 130.112C103.03 130.164 104.067 131.309 104.015 132.611C103.964 133.912 102.926 134.902 101.63 134.902ZM113.556 134.173C112.415 134.173 111.378 133.34 111.223 132.142C111.015 130.841 111.897 129.591 113.193 129.383C113.971 129.279 114.697 129.123 115.423 128.966C116.719 128.706 117.964 129.539 118.223 130.841C118.482 132.142 117.653 133.392 116.356 133.652C115.527 133.808 114.749 133.965 113.919 134.121C113.815 134.173 113.66 134.173 113.556 134.173ZM87.5782 132.455C87.3708 132.455 87.1115 132.403 86.9041 132.351C86.1264 132.09 85.2967 131.83 84.5189 131.57C83.2745 131.153 82.6004 129.747 83.0671 128.498C83.4819 127.248 84.8819 126.572 86.1264 127.04C86.8523 127.3 87.5782 127.509 88.3042 127.769C89.5486 128.133 90.2745 129.487 89.9116 130.737C89.5486 131.778 88.5634 132.455 87.5782 132.455ZM127.245 130.112C126.312 130.112 125.43 129.591 125.067 128.654C124.549 127.457 125.067 126.051 126.312 125.478C126.986 125.166 127.712 124.853 128.386 124.489C129.579 123.916 130.979 124.385 131.601 125.582C132.171 126.78 131.704 128.185 130.512 128.81C129.786 129.175 129.008 129.539 128.282 129.852C127.867 130.06 127.556 130.112 127.245 130.112ZM74.5115 126.624C74.0966 126.624 73.6818 126.519 73.267 126.259C72.5411 125.843 71.867 125.374 71.1411 124.906C70.0522 124.177 69.7411 122.667 70.467 121.573C71.1929 120.48 72.6966 120.168 73.7855 120.897C74.4078 121.313 75.0818 121.73 75.7041 122.146C76.8448 122.823 77.2078 124.281 76.4818 125.426C76.1189 126.207 75.2892 126.624 74.5115 126.624ZM139.534 122.771C138.808 122.771 138.134 122.459 137.667 121.834C136.838 120.793 137.045 119.283 138.082 118.45C138.705 117.981 139.275 117.513 139.845 116.992C140.83 116.159 142.334 116.263 143.216 117.252C144.045 118.241 143.942 119.751 142.956 120.636C142.334 121.157 141.66 121.678 141.038 122.198C140.519 122.563 140.001 122.771 139.534 122.771ZM63.3114 117.721C62.6891 117.721 62.0669 117.46 61.6002 116.992C61.0299 116.419 60.4595 115.794 59.8891 115.17C59.0076 114.18 59.0595 112.671 60.0447 111.786C61.0299 110.9 62.5336 110.953 63.4151 111.942C63.9336 112.514 64.4521 113.087 64.9706 113.608C65.904 114.545 65.904 116.055 64.9188 116.992C64.504 117.46 63.9336 117.721 63.3114 117.721ZM149.593 112.567C149.075 112.567 148.556 112.41 148.142 112.046C147.105 111.213 146.897 109.755 147.727 108.662C148.193 108.037 148.66 107.464 149.075 106.84C149.853 105.746 151.305 105.486 152.393 106.267C153.482 107.048 153.742 108.506 152.964 109.599C152.497 110.276 151.979 110.953 151.46 111.629C150.993 112.254 150.319 112.567 149.593 112.567ZM54.6521 106.267C53.8224 106.267 53.0446 105.85 52.578 105.069C52.1631 104.341 51.7483 103.612 51.3854 102.883C50.7631 101.685 51.2298 100.28 52.3705 99.6548C53.5631 99.0301 54.9632 99.4987 55.5854 100.644C55.9484 101.321 56.3113 101.998 56.6743 102.675C57.3484 103.82 56.9335 105.278 55.7928 105.955C55.4817 106.163 55.0669 106.267 54.6521 106.267ZM156.853 100.228C156.542 100.228 156.231 100.175 155.919 100.019C154.727 99.4987 154.156 98.093 154.675 96.8434C154.986 96.1666 155.245 95.4377 155.556 94.7088C156.023 93.4593 157.423 92.8346 158.616 93.3031C159.86 93.7717 160.482 95.1774 160.016 96.3749C159.705 97.1558 159.394 97.9368 159.082 98.6657C158.668 99.7069 157.786 100.228 156.853 100.228ZM49.052 93.0949C48.015 93.0949 47.0298 92.4181 46.7705 91.3768C46.5631 90.5959 46.3557 89.7628 46.1483 88.9819C45.8372 87.6803 46.615 86.3787 47.9113 86.0664C49.2076 85.754 50.5039 86.5349 50.815 87.8365C50.9705 88.5654 51.1779 89.2943 51.3854 90.0752C51.7483 91.3247 51.0224 92.6784 49.7261 93.0428C49.5187 93.0428 49.2594 93.0949 49.052 93.0949ZM160.845 86.4308C160.742 86.4308 160.586 86.4308 160.482 86.3787C159.186 86.1705 158.305 84.921 158.512 83.6194C158.616 82.8905 158.719 82.1095 158.823 81.3286C158.875 80.7038 158.979 80.027 159.031 79.4023C159.134 78.1007 160.275 77.1115 161.623 77.2156C162.92 77.3197 163.905 78.4651 163.801 79.8188C163.749 80.4956 163.697 81.2245 163.594 81.9013C163.49 82.7343 163.386 83.5673 163.231 84.3483C163.023 85.5978 161.986 86.4308 160.845 86.4308ZM161.105 70.0829C159.912 70.0829 158.875 69.1979 158.719 68.0004C158.616 67.2195 158.512 66.4906 158.408 65.7096C158.201 64.408 159.082 63.1585 160.379 62.9503C161.675 62.742 162.92 63.6271 163.127 64.9287C163.282 65.7617 163.386 66.5947 163.49 67.3756C163.645 68.6772 162.712 69.8747 161.416 70.0309C161.312 70.083 161.208 70.0829 161.105 70.0829ZM48.3261 64.6163C48.1705 64.6163 47.9631 64.6163 47.8076 64.5642C46.5113 64.2519 45.7335 63.0023 45.9927 61.7008C46.2001 60.8677 46.3557 60.0868 46.615 59.2538C46.9779 57.9522 48.2742 57.2233 49.5187 57.5878C50.815 57.9522 51.5409 59.2538 51.178 60.5033C50.9705 61.2322 50.815 61.9611 50.6076 62.742C50.4002 63.8874 49.415 64.6163 48.3261 64.6163ZM157.527 56.182C156.594 56.182 155.66 55.6094 155.297 54.6722C155.038 53.9433 154.727 53.2665 154.416 52.5376C153.897 51.3402 154.416 49.9345 155.608 49.3618C156.801 48.8411 158.201 49.3618 158.771 50.5592C159.134 51.3402 159.445 52.0691 159.757 52.85C160.223 54.0995 159.653 55.4532 158.408 55.9738C158.149 56.13 157.838 56.182 157.527 56.182ZM53.2002 51.1319C52.8372 51.1319 52.4743 51.0278 52.1113 50.8716C50.9187 50.2468 50.452 48.8411 51.0742 47.6437C51.4372 46.9148 51.852 46.1859 52.2668 45.457C52.9409 44.3116 54.3928 43.8951 55.5335 44.572C56.6743 45.2488 57.0891 46.7065 56.415 47.8519C56.0521 48.5288 55.6891 49.2056 55.3261 49.8824C54.9113 50.6634 54.0817 51.1319 53.2002 51.1319ZM150.631 43.6348C149.905 43.6348 149.179 43.2704 148.712 42.6456C148.245 42.0209 147.779 41.3961 147.312 40.8234C146.482 39.7821 146.69 38.2723 147.727 37.4393C148.764 36.6063 150.268 36.8145 151.097 37.8558C151.616 38.5326 152.134 39.1574 152.601 39.8342C153.379 40.9275 153.119 42.3853 152.082 43.1662C151.616 43.4786 151.149 43.6348 150.631 43.6348ZM61.2373 39.2615C60.6669 39.2615 60.0965 39.0533 59.6299 38.6368C58.6447 37.7517 58.541 36.2418 59.4225 35.2526C59.9928 34.6279 60.5114 34.0031 61.1336 33.4304C62.0669 32.4933 63.5706 32.4412 64.504 33.3784C65.4373 34.3155 65.4892 35.8253 64.5558 36.7625C64.0373 37.3352 63.5188 37.8558 63.0003 38.4285C62.5854 39.0012 61.9114 39.2615 61.2373 39.2615ZM140.882 33.118C140.364 33.118 139.793 32.9619 139.379 32.5453C138.808 32.0768 138.186 31.5562 137.564 31.0876C136.527 30.3066 136.319 28.7968 137.097 27.7035C137.875 26.6622 139.379 26.454 140.467 27.2349C141.142 27.7555 141.764 28.2762 142.438 28.7968C143.475 29.6298 143.579 31.1397 142.749 32.1809C142.23 32.8577 141.556 33.118 140.882 33.118ZM71.9707 29.786C71.1929 29.786 70.467 29.4216 70.0003 28.7447C69.2744 27.6514 69.5336 26.1416 70.6225 25.4127C71.2966 24.9441 72.0226 24.4756 72.6966 24.059C73.8374 23.3822 75.2892 23.6946 75.9633 24.84C76.6374 25.9854 76.3263 27.4432 75.1855 28.12C74.5633 28.5365 73.8892 28.953 73.267 29.3695C72.904 29.6819 72.4374 29.786 71.9707 29.786ZM128.853 25.4127C128.49 25.4127 128.179 25.3606 127.816 25.2044C127.141 24.8921 126.416 24.5797 125.741 24.2673C124.549 23.7467 123.978 22.341 124.497 21.1435C125.016 19.9461 126.416 19.3734 127.608 19.894C128.386 20.2064 129.112 20.5708 129.89 20.9353C131.082 21.508 131.601 22.9137 131.03 24.1111C130.616 24.8921 129.734 25.4127 128.853 25.4127ZM84.7263 23.2781C83.7411 23.2781 82.8597 22.6533 82.4967 21.7162C82.03 20.4667 82.7041 19.113 83.9486 18.6445C84.7263 18.3842 85.5041 18.0718 86.2819 17.8635C87.5264 17.447 88.8745 18.1759 89.2893 19.4254C89.7042 20.6749 88.9782 22.0286 87.7338 22.4451C87.0078 22.6533 86.2819 22.9137 85.556 23.174C85.2449 23.226 84.9856 23.2781 84.7263 23.2781ZM115.267 20.8832C115.112 20.8832 114.956 20.8832 114.801 20.8311C114.075 20.6749 113.297 20.5708 112.519 20.4146C111.223 20.2064 110.341 19.0089 110.497 17.6553C110.704 16.3537 111.897 15.4686 113.193 15.6248C114.023 15.7289 114.852 15.8851 115.63 16.0413C116.927 16.3016 117.756 17.5511 117.497 18.8527C117.393 20.1022 116.408 20.8832 115.267 20.8832ZM98.6227 20.1022C97.4301 20.1022 96.3931 19.1651 96.2375 17.9156C96.1338 16.614 97.0672 15.4165 98.3635 15.3124C99.1931 15.2083 100.023 15.1562 100.852 15.1042C102.149 15.0521 103.289 16.0413 103.393 17.3429C103.445 18.6445 102.46 19.7899 101.164 19.894C100.386 19.9461 99.6598 19.9981 98.882 20.0502C98.7783 20.1022 98.7265 20.1022 98.6227 20.1022Z" fill="black"/>
<path d="M47.0816 77.4239L50.0372 71.1763L43.1927 71.6969L47.0816 77.4239Z" fill="#0B7C18"/>
<path d="M101.164 150C101.112 150 101.06 150 101.008 150C99.9709 149.948 98.9339 149.896 97.8968 149.792C96.2376 149.636 95.0449 148.178 95.2005 146.564C95.3561 144.898 96.8079 143.7 98.4154 143.857C99.3487 143.961 100.334 144.013 101.267 144.065C102.926 144.117 104.171 145.523 104.119 147.189C104.119 148.75 102.771 150 101.164 150ZM116.097 149.115C114.645 149.115 113.401 148.074 113.141 146.616C112.882 145.002 113.971 143.44 115.63 143.18C116.564 143.024 117.497 142.867 118.43 142.659C120.038 142.295 121.645 143.388 121.956 145.002C122.267 146.616 121.23 148.23 119.623 148.542C118.586 148.75 117.601 148.959 116.564 149.115C116.408 149.115 116.253 149.115 116.097 149.115ZM83.5338 146.98C83.2226 146.98 82.9634 146.928 82.6523 146.876C81.6671 146.564 80.6819 146.251 79.6967 145.887C78.1411 145.366 77.3115 143.648 77.8819 142.086C78.4004 140.524 80.1115 139.691 81.6671 140.264C82.5486 140.577 83.4819 140.889 84.4152 141.149C85.9708 141.618 86.9041 143.284 86.3856 144.898C86.0227 146.095 84.8301 146.98 83.5338 146.98ZM133.26 144.013C132.119 144.013 131.03 143.336 130.512 142.191C129.838 140.681 130.512 138.911 132.067 138.234C132.949 137.869 133.83 137.453 134.66 137.036C136.164 136.307 137.927 136.932 138.653 138.39C139.379 139.9 138.756 141.67 137.305 142.399C136.371 142.867 135.438 143.284 134.504 143.7C134.038 143.909 133.623 144.013 133.26 144.013ZM67.2003 139.639C66.6818 139.639 66.1114 139.483 65.6447 139.223C64.7632 138.702 63.8818 138.13 63.0003 137.557C61.6003 136.62 61.2373 134.798 62.1706 133.392C63.104 131.986 64.9188 131.622 66.3188 132.559C67.0966 133.079 67.9262 133.6 68.7559 134.121C70.1559 134.954 70.6225 136.828 69.7411 138.234C69.2225 139.119 68.2373 139.639 67.2003 139.639ZM148.608 134.798C147.727 134.798 146.845 134.381 146.223 133.652C145.186 132.351 145.445 130.476 146.742 129.435C147.519 128.862 148.245 128.238 148.971 127.613C150.216 126.519 152.134 126.676 153.171 127.977C154.26 129.227 154.105 131.153 152.808 132.194C152.031 132.871 151.201 133.548 150.371 134.173C149.905 134.589 149.231 134.798 148.608 134.798ZM53.2002 128.446C52.4224 128.446 51.6446 128.133 51.0742 127.561C50.3483 126.832 49.6224 126.051 48.9483 125.27C47.8594 124.02 47.9631 122.146 49.1557 121.053C50.4002 119.96 52.2669 120.064 53.3558 121.261C53.978 121.99 54.6521 122.667 55.3261 123.344C56.4669 124.541 56.4669 126.415 55.2743 127.613C54.7039 128.186 53.9261 128.446 53.2002 128.446ZM161.208 122.042C160.586 122.042 159.912 121.834 159.394 121.417C158.097 120.428 157.838 118.502 158.875 117.2C159.445 116.419 160.016 115.69 160.586 114.909C161.52 113.556 163.386 113.243 164.734 114.181C166.083 115.118 166.394 116.992 165.46 118.346C164.838 119.179 164.216 120.012 163.594 120.845C162.971 121.678 162.09 122.042 161.208 122.042ZM42.3631 114.181C41.326 114.181 40.3408 113.66 39.7705 112.671C39.2519 111.786 38.7334 110.848 38.2667 109.963C37.489 108.506 38.0593 106.683 39.5112 105.902C40.9631 105.121 42.7779 105.694 43.5557 107.152C44.0223 107.985 44.489 108.818 44.9557 109.651C45.7853 111.109 45.3187 112.931 43.8668 113.764C43.3483 114.024 42.8297 114.181 42.3631 114.181ZM170.334 106.579C169.92 106.579 169.557 106.475 169.142 106.319C167.638 105.642 166.912 103.872 167.586 102.362C167.949 101.477 168.312 100.592 168.675 99.7069C169.245 98.145 171.008 97.3641 172.512 97.9888C174.068 98.5615 174.846 100.332 174.223 101.842C173.86 102.831 173.446 103.768 173.031 104.757C172.564 105.902 171.475 106.579 170.334 106.579ZM35.363 97.6244C34.0667 97.6244 32.8741 96.7393 32.5112 95.4377C32.2519 94.4485 31.9926 93.4073 31.7334 92.4181C31.3704 90.8041 32.3556 89.1901 33.963 88.8257C35.5704 88.4613 37.1778 89.4505 37.5927 91.0644C37.8001 92.0016 38.0593 92.9387 38.3186 93.8238C38.7853 95.4377 37.8519 97.1038 36.2445 97.5203C35.8815 97.6244 35.6223 97.6244 35.363 97.6244ZM175.312 89.3463C175.157 89.3463 175.001 89.3464 174.846 89.2943C173.238 89.034 172.097 87.4721 172.357 85.8581C172.512 84.921 172.616 83.9838 172.771 82.9946C172.875 82.1616 172.927 81.3807 173.031 80.5476C173.186 78.8816 174.638 77.6321 176.246 77.7883C177.905 77.9445 179.097 79.3502 178.994 81.0162C178.942 81.9013 178.838 82.7864 178.734 83.6714C178.631 84.7127 178.475 85.754 178.32 86.7432C178.009 88.253 176.764 89.3463 175.312 89.3463ZM175.623 68.8334C174.12 68.8334 172.875 67.7401 172.668 66.2303C172.564 65.2931 172.408 64.3039 172.253 63.3668C171.994 61.7528 173.083 60.1909 174.69 59.8786C176.297 59.6182 177.853 60.7116 178.164 62.3255C178.32 63.3668 178.475 64.4081 178.631 65.3973C178.838 67.0633 177.697 68.5211 176.038 68.7293C175.883 68.8334 175.727 68.8334 175.623 68.8334ZM34.4297 62.0131C34.2223 62.0131 34.0149 62.0131 33.7556 61.9611C32.1482 61.5966 31.1111 59.9827 31.4741 58.3687C31.6815 57.3275 31.9408 56.3383 32.2 55.3491C32.6149 53.7351 34.2741 52.798 35.8815 53.2145C37.489 53.631 38.4223 55.297 38.0075 56.911C37.7482 57.8481 37.5408 58.7852 37.3334 59.7224C37.0223 61.076 35.7778 62.0131 34.4297 62.0131ZM171.164 51.4443C169.971 51.4443 168.831 50.7154 168.364 49.57C168.001 48.685 167.638 47.7999 167.275 46.9148C166.601 45.405 167.275 43.6348 168.779 42.958C170.283 42.2812 172.046 42.958 172.72 44.4678C173.134 45.405 173.549 46.3942 173.912 47.3313C174.534 48.8932 173.757 50.6113 172.253 51.2361C171.89 51.3922 171.527 51.4443 171.164 51.4443ZM40.4964 45.1447C40.0297 45.1447 39.5631 45.0405 39.1482 44.8323C37.6964 44.0513 37.0741 42.2812 37.8519 40.7714C38.3186 39.8342 38.8371 38.8971 39.3556 38.012C40.1853 36.5542 42.0001 36.0857 43.452 36.8666C44.9038 37.6996 45.3705 39.5218 44.5927 40.9796C44.126 41.8126 43.6594 42.6456 43.2446 43.5307C42.6742 44.5199 41.5853 45.1447 40.4964 45.1447ZM162.557 35.7212C161.623 35.7212 160.742 35.3047 160.12 34.4717C159.549 33.6908 158.979 32.9098 158.408 32.1809C157.371 30.8793 157.631 29.0051 158.927 27.9638C160.223 26.9225 162.09 27.1829 163.127 28.4844C163.749 29.3174 164.423 30.1504 164.994 30.9835C165.979 32.3371 165.668 34.2114 164.32 35.2006C163.749 35.513 163.127 35.7212 162.557 35.7212ZM50.6076 30.2546C49.8817 30.2546 49.2076 29.9943 48.6372 29.5257C47.3927 28.4324 47.289 26.506 48.3779 25.3086C49.052 24.5276 49.7779 23.7467 50.5039 23.0178C51.6446 21.8203 53.5632 21.7683 54.7558 22.9137C55.9484 24.0591 56.0002 25.9854 54.8595 27.1829C54.1854 27.8597 53.5632 28.5886 52.9409 29.3174C52.2669 29.9422 51.4372 30.2546 50.6076 30.2546ZM150.319 22.6013C149.645 22.6013 148.971 22.393 148.401 21.9245C147.675 21.2997 146.897 20.727 146.171 20.1022C144.875 19.113 144.616 17.1867 145.601 15.8851C146.586 14.5835 148.505 14.3232 149.801 15.3124C150.631 15.9372 151.46 16.614 152.238 17.2908C153.482 18.3321 153.69 20.2584 152.601 21.508C152.031 22.2368 151.201 22.6013 150.319 22.6013ZM64.0373 18.3842C63.104 18.3842 62.1188 17.9156 61.5484 17.0826C60.6151 15.7289 60.978 13.8547 62.3262 12.9175C63.2077 12.3448 64.0373 11.7721 64.9188 11.1994C66.3188 10.3144 68.1855 10.7309 69.0151 12.1886C69.8966 13.5943 69.4818 15.4686 68.0299 16.3016C67.2003 16.8223 66.4225 17.3429 65.6447 17.8635C65.2299 18.228 64.6077 18.3842 64.0373 18.3842ZM135.23 12.9175C134.816 12.9175 134.349 12.8134 133.934 12.6051C133.053 12.1886 132.223 11.8242 131.29 11.4077C129.786 10.7829 129.06 9.01279 129.682 7.45089C130.304 5.94106 132.067 5.21217 133.623 5.83693C134.608 6.25344 135.542 6.66994 136.475 7.13851C137.979 7.86739 138.601 9.63754 137.875 11.1474C137.46 12.2407 136.371 12.9175 135.23 12.9175ZM79.956 10.2102C78.7115 10.2102 77.5708 9.42929 77.1559 8.23184C76.5856 6.66994 77.4152 4.95184 78.9708 4.37915C79.956 4.01471 80.9411 3.70233 81.9263 3.38995C83.4819 2.86932 85.193 3.7544 85.6597 5.36836C86.1782 6.93026 85.2967 8.64834 83.6893 9.11691C82.756 9.42929 81.8745 9.68961 80.993 10.0541C80.63 10.1582 80.3189 10.2102 79.956 10.2102ZM118.275 7.29469C118.067 7.29469 117.912 7.29469 117.704 7.24263C116.771 7.03437 115.838 6.87819 114.904 6.77406C113.297 6.51374 112.156 5.00391 112.415 3.33788C112.675 1.72392 114.178 0.57854 115.838 0.838856C116.875 0.995046 117.912 1.15124 118.897 1.35949C120.504 1.67187 121.593 3.23376 121.282 4.89978C120.919 6.25343 119.675 7.29469 118.275 7.29469ZM97.4301 6.25343C95.9264 6.25343 94.6301 5.10805 94.4746 3.54615C94.319 1.88013 95.5116 0.422347 97.1709 0.266158C98.2079 0.162031 99.245 0.109968 100.282 0.0058416C101.889 -0.0982849 103.341 1.20329 103.445 2.81725C103.549 4.48328 102.252 5.88899 100.645 5.99311C99.7117 6.04518 98.7265 6.09724 97.7931 6.20136C97.5857 6.25343 97.5339 6.25343 97.4301 6.25343Z" fill="black"/>
<path d="M32.8741 77.9966L36.6075 70.1871L28 70.9159L32.8741 77.9966Z" fill="#0B7C18"/>
<path d="M31.8885 247.923V275.796C31.8885 278.547 30.4854 279.896 27.6791 279.896L13.6478 279.844C5.28102 279.844 1.07165 275.536 1.07165 267.024V247.819C1.07165 245.016 2.47478 243.615 5.28104 243.615C8.08729 243.615 9.43845 245.068 9.43845 247.871V267.18C9.43845 270.034 10.8936 271.488 13.6998 271.488H23.4697V247.871C23.4697 245.068 24.9248 243.615 27.7311 243.615C30.4854 243.667 31.8885 245.068 31.8885 247.923Z" fill="black"/>
<path d="M73.7225 243.77C82.0893 243.77 86.2987 248.079 86.2987 256.591V275.796C86.2987 278.599 84.8955 280 82.0893 280C79.283 280 77.9319 278.547 77.9319 275.744V256.435C77.9319 253.581 76.4768 252.127 73.6705 252.127H66.7069L66.7588 275.796C66.7588 278.599 65.3557 280 62.5494 280C59.7432 280 58.34 278.547 58.34 275.744V256.435C58.34 253.581 56.9369 252.127 54.0787 252.127H47.167V275.692C47.167 278.495 45.7119 279.896 42.9057 279.896C40.1514 279.896 38.8002 278.495 38.8002 275.692V247.923C38.8002 245.172 40.2553 243.771 43.0616 243.719L73.7225 243.77Z" fill="black"/>
<path d="M117.012 259.082C114.205 259.082 112.75 257.629 112.75 254.826V252.127H105.839C103.032 252.127 101.577 253.58 101.577 256.435V275.744C101.577 278.547 100.174 280 97.3678 280C94.5616 280 93.1584 278.599 93.1584 275.796V256.591C93.1584 248.079 97.3678 243.77 105.735 243.77L116.908 243.822C119.714 243.822 121.065 245.172 121.065 247.923V254.878C121.169 257.681 119.766 259.082 117.012 259.082Z" fill="black"/>
<path d="M154.688 280C151.83 280 150.375 278.547 150.375 275.744V268.789L136.551 268.737L136.499 275.692C136.499 278.495 135.096 279.948 132.342 279.948C129.536 279.948 128.133 278.547 128.133 275.744V256.539C128.133 248.027 132.342 243.719 140.709 243.719L154.584 243.77C157.391 243.77 158.742 245.12 158.742 247.871V275.692C158.794 278.547 157.391 280 154.688 280ZM150.427 260.432V252.127H140.813C138.007 252.127 136.551 253.581 136.551 256.435V260.432H150.427Z" fill="black"/>
<path d="M185.505 275.848C185.505 278.599 184.102 279.948 181.296 279.948H178.437C170.071 279.948 165.861 275.64 165.861 267.128V239.566C165.861 236.763 167.264 235.414 170.071 235.414C172.877 235.362 174.28 236.763 174.28 239.566V243.719L181.088 243.77C183.998 243.719 185.505 245.12 185.505 247.923C185.505 250.622 184.102 252.023 181.244 252.075H174.28V267.387C174.28 270.19 175.735 271.643 178.541 271.643L181.4 271.695C184.154 271.643 185.505 273.045 185.505 275.848Z" fill="black"/>
<path d="M200.784 279.896C197.977 279.896 196.574 278.443 196.574 275.64V252.075C193.768 252.075 192.365 250.726 192.365 248.027C192.365 245.224 193.768 243.719 196.574 243.719L200.732 243.667C203.538 243.719 204.941 245.12 204.941 247.871V275.64C204.941 278.495 203.538 279.896 200.784 279.896ZM204.681 236.711C204.733 238.84 202.706 240.916 200.524 240.812C198.341 240.916 196.314 238.84 196.366 236.711C196.262 234.48 198.393 232.403 200.524 232.559C202.654 232.455 204.785 234.48 204.681 236.711Z" fill="black"/>
<path d="M75.2296 212.731C76.6327 212.731 77.3602 214.237 77.3602 217.195C77.3083 220.102 76.5807 221.607 75.1256 221.607H61.4062C58.444 221.607 56.9889 220.102 56.9889 217.091V196.589C56.9889 193.579 55.4818 192.073 52.5197 192.073H49.7134V216.988C49.7134 219.998 48.2583 221.503 45.2962 221.503L44.7245 221.451V221.555H14.6352C5.69678 221.555 1.22756 217.143 1.22756 208.268V206.659C1.17559 203.596 2.63069 202.039 5.64482 202.039C8.55501 202.091 10.0101 203.596 10.0621 206.555V208.423C10.0621 211.33 11.6211 212.731 14.7392 212.731H40.9829V187.61C40.9829 184.703 42.438 183.198 45.4001 183.198L52.6756 183.146C61.5621 183.146 65.9793 187.661 65.9793 196.745V212.628H75.2296V212.731ZM3.35822 187.61C2.63068 187.194 2.11101 186.623 1.74724 185.949C1.38346 185.222 1.17559 184.547 1.17559 183.769C1.17559 183.042 1.38346 182.367 1.74724 181.64C2.11101 180.966 2.63068 180.395 3.35822 179.98C4.08577 179.616 4.81331 179.409 5.59283 179.409C6.37234 179.409 7.04793 179.616 7.77548 179.98C8.45106 180.343 8.97074 180.914 9.33451 181.64C9.75025 182.315 9.95813 183.042 9.95813 183.769C9.95813 184.547 9.75025 185.274 9.33451 185.949C8.97074 186.623 8.45106 187.194 7.77548 187.61C7.04793 187.973 6.37234 188.18 5.59283 188.18C4.81331 188.18 4.08577 187.973 3.35822 187.61ZM3.35822 198.769C2.63068 198.354 2.11101 197.783 1.74724 197.108C1.38346 196.381 1.17559 195.707 1.17559 194.928C1.17559 194.201 1.38346 193.527 1.74724 192.8C2.11101 192.073 2.63068 191.502 3.35822 191.139C4.08577 190.724 4.81331 190.516 5.59283 190.516C6.37234 190.516 7.04793 190.724 7.77548 191.139C8.45106 191.502 8.97074 192.021 9.33451 192.696C9.75025 193.423 9.95813 194.15 9.95813 194.928C9.95813 195.655 9.75025 196.381 9.33451 197.108C8.97074 197.783 8.45106 198.354 7.77548 198.769C7.04793 199.132 6.37234 199.34 5.59283 199.34C4.81331 199.34 4.08577 199.132 3.35822 198.769Z" fill="black"/>
<path d="M84.6877 183.457C87.5979 183.457 89.1049 184.91 89.1049 187.869V217.351C89.1049 220.31 87.6498 221.815 84.6877 221.815H70.6044C69.1493 221.815 68.4218 220.361 68.4218 217.403C68.3698 214.444 69.0974 212.939 70.5525 212.939H80.2185V187.817C80.2704 184.962 81.7255 183.457 84.6877 183.457ZM80.8421 172.246C81.5177 172.609 82.0893 173.18 82.505 173.907C82.8688 174.633 83.0767 175.308 83.0767 176.087C83.0767 176.813 82.8688 177.592 82.505 178.319C82.1413 178.993 81.5696 179.512 80.8421 179.928C80.1665 180.291 79.4389 180.499 78.7114 180.499C77.9319 180.499 77.2043 180.291 76.5287 179.928C75.8532 179.512 75.2815 178.993 74.8658 178.319C74.502 177.592 74.2941 176.865 74.2941 176.087C74.2941 175.36 74.502 174.633 74.8658 173.907C75.2815 173.18 75.8532 172.609 76.5287 172.246C77.2563 171.882 77.9319 171.675 78.7114 171.675C79.4389 171.675 80.1665 171.83 80.8421 172.246ZM93.6781 173.855C94.0419 174.581 94.2497 175.256 94.2497 176.035C94.2497 176.761 94.0419 177.54 93.6781 178.267C93.3143 178.941 92.7427 179.46 92.0151 179.876C91.3396 180.239 90.612 180.447 89.8844 180.447C89.1049 180.447 88.3774 180.239 87.7018 179.876C87.0262 179.46 86.4546 178.941 86.0389 178.267C85.6751 177.54 85.4672 176.813 85.4672 176.035C85.4672 175.308 85.6751 174.581 86.0389 173.855C86.4546 173.128 87.0262 172.557 87.7018 172.194C88.4293 171.83 89.1049 171.623 89.8844 171.623C90.612 171.623 91.2876 171.83 92.0151 172.194C92.6907 172.609 93.2623 173.18 93.6781 173.855Z" fill="black"/>
<path d="M115.712 212.939C117.168 212.939 117.947 214.392 117.947 217.351C117.947 220.258 117.219 221.763 115.816 221.763H107.034C106.514 229.704 102.097 233.701 93.834 233.701L90.4561 233.649C87.494 233.649 85.9869 232.248 85.9869 229.341L86.0389 229.289H85.9869C85.9869 226.382 87.494 224.877 90.4561 224.877H93.782C96.7962 224.877 98.3032 223.372 98.3032 220.361V187.973C98.3032 184.962 99.8103 183.457 102.772 183.457C105.683 183.457 107.19 184.962 107.19 187.921V212.887C110.412 212.835 113.218 212.887 115.712 212.939Z" fill="black"/>
<path d="M166.277 212.887C167.732 212.887 168.512 214.34 168.512 217.299C168.564 220.258 167.836 221.763 166.381 221.763H150.635C147.569 221.763 146.114 220.725 146.217 218.597L146.269 196.641C146.269 193.734 144.814 192.229 141.852 192.229H135.876C132.914 192.229 131.407 193.63 131.407 196.485V208.216C131.407 211.278 132.914 212.783 135.876 212.783L139.514 212.835C142.476 212.835 143.983 214.289 143.983 217.195C143.983 220.206 142.528 221.711 139.566 221.711H112.958C111.503 221.711 110.775 220.206 110.827 217.247C110.827 214.34 111.555 212.835 113.01 212.835H122.988C122.624 211.434 122.468 209.825 122.468 208.06V196.589C122.468 187.713 126.937 183.301 135.824 183.301H141.696C150.583 183.301 155 187.713 155 196.641V212.887H166.277Z" fill="black"/>
<path d="M202.135 212.835C205.045 212.835 206.5 214.34 206.5 217.299C206.5 220.206 204.993 221.711 202.031 221.711H163.99C161.028 221.711 159.521 220.258 159.521 217.299C159.521 214.34 160.976 212.835 163.886 212.835H172.097C171.734 211.434 171.578 209.825 171.578 208.112V196.641C171.578 187.765 176.047 183.301 184.933 183.301H193.924C197.717 183.301 201.043 184.391 204.006 186.571C206.552 188.129 207.124 190.205 205.668 192.748C204.889 193.994 203.954 194.72 203.018 194.98C201.979 195.24 200.784 194.98 199.536 194.201C197.146 192.852 195.379 192.177 194.08 192.177H184.933C181.919 192.177 180.412 193.579 180.412 196.485V208.268C180.412 211.278 181.919 212.783 184.933 212.783L202.135 212.835Z" fill="black"/>
<path d="M10.8935 183.717C10.8935 186.571 8.55499 188.907 5.69677 188.907C2.83855 188.907 0.5 186.571 0.5 183.717C0.5 180.862 2.83855 178.526 5.69677 178.526C8.60696 178.526 10.8935 180.862 10.8935 183.717Z" fill="#0B7C18"/>
<path d="M83.8562 176.19C83.8562 179.045 81.5177 181.381 78.6595 181.381C75.8012 181.381 73.4627 179.045 73.4627 176.19C73.4627 173.336 75.8012 171 78.6595 171C81.5696 171 83.8562 173.336 83.8562 176.19Z" fill="#0B7C18"/>
<path d="M95.8607 176.19C95.8607 179.045 93.5222 181.381 90.664 181.381C87.8057 181.381 85.4672 179.045 85.4672 176.19C85.4672 173.336 87.8057 171 90.664 171C93.5222 171 95.8607 173.336 95.8607 176.19Z" fill="#0B7C18"/>
<path d="M205.98 235.933C205.98 238.943 203.538 241.383 200.524 241.383C197.51 241.383 195.067 238.943 195.067 235.933C195.067 232.922 197.51 230.483 200.524 230.483C203.538 230.483 205.98 232.922 205.98 235.933Z" fill="#0B7C18"/>
<path d="M10.8935 195.499C10.8935 198.354 8.55499 200.69 5.69677 200.69C2.83855 200.69 0.5 198.354 0.5 195.499C0.5 192.644 2.83855 190.309 5.69677 190.309C8.60696 190.309 10.8935 192.644 10.8935 195.499Z" fill="#0B7C18"/>
</svg>
