<svg width="133" height="52" viewBox="0 0 133 52" fill="none" xmlns="http://www.w3.org/2000/svg">
<path d="M22.3577 24.0682L18.9137 27.5121L20.6357 29.2341L24.0797 25.7901L22.3577 24.0682Z" fill="black"/>
<path d="M26.3539 16.5834L17.1321 25.7874L18.493 27.1483L18.5288 27.1124L21.9668 23.6744L22.3608 23.2805L22.7547 23.6744L24.4737 25.3934L24.8856 25.7874L24.4737 26.1813L21.0357 29.6373L20.9999 29.6552L26.3539 35.0092L35.5579 25.7874L26.3539 16.5834Z" fill="black"/>
<path d="M26.3462 15.7801L16.3308 25.7955L26.3462 35.8109L36.3616 25.7955L26.3462 15.7801Z" stroke="black" stroke-width="0.635083" stroke-miterlimit="10"/>
<path d="M25.6735 41.3481C25.6556 41.3481 25.6556 41.3481 25.6377 41.3481C25.4228 41.3302 25.2079 41.3302 24.9931 41.3123C24.6528 41.2765 24.4021 40.9721 24.4201 40.6318C24.4559 40.2916 24.7603 40.0409 25.1005 40.0588C25.2975 40.0767 25.4944 40.0947 25.6914 40.0947C26.0316 40.1126 26.3002 40.3991 26.2823 40.7393C26.2823 41.0974 25.9958 41.3481 25.6735 41.3481ZM28.7713 41.169C28.4669 41.169 28.2162 40.9542 28.1625 40.6498C28.1088 40.3095 28.3416 39.9872 28.6818 39.9335C28.8788 39.8977 29.0757 39.8619 29.2727 39.8261C29.6129 39.7544 29.9353 39.9693 30.0069 40.3095C30.0785 40.6498 29.8636 40.9721 29.5234 41.0437C29.3085 41.0795 29.0937 41.1332 28.8788 41.169C28.843 41.169 28.8071 41.169 28.7713 41.169ZM22.0027 40.7214C21.949 40.7214 21.8773 40.7214 21.8236 40.6856C21.6087 40.6139 21.4118 40.5602 21.2148 40.4886C20.8925 40.3812 20.7134 40.023 20.8388 39.7007C20.9462 39.3784 21.3043 39.1993 21.6266 39.3247C21.8057 39.3963 22.0027 39.45 22.1996 39.5037C22.522 39.6112 22.7189 39.9514 22.6115 40.2737C22.522 40.5423 22.2713 40.7214 22.0027 40.7214ZM32.3526 40.1126C32.1198 40.1126 31.8871 39.9693 31.7796 39.7365C31.6364 39.4142 31.7796 39.0561 32.1019 38.9128C32.281 38.8412 32.4601 38.7517 32.6391 38.6621C32.9435 38.5189 33.3196 38.6442 33.4807 38.9486C33.624 39.2531 33.4986 39.6291 33.1942 39.7902C32.9973 39.8798 32.8003 39.9693 32.6033 40.0588C32.5138 40.0946 32.4243 40.1126 32.3526 40.1126ZM18.6004 39.1993C18.493 39.1993 18.3856 39.1635 18.2781 39.1098C18.0991 39.0024 17.9021 38.877 17.723 38.7696C17.4365 38.5726 17.3649 38.1966 17.544 37.9101C17.7409 37.6236 18.117 37.5519 18.4035 37.731C18.5646 37.8384 18.7437 37.9459 18.9049 38.0533C19.1914 38.2324 19.2988 38.6084 19.1197 38.9128C19.0123 39.0919 18.7974 39.1993 18.6004 39.1993ZM35.54 38.1966C35.3609 38.1966 35.1639 38.107 35.0565 37.9638C34.8416 37.6952 34.8953 37.3012 35.1639 37.0864C35.3251 36.961 35.4684 36.8357 35.6295 36.7103C35.8981 36.4955 36.2921 36.5134 36.5069 36.7819C36.7218 37.0505 36.7039 37.4445 36.4353 37.6594C36.2741 37.8026 36.0951 37.928 35.9339 38.0712C35.8086 38.1608 35.6832 38.1966 35.54 38.1966ZM15.6817 36.8894C15.5205 36.8894 15.3594 36.8357 15.234 36.7103C15.0908 36.5492 14.9296 36.4059 14.7864 36.2448C14.5536 35.9941 14.5715 35.6001 14.8401 35.3673C15.0908 35.1346 15.4847 35.1525 15.7175 35.4211C15.8428 35.5643 15.9861 35.7076 16.1293 35.8508C16.3621 36.1015 16.3621 36.4954 16.1114 36.7282C15.9861 36.8178 15.8249 36.8894 15.6817 36.8894ZM38.1722 35.5643C38.0469 35.5643 37.9036 35.5285 37.7962 35.439C37.5276 35.2241 37.4739 34.8301 37.6888 34.5616C37.8141 34.4004 37.9215 34.2392 38.0469 34.0781C38.2439 33.7916 38.6378 33.7379 38.9064 33.9348C39.1929 34.1318 39.2466 34.5257 39.0497 34.7943C38.9243 34.9734 38.799 35.1525 38.6557 35.3136C38.5483 35.4748 38.3692 35.5643 38.1722 35.5643ZM13.4255 33.9169C13.2106 33.9169 12.9957 33.8095 12.8883 33.6125C12.7808 33.4334 12.6734 33.2365 12.566 33.0395C12.4048 32.7351 12.5301 32.359 12.8346 32.1979C13.139 32.0367 13.515 32.1621 13.6762 32.4665C13.7657 32.6456 13.8731 32.8246 13.9627 32.9858C14.1417 33.2902 14.0343 33.6662 13.7299 33.8453C13.6224 33.899 13.515 33.9169 13.4255 33.9169ZM40.0703 32.3411C39.9808 32.3411 39.9092 32.3232 39.8196 32.2874C39.4973 32.1442 39.3541 31.786 39.4973 31.4637C39.5689 31.2847 39.6585 31.1056 39.7301 30.9086C39.8554 30.5863 40.2136 30.4251 40.5359 30.5505C40.8582 30.6758 41.0194 31.034 40.894 31.3563C40.8224 31.5533 40.7329 31.7502 40.6433 31.9651C40.5359 32.1979 40.3031 32.3411 40.0703 32.3411ZM11.9571 30.4968C11.6885 30.4968 11.4378 30.3177 11.3662 30.0491C11.3125 29.8342 11.2588 29.6373 11.2051 29.4224C11.1334 29.0822 11.3304 28.7598 11.6706 28.6703C12.0109 28.5987 12.3332 28.7957 12.4227 29.1359C12.4764 29.3328 12.5122 29.5298 12.566 29.7089C12.6555 30.0312 12.4764 30.3893 12.1362 30.4789C12.0646 30.4789 12.0109 30.4968 11.9571 30.4968ZM41.1089 28.7598C41.0731 28.7598 41.0373 28.7598 41.0015 28.7598C40.6612 28.7061 40.4285 28.3838 40.4822 28.0436C40.518 27.8466 40.5359 27.6496 40.5717 27.4527C40.5896 27.2915 40.6075 27.1124 40.6254 26.9513C40.6612 26.6111 40.9477 26.3425 41.3059 26.3783C41.6461 26.4141 41.8968 26.7006 41.8789 27.0408C41.861 27.2199 41.8431 27.3989 41.8252 27.5959C41.8073 27.8108 41.7714 28.0257 41.7356 28.2405C41.6819 28.545 41.4133 28.7598 41.1089 28.7598ZM41.1805 24.516C40.8761 24.516 40.6075 24.2832 40.5717 23.9788C40.5538 23.7818 40.518 23.5849 40.4822 23.3879C40.4285 23.0477 40.6612 22.7254 40.9836 22.6716C41.3238 22.6179 41.6461 22.8507 41.6998 23.173C41.7356 23.3879 41.7714 23.6028 41.7893 23.8177C41.8252 24.1579 41.5924 24.4623 41.2522 24.516C41.2342 24.516 41.1984 24.516 41.1805 24.516ZM11.7602 23.1014C11.7064 23.1014 11.6706 23.1014 11.6169 23.0835C11.2767 23.0119 11.0618 22.6716 11.1513 22.3314C11.2051 22.1165 11.2588 21.9017 11.3125 21.7047C11.402 21.3645 11.7423 21.1675 12.0825 21.257C12.4227 21.3466 12.6197 21.6868 12.5301 22.027C12.4764 22.224 12.4227 22.403 12.3869 22.6C12.3153 22.9044 12.0467 23.1014 11.7602 23.1014ZM40.2494 20.9168C39.9987 20.9168 39.7659 20.7735 39.6764 20.5229C39.6048 20.3438 39.5331 20.1468 39.4436 19.9678C39.3004 19.6454 39.4436 19.2873 39.7659 19.1441C40.0882 19.0008 40.4464 19.1441 40.5896 19.4664C40.6791 19.6633 40.7687 19.8603 40.8403 20.0573C40.9657 20.3796 40.8045 20.7377 40.5001 20.8631C40.3926 20.8989 40.321 20.9168 40.2494 20.9168ZM13.0315 19.5917C12.942 19.5917 12.8346 19.5738 12.745 19.5201C12.4406 19.3589 12.3153 18.9829 12.4764 18.6785C12.5839 18.4815 12.6734 18.3025 12.7808 18.1055C12.942 17.8011 13.3359 17.6936 13.6224 17.8727C13.9268 18.0339 14.0343 18.4278 13.8552 18.7143C13.7657 18.8934 13.6583 19.0545 13.5687 19.2336C13.4792 19.4664 13.2643 19.5917 13.0315 19.5917ZM38.4587 17.6399C38.2618 17.6399 38.0827 17.5504 37.9574 17.3892C37.832 17.2281 37.7246 17.0669 37.5992 16.9057C37.3844 16.6371 37.4381 16.2432 37.7067 16.0283C37.9753 15.8134 38.3692 15.8672 38.5841 16.1358C38.7094 16.2969 38.8527 16.476 38.978 16.6551C39.175 16.9416 39.1213 17.3176 38.8348 17.5325C38.7094 17.6041 38.5841 17.6399 38.4587 17.6399ZM15.1445 16.5118C15.0012 16.5118 14.858 16.4581 14.7326 16.3506C14.4819 16.1179 14.4461 15.7239 14.6789 15.4732C14.8222 15.3121 14.9654 15.1509 15.1266 14.9897C15.3594 14.7391 15.7533 14.7391 16.004 14.9718C16.2547 15.2046 16.2547 15.5986 16.0219 15.8493C15.8787 15.9925 15.7533 16.1358 15.6101 16.2969C15.4847 16.4402 15.3056 16.5118 15.1445 16.5118ZM35.8981 14.9181C35.7549 14.9181 35.6116 14.8644 35.5042 14.7749C35.343 14.6495 35.1998 14.5242 35.0386 14.3988C34.77 14.184 34.7163 13.79 34.9312 13.5214C35.146 13.2528 35.54 13.1991 35.8086 13.414C35.9876 13.5393 36.1488 13.6826 36.31 13.8258C36.5786 14.0407 36.6144 14.4346 36.3816 14.7032C36.2562 14.8465 36.0772 14.9181 35.8981 14.9181ZM17.9379 14.0586C17.7409 14.0586 17.544 13.9691 17.4186 13.79C17.2216 13.5035 17.2933 13.1096 17.5798 12.9305C17.7588 12.8052 17.9379 12.6977 18.117 12.5724C18.4035 12.3933 18.7974 12.4828 18.9765 12.7693C19.1555 13.0558 19.066 13.4498 18.7795 13.6289C18.6183 13.7363 18.4393 13.8437 18.2781 13.9512C18.1886 14.0228 18.0632 14.0586 17.9379 14.0586ZM32.7645 12.9126C32.6749 12.9126 32.5854 12.8947 32.4959 12.8589C32.3168 12.7693 32.1378 12.6977 31.9587 12.6082C31.6364 12.4649 31.4931 12.1068 31.6364 11.7845C31.7617 11.4622 32.1378 11.3189 32.4601 11.4622C32.657 11.5517 32.854 11.6412 33.051 11.7308C33.3554 11.874 33.4986 12.2501 33.3375 12.5545C33.23 12.7872 32.9973 12.9126 32.7645 12.9126ZM21.2506 12.3575C20.9999 12.3575 20.7492 12.1963 20.6597 11.9456C20.5343 11.6233 20.7134 11.2652 21.0357 11.1399C21.2327 11.0682 21.4476 10.9966 21.6445 10.925C21.9669 10.8175 22.325 10.9966 22.4324 11.3368C22.5399 11.6591 22.3608 12.0173 22.0206 12.1247C21.8236 12.1784 21.6445 12.2501 21.4655 12.3217C21.3939 12.3396 21.3222 12.3575 21.2506 12.3575ZM29.219 11.7487C29.1832 11.7487 29.1474 11.7487 29.0936 11.7308C28.8967 11.695 28.6997 11.6591 28.5027 11.6233C28.1625 11.5696 27.9297 11.2473 27.9834 10.9071C28.0372 10.5668 28.3595 10.3341 28.6997 10.3878C28.9146 10.4236 29.1295 10.4594 29.3443 10.4952C29.6846 10.5668 29.8994 10.8892 29.8278 11.2294C29.7741 11.5338 29.5234 11.7487 29.219 11.7487ZM24.8856 11.5338C24.5633 11.5338 24.2947 11.301 24.2589 10.9787C24.2231 10.6385 24.4738 10.3341 24.814 10.2982C25.0289 10.2803 25.2438 10.2624 25.4586 10.2445C25.7989 10.2266 26.1033 10.4952 26.1212 10.8354C26.1391 11.1757 25.8705 11.4801 25.5303 11.498C25.3333 11.5159 25.1363 11.5159 24.9393 11.5517C24.9214 11.5338 24.9035 11.5338 24.8856 11.5338Z" fill="black"/>
<path d="M11.4557 26.4141L12.2257 24.8025L10.4351 24.9458L11.4557 26.4141Z" fill="#0B7C18"/>
<path d="M25.5123 46.3977C25.4944 46.3977 25.4944 46.3977 25.4765 46.3977C25.19 46.3798 24.9035 46.3619 24.617 46.344C24.1693 46.3082 23.8291 45.8963 23.8649 45.4487C23.9007 45.001 24.3126 44.6608 24.7602 44.6966C25.0288 44.7145 25.2795 44.7324 25.5481 44.7503C25.9958 44.7682 26.3539 45.1622 26.336 45.6098C26.3181 46.0575 25.96 46.3977 25.5123 46.3977ZM29.6308 46.147C29.2369 46.147 28.8787 45.8605 28.825 45.4487C28.7534 45.001 29.0578 44.5713 29.5055 44.4996C29.7741 44.4638 30.0247 44.4101 30.2754 44.3564C30.7231 44.2668 31.1529 44.5534 31.2424 45.001C31.3319 45.4487 31.0454 45.8784 30.5978 45.968C30.3112 46.0217 30.0427 46.0754 29.7562 46.1291C29.7203 46.147 29.6666 46.147 29.6308 46.147ZM20.6597 45.5561C20.588 45.5561 20.4985 45.5382 20.4269 45.5203C20.1583 45.4308 19.8718 45.3412 19.6032 45.2517C19.1734 45.1085 18.9406 44.625 19.1018 44.1952C19.245 43.7655 19.7285 43.5327 20.1583 43.6939C20.409 43.7834 20.6597 43.855 20.9103 43.9445C21.3401 44.0699 21.5908 44.5354 21.4654 44.9652C21.3401 45.3233 20.9999 45.5561 20.6597 45.5561ZM34.3581 44.7503C34.0358 44.7503 33.7314 44.5713 33.606 44.2489C33.427 43.8371 33.606 43.3536 34.0358 43.1567C34.2686 43.0492 34.5193 42.9418 34.7521 42.8164C35.1639 42.6195 35.6474 42.7806 35.8623 43.1925C36.0592 43.6043 35.8981 44.0878 35.4862 44.3027C35.2355 44.428 34.9669 44.5534 34.7162 44.6608C34.573 44.7324 34.4656 44.7503 34.3581 44.7503ZM16.1472 43.5506C16.004 43.5506 15.8607 43.5148 15.7175 43.4253C15.4668 43.282 15.234 43.1208 14.9833 42.9597C14.6073 42.709 14.4998 42.1897 14.7505 41.8137C15.0012 41.4376 15.5205 41.3302 15.8965 41.5809C16.1114 41.7241 16.3442 41.8674 16.5591 42.0106C16.953 42.2434 17.0784 42.7448 16.8277 43.1387C16.7023 43.4073 16.4158 43.5506 16.1472 43.5506ZM38.602 42.2255C38.3513 42.2255 38.1185 42.1181 37.9573 41.9032C37.6708 41.5451 37.7424 41.0258 38.1006 40.7393C38.3155 40.5781 38.5124 40.417 38.7094 40.2379C39.0496 39.9514 39.5689 39.9872 39.8733 40.3274C40.1598 40.6676 40.124 41.1869 39.7838 41.4913C39.5689 41.6704 39.3361 41.8495 39.1212 42.0285C38.9422 42.1539 38.7631 42.2255 38.602 42.2255ZM12.2794 40.4886C12.0645 40.4886 11.8497 40.399 11.6885 40.2379C11.4915 40.0409 11.2946 39.826 11.0976 39.6112C10.7932 39.2709 10.8111 38.7517 11.1513 38.4472C11.4915 38.1428 12.0108 38.1607 12.3152 38.501C12.4943 38.6979 12.6734 38.8949 12.8524 39.074C13.1747 39.3963 13.1747 39.9156 12.8345 40.2379C12.6913 40.399 12.4943 40.4886 12.2794 40.4886ZM42.0758 38.7158C41.8968 38.7158 41.7177 38.6621 41.5744 38.5368C41.2163 38.2503 41.1447 37.7489 41.4312 37.3729C41.5923 37.158 41.7535 36.961 41.8968 36.7461C42.1653 36.3701 42.6667 36.2806 43.0428 36.5492C43.4188 36.8178 43.5083 37.3191 43.2397 37.6952C43.0786 37.928 42.8995 38.1607 42.7205 38.3935C42.5593 38.6084 42.3265 38.7158 42.0758 38.7158ZM9.28903 36.5492C9.00253 36.5492 8.73393 36.4059 8.57277 36.1373C8.42952 35.8866 8.28627 35.6359 8.16092 35.3852C7.94604 34.9734 8.1072 34.4899 8.50114 34.275C8.91299 34.0602 9.39647 34.2213 9.61135 34.6153C9.7367 34.848 9.86204 35.0808 9.98738 35.3136C10.2202 35.7075 10.0769 36.2089 9.68297 36.4417C9.57554 36.5133 9.43228 36.5492 9.28903 36.5492ZM44.5827 34.472C44.4753 34.472 44.3678 34.4541 44.2604 34.4004C43.8486 34.2213 43.6516 33.7378 43.8307 33.3081C43.9381 33.0753 44.0276 32.8246 44.1351 32.5739C44.2962 32.1442 44.7797 31.9293 45.1915 32.0904C45.6213 32.2516 45.8362 32.7351 45.675 33.1469C45.5676 33.4155 45.4601 33.6841 45.3527 33.9348C45.2095 34.2929 44.905 34.472 44.5827 34.472ZM7.35513 32.0188C6.997 32.0188 6.65678 31.786 6.56725 31.4279C6.49562 31.1593 6.42399 30.8728 6.35237 30.6042C6.24493 30.1565 6.51353 29.7089 6.96119 29.6014C7.40885 29.494 7.85651 29.7626 7.96395 30.2103C8.01767 30.4609 8.0893 30.7116 8.16092 30.9802C8.28627 31.41 8.03558 31.8756 7.58792 32.0009C7.51629 32.0009 7.42676 32.0188 7.35513 32.0188ZM45.9615 29.7268C45.9257 29.7268 45.872 29.7268 45.8362 29.7089C45.3885 29.6372 45.0841 29.2075 45.1557 28.7598C45.1915 28.5091 45.2274 28.2405 45.2632 27.9719C45.2811 27.7571 45.3169 27.5243 45.3348 27.3094C45.3706 26.8617 45.7646 26.5215 46.2301 26.5573C46.6778 26.5931 47.018 26.9871 46.9822 27.4527C46.9643 27.6854 46.9464 27.9361 46.9106 28.1689C46.8748 28.4554 46.8389 28.7419 46.7852 29.0105C46.7136 29.4403 46.3555 29.7268 45.9615 29.7268ZM46.0511 24.1041C45.6392 24.1041 45.2811 23.7997 45.2274 23.3879C45.1915 23.1193 45.1557 22.8686 45.1199 22.6C45.0483 22.1523 45.3527 21.7226 45.8004 21.651C46.248 21.5793 46.6778 21.8837 46.7494 22.3314C46.8031 22.6179 46.8389 22.9044 46.8748 23.173C46.9285 23.6207 46.6062 24.0325 46.1585 24.0862C46.1227 24.1041 46.0869 24.1041 46.0511 24.1041ZM7.10444 22.224C7.05072 22.224 6.9791 22.224 6.92538 22.2061C6.47771 22.0986 6.20912 21.6689 6.29865 21.2212C6.37027 20.9347 6.42399 20.6661 6.51353 20.3796C6.63887 19.9319 7.08653 19.6812 7.51629 19.8066C7.96395 19.9319 8.21464 20.3796 8.0893 20.8094C8.01767 21.06 7.96395 21.3107 7.89233 21.5793C7.8207 21.9733 7.48048 22.224 7.10444 22.224ZM44.8155 19.3231C44.4932 19.3231 44.1709 19.1261 44.0455 18.8038C43.956 18.5531 43.8486 18.3203 43.7411 18.0697C43.5621 17.6578 43.7411 17.1743 44.153 16.9774C44.5648 16.7983 45.0483 16.9774 45.2453 17.3892C45.3706 17.6578 45.4781 17.9085 45.5855 18.1771C45.7466 18.6069 45.5497 19.0724 45.1199 19.2515C45.0304 19.3052 44.923 19.3231 44.8155 19.3231ZM8.78765 17.5862C8.6623 17.5862 8.53696 17.5504 8.41161 17.4967C7.99976 17.2818 7.8386 16.7983 8.05348 16.3864C8.17883 16.1358 8.32208 15.8851 8.46533 15.6344C8.69812 15.2404 9.1995 15.0972 9.59344 15.33C9.98738 15.5627 10.1306 16.0641 9.89785 16.4581C9.77251 16.6909 9.64716 16.9236 9.52182 17.1564C9.37857 17.425 9.09206 17.5862 8.78765 17.5862ZM42.4339 15.0077C42.1833 15.0077 41.9326 14.8823 41.7714 14.6674C41.6102 14.4525 41.4491 14.2377 41.2879 14.0407C41.0014 13.6826 41.0731 13.1633 41.4312 12.8768C41.7893 12.5903 42.3086 12.6619 42.5951 13.02C42.7742 13.2528 42.9532 13.4677 43.1144 13.7005C43.383 14.0765 43.2935 14.5779 42.9353 14.8465C42.7742 14.9539 42.613 15.0077 42.4339 15.0077ZM11.5632 13.5035C11.3662 13.5035 11.1692 13.4319 11.0081 13.2886C10.6678 12.9842 10.632 12.4649 10.9364 12.1247C11.1334 11.9098 11.3125 11.6949 11.5273 11.498C11.8497 11.1757 12.3689 11.1578 12.6913 11.4801C13.0136 11.8024 13.0315 12.3217 12.7092 12.644C12.5301 12.841 12.351 13.02 12.172 13.217C12.0287 13.414 11.7959 13.5035 11.5632 13.5035ZM39.0675 11.3905C38.8885 11.3905 38.6915 11.3368 38.5482 11.1936C38.3513 11.0324 38.1364 10.8533 37.9215 10.6922C37.5634 10.4236 37.4918 9.9043 37.7603 9.52826C38.0289 9.17013 38.5482 9.09851 38.9243 9.36711C39.1571 9.54617 39.3719 9.72523 39.6047 9.9043C39.9629 10.1908 39.9987 10.7101 39.7122 11.0682C39.5331 11.301 39.3003 11.3905 39.0675 11.3905ZM15.2698 10.2445C15.0012 10.2445 14.7505 10.1192 14.5894 9.88639C14.3387 9.51036 14.4282 8.99107 14.8042 8.74038C15.037 8.57922 15.2877 8.41806 15.5205 8.27481C15.9144 8.04202 16.4158 8.14946 16.6486 8.54341C16.8814 8.93735 16.7739 9.43873 16.38 9.67151C16.1651 9.81476 15.9323 9.95801 15.7175 10.1013C15.5921 10.2087 15.431 10.2445 15.2698 10.2445ZM34.9132 8.74038C34.7879 8.74038 34.6804 8.72247 34.5551 8.66875C34.3223 8.56131 34.0716 8.45387 33.8388 8.34643C33.427 8.16737 33.23 7.68389 33.4091 7.27204C33.5881 6.86019 34.0716 6.66322 34.4835 6.84229C34.7521 6.94973 35.0028 7.07507 35.2713 7.20042C35.6832 7.39739 35.8623 7.88087 35.6653 8.29272C35.522 8.56131 35.2176 8.74038 34.9132 8.74038ZM19.6748 8.00621C19.3346 8.00621 19.0302 7.79133 18.9048 7.46902C18.7437 7.03926 18.9764 6.57369 19.4062 6.41253C19.6748 6.323 19.9434 6.21556 20.212 6.14394C20.6417 6.00068 21.1073 6.25138 21.2506 6.68113C21.3938 7.11089 21.1431 7.57645 20.7134 7.71971C20.4627 7.79133 20.212 7.88086 19.9613 7.9704C19.8539 7.9883 19.7643 8.00621 19.6748 8.00621ZM30.2217 7.18251C30.168 7.18251 30.1143 7.18251 30.0606 7.1646C29.8099 7.11088 29.5413 7.07507 29.2727 7.02135C28.825 6.94973 28.5206 6.53788 28.5743 6.07231C28.6459 5.62464 29.0578 5.32023 29.5055 5.37395C29.792 5.40977 30.0785 5.46349 30.3471 5.51721C30.7947 5.60674 31.0812 6.0365 30.9917 6.48416C30.9559 6.91391 30.6157 7.18251 30.2217 7.18251ZM24.4737 6.91391C24.0619 6.91391 23.7038 6.59159 23.65 6.16184C23.6142 5.71418 23.9365 5.30233 24.3842 5.26651C24.6707 5.2307 24.9572 5.2128 25.2437 5.19489C25.6914 5.17698 26.0853 5.51721 26.1211 5.96487C26.139 6.41253 25.7988 6.80648 25.3512 6.84229C25.0826 6.8602 24.8319 6.8781 24.5633 6.89601C24.5275 6.91391 24.5096 6.91391 24.4737 6.91391Z" fill="black"/>
<path d="M6.67465 26.629L7.69532 24.4802L5.33167 24.6592L6.67465 26.629Z" fill="#0B7C18"/>
<path d="M25.3511 51.5906C25.3332 51.5906 25.3153 51.5906 25.2974 51.5906C24.9393 51.5727 24.5811 51.5548 24.223 51.519C23.65 51.4653 23.2382 50.9639 23.2919 50.4088C23.3456 49.8358 23.847 49.4239 24.4021 49.4776C24.7244 49.5135 25.0646 49.5314 25.3869 49.5493C25.9599 49.5672 26.3897 50.0507 26.3718 50.6237C26.3718 51.1609 25.9062 51.5906 25.3511 51.5906ZM30.5082 51.2862C30.0068 51.2862 29.5771 50.9281 29.4875 50.4267C29.398 49.8716 29.774 49.3344 30.347 49.2449C30.6694 49.1911 30.9917 49.1374 31.314 49.0658C31.8691 48.9405 32.4242 49.3165 32.5316 49.8716C32.6391 50.4267 32.2809 50.9818 31.7258 51.0892C31.3677 51.1609 31.0275 51.2325 30.6694 51.2862C30.6156 51.2862 30.5619 51.2862 30.5082 51.2862ZM19.2629 50.552C19.1555 50.552 19.0659 50.5341 18.9585 50.5162C18.6183 50.4088 18.2781 50.3013 17.9378 50.176C17.4006 49.9969 17.1141 49.406 17.3111 48.8688C17.4902 48.3316 18.0811 48.0451 18.6183 48.2421C18.9227 48.3495 19.245 48.457 19.5673 48.5465C20.1045 48.7077 20.4268 49.2807 20.2478 49.8358C20.1224 50.2476 19.7106 50.552 19.2629 50.552ZM36.4352 49.5314C36.0413 49.5314 35.6653 49.2986 35.4862 48.9046C35.2534 48.3854 35.4862 47.7765 36.0234 47.5438C36.3278 47.4184 36.6322 47.2751 36.9187 47.1319C37.438 46.8812 38.0468 47.0961 38.2975 47.5975C38.5482 48.1168 38.3333 48.7256 37.832 48.9763C37.5096 49.1374 37.1873 49.2807 36.865 49.4239C36.7038 49.4956 36.5606 49.5314 36.4352 49.5314ZM13.6224 48.0272C13.4433 48.0272 13.2463 47.9735 13.0852 47.884C12.7808 47.7049 12.4764 47.5079 12.1719 47.311C11.6885 46.9886 11.5631 46.3619 11.8854 45.8784C12.2078 45.395 12.8345 45.2696 13.318 45.5919C13.5866 45.771 13.8731 45.9501 14.1596 46.1291C14.643 46.4156 14.8042 47.0603 14.4998 47.5438C14.3207 47.8482 13.9805 48.0272 13.6224 48.0272ZM41.7356 46.3619C41.4312 46.3619 41.1267 46.2187 40.9119 45.968C40.5537 45.5203 40.6433 44.8757 41.0909 44.5175C41.3595 44.3206 41.6102 44.1057 41.8609 43.8908C42.2907 43.5148 42.9532 43.5685 43.3113 44.0162C43.6874 44.4459 43.6337 45.1085 43.186 45.4666C42.9174 45.6994 42.6309 45.9322 42.3444 46.147C42.1832 46.2903 41.9504 46.3619 41.7356 46.3619ZM8.78762 44.1773C8.51902 44.1773 8.25042 44.0699 8.05345 43.8729C7.80276 43.6222 7.55207 43.3536 7.31929 43.085C6.94325 42.6553 6.97906 42.0106 7.39091 41.6346C7.82067 41.2586 8.4653 41.2944 8.84134 41.7062C9.05622 41.9569 9.289 42.1897 9.52179 42.4225C9.91573 42.8343 9.91573 43.479 9.50388 43.8908C9.30691 44.0878 9.03831 44.1773 8.78762 44.1773ZM46.0868 41.9748C45.872 41.9748 45.6392 41.9032 45.4601 41.7599C45.0125 41.4197 44.9229 40.7572 45.281 40.3095C45.478 40.0409 45.675 39.7902 45.872 39.5216C46.1943 39.0561 46.8389 38.9486 47.3045 39.2709C47.7701 39.5933 47.8775 40.2379 47.5552 40.7035C47.3403 40.99 47.1254 41.2765 46.9105 41.563C46.6957 41.8495 46.3913 41.9748 46.0868 41.9748ZM5.04516 39.2709C4.68703 39.2709 4.34681 39.0919 4.14984 38.7517C3.97078 38.4472 3.79171 38.1249 3.63055 37.8205C3.36195 37.3191 3.55893 36.6924 4.06031 36.4238C4.56169 36.1552 5.18841 36.3522 5.45701 36.8536C5.61817 37.1401 5.77933 37.4266 5.94049 37.7131C6.22699 38.2145 6.06583 38.8412 5.56445 39.1277C5.38539 39.2172 5.20632 39.2709 5.04516 39.2709ZM49.2384 36.6566C49.0951 36.6566 48.9698 36.6208 48.8265 36.5671C48.3072 36.3343 48.0566 35.7255 48.2893 35.2062C48.4147 34.9018 48.54 34.5974 48.6654 34.2929C48.8623 33.7557 49.4712 33.4871 49.9905 33.702C50.5276 33.899 50.7962 34.5078 50.5814 35.0271C50.456 35.3673 50.3128 35.6896 50.1695 36.0299C50.0084 36.4238 49.6323 36.6566 49.2384 36.6566ZM2.62779 33.5767C2.18013 33.5767 1.76828 33.2723 1.64293 32.8246C1.5534 32.4844 1.46387 32.1263 1.37433 31.786C1.24899 31.2309 1.58921 30.6758 2.14431 30.5505C2.69941 30.4251 3.25451 30.7654 3.39777 31.3205C3.46939 31.6428 3.55893 31.9651 3.64846 32.2695C3.80962 32.8246 3.4873 33.3976 2.9322 33.5409C2.80685 33.5767 2.71732 33.5767 2.62779 33.5767ZM50.9574 30.7295C50.9037 30.7295 50.85 30.7296 50.7962 30.7116C50.2411 30.6221 49.8472 30.0849 49.9367 29.5298C49.9905 29.2075 50.0263 28.8852 50.08 28.545C50.1158 28.2585 50.1337 27.9899 50.1695 27.7033C50.2232 27.1303 50.7246 26.7006 51.2797 26.7543C51.8527 26.808 52.2646 27.2915 52.2288 27.8645C52.2109 28.1689 52.175 28.4733 52.1392 28.7777C52.1034 29.1359 52.0497 29.494 51.996 29.8342C51.8885 30.3535 51.4588 30.7295 50.9574 30.7295ZM51.0648 23.6744C50.5456 23.6744 50.1158 23.2984 50.0442 22.7791C50.0084 22.4567 49.9546 22.1165 49.9009 21.7942C49.8114 21.2391 50.1874 20.7019 50.7425 20.5945C51.2976 20.5049 51.8348 20.881 51.9423 21.4361C51.996 21.7942 52.0497 22.1523 52.1034 22.4926C52.175 23.0656 51.7811 23.567 51.2081 23.6386C51.1544 23.6744 51.1007 23.6744 51.0648 23.6744ZM2.30547 21.3286C2.23384 21.3286 2.16222 21.3286 2.07269 21.3107C1.51758 21.1854 1.15946 20.6303 1.2848 20.0752C1.35643 19.7171 1.44596 19.3768 1.53549 19.0366C1.67874 18.4815 2.25175 18.1592 2.80685 18.3024C3.36195 18.4457 3.68427 19.0187 3.54102 19.5738C3.45149 19.8961 3.37986 20.2184 3.30823 20.5408C3.20079 21.0063 2.77104 21.3286 2.30547 21.3286ZM49.5249 17.6936C49.113 17.6936 48.7191 17.4429 48.5579 17.049C48.4326 16.7446 48.3072 16.4402 48.1819 16.1358C47.9491 15.6165 48.1819 15.0076 48.7012 14.7749C49.2205 14.5421 49.8293 14.7749 50.0621 15.2942C50.2053 15.6165 50.3486 15.9567 50.4739 16.279C50.6888 16.8162 50.4202 17.4071 49.9009 17.622C49.7756 17.6757 49.6502 17.6936 49.5249 17.6936ZM4.40053 15.5269C4.23937 15.5269 4.07821 15.4911 3.93496 15.4195C3.43358 15.1509 3.2187 14.5421 3.4873 14.0228C3.64846 13.7005 3.82752 13.3782 4.00659 13.0737C4.29309 12.5724 4.91982 12.4112 5.4212 12.6798C5.92258 12.9663 6.08374 13.593 5.81514 14.0944C5.65398 14.3809 5.49283 14.6674 5.34957 14.9718C5.1526 15.3121 4.77657 15.5269 4.40053 15.5269ZM46.5524 12.2859C46.2301 12.2859 45.9257 12.1426 45.7108 11.8561C45.5138 11.5875 45.3169 11.3189 45.1199 11.0682C44.7618 10.6206 44.8513 9.97593 45.299 9.6178C45.7466 9.25967 46.3913 9.3492 46.7494 9.79686C46.9643 10.0834 47.197 10.3699 47.394 10.6564C47.7342 11.1219 47.6268 11.7666 47.1612 12.1068C46.9643 12.2142 46.7494 12.2859 46.5524 12.2859ZM7.8923 10.4057C7.64161 10.4057 7.40882 10.3162 7.21185 10.155C6.78209 9.77896 6.74628 9.11641 7.12232 8.70457C7.3551 8.43597 7.60579 8.16737 7.85648 7.91668C8.25043 7.50483 8.91297 7.48692 9.32482 7.88087C9.73666 8.27481 9.75457 8.93735 9.36063 9.3492C9.12784 9.58198 8.91297 9.83268 8.69809 10.0834C8.4653 10.2982 8.1788 10.4057 7.8923 10.4057ZM42.3265 7.77343C42.0937 7.77343 41.8609 7.7018 41.6639 7.54064C41.4132 7.32577 41.1446 7.12879 40.894 6.91392C40.4463 6.57369 40.3568 5.91115 40.697 5.46349C41.0372 5.01583 41.6997 4.92629 42.1474 5.26652C42.4339 5.48139 42.7204 5.71418 42.989 5.94697C43.4188 6.3051 43.4904 6.96764 43.1144 7.39739C42.9174 7.64808 42.6309 7.77343 42.3265 7.77343ZM12.5301 6.323C12.2078 6.323 11.8675 6.16185 11.6706 5.87534C11.3483 5.40977 11.4736 4.76514 11.9392 4.44282C12.2436 4.24585 12.5301 4.04888 12.8345 3.8519C13.318 3.54749 13.9626 3.69075 14.2491 4.19213C14.5535 4.6756 14.4103 5.32024 13.9089 5.60674C13.6224 5.78581 13.3538 5.96487 13.0852 6.14394C12.9419 6.26928 12.727 6.323 12.5301 6.323ZM37.1157 4.44282C36.9724 4.44282 36.8113 4.40701 36.668 4.33538C36.3636 4.19213 36.0771 4.06678 35.7548 3.92353C35.2355 3.70865 34.9848 3.09984 35.1997 2.56264C35.4146 2.04335 36.0234 1.79266 36.5606 2.00754C36.9008 2.15079 37.2231 2.29404 37.5454 2.4552C38.0647 2.70589 38.2796 3.31471 38.0289 3.834C37.8857 4.21003 37.5096 4.44282 37.1157 4.44282ZM18.0274 3.51168C17.5976 3.51168 17.2037 3.24309 17.0604 2.83124C16.8635 2.29404 17.15 1.70312 17.6871 1.50615C18.0274 1.38081 18.3676 1.27337 18.7078 1.16593C19.245 0.986866 19.8359 1.29128 19.9971 1.84638C20.1761 2.38358 19.8717 2.97449 19.3166 3.13565C18.9943 3.24308 18.6899 3.33262 18.3855 3.45797C18.2602 3.49378 18.1527 3.51168 18.0274 3.51168ZM31.2603 2.50892C31.1886 2.50892 31.1349 2.50892 31.0633 2.49101C30.741 2.41938 30.4187 2.36567 30.0963 2.32985C29.5412 2.24032 29.1473 1.72103 29.2368 1.14802C29.3264 0.592922 29.8457 0.198982 30.4187 0.288514C30.7768 0.342234 31.1349 0.395953 31.4751 0.467579C32.0302 0.575018 32.4063 1.11221 32.2988 1.68522C32.1735 2.15079 31.7437 2.50892 31.2603 2.50892ZM24.0619 2.15079C23.5426 2.15079 23.0949 1.75685 23.0412 1.21965C22.9875 0.646646 23.3993 0.145261 23.9723 0.0915416C24.3305 0.0557286 24.6886 0.0378221 25.0467 0.00200914C25.6018 -0.0338038 26.1032 0.413857 26.139 0.968959C26.1748 1.54197 25.7272 2.02544 25.1721 2.06126C24.8497 2.07916 24.5095 2.09707 24.1872 2.13288C24.1156 2.15079 24.0977 2.15079 24.0619 2.15079Z" fill="black"/>
<path d="M1.76829 26.8259L3.05756 24.14L0.085083 24.3906L1.76829 26.8259Z" fill="#0B7C18"/>
<path d="M71.9376 33.5309V43.1467C71.9376 44.0957 71.4542 44.5613 70.4872 44.5613L65.6525 44.5434C62.7695 44.5434 61.3191 43.0572 61.3191 40.1205V33.4951C61.3191 32.5281 61.8026 32.0447 62.7695 32.0447C63.7365 32.0447 64.202 32.5461 64.202 33.513V40.1742C64.202 41.1591 64.7034 41.6605 65.6704 41.6605H69.0368V33.513C69.0368 32.5461 69.5382 32.0447 70.5051 32.0447C71.4542 32.0626 71.9376 32.5461 71.9376 33.5309Z" fill="black"/>
<path d="M86.3524 32.0984C89.2353 32.0984 90.6858 33.5846 90.6858 36.5213V43.1467C90.6858 44.1137 90.2023 44.5971 89.2353 44.5971C88.2684 44.5971 87.8028 44.0957 87.8028 43.1288V36.4676C87.8028 35.4827 87.3014 34.9813 86.3345 34.9813H83.935L83.9529 43.1467C83.9529 44.1137 83.4694 44.5971 82.5025 44.5971C81.5355 44.5971 81.0521 44.0957 81.0521 43.1288V36.4676C81.0521 35.4827 80.5686 34.9813 79.5837 34.9813H77.2022V43.1109C77.2022 44.0778 76.7008 44.5613 75.7338 44.5613C74.7848 44.5613 74.3192 44.0778 74.3192 43.1109V33.5309C74.3192 32.5819 74.8206 32.0984 75.7875 32.0805L86.3524 32.0984Z" fill="black"/>
<path d="M101.268 37.3808C100.301 37.3808 99.8001 36.8794 99.8001 35.9125V34.9813H97.4185C96.4516 34.9813 95.9502 35.4827 95.9502 36.4676V43.1288C95.9502 44.0957 95.4667 44.5971 94.4997 44.5971C93.5328 44.5971 93.0493 44.1137 93.0493 43.1467V36.5213C93.0493 33.5846 94.4997 32.0984 97.3827 32.0984L101.233 32.1163C102.2 32.1163 102.665 32.5819 102.665 33.5309V35.9304C102.701 36.8973 102.217 37.3808 101.268 37.3808Z" fill="black"/>
<path d="M114.251 44.5971C113.266 44.5971 112.764 44.0957 112.764 43.1288V40.7293L108.001 40.7114L107.983 43.1109C107.983 44.0778 107.5 44.5792 106.551 44.5792C105.584 44.5792 105.1 44.0957 105.1 43.1288V36.5034C105.1 33.5667 106.551 32.0805 109.434 32.0805L114.215 32.0984C115.182 32.0984 115.647 32.564 115.647 33.513V43.1109C115.665 44.0957 115.182 44.5971 114.251 44.5971ZM112.782 37.8464V34.9813H109.47C108.503 34.9813 108.001 35.4827 108.001 36.4676V37.8464H112.782Z" fill="black"/>
<path d="M124.869 43.1646C124.869 44.1136 124.386 44.5792 123.419 44.5792H122.434C119.551 44.5792 118.101 43.093 118.101 40.1563V30.648C118.101 29.681 118.584 29.2154 119.551 29.2154C120.518 29.1975 121.001 29.681 121.001 30.648V32.0805L123.347 32.0984C124.35 32.0805 124.869 32.564 124.869 33.5309C124.869 34.462 124.386 34.9455 123.401 34.9634H121.001V40.2458C121.001 41.2128 121.503 41.7142 122.47 41.7142L123.455 41.7321C124.404 41.7142 124.869 42.1976 124.869 43.1646Z" fill="black"/>
<path d="M130.134 44.5613C129.167 44.5613 128.683 44.0599 128.683 43.093V34.9634C127.716 34.9634 127.233 34.4979 127.233 33.5667C127.233 32.5998 127.716 32.0805 128.683 32.0805L130.116 32.0626C131.083 32.0805 131.566 32.564 131.566 33.513V43.093C131.566 44.0778 131.083 44.5613 130.134 44.5613ZM131.477 29.6631C131.495 30.3973 130.796 31.1135 130.044 31.0777C129.292 31.1135 128.594 30.3973 128.612 29.6631C128.576 28.8931 129.31 28.1769 130.044 28.2306C130.778 28.1948 131.513 28.8931 131.477 29.6631Z" fill="black"/>
<path d="M86.8717 21.3903C87.3552 21.3903 87.6059 21.9096 87.6059 22.9303C87.588 23.933 87.3373 24.4523 86.8359 24.4523H82.1086C81.0879 24.4523 80.5866 23.933 80.5866 22.8945V15.8214C80.5866 14.7828 80.0673 14.2635 79.0466 14.2635H78.0796V22.8587C78.0796 23.8972 77.5783 24.4165 76.5576 24.4165L76.3606 24.3986V24.4344H65.9928C62.9128 24.4344 61.3729 22.9124 61.3729 19.8504V19.2953C61.355 18.2388 61.8564 17.7016 62.8949 17.7016C63.8977 17.7195 64.3991 18.2388 64.417 19.2594V19.9041C64.417 20.9068 64.9542 21.3903 66.0286 21.3903H75.0714V12.7236C75.0714 11.7208 75.5727 11.2015 76.5934 11.2015L79.1003 11.1836C82.1623 11.1836 83.6844 12.7415 83.6844 15.8751V21.3545H86.8717V21.3903ZM62.107 12.7236C61.8564 12.5803 61.6773 12.3834 61.552 12.1506C61.4266 11.8999 61.355 11.6671 61.355 11.3985C61.355 11.1478 61.4266 10.915 61.552 10.6643C61.6773 10.4315 61.8564 10.2346 62.107 10.0913C62.3577 9.96598 62.6084 9.89435 62.877 9.89435C63.1456 9.89435 63.3784 9.96598 63.6291 10.0913C63.8619 10.2167 64.041 10.4136 64.1663 10.6643C64.3095 10.8971 64.3812 11.1478 64.3812 11.3985C64.3812 11.6671 64.3095 11.9178 64.1663 12.1506C64.041 12.3834 63.8619 12.5803 63.6291 12.7236C63.3784 12.8489 63.1456 12.9205 62.877 12.9205C62.6084 12.9205 62.3577 12.8489 62.107 12.7236ZM62.107 16.5735C61.8564 16.4302 61.6773 16.2332 61.552 16.0005C61.4266 15.7498 61.355 15.517 61.355 15.2484C61.355 14.9977 61.4266 14.7649 61.552 14.5142C61.6773 14.2635 61.8564 14.0666 62.107 13.9412C62.3577 13.798 62.6084 13.7263 62.877 13.7263C63.1456 13.7263 63.3784 13.798 63.6291 13.9412C63.8619 14.0666 64.041 14.2456 64.1663 14.4784C64.3095 14.7291 64.3812 14.9798 64.3812 15.2484C64.3812 15.4991 64.3095 15.7498 64.1663 16.0005C64.041 16.2332 63.8619 16.4302 63.6291 16.5735C63.3784 16.6988 63.1456 16.7704 62.877 16.7704C62.6084 16.7704 62.3577 16.6988 62.107 16.5735Z" fill="black"/>
<path d="M90.1306 11.2911C91.1334 11.2911 91.6527 11.7924 91.6527 12.8131V22.984C91.6527 24.0047 91.1513 24.524 90.1306 24.524H85.278C84.7766 24.524 84.5259 24.0226 84.5259 23.0019C84.508 21.9812 84.7587 21.4619 85.2601 21.4619H88.5907V12.7952C88.6086 11.8103 89.11 11.2911 90.1306 11.2911ZM88.8056 7.42325C89.0384 7.5486 89.2353 7.74557 89.3786 7.99626C89.5039 8.24695 89.5756 8.47974 89.5756 8.74833C89.5756 8.99902 89.5039 9.26762 89.3786 9.51831C89.2532 9.75109 89.0563 9.93016 88.8056 10.0734C88.5728 10.1988 88.3221 10.2704 88.0714 10.2704C87.8028 10.2704 87.5521 10.1988 87.3193 10.0734C87.0865 9.93016 86.8896 9.75109 86.7463 9.51831C86.621 9.26762 86.5494 9.01693 86.5494 8.74833C86.5494 8.49764 86.621 8.24695 86.7463 7.99626C86.8896 7.74557 87.0865 7.5486 87.3193 7.42325C87.57 7.29791 87.8028 7.22628 88.0714 7.22628C88.3221 7.22628 88.5728 7.28 88.8056 7.42325ZM93.2285 7.97835C93.3538 8.22904 93.4254 8.46183 93.4254 8.73043C93.4254 8.98112 93.3538 9.24971 93.2285 9.5004C93.1031 9.73319 92.9062 9.91225 92.6555 10.0555C92.4227 10.1809 92.172 10.2525 91.9213 10.2525C91.6527 10.2525 91.402 10.1809 91.1692 10.0555C90.9364 9.91225 90.7395 9.73319 90.5962 9.5004C90.4709 9.24971 90.3992 8.99902 90.3992 8.73043C90.3992 8.47973 90.4709 8.22904 90.5962 7.97835C90.7395 7.72766 90.9364 7.53069 91.1692 7.40535C91.4199 7.28 91.6527 7.20837 91.9213 7.20837C92.172 7.20837 92.4048 7.28 92.6555 7.40535C92.8883 7.5486 93.0852 7.74557 93.2285 7.97835Z" fill="black"/>
<path d="M100.821 21.4619C101.322 21.4619 101.591 21.9633 101.591 22.984C101.591 23.9868 101.34 24.506 100.857 24.506H97.8304C97.6513 27.2457 96.1293 28.6245 93.2821 28.6245L92.1182 28.6066C91.0975 28.6066 90.5782 28.1232 90.5782 27.1204L90.5962 27.1025H90.5782C90.5782 26.0997 91.0975 25.5804 92.1182 25.5804H93.2642C94.3028 25.5804 94.8221 25.0612 94.8221 24.0226V12.8489C94.8221 11.8103 95.3414 11.2911 96.362 11.2911C97.3648 11.2911 97.8841 11.8103 97.8841 12.831V21.444C98.9943 21.4261 99.9613 21.444 100.821 21.4619Z" fill="black"/>
<path d="M118.244 21.444C118.745 21.444 119.014 21.9454 119.014 22.9661C119.032 23.9867 118.781 24.506 118.28 24.506H112.854C111.798 24.506 111.296 24.1479 111.332 23.4137L111.35 15.8393C111.35 14.8365 110.848 14.3172 109.828 14.3172H107.769C106.748 14.3172 106.229 14.8007 106.229 15.7856V19.8324C106.229 20.8889 106.748 21.4082 107.769 21.4082L109.022 21.4261C110.043 21.4261 110.562 21.9275 110.562 22.9303C110.562 23.9688 110.061 24.4881 109.04 24.4881H99.8718C99.3704 24.4881 99.1197 23.9688 99.1376 22.9482C99.1376 21.9454 99.3883 21.4261 99.8897 21.4261H103.328C103.202 20.9426 103.149 20.3875 103.149 19.7787V15.8214C103.149 12.7594 104.689 11.2373 107.751 11.2373H109.774C112.836 11.2373 114.358 12.7594 114.358 15.8393V21.444H118.244Z" fill="black"/>
<path d="M130.599 21.4261C131.602 21.4261 132.103 21.9454 132.103 22.9661C132.103 23.9688 131.584 24.4881 130.564 24.4881H117.456C116.435 24.4881 115.916 23.9868 115.916 22.9661C115.916 21.9454 116.417 21.4261 117.42 21.4261H120.249C120.124 20.9427 120.07 20.3875 120.07 19.7966V15.8393C120.07 12.7773 121.61 11.2373 124.672 11.2373H127.77C129.077 11.2373 130.223 11.6134 131.244 12.3654C132.121 12.9026 132.318 13.6189 131.817 14.4963C131.548 14.9261 131.226 15.1768 130.904 15.2663C130.546 15.3558 130.134 15.2663 129.704 14.9977C128.88 14.5321 128.271 14.2993 127.824 14.2993H124.672C123.634 14.2993 123.114 14.7828 123.114 15.7856V19.8504C123.114 20.8889 123.634 21.4082 124.672 21.4082L130.599 21.4261Z" fill="black"/>
<path d="M64.7034 11.3806C64.7034 12.3654 63.8976 13.1712 62.9127 13.1712C61.9279 13.1712 61.1221 12.3654 61.1221 11.3806C61.1221 10.3957 61.9279 9.58994 62.9127 9.58994C63.9155 9.58994 64.7034 10.3957 64.7034 11.3806Z" fill="#0B7C18"/>
<path d="M89.8441 8.78414C89.8441 9.769 89.0383 10.5748 88.0535 10.5748C87.0686 10.5748 86.2628 9.769 86.2628 8.78414C86.2628 7.79928 87.0686 6.99349 88.0535 6.99349C89.0562 6.99349 89.8441 7.79928 89.8441 8.78414Z" fill="#0B7C18"/>
<path d="M93.9806 8.78414C93.9806 9.769 93.1748 10.5748 92.1899 10.5748C91.2051 10.5748 90.3993 9.769 90.3993 8.78414C90.3993 7.79928 91.2051 6.99349 92.1899 6.99349C93.1748 6.99349 93.9806 7.79928 93.9806 8.78414Z" fill="#0B7C18"/>
<path d="M131.924 29.3945C131.924 30.4331 131.083 31.2747 130.044 31.2747C129.006 31.2747 128.164 30.4331 128.164 29.3945C128.164 28.3559 129.006 27.5143 130.044 27.5143C131.083 27.5143 131.924 28.3559 131.924 29.3945Z" fill="#0B7C18"/>
<path d="M64.7034 15.4454C64.7034 16.4302 63.8976 17.236 62.9127 17.236C61.9279 17.236 61.1221 16.4302 61.1221 15.4454C61.1221 14.4605 61.9279 13.6547 62.9127 13.6547C63.9155 13.6547 64.7034 14.4605 64.7034 15.4454Z" fill="#0B7C18"/>
</svg>
