<svg width="24" height="25" viewBox="0 0 24 25" fill="none" xmlns="http://www.w3.org/2000/svg">
<g clip-path="url(#clip0_1_6460)">
<path d="M4.00037 5.34229C4.00037 5.07707 4.10572 4.82271 4.29326 4.63518C4.4808 4.44764 4.73515 4.34229 5.00037 4.34229H9.00037C9.26558 4.34229 9.51994 4.44764 9.70747 4.63518C9.89501 4.82271 10.0004 5.07707 10.0004 5.34229V9.34229C10.0004 9.6075 9.89501 9.86186 9.70747 10.0494C9.51994 10.2369 9.26558 10.3423 9.00037 10.3423H5.00037C4.73515 10.3423 4.4808 10.2369 4.29326 10.0494C4.10572 9.86186 4.00037 9.6075 4.00037 9.34229V5.34229Z" stroke="white" stroke-width="2" stroke-linecap="round" stroke-linejoin="round"/>
<path d="M4.00037 15.3423C4.00037 15.0771 4.10572 14.8227 4.29326 14.6352C4.4808 14.4476 4.73515 14.3423 5.00037 14.3423H9.00037C9.26558 14.3423 9.51994 14.4476 9.70747 14.6352C9.89501 14.8227 10.0004 15.0771 10.0004 15.3423V19.3423C10.0004 19.6075 9.89501 19.8619 9.70747 20.0494C9.51994 20.2369 9.26558 20.3423 9.00037 20.3423H5.00037C4.73515 20.3423 4.4808 20.2369 4.29326 20.0494C4.10572 19.8619 4.00037 19.6075 4.00037 19.3423V15.3423Z" stroke="white" stroke-width="2" stroke-linecap="round" stroke-linejoin="round"/>
<path d="M14.0004 15.3423C14.0004 15.0771 14.1057 14.8227 14.2933 14.6352C14.4808 14.4476 14.7351 14.3423 15.0004 14.3423H19.0004C19.2656 14.3423 19.5199 14.4476 19.7075 14.6352C19.895 14.8227 20.0004 15.0771 20.0004 15.3423V19.3423C20.0004 19.6075 19.895 19.8619 19.7075 20.0494C19.5199 20.2369 19.2656 20.3423 19.0004 20.3423H15.0004C14.7351 20.3423 14.4808 20.2369 14.2933 20.0494C14.1057 19.8619 14.0004 19.6075 14.0004 19.3423V15.3423Z" stroke="white" stroke-width="2" stroke-linecap="round" stroke-linejoin="round"/>
<path d="M14.0004 7.34229H20.0004" stroke="white" stroke-width="2" stroke-linecap="round" stroke-linejoin="round"/>
<path d="M17.0004 4.34229V10.3423" stroke="white" stroke-width="2" stroke-linecap="round" stroke-linejoin="round"/>
</g>
<defs>
<clipPath id="clip0_1_6460">
<rect width="24" height="24" fill="white" transform="translate(0.000366211 0.342285)"/>
</clipPath>
</defs>
</svg>
