<svg width="45" height="22" viewBox="0 0 45 22" fill="none" xmlns="http://www.w3.org/2000/svg">
<path d="M45 22C42.7151 18.7802 40.5645 15.6007 38.2527 12.556C37.2043 11.1684 35.8199 10.0502 34.6371 8.75689C33.9382 8.00245 33.293 7.19412 32.7285 6.34538C31.371 4.28414 30.0806 2.18249 28.6962 0C28.3602 0.484997 28.0376 0.875689 27.8091 1.32027C26.6801 3.40845 25.578 5.5101 24.4892 7.62523C24.2742 8.04287 24.0323 8.25842 23.5618 8.17759C22.8898 8.05634 22.3925 8.33925 21.9086 8.81078C20.7796 9.91549 19.5833 10.9663 18.3737 12.071C16.9086 10.4544 15.4839 8.87814 14.0054 7.23454C13.2392 8.23148 12.5 9.17453 11.7607 10.131C10.7124 11.4783 9.66398 12.812 8.64247 14.1862C8.37365 14.5499 8.06451 14.7385 7.63441 14.6577C6.93548 14.5364 6.49194 14.8463 6.03495 15.3582C4.23387 17.3925 2.37903 19.3729 0.551071 21.3803C0.389782 21.5554 0.228493 21.744 0.0134354 22.0135C15.0134 22 29.9462 22 45 22ZM42.3118 20.5315C40.8602 20.5315 39.5833 20.5046 38.3199 20.545C37.7823 20.5585 37.5403 20.3833 37.3253 19.8983C36.5995 18.1874 35.8333 16.5034 35.0134 14.6846C34.7312 15.3987 34.4892 15.9914 34.2204 16.6785C32.5 14.5903 30.8468 12.583 29.1801 10.5756C29.1398 10.5891 29.086 10.616 29.0457 10.6295C29.2204 12.1653 29.3952 13.7146 29.5699 15.2505C29.543 15.2639 29.5027 15.2639 29.4758 15.2774C28.8575 13.0141 28.2392 10.7508 27.5806 8.32578C28.7231 8.86467 29.7177 9.32272 30.8199 9.84813C30.3898 7.50398 29.9731 5.28108 29.5565 3.0447C30.4973 4.63442 31.3038 6.26454 32.1371 7.86773C32.3253 8.23148 32.5806 8.6087 32.8898 8.87814C35.7392 11.3974 38.1989 14.2805 40.2419 17.5273C40.6989 18.2547 41.2097 18.9284 41.707 19.6289C41.8683 19.8849 42.043 20.1408 42.3118 20.5315ZM14.879 11.4917C14.7312 10.6565 14.5968 9.8616 14.4489 9.05328C15.5242 10.2792 16.4919 11.5591 17.4597 12.8524C17.5269 12.9467 17.5403 13.1623 17.4866 13.2701C17.043 14.1727 16.5726 15.0484 16.0618 16.0453C15.8199 15.5468 15.6317 15.1562 15.4167 14.6981C15.121 15.0484 14.8656 15.3582 14.5027 15.7759C14.2742 14.2805 14.0726 12.9198 13.871 11.5456C14.2473 11.5321 14.5296 11.5187 14.879 11.4917Z" fill="#1D4C4F"/>
<path d="M42.3118 20.5316C42.043 20.1409 41.8817 19.8849 41.707 19.6289C41.2231 18.9284 40.6989 18.2548 40.2419 17.5273C38.1989 14.2805 35.7392 11.3974 32.8763 8.86469C32.5672 8.59524 32.3253 8.21802 32.1237 7.85427C31.2903 6.25109 30.4839 4.62096 29.543 3.03125C29.9597 5.26762 30.3763 7.504 30.8065 9.83468C29.7043 9.32274 28.6962 8.85121 27.5672 8.31233C28.2258 10.7238 28.8441 13.0006 29.4624 15.264C29.4892 15.2505 29.5296 15.2505 29.5565 15.237C29.3817 13.7012 29.207 12.1519 29.0323 10.6161C29.0726 10.6026 29.1263 10.5756 29.1667 10.5622C30.8199 12.5695 32.4866 14.5903 34.207 16.6651C34.4892 15.978 34.7177 15.3852 35 14.6712C35.8199 16.5034 36.5995 18.1874 37.3118 19.8849C37.5134 20.3834 37.7688 20.545 38.3065 20.5316C39.5833 20.5046 40.8602 20.5316 42.3118 20.5316Z" fill="white"/>
<path d="M14.879 11.4917C14.5296 11.5052 14.2473 11.5321 13.871 11.5456C14.0726 12.9332 14.2876 14.2804 14.5027 15.7758C14.8656 15.3582 15.121 15.0349 15.4167 14.698C15.6317 15.1561 15.8199 15.5468 16.0618 16.0453C16.5726 15.0483 17.043 14.1592 17.4866 13.27C17.5403 13.1622 17.5269 12.9467 17.4597 12.8524C16.5054 11.559 15.5242 10.2792 14.4489 9.05322C14.5833 9.86155 14.7312 10.6564 14.879 11.4917Z" fill="white"/>
</svg>
