<svg width="15" height="17" viewBox="0 0 15 17" fill="none" xmlns="http://www.w3.org/2000/svg">
<path d="M4.64755 0.512695H2.64755C2.11712 0.512695 1.60841 0.723409 1.23334 1.09848C0.858266 1.47355 0.647552 1.98226 0.647552 2.5127V14.5127C0.647552 15.0431 0.858266 15.5518 1.23334 15.9269C1.60841 16.302 2.11712 16.5127 2.64755 16.5127H4.64755C5.17799 16.5127 5.68669 16.302 6.06177 15.9269C6.43684 15.5518 6.64755 15.0431 6.64755 14.5127V2.5127C6.64755 1.98226 6.43684 1.47355 6.06177 1.09848C5.68669 0.723409 5.17799 0.512695 4.64755 0.512695Z" fill="white"/>
<path d="M12.6476 0.512695H10.6476C10.1171 0.512695 9.60841 0.723409 9.23334 1.09848C8.85827 1.47355 8.64755 1.98226 8.64755 2.5127V14.5127C8.64755 15.0431 8.85827 15.5518 9.23334 15.9269C9.60841 16.302 10.1171 16.5127 10.6476 16.5127H12.6476C13.178 16.5127 13.6867 16.302 14.0618 15.9269C14.4368 15.5518 14.6476 15.0431 14.6476 14.5127V2.5127C14.6476 1.98226 14.4368 1.47355 14.0618 1.09848C13.6867 0.723409 13.178 0.512695 12.6476 0.512695Z" fill="white"/>
</svg>
