<svg width="12" height="16" viewBox="0 0 12 16" fill="none" xmlns="http://www.w3.org/2000/svg">
<path d="M3.23523 4.85547C3.50695 4.81982 3.82164 4.88592 4.18738 5.05078L4.34753 5.12793H4.34851C5.45605 5.68131 5.94881 6.56851 6.28992 7.54395L6.42859 7.9668C6.44338 8.04076 6.46067 8.11459 6.47839 8.18652C6.49682 8.26129 6.51485 8.33458 6.52917 8.40723C6.55778 8.55234 6.57058 8.69098 6.54382 8.82715L6.54285 8.83398C6.51214 9.14545 6.57372 9.42145 6.71375 9.6582C6.81848 9.83517 6.96637 9.9879 7.14832 10.1182L7.3407 10.2412C8.17737 10.7252 9.01483 11.2093 9.85242 11.6729L10.6903 12.1289H10.6913C10.8083 12.1908 10.9042 12.2456 10.9803 12.2988C11.0564 12.3521 11.1097 12.4023 11.1434 12.4541C11.2061 12.5508 11.2134 12.6727 11.1298 12.8857C11.0099 13.1153 10.9597 13.3301 11.0087 13.5371C11.0456 13.6933 11.1375 13.8369 11.2831 13.9746L11.4462 14.1104C11.7005 14.3017 11.7949 14.5023 11.7645 14.6768C11.7337 14.8538 11.5694 15.0392 11.2255 15.1846C10.9233 15.3123 10.5774 15.4023 10.2274 15.4229L10.077 15.4268L10.0712 15.4277C8.78204 15.5268 7.37482 15.5264 6.02332 15.5264H1.79382C1.66145 15.5263 1.52491 15.4813 1.37976 15.4199C1.26003 15.3693 1.12849 15.308 0.999878 15.2588C1.01932 15.211 1.04108 15.1622 1.05847 15.1123C1.0845 15.0376 1.10913 14.9637 1.13757 14.8945C1.19597 14.7526 1.26056 14.6523 1.35046 14.6143V14.6152L1.35339 14.6133C1.89629 14.3582 2.14959 14.033 2.22839 13.6533C2.30546 13.282 2.21243 12.8703 2.09558 12.4502C1.70891 10.8158 1.27687 9.20164 1.55945 7.58984L1.62585 7.26758V7.26367C1.72683 6.70898 1.96142 6.15252 2.29089 5.62695L2.43738 5.40332H2.43835C2.66492 5.06813 2.92826 4.89584 3.23523 4.85547ZM3.22937 5.16699C2.94384 5.21527 2.70905 5.42115 2.4989 5.77637C2.14295 6.37821 1.90384 7.03309 1.84363 7.64062C1.63635 9.3491 2.01908 10.9798 2.47156 12.623L2.66785 13.3291L2.67078 13.335C2.70821 13.4299 2.81123 13.5267 2.92566 13.5977C3.04208 13.6698 3.18665 13.7265 3.32117 13.7266V13.7256C4.14309 13.8242 4.96925 13.8249 5.84167 13.874V13.875C6.13698 13.9 6.43206 13.9124 6.72546 13.9248C6.8726 13.931 7.01941 13.9376 7.16589 13.9453L7.60339 13.9746H7.60925C7.67674 13.9746 7.73672 14.0026 7.80652 14.0498C7.84198 14.0738 7.87659 14.0997 7.91687 14.1289C7.91955 14.1308 7.92294 14.1318 7.92566 14.1338C7.87901 14.1518 7.83361 14.1725 7.78894 14.1914C7.7021 14.2281 7.61933 14.2617 7.53796 14.2852H7.31824C6.13585 14.2417 5.00049 14.1977 3.83191 14.0879L3.32898 14.0371C2.87195 13.9856 2.5476 14.0888 2.26355 14.2705C2.12315 14.3603 1.99324 14.4695 1.86316 14.585C1.73183 14.7015 1.60198 14.8228 1.45593 14.9463L1.35828 15.0293L1.4823 15.0645C1.84231 15.1659 2.02516 15.166 2.20496 15.166H10.1356C10.2681 15.166 10.3719 15.1666 10.494 15.1445L10.6239 15.1143L10.6317 15.1113C10.7453 15.0633 10.8831 15.0114 10.996 14.9541C11.0531 14.9251 11.1076 14.8934 11.1522 14.8574C11.1965 14.8217 11.236 14.7781 11.2567 14.7256C11.278 14.6714 11.2756 14.6126 11.2626 14.5576C11.2495 14.5024 11.2248 14.446 11.1932 14.3926C11.1616 14.3392 11.1218 14.2867 11.079 14.2373L10.9432 14.1025L10.9442 14.1016L10.9344 14.0957L10.6141 13.9092C10.2853 13.7246 9.93127 13.5473 9.57703 13.3975H9.578C8.04992 12.6522 6.47528 11.9129 5.25085 10.8301C5.02016 10.5863 4.78861 10.2932 4.61414 10.0479C4.60375 10.0303 4.60338 9.99737 4.63171 9.9375C4.65081 9.89722 4.675 9.86017 4.6991 9.82227C4.79448 9.86357 4.88547 9.90569 4.97546 9.98047C5.05979 10.0759 5.12921 10.1816 5.21179 10.2959C5.27322 10.3809 5.34061 10.4683 5.42273 10.5508L5.50964 10.6309C6.48563 11.5303 7.65996 12.1764 8.87878 12.7568L10.1073 13.3232H10.1093C10.2966 13.4024 10.4646 13.4075 10.5907 13.3467C10.7195 13.2845 10.7908 13.16 10.7909 13.0127C10.7909 12.8876 10.7185 12.772 10.6337 12.6807C10.5904 12.6341 10.5417 12.5906 10.4921 12.5527L10.3456 12.4561C9.81593 12.1328 9.24044 11.8341 8.68542 11.5254C8.26737 11.2929 7.85936 11.0542 7.48523 10.7939L7.12292 10.5254L7.12195 10.5244L6.7821 10.2568C6.01271 9.61388 5.39508 8.84925 4.72156 8.14844L4.67273 8.19531L4.72156 8.14746L4.71667 8.14355L4.70007 8.12207C4.68704 8.09789 4.68448 8.06196 4.69519 8.00293C4.70225 7.96415 4.71254 7.92662 4.72253 7.88184C4.72477 7.87182 4.72438 7.86104 4.72644 7.85059C4.78773 7.88106 4.84601 7.91053 4.89148 7.93359C4.92862 7.95245 4.9575 7.96934 4.97937 7.98535L5.02527 8.03125L5.03113 8.04102L5.03992 8.04883C5.15188 8.14352 5.26589 8.27574 5.3905 8.43066C5.51357 8.58368 5.6475 8.76022 5.7948 8.93457L5.83972 8.98633L5.89148 8.94238C5.91194 8.92514 5.93221 8.91582 5.96179 8.90332C5.99074 8.89108 6.02919 8.87582 6.06726 8.84375L6.09656 8.81934L6.09167 8.78223C5.92559 7.56533 5.60074 6.41798 4.42468 5.61133L4.17859 5.45508C3.82272 5.22971 3.51141 5.11935 3.22937 5.16699Z" fill="#1D4C4F" stroke="#1D4C4F" stroke-width="0.136566"/>
<path d="M4.90784 0.765137C6.14858 0.76534 7.16834 1.61882 7.24475 2.62549L7.24768 2.82861V2.83252C7.24756 3.35318 6.9668 3.84378 6.51624 4.20654C6.06585 4.56909 5.44962 4.80029 4.78967 4.80029C3.47127 4.80018 2.45228 3.83319 2.44983 2.73682C2.50624 1.63987 3.52468 0.765137 4.90784 0.765137ZM4.08362 2.43799L3.37659 2.46631C3.13046 2.46706 2.96791 2.54617 2.89319 2.6958C2.83972 2.80315 2.83842 2.93394 2.86682 3.06787L2.90393 3.20166L2.90491 3.20459C3.20901 3.97584 3.94076 4.49118 4.85217 4.43994L4.8512 4.43896C5.27603 4.4384 5.69889 4.29811 6.0387 4.07471C6.33614 3.87913 6.57526 3.61729 6.69299 3.32471L6.73596 3.19775L6.73694 3.19092C6.76678 3.01415 6.7711 2.83226 6.69299 2.69287C6.61091 2.54648 6.45056 2.46696 6.20276 2.46631H6.20374C5.49717 2.42898 4.79019 2.41933 4.08362 2.43799ZM4.78577 1.12549C4.00579 1.12657 3.44825 1.43305 3.19983 2.01025L3.15881 2.10596H6.54456L6.49573 2.00732C6.20662 1.4209 5.64649 1.11352 4.9303 1.11963L4.78577 1.12549Z" fill="#1D4C4F" stroke="#1D4C4F" stroke-width="0.136566"/>
<path d="M3.30884 5.3208C3.54229 5.28697 3.81947 5.37663 4.16919 5.57373V5.57275C5.47668 6.34219 5.8307 7.53832 6.00806 8.75928C5.98782 8.77205 5.96361 8.78643 5.93774 8.79736C5.91255 8.80799 5.88933 8.811 5.87231 8.81494C5.73456 8.6519 5.59698 8.48872 5.45923 8.32568C5.31237 8.15187 5.16468 7.97801 5.01782 7.8042L4.96606 7.84814L5.0188 7.80322L5.01001 7.79639L4.90259 7.72217C4.86521 7.70054 4.82708 7.68077 4.79126 7.6626C4.75389 7.64364 4.71895 7.62552 4.68677 7.60693L4.59888 7.54736L4.48657 7.45264V7.6001C4.48653 7.62973 4.48001 7.66696 4.47095 7.71143C4.4624 7.75332 4.45117 7.80433 4.4436 7.84912C4.43607 7.8937 4.43034 7.9434 4.43774 7.98779C4.44479 8.02949 4.46572 8.07178 4.50903 8.09814C5.26804 8.93752 5.97791 9.7852 6.92212 10.4839V10.4849C7.42494 10.8599 7.97149 11.1849 8.52271 11.4956C8.93706 11.7291 9.35352 11.9542 9.75806 12.188L10.1584 12.4253L10.1604 12.4263C10.2404 12.4714 10.3376 12.5536 10.4143 12.6421C10.4523 12.686 10.4844 12.7299 10.5061 12.77C10.5284 12.8112 10.5373 12.8429 10.5374 12.8638C10.5374 13.0033 10.4954 13.0818 10.4338 13.1138C10.3847 13.1391 10.305 13.1451 10.1838 13.106L10.0471 13.0503H10.0461C8.40078 12.3051 6.76793 11.5646 5.4856 10.3833C5.40126 10.2879 5.33185 10.1821 5.24927 10.0679C5.16843 9.95605 5.07702 9.8406 4.95532 9.73682C4.91317 9.6762 4.84515 9.63444 4.78247 9.60498C4.74727 9.58845 4.71017 9.5743 4.67603 9.56104L4.5813 9.52295L4.52661 9.50049L4.49634 9.55127C4.4674 9.6002 4.42032 9.67846 4.38892 9.75146C4.37339 9.78756 4.35965 9.82744 4.35474 9.86377C4.351 9.89179 4.35185 9.93393 4.37817 9.96826L4.51294 10.1919C4.65095 10.4113 4.81071 10.6219 5.03735 10.7778V10.7788C5.96943 11.6417 7.10129 12.2508 8.25122 12.8149L9.40063 13.3726C9.63599 13.4968 9.87204 13.6084 10.0979 13.7192C10.3252 13.8308 10.5435 13.9415 10.7463 14.064L10.7815 14.0063L10.7463 14.0649L10.7483 14.0659C10.8221 14.1077 10.9026 14.1953 10.9573 14.2935C10.9841 14.3417 11.0027 14.3898 11.012 14.4321C11.0214 14.4752 11.0197 14.507 11.012 14.5269C11.0033 14.5488 10.9831 14.5741 10.9485 14.6021C10.9143 14.6296 10.8696 14.6572 10.8167 14.6841C10.7093 14.7385 10.5824 14.7861 10.4612 14.8374L10.429 14.8501L10.4211 14.8843C10.4083 14.9385 10.3906 14.971 10.3733 14.9907C10.3565 15.0098 10.3368 15.0206 10.3147 15.0269C10.2915 15.0333 10.2648 15.0344 10.2336 15.0337C10.2181 15.0333 10.2023 15.0326 10.1858 15.0317C10.1697 15.0309 10.1518 15.0298 10.135 15.0298H2.20532C2.05766 15.0298 1.91122 15.0283 1.65845 14.9985C1.76171 14.9074 1.86112 14.8195 1.95435 14.7368C2.08293 14.6227 2.20607 14.5199 2.33716 14.436C2.56402 14.2909 2.81678 14.1999 3.1604 14.2114L3.31372 14.2231H3.31665C3.65471 14.248 3.9891 14.2694 4.32153 14.2896L6.30786 14.4048L7.31079 14.4712H7.31567C7.32284 14.4712 7.33502 14.4731 7.35571 14.4771C7.37422 14.4806 7.39981 14.4863 7.42407 14.4897C7.46286 14.4952 7.52239 14.4977 7.57349 14.4673C7.66496 14.4411 7.75609 14.403 7.84204 14.3667C7.9308 14.3292 8.01476 14.2934 8.0979 14.27L8.2561 14.2261L8.11255 14.145C8.07201 14.1221 8.03409 14.0962 7.99634 14.0688C7.9597 14.0423 7.92086 14.0124 7.88306 13.9868C7.8072 13.9355 7.7209 13.8896 7.6145 13.8882H7.61548C7.02943 13.8386 6.43975 13.7887 5.84985 13.7886H5.85083C5.12588 13.7448 4.36672 13.7403 3.63892 13.6733L3.32935 13.6401H3.32153C3.22115 13.6401 3.10111 13.5961 2.99731 13.5317C2.89424 13.4678 2.82229 13.3931 2.79907 13.3394C2.41259 11.5668 1.9281 9.81141 2.01294 8.01611L2.03833 7.65576C2.09567 7.02563 2.38157 6.3905 2.67407 5.84619L2.67505 5.84717C2.8752 5.50876 3.08058 5.35394 3.30884 5.3208Z" stroke="#1D4C4F" stroke-width="0.136566"/>
<path d="M5.55164 2.62354L6.25476 2.65186H6.25867C6.44581 2.65191 6.55287 2.71854 6.61121 2.81201C6.67143 2.90875 6.68729 3.04815 6.66101 3.21045C6.4357 3.82105 5.70502 4.30322 4.84851 4.30322C3.99291 4.30318 3.26103 3.82259 3.03503 3.16357C3.00729 3.02091 3.01158 2.89338 3.06433 2.8042C3.1015 2.74155 3.1695 2.68688 3.29382 2.66357L3.43835 2.65186H3.44226C4.14533 2.61471 4.84857 2.60496 5.55164 2.62354Z" stroke="#1D4C4F" stroke-width="0.136566"/>
<path d="M4.79395 1.26123C5.49166 1.21586 6.02785 1.46796 6.32129 1.96924H3.37109C3.61108 1.51491 4.0924 1.26123 4.79004 1.26123V1.26221L4.79395 1.26123Z" stroke="#1D4C4F" stroke-width="0.136566"/>
</svg>
