<svg width="15" height="15" viewBox="0 0 15 15" fill="none" xmlns="http://www.w3.org/2000/svg">
<circle cx="7.45787" cy="7.98021" r="2.27611" stroke="#1D4C4F" stroke-width="0.910443"/>
<path d="M6.67693 1.88627C7.03045 1.29632 7.88534 1.29632 8.23886 1.88627L8.92248 3.0271C9.12865 3.37116 9.53569 3.53976 9.92475 3.44226L11.2148 3.11897C11.882 2.95178 12.4865 3.55628 12.3193 4.22341L11.996 5.5135C11.8985 5.90256 12.0671 6.3096 12.4111 6.51577L13.552 7.19939C14.1419 7.55291 14.1419 8.4078 13.552 8.76132L12.4111 9.44494C12.0671 9.65111 11.8985 10.0581 11.996 10.4472L12.3193 11.7373C12.4865 12.4044 11.882 13.0089 11.2148 12.8417L9.92475 12.5185C9.53569 12.421 9.12865 12.5896 8.92248 12.9336L8.23886 14.0744C7.88534 14.6644 7.03045 14.6644 6.67693 14.0744L5.99331 12.9336C5.78714 12.5896 5.3801 12.421 4.99103 12.5185L3.70095 12.8417C3.03382 13.0089 2.42932 12.4044 2.5965 11.7373L2.9198 10.4472C3.0173 10.0581 2.8487 9.65111 2.50464 9.44494L1.36381 8.76132C0.773862 8.4078 0.773862 7.55291 1.36381 7.19939L2.50464 6.51577C2.8487 6.3096 3.0173 5.90256 2.9198 5.5135L2.5965 4.22341C2.42932 3.55628 3.03382 2.95178 3.70095 3.11897L4.99103 3.44226C5.3801 3.53976 5.78714 3.37116 5.99331 3.0271L6.67693 1.88627Z" stroke="#1D4C4F" stroke-width="0.910443"/>
</svg>
