<svg width="19" height="15" viewBox="0 0 19 15" fill="none" xmlns="http://www.w3.org/2000/svg">
<mask id="path-1-outside-1_1_6490" maskUnits="userSpaceOnUse" x="-0.75769" y="-0.848145" width="20" height="16" fill="black">
<rect fill="white" x="-0.75769" y="-0.848145" width="20" height="16"/>
<path d="M15.9462 9.30795C15.2086 9.18502 14.594 9.55381 14.1023 9.98406C14.594 9.49235 15.0857 9.12356 15.7618 9.12356C15.7618 8.69331 15.7004 8.26306 15.7004 7.89427C15.6389 6.9723 15.7004 5.98887 15.8847 5.06691C15.8847 5.00544 15.8847 4.94398 15.8233 4.88251C15.1472 3.71469 14.4711 2.60833 13.672 1.56343C13.4876 1.31757 13.3032 1.13318 13.1188 0.948788C12.9959 0.825859 12.8115 0.70293 12.6271 0.70293C12.3813 0.70293 12.2583 0.825859 12.2583 1.01025C12.2583 1.56343 12.3813 2.11661 12.6271 2.66979C12.9959 3.65322 13.6106 4.57519 14.1637 5.43569C14.2252 5.55862 14.2867 5.62009 14.2867 5.74301C14.0408 5.37423 13.795 5.06691 13.4876 4.69812C13.0574 4.02201 12.5657 3.3459 12.1969 2.60833C12.0125 2.17808 11.8896 1.74783 11.8281 1.25611C11.8281 1.19465 11.7666 1.13318 11.7052 1.07172C11.5208 0.948788 11.3364 0.948788 11.152 1.01025C10.9676 1.07172 10.8447 1.25611 10.9061 1.4405C10.9676 1.74783 11.0291 2.05515 11.152 2.36247C11.5208 3.53029 12.0125 4.63665 12.5042 5.74301V5.80448C12.5042 5.80448 12.5042 5.80448 12.4427 5.80448C12.074 5.18983 11.7052 4.57519 11.3978 3.89908C11.152 3.22297 10.9061 2.54686 10.5988 1.93222C10.3529 1.99368 10.1686 2.30101 10.1686 2.66979C10.23 2.97711 10.2915 3.3459 10.3529 3.65322C10.5988 4.51373 10.9061 5.37423 11.2749 6.17327C11.2749 6.23473 11.2749 6.23473 11.3364 6.29619C10.8447 5.43569 10.3529 4.51373 9.98416 3.59176C9.79977 3.71469 9.7383 3.96055 9.7383 4.14494C9.61537 4.57519 9.67684 4.94398 9.79977 5.31276C10.0456 6.29619 10.4759 7.1567 10.9061 8.0172C11.152 8.50891 11.152 8.93917 10.9061 9.36942C10.7217 9.7382 10.5373 10.0455 10.4144 10.4143C10.23 10.9675 10.2915 11.5207 10.4759 12.0124C10.6603 12.75 10.9676 13.4261 11.3364 14.0407C11.3364 14.1022 11.3978 14.1022 11.3978 14.1636C11.3978 14.1636 11.3978 14.1636 11.3978 14.2251C11.2749 14.2866 11.0905 14.4095 10.9676 14.5324C10.7832 14.1636 10.5373 13.7334 10.3529 13.3646C10.0456 12.6885 9.86123 12.0124 9.79977 11.3363C9.7383 10.7216 9.9227 10.1685 10.1686 9.61527C10.2915 9.43088 10.3529 9.18502 10.4759 9.00063C10.5988 8.81624 10.5373 8.57038 10.4144 8.38599C10.23 8.0172 9.98416 7.58695 9.79977 7.21816C9.61537 6.78791 9.49245 6.41912 9.30805 5.98887C9.30805 5.92741 9.24659 5.92741 9.24659 5.80448C9.18512 5.98887 9.12366 6.17327 9.06219 6.35766C8.75487 6.9723 8.50902 7.58695 8.20169 8.20159C8.0173 8.57038 8.0173 8.8777 8.20169 9.18502C8.32462 9.43088 8.50902 9.7382 8.57048 9.98406C8.81634 10.5372 8.81634 11.0904 8.69341 11.7051C8.50902 12.6885 8.14023 13.6105 7.58705 14.471C7.58705 14.471 7.58705 14.471 7.58705 14.5324C7.46412 14.4095 7.27973 14.348 7.1568 14.2251C7.34119 13.9178 7.46412 13.6719 7.58705 13.3646C7.89437 12.6885 8.14023 12.0124 8.20169 11.2748C8.26316 10.7216 8.07876 10.2914 7.83291 9.79967C7.77144 9.61527 7.64851 9.49235 7.58705 9.30795C7.40266 8.8777 7.34119 8.44745 7.58705 8.07866C7.95584 7.40255 8.32462 6.72645 8.57048 5.98887C8.69341 5.55862 8.81634 5.12837 8.8778 4.69812C8.8778 4.32933 8.81634 3.96055 8.57048 3.59176C8.20169 4.57519 7.70998 5.43569 7.21826 6.29619C7.34119 5.98887 7.52558 5.62009 7.64851 5.31276C7.95583 4.57519 8.20169 3.77615 8.38609 2.97711C8.57048 2.60833 8.57048 2.30101 8.26316 1.99368C8.20169 1.93222 8.14023 1.93222 8.07876 1.87075C7.64851 3.28444 6.9724 4.51373 6.17337 5.74301C6.2963 5.43569 6.48069 5.18983 6.60362 4.88251C7.09533 3.83762 7.52558 2.79272 7.77144 1.6249C7.77144 1.56343 7.77144 1.50197 7.77144 1.50197C7.83291 1.25611 7.77144 1.07172 7.58705 1.01025C7.40266 0.948788 7.03387 1.01025 6.91094 1.13318C6.91094 1.13318 6.84947 1.19465 6.84947 1.25611C6.78801 1.99368 6.48069 2.66979 6.1119 3.3459C5.62019 4.2064 5.00554 5.00544 4.3909 5.80448C4.3909 5.80448 4.3909 5.86594 4.32943 5.86594C4.51383 5.55862 4.75968 5.18983 4.94408 4.88251C5.43579 4.08347 5.86604 3.28444 6.1119 2.42393C6.23483 1.99368 6.2963 1.6249 6.35776 1.31757C6.35776 1.25611 6.35776 1.13318 6.35776 1.07172C6.35776 0.764394 6.17337 0.641466 5.86604 0.764394C5.68165 0.825859 5.49726 1.01025 5.31286 1.19465C4.75968 1.93222 4.26797 2.73126 3.71479 3.46883C3.46893 3.89908 3.16161 4.3908 2.91575 4.82105C2.85429 4.88251 2.85429 5.00544 2.85429 5.06691C3.03868 6.29619 3.10014 7.52548 2.97722 8.81624V8.8777C2.97722 8.93917 2.97722 9.00063 2.97722 9.12356C3.71479 9.12356 4.2065 9.55381 4.69822 9.98406C4.14504 9.55381 3.59186 9.18502 2.85429 9.30795C2.85429 9.24649 2.85429 9.18502 2.85429 9.12356C2.91575 7.70988 2.85429 6.23473 2.4855 4.88251C2.30111 4.63665 2.17818 4.3908 2.05525 4.2064C1.99379 4.14494 1.93232 4.08347 1.87086 4.02201C1.625 3.83762 1.44061 3.89908 1.37914 4.2064C1.31768 4.51373 1.31768 4.75958 1.31768 5.00544C1.25621 6.29619 1.07182 7.52548 0.887425 8.75477C0.825961 9.24649 0.764496 9.7382 0.703032 10.1685C0.641567 10.6602 0.764496 11.1519 1.01035 11.5821C1.50207 12.3812 1.99379 13.1802 2.4855 13.9793C2.4855 14.0407 2.54696 14.1022 2.60843 14.1636C2.4855 14.2866 2.30111 14.348 2.17818 14.471C1.99379 14.1636 1.80939 13.8563 1.625 13.6105C1.25621 12.9958 0.887425 12.4426 0.580103 11.828C0.211316 11.2134 0.211316 10.5372 0.272781 9.79967C0.457174 8.38599 0.641567 6.9723 0.825961 5.55862C0.764496 5.06691 0.764496 4.63665 0.825961 4.2064C0.887425 3.89908 1.01035 3.59176 1.31768 3.46883C1.625 3.3459 2.05525 3.40737 2.36257 3.71469C2.4855 3.83762 2.54696 3.96055 2.66989 4.14494C2.66989 4.08347 2.73136 4.08347 2.73136 4.02201C3.346 3.10004 3.96065 2.11661 4.63676 1.19465C4.88261 0.825859 5.12847 0.518537 5.49726 0.334143C5.98897 0.0882856 6.35776 0.14975 6.72655 0.518537C6.78801 0.518537 6.84947 0.580001 6.91094 0.518537C7.21826 0.457072 7.46412 0.395608 7.77144 0.518537C8.14023 0.641466 8.32462 0.948788 8.38609 1.31757C8.38609 1.37904 8.44755 1.4405 8.44755 1.50197C8.93927 1.80929 9.12366 2.30101 9.06219 2.91565C9.06219 3.10004 9.06219 3.28444 9.18512 3.46883C9.24659 3.53029 9.24659 3.59176 9.30805 3.71469C9.43098 3.59176 9.55391 3.40737 9.61537 3.28444C9.61537 3.22297 9.61537 3.16151 9.61537 3.10004C9.55391 2.66979 9.61537 2.23954 9.86123 1.87075C9.98416 1.74783 10.1071 1.6249 10.23 1.50197C10.2915 1.4405 10.2915 1.37904 10.3529 1.31757C10.4144 0.764394 10.7832 0.395608 11.3364 0.457072C11.5208 0.457072 11.6437 0.518537 11.8281 0.518537C11.8896 0.518537 11.951 0.518537 11.951 0.457072C12.2583 0.14975 12.5657 0.0882856 12.9959 0.211214C13.3032 0.334143 13.5491 0.518537 13.795 0.825859C14.2252 1.37904 14.6555 1.93222 15.0242 2.54686C15.3316 3.03858 15.6389 3.53029 15.9462 4.02201C15.9462 4.08347 16.0077 4.08347 16.0691 4.2064C16.0691 4.08347 16.1306 4.02201 16.1306 4.02201C16.315 3.71469 16.6223 3.46883 16.9911 3.40737C17.2984 3.3459 17.6058 3.53029 17.7901 3.83762C17.8516 4.02201 17.9131 4.2064 17.9131 4.3908C18.036 5.49716 18.0975 6.66498 18.2204 7.77134C18.2819 8.38599 18.3433 9.00063 18.4663 9.61527C18.6506 10.4143 18.5277 11.1519 18.0975 11.828C17.6058 12.627 17.114 13.4875 16.5609 14.2866C16.5609 14.2866 16.5609 14.348 16.4994 14.348C16.3765 14.2251 16.1921 14.1636 16.0691 14.0407C16.1921 13.9178 16.2535 13.7334 16.3765 13.6105C16.8067 12.9344 17.237 12.1968 17.6672 11.4592C17.9131 11.029 18.0975 10.5987 17.9745 10.107C17.9131 9.79967 17.8516 9.49235 17.8516 9.12356C17.6058 7.58695 17.4214 5.98887 17.3599 4.45226C17.3599 4.32933 17.2984 4.14494 17.237 4.02201C17.1755 3.89908 17.0526 3.83762 16.9296 3.89908C16.7452 3.96055 16.5609 4.14494 16.4994 4.32933C16.315 4.75958 16.1921 5.18983 16.1306 5.62009C15.8847 6.78791 15.8847 7.95573 15.9462 9.12356C15.9462 9.18502 15.9462 9.24649 15.9462 9.30795Z"/>
</mask>
<path d="M15.9462 9.30795C15.2086 9.18502 14.594 9.55381 14.1023 9.98406C14.594 9.49235 15.0857 9.12356 15.7618 9.12356C15.7618 8.69331 15.7004 8.26306 15.7004 7.89427C15.6389 6.9723 15.7004 5.98887 15.8847 5.06691C15.8847 5.00544 15.8847 4.94398 15.8233 4.88251C15.1472 3.71469 14.4711 2.60833 13.672 1.56343C13.4876 1.31757 13.3032 1.13318 13.1188 0.948788C12.9959 0.825859 12.8115 0.70293 12.6271 0.70293C12.3813 0.70293 12.2583 0.825859 12.2583 1.01025C12.2583 1.56343 12.3813 2.11661 12.6271 2.66979C12.9959 3.65322 13.6106 4.57519 14.1637 5.43569C14.2252 5.55862 14.2867 5.62009 14.2867 5.74301C14.0408 5.37423 13.795 5.06691 13.4876 4.69812C13.0574 4.02201 12.5657 3.3459 12.1969 2.60833C12.0125 2.17808 11.8896 1.74783 11.8281 1.25611C11.8281 1.19465 11.7666 1.13318 11.7052 1.07172C11.5208 0.948788 11.3364 0.948788 11.152 1.01025C10.9676 1.07172 10.8447 1.25611 10.9061 1.4405C10.9676 1.74783 11.0291 2.05515 11.152 2.36247C11.5208 3.53029 12.0125 4.63665 12.5042 5.74301V5.80448C12.5042 5.80448 12.5042 5.80448 12.4427 5.80448C12.074 5.18983 11.7052 4.57519 11.3978 3.89908C11.152 3.22297 10.9061 2.54686 10.5988 1.93222C10.3529 1.99368 10.1686 2.30101 10.1686 2.66979C10.23 2.97711 10.2915 3.3459 10.3529 3.65322C10.5988 4.51373 10.9061 5.37423 11.2749 6.17327C11.2749 6.23473 11.2749 6.23473 11.3364 6.29619C10.8447 5.43569 10.3529 4.51373 9.98416 3.59176C9.79977 3.71469 9.7383 3.96055 9.7383 4.14494C9.61537 4.57519 9.67684 4.94398 9.79977 5.31276C10.0456 6.29619 10.4759 7.1567 10.9061 8.0172C11.152 8.50891 11.152 8.93917 10.9061 9.36942C10.7217 9.7382 10.5373 10.0455 10.4144 10.4143C10.23 10.9675 10.2915 11.5207 10.4759 12.0124C10.6603 12.75 10.9676 13.4261 11.3364 14.0407C11.3364 14.1022 11.3978 14.1022 11.3978 14.1636C11.3978 14.1636 11.3978 14.1636 11.3978 14.2251C11.2749 14.2866 11.0905 14.4095 10.9676 14.5324C10.7832 14.1636 10.5373 13.7334 10.3529 13.3646C10.0456 12.6885 9.86123 12.0124 9.79977 11.3363C9.7383 10.7216 9.9227 10.1685 10.1686 9.61527C10.2915 9.43088 10.3529 9.18502 10.4759 9.00063C10.5988 8.81624 10.5373 8.57038 10.4144 8.38599C10.23 8.0172 9.98416 7.58695 9.79977 7.21816C9.61537 6.78791 9.49245 6.41912 9.30805 5.98887C9.30805 5.92741 9.24659 5.92741 9.24659 5.80448C9.18512 5.98887 9.12366 6.17327 9.06219 6.35766C8.75487 6.9723 8.50902 7.58695 8.20169 8.20159C8.0173 8.57038 8.0173 8.8777 8.20169 9.18502C8.32462 9.43088 8.50902 9.7382 8.57048 9.98406C8.81634 10.5372 8.81634 11.0904 8.69341 11.7051C8.50902 12.6885 8.14023 13.6105 7.58705 14.471C7.58705 14.471 7.58705 14.471 7.58705 14.5324C7.46412 14.4095 7.27973 14.348 7.1568 14.2251C7.34119 13.9178 7.46412 13.6719 7.58705 13.3646C7.89437 12.6885 8.14023 12.0124 8.20169 11.2748C8.26316 10.7216 8.07876 10.2914 7.83291 9.79967C7.77144 9.61527 7.64851 9.49235 7.58705 9.30795C7.40266 8.8777 7.34119 8.44745 7.58705 8.07866C7.95584 7.40255 8.32462 6.72645 8.57048 5.98887C8.69341 5.55862 8.81634 5.12837 8.8778 4.69812C8.8778 4.32933 8.81634 3.96055 8.57048 3.59176C8.20169 4.57519 7.70998 5.43569 7.21826 6.29619C7.34119 5.98887 7.52558 5.62009 7.64851 5.31276C7.95583 4.57519 8.20169 3.77615 8.38609 2.97711C8.57048 2.60833 8.57048 2.30101 8.26316 1.99368C8.20169 1.93222 8.14023 1.93222 8.07876 1.87075C7.64851 3.28444 6.9724 4.51373 6.17337 5.74301C6.2963 5.43569 6.48069 5.18983 6.60362 4.88251C7.09533 3.83762 7.52558 2.79272 7.77144 1.6249C7.77144 1.56343 7.77144 1.50197 7.77144 1.50197C7.83291 1.25611 7.77144 1.07172 7.58705 1.01025C7.40266 0.948788 7.03387 1.01025 6.91094 1.13318C6.91094 1.13318 6.84947 1.19465 6.84947 1.25611C6.78801 1.99368 6.48069 2.66979 6.1119 3.3459C5.62019 4.2064 5.00554 5.00544 4.3909 5.80448C4.3909 5.80448 4.3909 5.86594 4.32943 5.86594C4.51383 5.55862 4.75968 5.18983 4.94408 4.88251C5.43579 4.08347 5.86604 3.28444 6.1119 2.42393C6.23483 1.99368 6.2963 1.6249 6.35776 1.31757C6.35776 1.25611 6.35776 1.13318 6.35776 1.07172C6.35776 0.764394 6.17337 0.641466 5.86604 0.764394C5.68165 0.825859 5.49726 1.01025 5.31286 1.19465C4.75968 1.93222 4.26797 2.73126 3.71479 3.46883C3.46893 3.89908 3.16161 4.3908 2.91575 4.82105C2.85429 4.88251 2.85429 5.00544 2.85429 5.06691C3.03868 6.29619 3.10014 7.52548 2.97722 8.81624V8.8777C2.97722 8.93917 2.97722 9.00063 2.97722 9.12356C3.71479 9.12356 4.2065 9.55381 4.69822 9.98406C4.14504 9.55381 3.59186 9.18502 2.85429 9.30795C2.85429 9.24649 2.85429 9.18502 2.85429 9.12356C2.91575 7.70988 2.85429 6.23473 2.4855 4.88251C2.30111 4.63665 2.17818 4.3908 2.05525 4.2064C1.99379 4.14494 1.93232 4.08347 1.87086 4.02201C1.625 3.83762 1.44061 3.89908 1.37914 4.2064C1.31768 4.51373 1.31768 4.75958 1.31768 5.00544C1.25621 6.29619 1.07182 7.52548 0.887425 8.75477C0.825961 9.24649 0.764496 9.7382 0.703032 10.1685C0.641567 10.6602 0.764496 11.1519 1.01035 11.5821C1.50207 12.3812 1.99379 13.1802 2.4855 13.9793C2.4855 14.0407 2.54696 14.1022 2.60843 14.1636C2.4855 14.2866 2.30111 14.348 2.17818 14.471C1.99379 14.1636 1.80939 13.8563 1.625 13.6105C1.25621 12.9958 0.887425 12.4426 0.580103 11.828C0.211316 11.2134 0.211316 10.5372 0.272781 9.79967C0.457174 8.38599 0.641567 6.9723 0.825961 5.55862C0.764496 5.06691 0.764496 4.63665 0.825961 4.2064C0.887425 3.89908 1.01035 3.59176 1.31768 3.46883C1.625 3.3459 2.05525 3.40737 2.36257 3.71469C2.4855 3.83762 2.54696 3.96055 2.66989 4.14494C2.66989 4.08347 2.73136 4.08347 2.73136 4.02201C3.346 3.10004 3.96065 2.11661 4.63676 1.19465C4.88261 0.825859 5.12847 0.518537 5.49726 0.334143C5.98897 0.0882856 6.35776 0.14975 6.72655 0.518537C6.78801 0.518537 6.84947 0.580001 6.91094 0.518537C7.21826 0.457072 7.46412 0.395608 7.77144 0.518537C8.14023 0.641466 8.32462 0.948788 8.38609 1.31757C8.38609 1.37904 8.44755 1.4405 8.44755 1.50197C8.93927 1.80929 9.12366 2.30101 9.06219 2.91565C9.06219 3.10004 9.06219 3.28444 9.18512 3.46883C9.24659 3.53029 9.24659 3.59176 9.30805 3.71469C9.43098 3.59176 9.55391 3.40737 9.61537 3.28444C9.61537 3.22297 9.61537 3.16151 9.61537 3.10004C9.55391 2.66979 9.61537 2.23954 9.86123 1.87075C9.98416 1.74783 10.1071 1.6249 10.23 1.50197C10.2915 1.4405 10.2915 1.37904 10.3529 1.31757C10.4144 0.764394 10.7832 0.395608 11.3364 0.457072C11.5208 0.457072 11.6437 0.518537 11.8281 0.518537C11.8896 0.518537 11.951 0.518537 11.951 0.457072C12.2583 0.14975 12.5657 0.0882856 12.9959 0.211214C13.3032 0.334143 13.5491 0.518537 13.795 0.825859C14.2252 1.37904 14.6555 1.93222 15.0242 2.54686C15.3316 3.03858 15.6389 3.53029 15.9462 4.02201C15.9462 4.08347 16.0077 4.08347 16.0691 4.2064C16.0691 4.08347 16.1306 4.02201 16.1306 4.02201C16.315 3.71469 16.6223 3.46883 16.9911 3.40737C17.2984 3.3459 17.6058 3.53029 17.7901 3.83762C17.8516 4.02201 17.9131 4.2064 17.9131 4.3908C18.036 5.49716 18.0975 6.66498 18.2204 7.77134C18.2819 8.38599 18.3433 9.00063 18.4663 9.61527C18.6506 10.4143 18.5277 11.1519 18.0975 11.828C17.6058 12.627 17.114 13.4875 16.5609 14.2866C16.5609 14.2866 16.5609 14.348 16.4994 14.348C16.3765 14.2251 16.1921 14.1636 16.0691 14.0407C16.1921 13.9178 16.2535 13.7334 16.3765 13.6105C16.8067 12.9344 17.237 12.1968 17.6672 11.4592C17.9131 11.029 18.0975 10.5987 17.9745 10.107C17.9131 9.79967 17.8516 9.49235 17.8516 9.12356C17.6058 7.58695 17.4214 5.98887 17.3599 4.45226C17.3599 4.32933 17.2984 4.14494 17.237 4.02201C17.1755 3.89908 17.0526 3.83762 16.9296 3.89908C16.7452 3.96055 16.5609 4.14494 16.4994 4.32933C16.315 4.75958 16.1921 5.18983 16.1306 5.62009C15.8847 6.78791 15.8847 7.95573 15.9462 9.12356C15.9462 9.18502 15.9462 9.24649 15.9462 9.30795Z" fill="#1D4C4F"/>
<path d="M15.9462 9.30795C15.2086 9.18502 14.594 9.55381 14.1023 9.98406C14.594 9.49235 15.0857 9.12356 15.7618 9.12356C15.7618 8.69331 15.7004 8.26306 15.7004 7.89427C15.6389 6.9723 15.7004 5.98887 15.8847 5.06691C15.8847 5.00544 15.8847 4.94398 15.8233 4.88251C15.1472 3.71469 14.4711 2.60833 13.672 1.56343C13.4876 1.31757 13.3032 1.13318 13.1188 0.948788C12.9959 0.825859 12.8115 0.70293 12.6271 0.70293C12.3813 0.70293 12.2583 0.825859 12.2583 1.01025C12.2583 1.56343 12.3813 2.11661 12.6271 2.66979C12.9959 3.65322 13.6106 4.57519 14.1637 5.43569C14.2252 5.55862 14.2867 5.62009 14.2867 5.74301C14.0408 5.37423 13.795 5.06691 13.4876 4.69812C13.0574 4.02201 12.5657 3.3459 12.1969 2.60833C12.0125 2.17808 11.8896 1.74783 11.8281 1.25611C11.8281 1.19465 11.7666 1.13318 11.7052 1.07172C11.5208 0.948788 11.3364 0.948788 11.152 1.01025C10.9676 1.07172 10.8447 1.25611 10.9061 1.4405C10.9676 1.74783 11.0291 2.05515 11.152 2.36247C11.5208 3.53029 12.0125 4.63665 12.5042 5.74301V5.80448C12.5042 5.80448 12.5042 5.80448 12.4427 5.80448C12.074 5.18983 11.7052 4.57519 11.3978 3.89908C11.152 3.22297 10.9061 2.54686 10.5988 1.93222C10.3529 1.99368 10.1686 2.30101 10.1686 2.66979C10.23 2.97711 10.2915 3.3459 10.3529 3.65322C10.5988 4.51373 10.9061 5.37423 11.2749 6.17327C11.2749 6.23473 11.2749 6.23473 11.3364 6.29619C10.8447 5.43569 10.3529 4.51373 9.98416 3.59176C9.79977 3.71469 9.7383 3.96055 9.7383 4.14494C9.61537 4.57519 9.67684 4.94398 9.79977 5.31276C10.0456 6.29619 10.4759 7.1567 10.9061 8.0172C11.152 8.50891 11.152 8.93917 10.9061 9.36942C10.7217 9.7382 10.5373 10.0455 10.4144 10.4143C10.23 10.9675 10.2915 11.5207 10.4759 12.0124C10.6603 12.75 10.9676 13.4261 11.3364 14.0407C11.3364 14.1022 11.3978 14.1022 11.3978 14.1636C11.3978 14.1636 11.3978 14.1636 11.3978 14.2251C11.2749 14.2866 11.0905 14.4095 10.9676 14.5324C10.7832 14.1636 10.5373 13.7334 10.3529 13.3646C10.0456 12.6885 9.86123 12.0124 9.79977 11.3363C9.7383 10.7216 9.9227 10.1685 10.1686 9.61527C10.2915 9.43088 10.3529 9.18502 10.4759 9.00063C10.5988 8.81624 10.5373 8.57038 10.4144 8.38599C10.23 8.0172 9.98416 7.58695 9.79977 7.21816C9.61537 6.78791 9.49245 6.41912 9.30805 5.98887C9.30805 5.92741 9.24659 5.92741 9.24659 5.80448C9.18512 5.98887 9.12366 6.17327 9.06219 6.35766C8.75487 6.9723 8.50902 7.58695 8.20169 8.20159C8.0173 8.57038 8.0173 8.8777 8.20169 9.18502C8.32462 9.43088 8.50902 9.7382 8.57048 9.98406C8.81634 10.5372 8.81634 11.0904 8.69341 11.7051C8.50902 12.6885 8.14023 13.6105 7.58705 14.471C7.58705 14.471 7.58705 14.471 7.58705 14.5324C7.46412 14.4095 7.27973 14.348 7.1568 14.2251C7.34119 13.9178 7.46412 13.6719 7.58705 13.3646C7.89437 12.6885 8.14023 12.0124 8.20169 11.2748C8.26316 10.7216 8.07876 10.2914 7.83291 9.79967C7.77144 9.61527 7.64851 9.49235 7.58705 9.30795C7.40266 8.8777 7.34119 8.44745 7.58705 8.07866C7.95584 7.40255 8.32462 6.72645 8.57048 5.98887C8.69341 5.55862 8.81634 5.12837 8.8778 4.69812C8.8778 4.32933 8.81634 3.96055 8.57048 3.59176C8.20169 4.57519 7.70998 5.43569 7.21826 6.29619C7.34119 5.98887 7.52558 5.62009 7.64851 5.31276C7.95583 4.57519 8.20169 3.77615 8.38609 2.97711C8.57048 2.60833 8.57048 2.30101 8.26316 1.99368C8.20169 1.93222 8.14023 1.93222 8.07876 1.87075C7.64851 3.28444 6.9724 4.51373 6.17337 5.74301C6.2963 5.43569 6.48069 5.18983 6.60362 4.88251C7.09533 3.83762 7.52558 2.79272 7.77144 1.6249C7.77144 1.56343 7.77144 1.50197 7.77144 1.50197C7.83291 1.25611 7.77144 1.07172 7.58705 1.01025C7.40266 0.948788 7.03387 1.01025 6.91094 1.13318C6.91094 1.13318 6.84947 1.19465 6.84947 1.25611C6.78801 1.99368 6.48069 2.66979 6.1119 3.3459C5.62019 4.2064 5.00554 5.00544 4.3909 5.80448C4.3909 5.80448 4.3909 5.86594 4.32943 5.86594C4.51383 5.55862 4.75968 5.18983 4.94408 4.88251C5.43579 4.08347 5.86604 3.28444 6.1119 2.42393C6.23483 1.99368 6.2963 1.6249 6.35776 1.31757C6.35776 1.25611 6.35776 1.13318 6.35776 1.07172C6.35776 0.764394 6.17337 0.641466 5.86604 0.764394C5.68165 0.825859 5.49726 1.01025 5.31286 1.19465C4.75968 1.93222 4.26797 2.73126 3.71479 3.46883C3.46893 3.89908 3.16161 4.3908 2.91575 4.82105C2.85429 4.88251 2.85429 5.00544 2.85429 5.06691C3.03868 6.29619 3.10014 7.52548 2.97722 8.81624V8.8777C2.97722 8.93917 2.97722 9.00063 2.97722 9.12356C3.71479 9.12356 4.2065 9.55381 4.69822 9.98406C4.14504 9.55381 3.59186 9.18502 2.85429 9.30795C2.85429 9.24649 2.85429 9.18502 2.85429 9.12356C2.91575 7.70988 2.85429 6.23473 2.4855 4.88251C2.30111 4.63665 2.17818 4.3908 2.05525 4.2064C1.99379 4.14494 1.93232 4.08347 1.87086 4.02201C1.625 3.83762 1.44061 3.89908 1.37914 4.2064C1.31768 4.51373 1.31768 4.75958 1.31768 5.00544C1.25621 6.29619 1.07182 7.52548 0.887425 8.75477C0.825961 9.24649 0.764496 9.7382 0.703032 10.1685C0.641567 10.6602 0.764496 11.1519 1.01035 11.5821C1.50207 12.3812 1.99379 13.1802 2.4855 13.9793C2.4855 14.0407 2.54696 14.1022 2.60843 14.1636C2.4855 14.2866 2.30111 14.348 2.17818 14.471C1.99379 14.1636 1.80939 13.8563 1.625 13.6105C1.25621 12.9958 0.887425 12.4426 0.580103 11.828C0.211316 11.2134 0.211316 10.5372 0.272781 9.79967C0.457174 8.38599 0.641567 6.9723 0.825961 5.55862C0.764496 5.06691 0.764496 4.63665 0.825961 4.2064C0.887425 3.89908 1.01035 3.59176 1.31768 3.46883C1.625 3.3459 2.05525 3.40737 2.36257 3.71469C2.4855 3.83762 2.54696 3.96055 2.66989 4.14494C2.66989 4.08347 2.73136 4.08347 2.73136 4.02201C3.346 3.10004 3.96065 2.11661 4.63676 1.19465C4.88261 0.825859 5.12847 0.518537 5.49726 0.334143C5.98897 0.0882856 6.35776 0.14975 6.72655 0.518537C6.78801 0.518537 6.84947 0.580001 6.91094 0.518537C7.21826 0.457072 7.46412 0.395608 7.77144 0.518537C8.14023 0.641466 8.32462 0.948788 8.38609 1.31757C8.38609 1.37904 8.44755 1.4405 8.44755 1.50197C8.93927 1.80929 9.12366 2.30101 9.06219 2.91565C9.06219 3.10004 9.06219 3.28444 9.18512 3.46883C9.24659 3.53029 9.24659 3.59176 9.30805 3.71469C9.43098 3.59176 9.55391 3.40737 9.61537 3.28444C9.61537 3.22297 9.61537 3.16151 9.61537 3.10004C9.55391 2.66979 9.61537 2.23954 9.86123 1.87075C9.98416 1.74783 10.1071 1.6249 10.23 1.50197C10.2915 1.4405 10.2915 1.37904 10.3529 1.31757C10.4144 0.764394 10.7832 0.395608 11.3364 0.457072C11.5208 0.457072 11.6437 0.518537 11.8281 0.518537C11.8896 0.518537 11.951 0.518537 11.951 0.457072C12.2583 0.14975 12.5657 0.0882856 12.9959 0.211214C13.3032 0.334143 13.5491 0.518537 13.795 0.825859C14.2252 1.37904 14.6555 1.93222 15.0242 2.54686C15.3316 3.03858 15.6389 3.53029 15.9462 4.02201C15.9462 4.08347 16.0077 4.08347 16.0691 4.2064C16.0691 4.08347 16.1306 4.02201 16.1306 4.02201C16.315 3.71469 16.6223 3.46883 16.9911 3.40737C17.2984 3.3459 17.6058 3.53029 17.7901 3.83762C17.8516 4.02201 17.9131 4.2064 17.9131 4.3908C18.036 5.49716 18.0975 6.66498 18.2204 7.77134C18.2819 8.38599 18.3433 9.00063 18.4663 9.61527C18.6506 10.4143 18.5277 11.1519 18.0975 11.828C17.6058 12.627 17.114 13.4875 16.5609 14.2866C16.5609 14.2866 16.5609 14.348 16.4994 14.348C16.3765 14.2251 16.1921 14.1636 16.0691 14.0407C16.1921 13.9178 16.2535 13.7334 16.3765 13.6105C16.8067 12.9344 17.237 12.1968 17.6672 11.4592C17.9131 11.029 18.0975 10.5987 17.9745 10.107C17.9131 9.79967 17.8516 9.49235 17.8516 9.12356C17.6058 7.58695 17.4214 5.98887 17.3599 4.45226C17.3599 4.32933 17.2984 4.14494 17.237 4.02201C17.1755 3.89908 17.0526 3.83762 16.9296 3.89908C16.7452 3.96055 16.5609 4.14494 16.4994 4.32933C16.315 4.75958 16.1921 5.18983 16.1306 5.62009C15.8847 6.78791 15.8847 7.95573 15.9462 9.12356C15.9462 9.18502 15.9462 9.24649 15.9462 9.30795Z" stroke="#1D4C4F" stroke-width="0.273133" mask="url(#path-1-outside-1_1_6490)"/>
</svg>
