<svg width="14" height="14" viewBox="0 0 14 14" fill="none" xmlns="http://www.w3.org/2000/svg">
<path d="M12.03 13.0075C12.3107 13.0075 12.5698 13.0075 12.8296 13.0075C13.0196 13.0075 13.1954 13.0495 13.1991 13.2797C13.2035 13.5291 13.019 13.5674 12.8172 13.5674C8.7199 13.5668 4.62258 13.5668 0.525258 13.5674C0.33523 13.5674 0.159392 13.5316 0.150138 13.3013C0.139032 13.0304 0.359292 13.0162 0.567829 12.9915C0.572765 12.8977 0.580168 12.8119 0.580168 12.7261C0.580785 11.544 0.579551 10.3614 0.581402 9.17932C0.581402 9.03056 0.583253 8.91761 0.405565 8.83489C0.21492 8.74663 0.224175 8.49293 0.421606 8.39356C0.580785 8.31331 0.582019 8.20776 0.582019 8.07012C0.580168 6.98498 0.580785 5.89923 0.580785 4.8141C0.580785 4.69003 0.596827 4.57522 0.42901 4.51597C0.358058 4.49066 0.284638 4.34684 0.292042 4.26413C0.299445 4.18141 0.406799 4.10796 0.470964 4.0308C0.541916 3.945 0.656673 3.8697 0.67765 3.77341C0.882486 2.82716 1.07313 1.87782 1.26378 0.928483C1.30018 0.74701 1.34398 0.566155 1.56609 0.567389C1.78944 0.568624 1.82707 0.753183 1.86347 0.932804C2.05042 1.86301 2.24415 2.79197 2.43232 3.72218C2.46317 3.87587 2.48353 3.99685 2.68467 4.05179C2.90739 4.11228 2.89567 4.37955 2.70256 4.53387C2.62852 4.5925 2.5514 4.70176 2.55017 4.78879C2.54029 5.9517 2.54338 7.11399 2.54338 8.29665C2.5878 8.3201 2.63716 8.34171 2.6822 8.37072C2.89814 8.50651 2.89876 8.70712 2.70503 8.86267C2.63099 8.92193 2.55078 9.03056 2.55017 9.1176C2.54091 10.3484 2.54461 11.5792 2.54585 12.8094C2.54585 12.8656 2.55448 12.9217 2.56004 12.9915C3.05732 12.9915 3.53794 12.9915 4.04324 12.9915C4.04324 12.223 4.04324 11.4558 4.04324 10.6533C3.73784 10.6533 3.44046 10.6533 3.14308 10.6533C2.94256 10.6533 2.75685 10.6144 2.76487 10.3626C2.77228 10.1324 2.94626 10.0935 3.13752 10.0947C3.39727 10.0966 3.65702 10.0953 3.87172 10.0953C3.8489 9.54165 3.77362 9.01019 3.81558 8.48861C3.92417 7.15041 4.57384 6.10416 5.68439 5.35975C6.64749 4.7141 7.29531 3.84069 7.68277 2.75802C7.74632 2.58087 7.76606 2.46915 7.58282 2.31977C7.11392 1.93769 7.14168 1.22044 7.6038 0.845154C7.7531 0.723554 7.9129 0.651953 8.06159 0.826636C8.19733 0.986505 8.12884 1.12847 7.98077 1.24946C7.79012 1.405 7.73645 1.60067 7.86231 1.81671C7.982 2.02164 8.18005 2.07226 8.39167 1.98954C8.58972 1.91239 8.76618 1.8914 8.84577 2.12225C8.92782 2.35866 8.73965 2.44446 8.56442 2.51791C8.50334 2.54322 8.43918 2.56235 8.29419 2.61235C8.53234 3.07344 8.70633 3.55552 9.00186 3.945C9.36032 4.4172 9.76876 4.88632 10.2488 5.22581C11.9491 6.43007 12.5871 8.01827 12.1571 10.0953C12.3434 10.0953 12.5309 10.0959 12.7185 10.0953C12.9042 10.0947 13.0572 10.1571 13.064 10.3632C13.072 10.591 12.9073 10.6521 12.7123 10.6546C12.4915 10.657 12.2706 10.6552 12.0281 10.6552C12.03 11.4403 12.03 12.2002 12.03 13.0075ZM8.03568 3.35985C7.53531 4.52337 6.68883 5.29494 5.7393 6.02021C4.49116 6.97325 4.11358 8.30097 4.45476 9.83361C4.49733 10.0237 4.57075 10.1003 4.78176 10.0996C6.96029 10.091 9.13883 10.0922 11.318 10.099C11.5105 10.0996 11.5808 10.033 11.6302 9.85151C12.0293 8.38862 11.4802 6.79919 10.2062 5.89615C9.28567 5.24371 8.52987 4.46535 8.03568 3.35985ZM1.96527 12.9921C1.96527 11.6095 1.96527 10.2614 1.96527 8.9102C1.68023 8.9102 1.42419 8.9102 1.15951 8.9102C1.15951 10.2793 1.15951 11.6286 1.15951 12.9921C1.43653 12.9921 1.69319 12.9921 1.96527 12.9921ZM7.74385 12.9952C7.74385 12.1995 7.74385 11.4409 7.74385 10.6873C7.3095 10.6873 6.8986 10.6873 6.48893 10.6873C6.48893 11.4687 6.48893 12.2273 6.48893 12.9952C6.91772 12.9952 7.32184 12.9952 7.74385 12.9952ZM1.16259 4.57707C1.16259 5.84183 1.16259 7.08251 1.16259 8.32689C1.4427 8.32689 1.69936 8.32689 1.97453 8.32689C1.97453 7.0714 1.97453 5.83133 1.97453 4.57707C1.69874 4.57707 1.44208 4.57707 1.16259 4.57707ZM5.89663 12.994C5.89663 12.1995 5.89663 11.4416 5.89663 10.6873C5.46475 10.6873 5.05508 10.6873 4.64973 10.6873C4.64973 11.4693 4.64973 12.2273 4.64973 12.994C5.07606 12.994 5.47832 12.994 5.89663 12.994ZM9.59169 10.6848C9.15487 10.6848 8.74582 10.6848 8.33059 10.6848C8.33059 11.4632 8.33059 12.2218 8.33059 12.9865C8.75877 12.9865 9.16844 12.9865 9.59169 12.9865C9.59169 12.2144 9.59169 11.4632 9.59169 10.6848ZM10.1778 10.6768C10.1778 11.4625 10.1778 12.2212 10.1778 12.9859C10.6066 12.9859 11.0163 12.9859 11.4309 12.9859C11.4309 12.2057 11.4309 11.4477 11.4309 10.6768C11.0089 10.6768 10.606 10.6768 10.1778 10.6768ZM1.59571 2.36545C1.57473 2.36792 1.55314 2.37039 1.53216 2.37224C1.42419 2.90617 1.3156 3.44009 1.20393 3.99192C1.45442 3.99192 1.6753 3.99192 1.92455 3.99192C1.81103 3.43083 1.70306 2.89814 1.59571 2.36545Z" fill="#1D4C4F"/>
</svg>
