<svg width="177" height="178" viewBox="0 0 177 178" fill="none" xmlns="http://www.w3.org/2000/svg">
<path d="M78.0422 23.8028C78.0422 23.4247 78.0751 23.0056 78.1409 22.5454C78.223 22.0687 78.3381 21.551 78.486 20.9922C78.6504 20.4333 78.8723 19.8334 79.1517 19.1924L81.2966 19.9813C81.1323 20.458 80.9843 20.9018 80.8529 21.3127C80.7214 21.7236 80.6227 22.1098 80.557 22.4714C80.5077 22.833 80.483 23.1782 80.483 23.5069C80.483 24.3616 80.6885 25.0601 81.0994 25.6025C81.5267 26.1449 82.1102 26.5476 82.8499 26.8106C83.6059 27.09 84.4524 27.2297 85.3893 27.2297C86.4741 27.2297 87.3781 27.0818 88.1013 26.786C88.8245 26.5065 89.3915 26.1285 89.8024 25.6518C90.2298 25.1916 90.5256 24.6739 90.69 24.0986C90.8708 23.5233 90.9612 22.9645 90.9612 22.4221C90.9612 21.7811 90.8379 21.0168 90.5914 20.1293C90.3613 19.2253 89.9339 18.1322 89.3093 16.8502L91.5529 15.7901C91.8816 16.3982 92.1857 17.0557 92.4651 17.7624C92.7445 18.4692 92.9664 19.2006 93.1308 19.9567C93.3116 20.6963 93.402 21.4359 93.402 22.1756C93.402 22.8166 93.3198 23.4823 93.1554 24.1726C92.9911 24.8793 92.7199 25.5532 92.3418 26.1942C91.9802 26.8517 91.4871 27.4434 90.8626 27.9694C90.2544 28.4953 89.4983 28.9062 88.5944 29.2021C87.6904 29.5144 86.6138 29.6705 85.3646 29.6705C84.362 29.6705 83.4169 29.5555 82.5294 29.3254C81.6418 29.1117 80.8611 28.7665 80.1872 28.2899C79.5297 27.8132 79.0038 27.2051 78.6093 26.4654C78.2313 25.7258 78.0422 24.8383 78.0422 23.8028ZM85.6605 14.1136C85.266 14.1136 84.9291 13.9821 84.6496 13.7191C84.3867 13.4561 84.2552 13.1274 84.2552 12.7329C84.2552 12.3549 84.3867 12.0262 84.6496 11.7467C84.9291 11.4673 85.266 11.3276 85.6605 11.3276C86.0385 11.3276 86.359 11.4673 86.622 11.7467C86.9014 12.0262 87.0411 12.3549 87.0411 12.7329C87.0411 13.1274 86.9014 13.4561 86.622 13.7191C86.359 13.9821 86.0385 14.1136 85.6605 14.1136ZM95.5752 29.6705L95.0328 27.2297C96.0847 27.0982 97.0298 26.9174 97.8681 26.6873C98.7063 26.4572 99.4213 26.1285 100.013 25.7012C100.621 25.2902 101.081 24.7314 101.394 24.0247C101.722 23.3343 101.887 22.455 101.887 21.3866C101.887 20.3183 101.698 19.4389 101.32 18.7486C100.942 18.0583 100.449 17.7131 99.8404 17.7131C99.4953 17.7131 99.183 17.8446 98.9036 18.1076C98.6242 18.3541 98.4023 18.6829 98.2379 19.0938C98.0735 19.5047 97.9914 19.932 97.9914 20.3758C97.9914 20.6223 98.0489 20.836 98.1639 21.0168C98.279 21.1976 98.468 21.3455 98.731 21.4606C98.994 21.5592 99.3556 21.6332 99.8158 21.6825C100.276 21.7154 100.843 21.7154 101.517 21.6825H106.399C106.826 21.6825 107.13 21.7975 107.311 22.0276C107.508 22.2578 107.607 22.529 107.607 22.8412C107.607 23.1864 107.475 23.4905 107.212 23.7535C106.949 24 106.596 24.1233 106.152 24.1233H99.9884C99.1666 24.1233 98.4187 24.0164 97.7448 23.8028C97.0874 23.5727 96.5614 23.2193 96.1669 22.7426C95.7889 22.2495 95.5999 21.6085 95.5999 20.8196C95.5999 20.1128 95.7067 19.4307 95.9204 18.7733C96.1505 18.0994 96.4628 17.4994 96.8573 16.9735C97.2682 16.4311 97.7366 16.0037 98.2626 15.6915C98.805 15.3792 99.3884 15.223 100.013 15.223C100.835 15.223 101.566 15.4696 102.207 15.9627C102.848 16.4393 103.35 17.1461 103.711 18.0829C104.073 19.0034 104.254 20.121 104.254 21.4359C104.254 23.0631 103.917 24.4602 103.243 25.6272C102.585 26.7942 101.607 27.7146 100.309 28.3885C99.0268 29.0624 97.449 29.4897 95.5752 29.6705ZM105.666 24.1233L105.913 21.6825C106.883 21.6825 107.639 21.6414 108.181 21.5592C108.724 21.477 109.102 21.288 109.315 20.9922C109.545 20.6963 109.66 20.2443 109.66 19.6362C109.66 19.2088 109.595 18.6993 109.463 18.1076C109.332 17.5159 109.159 16.8995 108.945 16.2585C108.748 15.6011 108.535 14.96 108.304 14.3355L110.696 13.5465C110.91 14.0889 111.115 14.7053 111.312 15.3956C111.51 16.0859 111.674 16.7762 111.805 17.4666C111.937 18.1569 112.003 18.7897 112.003 19.365C112.003 20.269 111.871 21.025 111.608 21.6332C111.345 22.2413 110.942 22.7344 110.4 23.1124C109.874 23.474 109.217 23.737 108.428 23.9014C107.639 24.0493 106.718 24.1233 105.666 24.1233ZM111.436 11.155C111.041 11.155 110.712 11.0235 110.449 10.7606C110.186 10.4811 110.055 10.1606 110.055 9.79904C110.055 9.421 110.186 9.1005 110.449 8.83752C110.712 8.5581 111.041 8.41839 111.436 8.41839C111.797 8.41839 112.109 8.5581 112.372 8.83752C112.635 9.1005 112.767 9.421 112.767 9.79904C112.767 10.1606 112.635 10.4811 112.372 10.7606C112.109 11.0235 111.797 11.155 111.436 11.155ZM107.787 11.155C107.409 11.155 107.08 11.0235 106.801 10.7606C106.538 10.4811 106.406 10.1606 106.406 9.79904C106.406 9.421 106.538 9.09228 106.801 8.81286C107.08 8.53344 107.409 8.39374 107.787 8.39374C108.148 8.39374 108.461 8.53344 108.724 8.81286C109.003 9.09228 109.143 9.421 109.143 9.79904C109.143 10.1606 109.003 10.4811 108.724 10.7606C108.461 11.0235 108.148 11.155 107.787 11.155ZM120.37 24.1233C118.989 24.1233 117.929 23.9753 117.189 23.6795C116.45 23.3672 115.94 22.8988 115.661 22.2742C115.381 21.6332 115.217 20.8114 115.168 19.8087L114.675 6.27345H117.115L117.633 18.7733C117.666 19.5622 117.74 20.1703 117.855 20.5977C117.987 21.0086 118.258 21.2962 118.669 21.4606C119.096 21.6085 119.745 21.6825 120.616 21.6825C121.044 21.6825 121.348 21.7975 121.529 22.0276C121.726 22.2578 121.824 22.529 121.824 22.8412C121.824 23.1864 121.693 23.4905 121.43 23.7535C121.167 24 120.814 24.1233 120.37 24.1233ZM119.873 24.1233L120.094 21.6825C120.966 21.6825 121.82 21.625 122.659 21.5099C123.497 21.3784 124.31 21.1976 125.099 20.9675C125.905 20.7374 126.669 20.4498 127.392 20.1046C128.132 19.7594 128.83 19.365 129.488 18.9212C129.044 18.5596 128.543 18.2473 127.984 17.9843C127.425 17.7213 126.809 17.5241 126.135 17.3926C125.477 17.2447 124.787 17.1707 124.064 17.1707C123.801 17.1707 123.538 17.1789 123.275 17.1954C123.028 17.2118 122.782 17.2447 122.535 17.294C122.289 17.3269 122.017 17.3762 121.722 17.4419L121.303 15.1244C121.763 14.9929 122.223 14.8943 122.683 14.8285C123.16 14.7628 123.604 14.7299 124.015 14.7299C124.869 14.7299 125.65 14.8368 126.357 15.0504C127.063 15.2477 127.713 15.4942 128.304 15.7901C128.896 16.0859 129.447 16.3818 129.956 16.6776C130.482 16.9735 130.983 17.22 131.46 17.4173C131.937 17.6145 132.43 17.7131 132.939 17.7131H133.58L133.802 19.932C133.096 19.9485 132.438 20.0635 131.83 20.2772C131.238 20.4744 130.655 20.7374 130.08 21.0661C129.504 21.3784 128.896 21.7154 128.255 22.077C127.614 22.4221 126.899 22.7508 126.11 23.0631C125.338 23.359 124.442 23.6137 123.423 23.8274C122.404 24.0247 121.22 24.1233 119.873 24.1233ZM124.039 12.2398C123.645 12.2398 123.308 12.1083 123.028 11.8454C122.765 11.5824 122.634 11.2537 122.634 10.8592C122.634 10.4811 122.765 10.1524 123.028 9.873C123.308 9.59358 123.645 9.45388 124.039 9.45388C124.417 9.45388 124.738 9.59358 125.001 9.873C125.28 10.1524 125.42 10.4811 125.42 10.8592C125.42 11.2537 125.28 11.5824 125.001 11.8454C124.738 12.1083 124.417 12.2398 124.039 12.2398Z" fill="#0B7C18"/>
<path d="M74.3027 106.873C73.9647 106.795 73.6319 106.732 73.3043 106.639C71.6195 106.155 69.9399 105.672 68.2551 105.183C67.9639 105.1 67.8339 104.923 67.8651 104.595C67.9483 103.716 68.0367 102.843 68.1511 101.969C68.5099 99.2391 69.6851 96.8055 70.9071 94.3875C71.6559 92.9055 72.3735 91.4131 73.0651 89.9051C73.5643 88.8079 73.7723 87.6171 73.9491 86.4263C74.1155 85.3239 74.2767 84.2267 74.4067 83.1191C74.5367 82.0114 74.6303 80.9038 74.7343 79.791C74.8591 78.4546 74.9579 77.1182 75.0983 75.787C75.2959 73.9514 75.6599 72.1574 76.3983 70.4518C77.1732 68.6734 78.2496 67.103 79.7108 65.8238C81.4216 64.3262 83.4132 63.3798 85.6388 62.9118C86.84 62.6674 88.0568 62.5842 89.2736 62.6674C91.5668 62.8182 93.6884 63.5358 95.602 64.8046C97.9992 66.3958 99.5956 68.6058 100.578 71.289C101.052 72.5734 101.353 73.8942 101.504 75.2514C101.608 76.2186 101.681 77.1962 101.769 78.1634C101.884 79.4114 101.993 80.6594 102.123 81.9022C102.248 83.1035 102.393 84.2995 102.549 85.5007C102.835 87.7315 103.397 89.8739 104.468 91.8811C105.342 93.5191 106.163 95.1883 106.954 96.8679C107.65 98.3447 108.17 99.8943 108.451 101.506C108.612 102.411 108.659 103.337 108.789 104.252C108.909 105.084 108.685 105.094 108.077 105.266C106.304 105.776 104.536 106.285 102.762 106.79C102.7 106.805 102.632 106.805 102.58 106.816C102.908 106.01 103.272 105.224 103.548 104.413C103.828 103.592 104.031 102.744 104.239 101.902C104.286 101.704 104.26 101.46 104.182 101.272C104.078 101.018 103.834 100.898 103.542 100.929C103.262 100.955 103.048 101.148 102.955 101.475C102.726 102.297 102.56 103.139 102.263 103.93C101.852 105.016 101.348 106.072 100.87 107.133C100.833 107.216 100.714 107.299 100.62 107.315C99.1328 107.622 97.6456 107.949 96.148 108.199C94.9104 108.407 93.652 108.537 92.404 108.672C90.6152 108.87 88.816 108.896 87.0168 108.833C85.6492 108.786 84.2764 108.662 82.914 108.506C81.4944 108.339 80.08 108.116 78.6708 107.882C77.8492 107.741 77.038 107.533 76.2319 107.336C76.1123 107.304 75.9875 107.18 75.9303 107.06C75.0723 105.318 74.3287 103.534 73.9439 101.621C73.8555 101.174 73.6319 100.94 73.2991 100.914C72.7843 100.877 72.4827 101.314 72.6023 101.896C72.9403 103.498 73.4603 105.037 74.1727 106.514C74.2143 106.597 74.2559 106.686 74.2923 106.774C74.3079 106.8 74.3027 106.821 74.3027 106.873ZM80.184 79.063C80.184 79.5986 80.1788 80.1134 80.184 80.6282C80.2048 81.845 80.418 83.0255 80.808 84.1747C81.6036 86.5303 83.0284 88.3763 85.2332 89.5671C86.866 90.4511 88.5872 90.6643 90.3604 90.0559C92.5288 89.3071 94.0628 87.8199 95.1392 85.8335C95.7944 84.6271 96.2208 83.3323 96.3612 81.9594C96.4496 81.1014 96.4548 80.2382 96.5016 79.375C96.512 79.1722 96.408 79.0578 96.2416 78.9434C95.4772 78.4234 94.692 77.9346 93.9796 77.3522C92.5912 76.2134 91.5148 74.8094 90.7868 73.161C90.5632 72.6566 90.3864 72.1366 90.168 71.5698C88.9928 73.3846 87.7604 75.1162 86.0236 76.4214C84.2764 77.7266 82.316 78.5378 80.184 79.063ZM88.1244 98.5943C88.8316 98.5371 89.5388 98.5215 90.2356 98.4175C91.8528 98.1887 93.3452 97.5907 94.718 96.7119C95.0196 96.5195 95.316 96.2959 95.5812 96.0567C95.8308 95.8331 95.8256 95.4223 95.6124 95.1571C95.3992 94.8867 95.0716 94.8295 94.7544 95.0167C94.5984 95.1103 94.458 95.2247 94.3072 95.3287C92.0452 96.8367 89.5804 97.4555 86.8712 97.0915C85.1136 96.8575 83.5484 96.1711 82.1652 95.0843C80.2724 93.6023 78.9828 91.6679 78.0884 89.4527C77.3864 87.7107 77.012 85.9063 76.856 84.0447C76.8196 83.6287 76.5231 83.3635 76.1383 83.3947C75.7483 83.4259 75.4727 83.7275 75.5195 84.1383C75.6131 84.9703 75.6807 85.8075 75.8575 86.6239C76.0655 87.5703 76.3307 88.5115 76.6532 89.4319C77.5892 92.0943 79.0764 94.3927 81.3072 96.1659C83.304 97.7415 85.5868 98.5111 88.1244 98.5943ZM88.0984 68.4706C87.8644 68.4914 87.3964 68.5174 86.9388 68.585C84.8848 68.8866 83.1428 69.833 81.692 71.289C80.548 72.4382 79.742 73.8214 79.2948 75.3814C79.118 76.0054 79.0296 76.6606 78.9516 77.3106C78.9048 77.711 79.2324 78.0282 79.6016 78.0386C79.9968 78.049 80.262 77.789 80.2984 77.3574C80.3192 77.1026 80.3504 76.8426 80.3972 76.5878C80.7924 74.4714 81.8844 72.7762 83.5588 71.4554C84.4896 70.7222 85.5452 70.249 86.7048 70.0046C88.114 69.703 89.5076 69.7498 90.8596 70.2594C93.3452 71.1954 95.0248 72.953 95.9192 75.4386C96.148 76.0782 96.2208 76.775 96.356 77.451C96.4184 77.7682 96.694 78.0334 97.0112 78.0438C97.3128 78.0594 97.6352 77.8254 97.656 77.4926C97.6768 77.1182 97.6612 76.7282 97.5832 76.3642C97.1152 74.201 96.1272 72.3186 94.4476 70.847C92.7004 69.3234 90.6724 68.4862 88.0984 68.4706ZM88.166 105.588C88.8576 105.505 89.5596 105.469 90.2408 105.328C90.87 105.204 91.4784 104.985 92.0868 104.772C92.43 104.652 92.6016 104.195 92.4768 103.862C92.3468 103.508 91.9932 103.352 91.6084 103.477C91.5044 103.514 91.3952 103.55 91.2912 103.592C89.5856 104.257 87.8228 104.299 86.0444 104.028C84.734 103.831 83.512 103.358 82.3628 102.708C82.082 102.552 81.8116 102.385 81.5256 102.245C81.25 102.11 80.9536 102.203 80.7664 102.448C80.4856 102.817 80.5948 103.238 81.0628 103.534C81.9052 104.07 82.7944 104.507 83.7356 104.834C85.1708 105.339 86.6528 105.526 88.166 105.588ZM93.8288 101.636C93.9848 101.59 94.146 101.558 94.2916 101.496C96.2884 100.633 97.9992 99.3951 99.2992 97.6323C99.6528 97.1539 99.97 96.6495 100.251 96.1243C100.422 95.8071 100.246 95.4431 99.9284 95.2715C99.6372 95.1155 99.2992 95.1935 99.0756 95.4795C98.9976 95.5835 98.93 95.6927 98.8624 95.8071C97.9056 97.3931 96.6524 98.6775 95.0144 99.5719C94.5204 99.8423 94.0056 100.061 93.5064 100.316C93.2256 100.456 93.0696 100.789 93.1372 101.049C93.236 101.402 93.4856 101.61 93.8288 101.636ZM88.4832 95.4275C88.7276 95.4119 89.1332 95.4171 89.5232 95.3547C90.0224 95.2767 90.5164 95.1571 91.0052 95.0219C91.2704 94.9491 91.4004 94.7307 91.4264 94.4551C91.4524 94.1691 91.3536 93.9403 91.1144 93.7895C90.8544 93.6231 90.584 93.6907 90.3136 93.7739C89.1228 94.1379 87.9164 94.1587 86.7152 93.8675C86.1328 93.7271 85.5764 93.4827 85.0096 93.2799C84.552 93.1187 84.136 93.3579 84.0736 93.8311C84.0372 94.1275 84.2036 94.4083 84.552 94.5903C85.7324 95.2143 87.0116 95.4171 88.4832 95.4275ZM80.6156 98.2303C80.2724 98.2667 80.0488 98.4331 79.9552 98.7503C79.8616 99.0727 80.002 99.4055 80.3868 99.6343C81.1096 100.061 81.8376 100.472 82.576 100.867C82.7632 100.966 83.0024 101.028 83.2156 101.018C83.538 101.002 83.7616 100.732 83.8136 100.399C83.8604 100.108 83.7096 99.8527 83.408 99.6915C82.6228 99.2703 81.8428 98.8439 81.0628 98.4227C80.9172 98.3447 80.7612 98.2927 80.6156 98.2303Z" fill="#0B7C18"/>
<path d="M88.1245 98.5943C85.5869 98.5111 83.3041 97.7415 81.3124 96.1555C79.0816 94.3823 77.5944 92.0839 76.6584 89.4214C76.336 88.5062 76.0708 87.565 75.8628 86.6134C75.686 85.8022 75.6184 84.9598 75.5248 84.1278C75.478 83.717 75.7536 83.4102 76.1436 83.3842C76.5284 83.3582 76.83 83.6182 76.8612 84.0342C77.0172 85.8958 77.3916 87.7054 78.0936 89.4422C78.988 91.6627 80.2724 93.5919 82.1705 95.0739C83.5537 96.1607 85.1241 96.8419 86.8765 97.0811C89.5805 97.4451 92.0505 96.8263 94.3125 95.3183C94.4633 95.2195 94.6037 95.0999 94.7597 95.0063C95.0769 94.8191 95.4045 94.8763 95.6177 95.1467C95.8257 95.4119 95.8309 95.8175 95.5865 96.0463C95.3213 96.2907 95.0249 96.5091 94.7233 96.7015C93.3505 97.5803 91.8581 98.1783 90.2409 98.4071C89.5389 98.5215 88.8317 98.5423 88.1245 98.5943Z" fill="white"/>
<path d="M88.0984 68.4706C90.6725 68.4862 92.7005 69.3234 94.4477 70.8522C96.1273 72.3238 97.1153 74.2062 97.5833 76.3694C97.6613 76.7334 97.6821 77.1234 97.6561 77.4978C97.6353 77.8306 97.3129 78.0646 97.0113 78.049C96.6941 78.0334 96.4185 77.7682 96.3561 77.4562C96.2209 76.7802 96.1481 76.0834 95.9193 75.4438C95.0249 72.9582 93.3453 71.2006 90.8597 70.2646C89.5076 69.755 88.114 69.7082 86.7048 70.0098C85.5504 70.2594 84.4896 70.7326 83.5588 71.4606C81.8792 72.7814 80.7924 74.4766 80.3972 76.593C80.3504 76.8478 80.3192 77.1026 80.2984 77.3626C80.262 77.7942 79.9968 78.0542 79.6016 78.0438C79.2324 78.0334 78.9048 77.7162 78.9516 77.3158C79.0296 76.6658 79.118 76.0106 79.2948 75.3866C79.742 73.8214 80.548 72.4434 81.692 71.2942C83.1428 69.8382 84.8848 68.8918 86.9388 68.5902C87.3964 68.5226 87.8644 68.4966 88.0984 68.4706Z" fill="white"/>
<path d="M88.1661 105.588C86.6477 105.526 85.1657 105.344 83.7357 104.839C82.7945 104.507 81.9053 104.07 81.0629 103.539C80.5949 103.243 80.4857 102.822 80.7665 102.453C80.9485 102.208 81.2501 102.12 81.5257 102.25C81.8117 102.39 82.0873 102.557 82.3629 102.713C83.5173 103.363 84.7393 103.836 86.0445 104.033C87.8229 104.304 89.5857 104.262 91.2914 103.597C91.3954 103.555 91.4994 103.519 91.6086 103.482C91.9934 103.357 92.347 103.519 92.477 103.867C92.6018 104.2 92.4302 104.657 92.087 104.777C91.4786 104.985 90.865 105.203 90.241 105.333C89.5649 105.463 88.8629 105.505 88.1661 105.588Z" fill="white"/>
<path d="M93.829 101.636C93.4806 101.61 93.2362 101.402 93.1478 101.049C93.0802 100.789 93.2362 100.456 93.517 100.316C94.0162 100.061 94.5362 99.8423 95.025 99.5719C96.6578 98.6827 97.911 97.3931 98.873 95.8071C98.9406 95.6979 99.0082 95.5835 99.0862 95.4795C99.3098 95.1935 99.6478 95.1103 99.939 95.2715C100.256 95.4431 100.433 95.8071 100.261 96.1243C99.9806 96.6443 99.6634 97.1539 99.3098 97.6323C98.0098 99.3951 96.299 100.633 94.3022 101.496C94.1462 101.558 93.985 101.59 93.829 101.636Z" fill="white"/>
<path d="M88.4833 95.4274C87.0116 95.417 85.7376 95.209 84.552 94.5902C84.2036 94.4082 84.0372 94.1274 84.0736 93.831C84.136 93.3578 84.552 93.1134 85.0096 93.2798C85.5764 93.4826 86.1328 93.727 86.7152 93.8674C87.9165 94.1638 89.1229 94.1378 90.3137 93.7738C90.5789 93.6906 90.8545 93.623 91.1145 93.7894C91.3537 93.9402 91.4525 94.169 91.4265 94.455C91.4005 94.7306 91.2705 94.949 91.0053 95.0218C90.5165 95.157 90.0225 95.2766 89.5233 95.3546C89.1281 95.4222 88.7277 95.4118 88.4833 95.4274Z" fill="white"/>
<path d="M80.6155 98.2303C80.7663 98.2927 80.9171 98.3447 81.0575 98.4175C81.8427 98.8387 82.6227 99.2651 83.4027 99.6864C83.7095 99.8528 83.8551 100.102 83.8083 100.394C83.7563 100.726 83.5379 100.997 83.2103 101.012C82.9971 101.023 82.7579 100.96 82.5707 100.862C81.8323 100.466 81.1043 100.056 80.3815 99.6292C79.9967 99.4056 79.8563 99.0728 79.9499 98.7451C80.0487 98.4331 80.2723 98.2667 80.6155 98.2303Z" fill="white"/>
<g filter="url(#filter0_d_618_260549)">
<path d="M68 22.082H40.5723C30.3604 22.0822 22.0822 30.3604 22.082 40.5723V136.108C22.082 146.32 30.3602 154.599 40.5723 154.6H136.108C146.321 154.6 154.6 146.321 154.6 136.108V40.5723C154.599 30.8022 147.022 22.8031 137.423 22.1289V19.04C148.725 19.7194 157.681 29.0996 157.682 40.5723V136.108L157.674 136.665C157.383 148.137 148.137 157.383 136.665 157.674L136.108 157.682H40.5723L40.0156 157.674C28.3588 157.378 19 147.836 19 136.108V40.5723C19.0002 28.6583 28.6583 19.0002 40.5723 19H68V22.082Z" fill="#0B7C18"/>
</g>
<defs>
<filter id="filter0_d_618_260549" x="0.509165" y="2.05007" width="175.663" height="175.663" filterUnits="userSpaceOnUse" color-interpolation-filters="sRGB">
<feFlood flood-opacity="0" result="BackgroundImageFix"/>
<feColorMatrix in="SourceAlpha" type="matrix" values="0 0 0 0 0 0 0 0 0 0 0 0 0 0 0 0 0 0 127 0" result="hardAlpha"/>
<feOffset dy="1.5409"/>
<feGaussianBlur stdDeviation="9.24542"/>
<feComposite in2="hardAlpha" operator="out"/>
<feColorMatrix type="matrix" values="0 0 0 0 0.0355208 0 0 0 0 0.775 0 0 0 0 0.120592 0 0 0 0.75 0"/>
<feBlend mode="normal" in2="BackgroundImageFix" result="effect1_dropShadow_618_260549"/>
<feBlend mode="normal" in="SourceGraphic" in2="effect1_dropShadow_618_260549" result="shape"/>
</filter>
</defs>
</svg>
