<svg width="176" height="176" viewBox="0 0 176 176" fill="none" xmlns="http://www.w3.org/2000/svg">
<g filter="url(#filter0_d_1_5367)">
<path d="M42.4554 20.2493H40.1439C30.0913 20.2495 21.9125 28.2713 21.6595 38.2629L21.6536 38.7395V134.276C21.6536 144.488 29.9318 152.767 40.1439 152.767H135.68C145.892 152.767 154.171 144.488 154.171 134.276V38.7395C154.171 28.6871 146.149 20.5083 136.158 20.2551L135.68 20.2493H114.878V17.1672H135.68L136.237 17.1741C147.894 17.4692 157.253 27.0115 157.253 38.7395V134.276L157.245 134.832C156.955 146.304 147.709 155.551 136.237 155.841L135.68 155.849H40.1439L39.5872 155.841C28.1153 155.55 18.8689 146.304 18.5784 134.832L18.5716 134.276V38.7395C18.5718 27.0117 27.9305 17.4695 39.5872 17.1741L40.1439 17.1672H42.4554V20.2493Z" fill="#0B7C18"/>
</g>
<path d="M50.5891 7.82767H53.8723L59.5806 21.7658H59.7907L65.4991 7.82767H68.7823V25.7582H66.2083V12.7831H66.0419L60.7538 25.7319H58.6176L53.3295 12.7743H53.1631V25.7582H50.5891V7.82767ZM75.9258 26.0559C75.0737 26.0559 74.3032 25.8983 73.6145 25.5831C72.9257 25.2621 72.38 24.798 71.9773 24.191C71.5804 23.584 71.3819 22.8398 71.3819 21.9585C71.3819 21.1997 71.5278 20.5751 71.8197 20.0849C72.1115 19.5946 72.5055 19.2064 73.0016 18.9204C73.4977 18.6344 74.0522 18.4185 74.6651 18.2725C75.278 18.1266 75.9025 18.0157 76.5387 17.9398C77.3442 17.8465 77.9979 17.7706 78.4998 17.7122C79.0018 17.648 79.3666 17.5459 79.5942 17.4058C79.8219 17.2657 79.9357 17.0381 79.9357 16.7229V16.6616C79.9357 15.897 79.7197 15.3046 79.2878 14.8843C78.8617 14.4641 78.2255 14.2539 77.3792 14.2539C76.4978 14.2539 75.8033 14.4495 75.2955 14.8405C74.7935 15.2258 74.4462 15.6548 74.2536 16.1275L71.7934 15.5672C72.0853 14.7501 72.5113 14.0905 73.0717 13.5885C73.6378 13.0808 74.2886 12.713 75.0241 12.4854C75.7595 12.2519 76.5329 12.1352 77.3442 12.1352C77.8812 12.1352 78.4502 12.1994 79.0514 12.3278C79.6584 12.4504 80.2246 12.678 80.7499 13.0107C81.2811 13.3434 81.7159 13.8191 82.0544 14.4378C82.393 15.0507 82.5622 15.8474 82.5622 16.8279V25.7582H80.0057V23.9196H79.9007C79.7314 24.2581 79.4775 24.5908 79.139 24.9177C78.8004 25.2445 78.3656 25.516 77.8345 25.7319C77.3033 25.9479 76.6671 26.0559 75.9258 26.0559ZM76.4949 23.9546C77.2187 23.9546 77.8374 23.8116 78.351 23.5256C78.8705 23.2396 79.2645 22.8661 79.533 22.405C79.8073 21.938 79.9444 21.439 79.9444 20.9078V19.1743C79.8511 19.2677 79.6701 19.3553 79.4016 19.437C79.139 19.5129 78.8384 19.58 78.4998 19.6383C78.1613 19.6909 77.8315 19.7405 77.5105 19.7872C77.1895 19.828 76.921 19.8631 76.705 19.8922C76.1972 19.9564 75.7332 20.0644 75.313 20.2162C74.8986 20.3679 74.5659 20.5868 74.3149 20.8728C74.0698 21.153 73.9472 21.5265 73.9472 21.9935C73.9472 22.6414 74.1865 23.1316 74.6651 23.4643C75.1437 23.7912 75.7537 23.9546 76.4949 23.9546ZM88.1737 7.82767V25.7582H85.5559V7.82767H88.1737ZM96.9982 26.0296C95.6733 26.0296 94.5322 25.7465 93.575 25.1803C92.6236 24.6083 91.8881 23.8058 91.3687 22.7727C90.855 21.7337 90.5982 20.5168 90.5982 19.1218C90.5982 17.7443 90.855 16.5303 91.3687 15.4797C91.8881 14.429 92.6119 13.609 93.5399 13.0195C94.4738 12.43 95.5653 12.1352 96.8144 12.1352C97.5731 12.1352 98.3086 12.2607 99.0206 12.5117C99.7327 12.7626 100.372 13.1566 100.938 13.6936C101.504 14.2306 101.951 14.9281 102.278 15.7861C102.604 16.6383 102.768 17.6743 102.768 18.8942V19.8222H92.0778V17.8611H100.203C100.203 17.1723 100.063 16.5624 99.7823 16.0312C99.5022 15.4942 99.1082 15.0711 98.6004 14.7617C98.0984 14.4524 97.5089 14.2977 96.8319 14.2977C96.0964 14.2977 95.4544 14.4787 94.9057 14.8405C94.3629 15.1966 93.9427 15.6635 93.645 16.2414C93.3532 16.8134 93.2072 17.435 93.2072 18.1062V19.6383C93.2072 20.5372 93.3648 21.3018 93.68 21.9322C94.001 22.5626 94.4476 23.0441 95.0196 23.3768C95.5916 23.7036 96.2599 23.8671 97.0245 23.8671C97.5206 23.8671 97.973 23.797 98.3815 23.6569C98.7901 23.511 99.1432 23.2951 99.4409 23.0091C99.7386 22.7231 99.9662 22.3699 100.124 21.9497L102.601 22.3962C102.403 23.1258 102.047 23.7649 101.533 24.3136C101.026 24.8564 100.386 25.2796 99.616 25.5831C98.8514 25.8808 97.9788 26.0296 96.9982 26.0296Z" fill="#0B7C18"/>
<path d="M96.1137 72.1796C97.0643 72.5854 97.9759 72.9968 98.793 73.5804C98.8708 73.636 98.9208 73.8028 98.9097 73.9139C98.8708 74.6143 98.8097 75.3147 98.7541 76.0373C98.8875 76.0707 99.0153 76.0985 99.1432 76.1374C100.36 76.4709 101 77.6771 100.85 78.5776C100.716 79.3891 100.672 80.2118 100.566 81.0289C100.427 82.1129 99.6101 82.9466 98.5373 83.1301C98.3205 83.169 98.0982 83.1801 97.8647 83.2079C97.798 83.697 97.7368 84.1918 97.6701 84.6865C97.3199 87.4102 96.0804 89.6559 94.0181 91.4624C92.9453 92.4018 91.7669 93.1744 90.4051 93.6358C88.554 94.2639 86.7142 94.2083 84.9354 93.419C82.0227 92.1294 79.916 90.0227 78.7487 87.0322C78.3262 85.9872 78.165 84.8755 78.0428 83.7638C78.0205 83.5803 77.9983 83.3969 77.9705 83.2079C77.7426 83.1857 77.5258 83.1745 77.309 83.1412C76.214 82.98 75.3524 82.0406 75.2523 80.94C75.1856 80.2285 75.1412 79.517 75.0189 78.8166C74.7854 77.4548 75.6526 76.3264 76.9032 76.0929C76.9588 76.0818 77.0089 76.0707 77.1089 76.0484C77.0867 75.7538 77.0644 75.4481 77.0422 75.1479C77.0144 74.8089 77.0311 74.4587 76.9588 74.1252C76.8754 73.7361 77.0255 73.5359 77.3424 73.3525C78.7209 72.5576 80.1939 71.9962 81.7225 71.5682C84.2573 70.8567 86.842 70.5788 89.4657 70.74C91.2055 70.8511 92.9175 71.1346 94.574 71.6905C94.6407 71.7127 94.7074 71.7461 94.8241 71.7961C94.524 71.9907 94.2627 72.1741 93.9959 72.3353C92.5951 73.1746 91.061 73.636 89.4768 73.9528C87.6313 74.3253 85.7636 74.5087 83.8793 74.4476C83.0566 74.4198 82.2395 74.3253 81.4168 74.2474C81.2501 74.2308 81.15 74.253 81.0666 74.4198C80.5664 75.4314 79.866 76.2597 78.8321 76.8322C78.9599 77.6382 79.0767 78.4497 79.2156 79.2613C79.4157 80.4453 79.6325 81.6237 79.8437 82.8077C80.0383 83.8582 80.6331 84.6531 81.4946 85.2479C82.0283 85.6148 82.5897 85.9372 83.14 86.2818C83.3623 86.0039 83.5458 85.7371 83.7625 85.5091C84.2072 85.0478 84.7575 84.8032 85.3968 84.8032C87.0477 84.7977 88.693 84.8088 90.3439 84.7977C91.1721 84.7921 91.8225 85.1312 92.3395 85.7704C92.4673 85.926 92.584 86.0928 92.7174 86.2596C93.5735 85.8482 94.3739 85.3869 95.0465 84.7198C95.7135 84.0584 95.947 83.2023 96.1026 82.3241C96.425 80.5564 96.7252 78.7888 97.0309 77.0212C97.0476 76.9156 97.0309 76.7766 96.9753 76.6821C96.186 75.2869 96.0526 73.7805 96.1137 72.1796ZM89.0988 88.9444C89.7158 89.0111 90.2661 88.961 90.7664 88.6386C91.2611 88.3218 91.5335 87.727 91.4167 87.2101C91.2944 86.6598 90.8442 86.2373 90.2216 86.2318C88.6875 86.204 87.1477 86.1984 85.6136 86.2429C84.6297 86.2707 84.135 87.3157 84.6519 88.1495C85.0466 88.7832 85.9582 89.1222 86.7809 88.911C86.7809 88.5163 86.7809 88.1161 86.7809 87.7159C87.5702 87.7159 88.3206 87.7159 89.0988 87.7159C89.0988 88.1328 89.0988 88.5275 89.0988 88.9444ZM77.2868 77.4825C76.6364 77.5326 76.2918 77.9217 76.3585 78.5053C76.4474 79.2946 76.5475 80.0784 76.6642 80.8622C76.7532 81.4569 77.2812 81.846 77.8482 81.7349C77.6592 80.323 77.4758 78.9111 77.2868 77.4825ZM97.9925 81.7682C98.6207 81.8294 99.0709 81.4903 99.1654 80.9233C99.1988 80.7343 99.2265 80.5398 99.2488 80.3452C99.3266 79.7504 99.4155 79.1557 99.4822 78.5554C99.5489 77.955 99.132 77.4881 98.5595 77.527C98.3761 78.9389 98.1871 80.3452 97.9925 81.7682Z" fill="#0B7C18"/>
<path d="M79.6658 93.63C80.4774 95.9757 82.2839 97.1542 84.4462 97.9101C85.2188 98.1769 86.0359 98.327 86.8586 98.5327C86.8586 101.395 86.8586 104.308 86.8586 107.243C80.5885 107.243 74.3351 107.243 68.0595 107.243C68.0539 107.176 68.0372 107.104 68.0372 107.032C68.0928 105.625 68.0761 104.214 68.2151 102.818C68.4819 100.256 69.677 98.2158 71.8782 96.804C73.9627 95.4643 76.2417 94.5916 78.6097 93.9246C78.9599 93.8246 79.3156 93.7301 79.6658 93.63Z" fill="#0B7C18"/>
<path d="M89.0265 98.4772C90.0993 98.3382 91.1332 98.1047 92.1226 97.699C93.6179 97.0875 94.8741 96.1759 95.7024 94.7585C95.9025 94.4194 96.0136 94.0358 96.1804 93.6356C96.3972 93.6856 96.6584 93.7412 96.9141 93.8079C99.2265 94.4305 101.456 95.2532 103.523 96.4816C105.347 97.5655 106.647 99.0608 107.281 101.106C107.731 102.568 107.792 104.069 107.787 105.581C107.787 106.137 107.787 106.687 107.787 107.254C101.522 107.254 95.2799 107.254 89.0265 107.254C89.0265 104.33 89.0265 101.418 89.0265 98.4772Z" fill="#0B7C18"/>
<path d="M99.2545 71.846C95.7248 69.8226 91.9283 68.9555 87.9261 68.9722C83.9295 68.9833 80.1385 69.856 76.5977 71.8348C76.6811 70.7454 76.7589 69.667 76.8423 68.5886C76.9257 67.5547 77.0091 66.5208 77.098 65.4869C77.1313 65.1201 77.1536 64.7476 77.2147 64.3808C77.2759 63.9861 77.4982 63.647 77.8373 63.4692C78.5377 63.1023 79.2547 62.741 79.994 62.4686C81.9173 61.7516 83.9128 61.3402 85.9528 61.129C87.8316 60.9344 89.7049 61.0289 91.567 61.3235C93.4236 61.6126 95.219 62.1017 96.9366 62.8466C97.2924 63.0022 97.637 63.1857 97.9649 63.3913C98.443 63.6915 98.6764 64.1418 98.7209 64.7087C98.8543 66.4819 99.01 68.2496 99.1489 70.0227C99.1934 70.6175 99.2156 71.2178 99.2545 71.846Z" fill="#0B7C18"/>
<path d="M94.713 92.5407C94.713 92.9243 94.7297 93.3022 94.7019 93.6802C94.6908 93.797 94.5851 93.9192 94.4906 94.0193C93.4012 95.181 92.0449 95.8925 90.5163 96.2761C87.9426 96.9153 85.4691 96.6541 83.1289 95.3756C82.4452 94.9976 81.8226 94.5251 81.3001 93.947C81.1889 93.8248 81.1222 93.6302 81.1056 93.4579C81.0778 93.1577 81.0944 92.8464 81.0944 92.5352C85.6302 96.1149 90.1494 96.2539 94.713 92.5407Z" fill="#0B7C18"/>
<path d="M84.0458 75.7702C84.8351 75.7647 85.5855 75.9759 86.3304 76.1927C86.436 76.2205 86.5361 76.2816 86.625 76.3428C86.8862 76.5151 86.9974 76.8264 86.9029 77.0876C86.8029 77.3656 86.5472 77.5212 86.2081 77.4656C85.7356 77.3878 85.2687 77.26 84.7962 77.1821C83.64 76.9931 82.5339 77.26 81.4499 77.6379C81.1887 77.7269 80.9608 77.7102 80.7662 77.499C80.5884 77.3044 80.5328 76.982 80.694 76.7541C80.7996 76.604 80.9663 76.454 81.1331 76.4039C81.8113 76.1983 82.5005 76.0204 83.1898 75.8536C83.4677 75.7925 83.7623 75.798 84.0458 75.7702Z" fill="#0B7C18"/>
<path d="M91.7726 75.7869C92.8843 75.7813 93.7959 76.0648 94.6964 76.415C94.7742 76.4428 94.8465 76.4873 94.9132 76.5373C95.2022 76.7263 95.3134 77.0542 95.1967 77.3322C95.0688 77.6268 94.752 77.7546 94.4018 77.6546C93.9237 77.5156 93.4513 77.3544 92.9621 77.2432C91.9226 77.0042 90.9054 77.1543 89.8882 77.4211C89.7437 77.46 89.5992 77.5045 89.4546 77.4934C89.2156 77.4823 89.0377 77.3489 88.9599 77.1154C88.8765 76.8653 88.9154 76.6262 89.11 76.4539C89.2378 76.3427 89.3935 76.2371 89.5547 76.1927C90.3218 75.9648 91.0944 75.7702 91.7726 75.7869Z" fill="#0B7C18"/>
<path d="M89.099 88.9441C89.099 88.5272 89.099 88.1326 89.099 87.7157C88.3208 87.7157 87.5704 87.7157 86.7811 87.7157C86.7811 88.1159 86.7811 88.5217 86.7811 88.9108C85.9584 89.1165 85.0468 88.7829 84.6522 88.1493C84.1352 87.3155 84.6299 86.2705 85.6138 86.2427C87.148 86.1982 88.6877 86.2037 90.2219 86.2315C90.8444 86.2427 91.2891 86.6651 91.417 87.2099C91.5337 87.7268 91.2613 88.3216 90.7666 88.6384C90.2663 88.9608 89.716 89.0108 89.099 88.9441Z" fill="white"/>
<path d="M77.287 77.4822C77.476 78.9107 77.6594 80.3282 77.8484 81.7401C77.2814 81.8512 76.7533 81.4621 76.6644 80.8674C76.5477 80.0836 76.4532 79.2943 76.3587 78.5105C76.292 77.9213 76.631 77.5322 77.287 77.4822Z" fill="white"/>
<path d="M97.9924 81.7681C98.187 80.3451 98.376 78.9388 98.565 77.5324C99.1375 77.488 99.5544 77.9605 99.4877 78.5608C99.421 79.1556 99.332 79.7503 99.2542 80.3506C99.2264 80.5452 99.2042 80.7342 99.1709 80.9287C99.0708 81.4902 98.6206 81.8292 97.9924 81.7681Z" fill="white"/>
<defs>
<filter id="filter0_d_1_5367" x="0.080759" y="0.217304" width="175.663" height="175.663" filterUnits="userSpaceOnUse" color-interpolation-filters="sRGB">
<feFlood flood-opacity="0" result="BackgroundImageFix"/>
<feColorMatrix in="SourceAlpha" type="matrix" values="0 0 0 0 0 0 0 0 0 0 0 0 0 0 0 0 0 0 127 0" result="hardAlpha"/>
<feOffset dy="1.5409"/>
<feGaussianBlur stdDeviation="9.24542"/>
<feComposite in2="hardAlpha" operator="out"/>
<feColorMatrix type="matrix" values="0 0 0 0 0.0355208 0 0 0 0 0.775 0 0 0 0 0.120592 0 0 0 0.75 0"/>
<feBlend mode="normal" in2="BackgroundImageFix" result="effect1_dropShadow_1_5367"/>
<feBlend mode="normal" in="SourceGraphic" in2="effect1_dropShadow_1_5367" result="shape"/>
</filter>
</defs>
</svg>
