<svg width="177" height="177" viewBox="0 0 177 177" fill="none" xmlns="http://www.w3.org/2000/svg">
<g filter="url(#filter0_d_2001_107545)">
<path d="M42.8837 20.4911H40.5721C30.5196 20.4913 22.3407 28.5131 22.0878 38.5048L22.0819 38.9813V134.517C22.0819 144.73 30.3601 153.008 40.5721 153.009H136.108C146.32 153.009 154.599 144.73 154.599 134.517V38.9813C154.599 29.0273 146.734 20.9115 136.879 20.5077V17.4237C148.436 17.8293 157.681 27.3251 157.682 38.9813V134.517L157.674 135.074C157.383 146.546 148.137 155.792 136.665 156.083L136.108 156.091H40.5721L40.0155 156.083C28.5436 155.792 19.2972 146.546 19.0067 135.074L18.9999 134.517V38.9813C19.0001 27.2535 28.3588 17.7113 40.0155 17.4159L40.5721 17.4091H42.8837V20.4911Z" fill="#0B7C18"/>
</g>
<path d="M51.0176 26V8.06949H62.1366V10.3984H53.7229V15.8616H61.3399V18.1817H53.7229V26H51.0176ZM69.5691 26.2714C68.2441 26.2714 67.1031 25.9883 66.1458 25.4222C65.1944 24.8502 64.459 24.0476 63.9395 23.0145C63.4259 21.9756 63.1691 20.7586 63.1691 19.3636C63.1691 17.9861 63.4259 16.7721 63.9395 15.7215C64.459 14.6709 65.1828 13.8508 66.1108 13.2613C67.0447 12.6718 68.1362 12.377 69.3852 12.377C70.144 12.377 70.8794 12.5025 71.5915 12.7535C72.3036 13.0045 72.9427 13.3984 73.5089 13.9354C74.0751 14.4724 74.5216 15.1699 74.8484 16.0279C75.1753 16.8801 75.3387 17.9161 75.3387 19.136V20.064H64.6487V18.1029H72.7735C72.7735 17.4141 72.6334 16.8042 72.3532 16.2731C72.073 15.7361 71.6791 15.3129 71.1713 15.0036C70.6693 14.6942 70.0798 14.5395 69.4027 14.5395C68.6673 14.5395 68.0253 14.7205 67.4766 15.0824C66.9338 15.4384 66.5135 15.9053 66.2159 16.4832C65.924 17.0552 65.7781 17.6768 65.7781 18.348V19.8802C65.7781 20.779 65.9357 21.5436 66.2509 22.174C66.5719 22.8044 67.0184 23.2859 67.5904 23.6186C68.1624 23.9455 68.8307 24.1089 69.5953 24.1089C70.0915 24.1089 70.5438 24.0389 70.9524 23.8988C71.361 23.7528 71.7141 23.5369 72.0118 23.2509C72.3094 22.9649 72.5371 22.6118 72.6947 22.1915L75.1724 22.638C74.9739 23.3676 74.6179 24.0067 74.1042 24.5554C73.5964 25.0982 72.9573 25.5214 72.1869 25.8249C71.4222 26.1226 70.5497 26.2714 69.5691 26.2714ZM77.7501 26V12.5521H80.2629V14.7409H80.4292C80.7094 13.9996 81.1676 13.4218 81.8038 13.0074C82.44 12.5871 83.2017 12.377 84.0888 12.377C84.9877 12.377 85.7407 12.5871 86.3477 13.0074C86.9605 13.4276 87.4129 14.0055 87.7047 14.7409H87.8448C88.1658 14.023 88.6765 13.451 89.3769 13.0249C90.0774 12.593 90.912 12.377 91.8809 12.377C93.1008 12.377 94.096 12.7593 94.8664 13.5239C95.6427 14.2886 96.0308 15.4413 96.0308 16.9822V26H93.4131V17.2274C93.4131 16.3168 93.165 15.6573 92.6689 15.2487C92.1728 14.8401 91.5803 14.6358 90.8916 14.6358C90.0394 14.6358 89.3769 14.8985 88.9042 15.4238C88.4314 15.9433 88.195 16.6116 88.195 17.4287V26H85.586V17.061C85.586 16.3314 85.3583 15.7448 84.9031 15.3012C84.4478 14.8576 83.8554 14.6358 83.1258 14.6358C82.6297 14.6358 82.1715 14.7672 81.7512 15.0298C81.3368 15.2866 81.0012 15.6456 80.7444 16.1067C80.4934 16.5678 80.3679 17.1019 80.3679 17.7089V26H77.7501ZM102.96 26.2977C102.108 26.2977 101.337 26.1401 100.649 25.8249C99.9598 25.5039 99.4141 25.0399 99.0114 24.4328C98.6145 23.8258 98.416 23.0816 98.416 22.2003C98.416 21.4415 98.5619 20.817 98.8538 20.3267C99.1456 19.8364 99.5396 19.4482 100.036 19.1622C100.532 18.8762 101.086 18.6603 101.699 18.5144C102.312 18.3684 102.937 18.2575 103.573 18.1817C104.378 18.0883 105.032 18.0124 105.534 17.954C106.036 17.8898 106.401 17.7877 106.628 17.6476C106.856 17.5075 106.97 17.2799 106.97 16.9647V16.9034C106.97 16.1388 106.754 15.5464 106.322 15.1261C105.896 14.7059 105.26 14.4958 104.413 14.4958C103.532 14.4958 102.837 14.6913 102.33 15.0824C101.828 15.4676 101.48 15.8966 101.288 16.3694L98.8275 15.809C99.1193 14.9919 99.5454 14.3323 100.106 13.8304C100.672 13.3226 101.323 12.9549 102.058 12.7272C102.794 12.4938 103.567 12.377 104.378 12.377C104.915 12.377 105.484 12.4412 106.086 12.5696C106.693 12.6922 107.259 12.9198 107.784 13.2525C108.315 13.5852 108.75 14.0609 109.089 14.6796C109.427 15.2925 109.596 16.0892 109.596 17.0698V26H107.04V24.1614H106.935C106.765 24.5 106.512 24.8326 106.173 25.1595C105.835 25.4864 105.4 25.7578 104.869 25.9737C104.337 26.1897 103.701 26.2977 102.96 26.2977ZM103.529 24.1964C104.253 24.1964 104.871 24.0534 105.385 23.7674C105.905 23.4814 106.299 23.1079 106.567 22.6468C106.841 22.1798 106.979 21.6808 106.979 21.1497V19.4161C106.885 19.5095 106.704 19.5971 106.436 19.6788C106.173 19.7547 105.872 19.8218 105.534 19.8802C105.195 19.9327 104.866 19.9823 104.545 20.029C104.224 20.0699 103.955 20.1049 103.739 20.1341C103.231 20.1983 102.767 20.3062 102.347 20.458C101.933 20.6098 101.6 20.8286 101.349 21.1146C101.104 21.3948 100.981 21.7684 100.981 22.2353C100.981 22.8832 101.221 23.3735 101.699 23.7062C102.178 24.033 102.788 24.1964 103.529 24.1964ZM115.208 8.06949V26H112.59V8.06949H115.208ZM124.032 26.2714C122.707 26.2714 121.566 25.9883 120.609 25.4222C119.658 24.8502 118.922 24.0476 118.403 23.0145C117.889 21.9756 117.632 20.7586 117.632 19.3636C117.632 17.9861 117.889 16.7721 118.403 15.7215C118.922 14.6709 119.646 13.8508 120.574 13.2613C121.508 12.6718 122.599 12.377 123.848 12.377C124.607 12.377 125.343 12.5025 126.055 12.7535C126.767 13.0045 127.406 13.3984 127.972 13.9354C128.538 14.4724 128.985 15.1699 129.312 16.0279C129.638 16.8801 129.802 17.9161 129.802 19.136V20.064H119.112V18.1029H127.237C127.237 17.4141 127.097 16.8042 126.816 16.2731C126.536 15.7361 126.142 15.3129 125.634 15.0036C125.133 14.6942 124.543 14.5395 123.866 14.5395C123.131 14.5395 122.488 14.7205 121.94 15.0824C121.397 15.4384 120.977 15.9053 120.679 16.4832C120.387 17.0552 120.241 17.6768 120.241 18.348V19.8802C120.241 20.779 120.399 21.5436 120.714 22.174C121.035 22.8044 121.482 23.2859 122.054 23.6186C122.626 23.9455 123.294 24.1089 124.059 24.1089C124.555 24.1089 125.007 24.0389 125.416 23.8988C125.824 23.7528 126.177 23.5369 126.475 23.2509C126.773 22.9649 127 22.6118 127.158 22.1915L129.636 22.638C129.437 23.3676 129.081 24.0067 128.567 24.5554C128.06 25.0982 127.421 25.5214 126.65 25.8249C125.885 26.1226 125.013 26.2714 124.032 26.2714Z" fill="#0B7C18"/>
<path d="M74.3028 107.873C73.9648 107.795 73.632 107.732 73.3044 107.639C71.6196 107.155 69.94 106.672 68.2552 106.183C67.964 106.1 67.834 105.923 67.8652 105.595C67.9484 104.716 68.0368 103.843 68.1512 102.969C68.51 100.239 69.6852 97.8055 70.9072 95.3875C71.656 93.9055 72.3736 92.4131 73.0652 90.9051C73.5644 89.8079 73.7724 88.6171 73.9492 87.4263C74.1156 86.3239 74.2768 85.2267 74.4068 84.1191C74.5368 83.0114 74.6304 81.9038 74.7344 80.791C74.8592 79.4546 74.958 78.1182 75.0984 76.787C75.296 74.9514 75.66 73.1574 76.3984 71.4518C77.1732 69.6734 78.2496 68.103 79.7108 66.8238C81.4216 65.3262 83.4132 64.3798 85.6388 63.9118C86.84 63.6674 88.0568 63.5842 89.2736 63.6674C91.5669 63.8182 93.6885 64.5358 95.6021 65.8046C97.9993 67.3958 99.5957 69.6058 100.578 72.289C101.052 73.5734 101.353 74.8942 101.504 76.2514C101.608 77.2186 101.681 78.1962 101.769 79.1634C101.884 80.4114 101.993 81.6594 102.123 82.9022C102.248 84.1035 102.393 85.2995 102.549 86.5007C102.835 88.7315 103.397 90.8739 104.468 92.8811C105.342 94.5191 106.163 96.1883 106.954 97.8679C107.651 99.3447 108.171 100.894 108.451 102.506C108.613 103.411 108.659 104.337 108.789 105.252C108.909 106.084 108.685 106.094 108.077 106.266C106.304 106.776 104.536 107.285 102.762 107.79C102.7 107.805 102.632 107.805 102.58 107.816C102.908 107.01 103.272 106.224 103.548 105.413C103.828 104.592 104.031 103.744 104.239 102.902C104.286 102.704 104.26 102.46 104.182 102.272C104.078 102.018 103.834 101.898 103.542 101.929C103.262 101.955 103.048 102.148 102.955 102.475C102.726 103.297 102.56 104.139 102.263 104.93C101.852 106.016 101.348 107.072 100.87 108.133C100.833 108.216 100.714 108.299 100.62 108.315C99.1329 108.622 97.6457 108.949 96.1481 109.199C94.9105 109.407 93.6521 109.537 92.4041 109.672C90.6153 109.87 88.816 109.896 87.0168 109.833C85.6492 109.786 84.2764 109.662 82.914 109.506C81.4944 109.339 80.08 109.116 78.6708 108.882C77.8492 108.741 77.038 108.533 76.232 108.336C76.1124 108.304 75.9876 108.18 75.9304 108.06C75.0724 106.318 74.3288 104.534 73.944 102.621C73.8556 102.174 73.632 101.94 73.2992 101.914C72.7844 101.877 72.4828 102.314 72.6024 102.896C72.9404 104.498 73.4604 106.037 74.1728 107.514C74.2144 107.597 74.256 107.686 74.2924 107.774C74.308 107.8 74.3028 107.821 74.3028 107.873ZM80.184 80.063C80.184 80.5986 80.1788 81.1134 80.184 81.6282C80.2048 82.845 80.418 84.0255 80.808 85.1747C81.6036 87.5303 83.0284 89.3763 85.2332 90.5671C86.866 91.4511 88.5872 91.6643 90.3605 91.0559C92.5289 90.3071 94.0629 88.8199 95.1393 86.8335C95.7945 85.6271 96.2209 84.3323 96.3613 82.9594C96.4497 82.1014 96.4549 81.2382 96.5017 80.375C96.5121 80.1722 96.4081 80.0578 96.2417 79.9434C95.4773 79.4234 94.6921 78.9346 93.9797 78.3522C92.5913 77.2134 91.5149 75.8094 90.7869 74.161C90.5633 73.6566 90.3865 73.1366 90.168 72.5698C88.9928 74.3846 87.7604 76.1162 86.0236 77.4214C84.2764 78.7266 82.316 79.5378 80.184 80.063ZM88.1244 99.5943C88.8316 99.5371 89.5388 99.5215 90.2356 99.4175C91.8529 99.1887 93.3453 98.5907 94.7181 97.7119C95.0197 97.5195 95.3161 97.2959 95.5813 97.0567C95.8309 96.8331 95.8257 96.4223 95.6125 96.1571C95.3993 95.8867 95.0717 95.8295 94.7545 96.0167C94.5985 96.1103 94.4581 96.2247 94.3073 96.3287C92.0453 97.8367 89.5804 98.4555 86.8712 98.0915C85.1136 97.8575 83.5484 97.1711 82.1652 96.0843C80.2724 94.6023 78.9828 92.6679 78.0884 90.4527C77.3864 88.7107 77.012 86.9063 76.856 85.0447C76.8196 84.6287 76.5232 84.3635 76.1384 84.3947C75.7484 84.4259 75.4728 84.7275 75.5196 85.1383C75.6132 85.9703 75.6808 86.8075 75.8576 87.6239C76.0656 88.5703 76.3308 89.5115 76.6532 90.4319C77.5892 93.0943 79.0764 95.3927 81.3072 97.1659C83.304 98.7415 85.5868 99.5111 88.1244 99.5943ZM88.0984 69.4706C87.8644 69.4914 87.3964 69.5174 86.9388 69.585C84.8848 69.8866 83.1428 70.833 81.692 72.289C80.548 73.4382 79.742 74.8214 79.2948 76.3814C79.118 77.0054 79.0296 77.6606 78.9516 78.3106C78.9048 78.711 79.2324 79.0282 79.6016 79.0386C79.9968 79.049 80.262 78.789 80.2984 78.3574C80.3192 78.1026 80.3504 77.8426 80.3972 77.5878C80.7924 75.4714 81.8844 73.7762 83.5588 72.4554C84.4896 71.7222 85.5452 71.249 86.7048 71.0046C88.114 70.703 89.5076 70.7498 90.8597 71.2594C93.3453 72.1954 95.0249 73.953 95.9193 76.4386C96.1481 77.0782 96.2209 77.775 96.3561 78.451C96.4185 78.7682 96.6941 79.0334 97.0113 79.0438C97.3129 79.0594 97.6353 78.8254 97.6561 78.4926C97.6769 78.1182 97.6613 77.7282 97.5833 77.3642C97.1153 75.201 96.1273 73.3186 94.4477 71.847C92.7005 70.3234 90.6725 69.4862 88.0984 69.4706ZM88.166 106.588C88.8576 106.505 89.5596 106.469 90.2408 106.328C90.8701 106.204 91.4785 105.985 92.0869 105.772C92.4301 105.652 92.6017 105.195 92.4769 104.862C92.3469 104.508 91.9933 104.352 91.6085 104.477C91.5045 104.514 91.3953 104.55 91.2913 104.592C89.5856 105.257 87.8228 105.299 86.0444 105.028C84.734 104.831 83.512 104.358 82.3628 103.708C82.082 103.552 81.8116 103.385 81.5256 103.245C81.25 103.11 80.9536 103.203 80.7664 103.448C80.4856 103.817 80.5948 104.238 81.0628 104.534C81.9052 105.07 82.7944 105.507 83.7356 105.834C85.1708 106.339 86.6528 106.526 88.166 106.588ZM93.8289 102.636C93.9849 102.59 94.1461 102.558 94.2917 102.496C96.2885 101.633 97.9993 100.395 99.2993 98.6323C99.6529 98.1539 99.9701 97.6495 100.251 97.1243C100.422 96.8071 100.246 96.4431 99.9285 96.2715C99.6373 96.1155 99.2993 96.1935 99.0757 96.4795C98.9977 96.5835 98.9301 96.6927 98.8625 96.8071C97.9057 98.3931 96.6525 99.6775 95.0145 100.572C94.5205 100.842 94.0057 101.061 93.5065 101.316C93.2257 101.456 93.0697 101.789 93.1373 102.049C93.2361 102.402 93.4857 102.61 93.8289 102.636ZM88.4832 96.4275C88.7276 96.4119 89.1332 96.4171 89.5232 96.3547C90.0224 96.2767 90.5165 96.1571 91.0053 96.0219C91.2705 95.9491 91.4005 95.7307 91.4265 95.4551C91.4525 95.1691 91.3537 94.9403 91.1145 94.7895C90.8545 94.6231 90.5841 94.6907 90.3136 94.7739C89.1228 95.1379 87.9164 95.1587 86.7152 94.8675C86.1328 94.7271 85.5764 94.4827 85.0096 94.2799C84.552 94.1187 84.136 94.3579 84.0736 94.8311C84.0372 95.1275 84.2036 95.4083 84.552 95.5903C85.7324 96.2143 87.0116 96.4171 88.4832 96.4275ZM80.6156 99.2303C80.2724 99.2667 80.0488 99.4331 79.9552 99.7503C79.8616 100.073 80.002 100.405 80.3868 100.634C81.1096 101.061 81.8376 101.472 82.576 101.867C82.7632 101.966 83.0024 102.028 83.2156 102.018C83.538 102.002 83.7616 101.732 83.8136 101.399C83.8604 101.108 83.7096 100.853 83.408 100.691C82.6228 100.27 81.8428 99.8439 81.0628 99.4227C80.9172 99.3447 80.7612 99.2927 80.6156 99.2303Z" fill="#0B7C18"/>
<path d="M88.1245 99.5943C85.5869 99.5111 83.3041 98.7415 81.3125 97.1555C79.0817 95.3823 77.5945 93.0839 76.6585 90.4214C76.3361 89.5062 76.0709 88.565 75.8629 87.6134C75.6861 86.8022 75.6185 85.9598 75.5249 85.1278C75.4781 84.717 75.7537 84.4102 76.1437 84.3842C76.5285 84.3582 76.8301 84.6182 76.8613 85.0342C77.0173 86.8958 77.3917 88.7054 78.0937 90.4422C78.9881 92.6627 80.2725 94.5919 82.1705 96.0739C83.5537 97.1607 85.1241 97.8419 86.8765 98.0811C89.5805 98.4451 92.0505 97.8263 94.3125 96.3183C94.4633 96.2195 94.6037 96.0999 94.7597 96.0063C95.0769 95.8191 95.4045 95.8763 95.6177 96.1467C95.8257 96.4119 95.831 96.8175 95.5865 97.0463C95.3213 97.2907 95.0249 97.5091 94.7233 97.7015C93.3505 98.5803 91.8581 99.1783 90.2409 99.4071C89.5389 99.5215 88.8317 99.5423 88.1245 99.5943Z" fill="white"/>
<path d="M88.0985 69.4706C90.6725 69.4862 92.7005 70.3234 94.4477 71.8522C96.1273 73.3238 97.1153 75.2062 97.5833 77.3694C97.6613 77.7334 97.6821 78.1234 97.6561 78.4978C97.6353 78.8306 97.3129 79.0646 97.0113 79.049C96.6941 79.0334 96.4185 78.7682 96.3561 78.4562C96.2209 77.7802 96.1481 77.0834 95.9193 76.4438C95.0249 73.9582 93.3453 72.2006 90.8597 71.2646C89.5077 70.755 88.1141 70.7082 86.7049 71.0098C85.5505 71.2594 84.4897 71.7326 83.5589 72.4606C81.8793 73.7814 80.7925 75.4766 80.3973 77.593C80.3505 77.8478 80.3193 78.1026 80.2985 78.3626C80.2621 78.7942 79.9969 79.0542 79.6017 79.0438C79.2325 79.0334 78.9049 78.7162 78.9517 78.3158C79.0297 77.6658 79.1181 77.0106 79.2949 76.3866C79.7421 74.8214 80.5481 73.4434 81.6921 72.2942C83.1429 70.8382 84.8849 69.8918 86.9389 69.5902C87.3965 69.5226 87.8645 69.4966 88.0985 69.4706Z" fill="white"/>
<path d="M88.1662 106.588C86.6478 106.526 85.1658 106.344 83.7358 105.839C82.7946 105.507 81.9054 105.07 81.063 104.539C80.595 104.243 80.4858 103.822 80.7666 103.453C80.9486 103.208 81.2502 103.12 81.5258 103.25C81.8118 103.39 82.0874 103.557 82.363 103.713C83.5174 104.363 84.7394 104.836 86.0446 105.033C87.823 105.304 89.5858 105.262 91.2914 104.597C91.3954 104.555 91.4994 104.519 91.6086 104.482C91.9934 104.357 92.347 104.519 92.477 104.867C92.6018 105.2 92.4302 105.657 92.087 105.777C91.4786 105.985 90.865 106.203 90.241 106.333C89.565 106.463 88.863 106.505 88.1662 106.588Z" fill="white"/>
<path d="M93.8291 102.636C93.4807 102.61 93.2363 102.402 93.1479 102.049C93.0803 101.789 93.2363 101.456 93.5171 101.316C94.0163 101.061 94.5363 100.842 95.0251 100.572C96.6579 99.6827 97.9111 98.3931 98.8731 96.8071C98.9407 96.6979 99.0083 96.5835 99.0863 96.4795C99.3099 96.1935 99.6479 96.1103 99.9391 96.2715C100.256 96.4431 100.433 96.8071 100.262 97.1243C99.9807 97.6443 99.6635 98.1539 99.3099 98.6323C98.0099 100.395 96.2991 101.633 94.3023 102.496C94.1463 102.558 93.9851 102.59 93.8291 102.636Z" fill="white"/>
<path d="M88.4833 96.4274C87.0117 96.417 85.7377 96.209 84.5521 95.5902C84.2037 95.4082 84.0373 95.1274 84.0737 94.831C84.1361 94.3578 84.5521 94.1134 85.0097 94.2798C85.5765 94.4826 86.1329 94.727 86.7153 94.8674C87.9165 95.1638 89.1229 95.1378 90.3137 94.7738C90.5789 94.6906 90.8545 94.623 91.1145 94.7894C91.3537 94.9402 91.4525 95.169 91.4265 95.455C91.4005 95.7306 91.2705 95.949 91.0053 96.0218C90.5165 96.157 90.0225 96.2766 89.5233 96.3546C89.1281 96.4222 88.7277 96.4118 88.4833 96.4274Z" fill="white"/>
<path d="M80.6156 99.2303C80.7664 99.2927 80.9172 99.3447 81.0576 99.4175C81.8428 99.8387 82.6228 100.265 83.4028 100.686C83.7096 100.853 83.8552 101.102 83.8084 101.394C83.7564 101.726 83.538 101.997 83.2104 102.012C82.9972 102.023 82.758 101.96 82.5708 101.862C81.8324 101.466 81.1044 101.056 80.3816 100.629C79.9968 100.406 79.8564 100.073 79.95 99.7451C80.0488 99.4331 80.2724 99.2667 80.6156 99.2303Z" fill="white"/>
<defs>
<filter id="filter0_d_2001_107545" x="0.509878" y="0.459058" width="175.662" height="175.662" filterUnits="userSpaceOnUse" color-interpolation-filters="sRGB">
<feFlood flood-opacity="0" result="BackgroundImageFix"/>
<feColorMatrix in="SourceAlpha" type="matrix" values="0 0 0 0 0 0 0 0 0 0 0 0 0 0 0 0 0 0 127 0" result="hardAlpha"/>
<feOffset dy="1.54"/>
<feGaussianBlur stdDeviation="9.245"/>
<feComposite in2="hardAlpha" operator="out"/>
<feColorMatrix type="matrix" values="0 0 0 0 0.0352941 0 0 0 0 0.776471 0 0 0 0 0.121569 0 0 0 1 0"/>
<feBlend mode="normal" in2="BackgroundImageFix" result="effect1_dropShadow_2001_107545"/>
<feBlend mode="normal" in="SourceGraphic" in2="effect1_dropShadow_2001_107545" result="shape"/>
</filter>
</defs>
</svg>
