<svg width="177" height="176" viewBox="0 0 177 176" fill="none" xmlns="http://www.w3.org/2000/svg">
<g filter="url(#filter0_d_1_5386)">
<path d="M42.9547 20.2493H40.6432C30.4313 20.2495 22.1532 28.5276 22.153 38.7395V134.276C22.153 144.488 30.4312 152.767 40.6432 152.767H136.179C146.392 152.767 154.671 144.488 154.671 134.276V38.7395C154.67 28.7856 146.805 20.6698 136.95 20.2659V17.1819C148.507 17.5875 157.752 27.0833 157.753 38.7395V134.276L157.745 134.832C157.454 146.304 148.208 155.551 136.736 155.841L136.179 155.849H40.6432L40.0865 155.841C28.6146 155.55 19.3682 146.304 19.0778 134.832L19.0709 134.276V38.7395C19.0711 27.0117 28.4299 17.4695 40.0865 17.1741L40.6432 17.1672H42.9547V20.2493Z" fill="black" fill-opacity="0.5" shape-rendering="crispEdges"/>
</g>
<path d="M51.0886 25.7582V7.82767H62.2076V10.1565H53.794V15.6197H61.4109V17.9398H53.794V25.7582H51.0886ZM69.6401 26.0296C68.3152 26.0296 67.1741 25.7465 66.2169 25.1803C65.2655 24.6083 64.53 23.8058 64.0106 22.7727C63.4969 21.7337 63.2401 20.5168 63.2401 19.1218C63.2401 17.7443 63.4969 16.5303 64.0106 15.4797C64.53 14.429 65.2538 13.609 66.1818 13.0195C67.1157 12.43 68.2072 12.1352 69.4563 12.1352C70.215 12.1352 70.9505 12.2607 71.6626 12.5117C72.3746 12.7626 73.0138 13.1566 73.5799 13.6936C74.1461 14.2306 74.5926 14.9281 74.9195 15.7861C75.2463 16.6383 75.4098 17.6743 75.4098 18.8942V19.8222H64.7197V17.8611H72.8445C72.8445 17.1723 72.7044 16.5624 72.4243 16.0312C72.1441 15.4942 71.7501 15.0711 71.2423 14.7617C70.7404 14.4524 70.1508 14.2977 69.4738 14.2977C68.7383 14.2977 68.0963 14.4787 67.5476 14.8405C67.0048 15.1966 66.5846 15.6635 66.2869 16.2414C65.9951 16.8134 65.8492 17.435 65.8492 18.1062V19.6383C65.8492 20.5372 66.0067 21.3018 66.3219 21.9322C66.643 22.5626 67.0895 23.0441 67.6615 23.3768C68.2335 23.7036 68.9018 23.8671 69.6664 23.8671C70.1625 23.8671 70.6149 23.797 71.0234 23.6569C71.432 23.511 71.7851 23.2951 72.0828 23.0091C72.3805 22.7231 72.6081 22.3699 72.7657 21.9497L75.2434 22.3962C75.045 23.1258 74.6889 23.7649 74.1753 24.3136C73.6675 24.8564 73.0284 25.2796 72.2579 25.5831C71.4933 25.8808 70.6207 26.0296 69.6401 26.0296ZM77.8212 25.7582V12.3103H80.3339V14.4991H80.5003C80.7804 13.7578 81.2386 13.18 81.8748 12.7656C82.511 12.3453 83.2727 12.1352 84.1599 12.1352C85.0588 12.1352 85.8117 12.3453 86.4187 12.7656C87.0316 13.1858 87.4839 13.7636 87.7758 14.4991H87.9158C88.2369 13.7812 88.7476 13.2092 89.448 12.7831C90.1484 12.3512 90.9831 12.1352 91.952 12.1352C93.1718 12.1352 94.167 12.5175 94.9375 13.2821C95.7137 14.0467 96.1019 15.1995 96.1019 16.7404V25.7582H93.4841V16.9855C93.4841 16.075 93.236 15.4155 92.7399 15.0069C92.2438 14.5983 91.6514 14.394 90.9626 14.394C90.1105 14.394 89.448 14.6567 88.9752 15.182C88.5024 15.7015 88.2661 16.3698 88.2661 17.1869V25.7582H85.657V16.8192C85.657 16.0896 85.4294 15.503 84.9741 15.0594C84.5189 14.6158 83.9264 14.394 83.1968 14.394C82.7007 14.394 82.2425 14.5253 81.8223 14.788C81.4079 15.0448 81.0723 15.4038 80.8154 15.8649C80.5645 16.326 80.439 16.86 80.439 17.4671V25.7582H77.8212ZM103.031 26.0559C102.179 26.0559 101.408 25.8983 100.72 25.5831C100.031 25.2621 99.4851 24.798 99.0824 24.191C98.6855 23.584 98.4871 22.8398 98.4871 21.9585C98.4871 21.1997 98.633 20.5751 98.9248 20.0849C99.2166 19.5946 99.6106 19.2064 100.107 18.9204C100.603 18.6344 101.157 18.4185 101.77 18.2725C102.383 18.1266 103.008 18.0157 103.644 17.9398C104.449 17.8465 105.103 17.7706 105.605 17.7122C106.107 17.648 106.472 17.5459 106.699 17.4058C106.927 17.2657 107.041 17.0381 107.041 16.7229V16.6616C107.041 15.897 106.825 15.3046 106.393 14.8843C105.967 14.4641 105.331 14.2539 104.484 14.2539C103.603 14.2539 102.908 14.4495 102.401 14.8405C101.899 15.2258 101.551 15.6548 101.359 16.1275L98.8985 15.5672C99.1904 14.7501 99.6165 14.0905 100.177 13.5885C100.743 13.0808 101.394 12.713 102.129 12.4854C102.865 12.2519 103.638 12.1352 104.449 12.1352C104.986 12.1352 105.555 12.1994 106.157 12.3278C106.764 12.4504 107.33 12.678 107.855 13.0107C108.386 13.3434 108.821 13.8191 109.16 14.4378C109.498 15.0507 109.667 15.8474 109.667 16.8279V25.7582H107.111V23.9196H107.006C106.837 24.2581 106.583 24.5908 106.244 24.9177C105.906 25.2445 105.471 25.516 104.94 25.7319C104.408 25.9479 103.772 26.0559 103.031 26.0559ZM103.6 23.9546C104.324 23.9546 104.943 23.8116 105.456 23.5256C105.976 23.2396 106.37 22.8661 106.638 22.405C106.912 21.938 107.05 21.439 107.05 20.9078V19.1743C106.956 19.2677 106.775 19.3553 106.507 19.437C106.244 19.5129 105.944 19.58 105.605 19.6383C105.266 19.6909 104.937 19.7405 104.616 19.7872C104.295 19.828 104.026 19.8631 103.81 19.8922C103.302 19.9564 102.838 20.0644 102.418 20.2162C102.004 20.3679 101.671 20.5868 101.42 20.8728C101.175 21.153 101.052 21.5265 101.052 21.9935C101.052 22.6414 101.292 23.1316 101.77 23.4643C102.249 23.7912 102.859 23.9546 103.6 23.9546ZM115.279 7.82767V25.7582H112.661V7.82767H115.279ZM124.103 26.0296C122.778 26.0296 121.637 25.7465 120.68 25.1803C119.729 24.6083 118.993 23.8058 118.474 22.7727C117.96 21.7337 117.703 20.5168 117.703 19.1218C117.703 17.7443 117.96 16.5303 118.474 15.4797C118.993 14.429 119.717 13.609 120.645 13.0195C121.579 12.43 122.67 12.1352 123.919 12.1352C124.678 12.1352 125.414 12.2607 126.126 12.5117C126.838 12.7626 127.477 13.1566 128.043 13.6936C128.609 14.2306 129.056 14.9281 129.383 15.7861C129.71 16.6383 129.873 17.6743 129.873 18.8942V19.8222H119.183V17.8611H127.308C127.308 17.1723 127.168 16.5624 126.887 16.0312C126.607 15.4942 126.213 15.0711 125.706 14.7617C125.204 14.4524 124.614 14.2977 123.937 14.2977C123.202 14.2977 122.56 14.4787 122.011 14.8405C121.468 15.1966 121.048 15.6635 120.75 16.2414C120.458 16.8134 120.312 17.435 120.312 18.1062V19.6383C120.312 20.5372 120.47 21.3018 120.785 21.9322C121.106 22.5626 121.553 23.0441 122.125 23.3768C122.697 23.7036 123.365 23.8671 124.13 23.8671C124.626 23.8671 125.078 23.797 125.487 23.6569C125.895 23.511 126.248 23.2951 126.546 23.0091C126.844 22.7231 127.071 22.3699 127.229 21.9497L129.707 22.3962C129.508 23.1258 129.152 23.7649 128.638 24.3136C128.131 24.8564 127.492 25.2796 126.721 25.5831C125.957 25.8808 125.084 26.0296 124.103 26.0296Z" fill="black" fill-opacity="0.5"/>
<path d="M74.3738 107.631C74.0358 107.553 73.703 107.491 73.3754 107.397C71.6906 106.913 70.011 106.43 68.3262 105.941C68.035 105.858 67.905 105.681 67.9362 105.353C68.0194 104.474 68.1078 103.601 68.2222 102.727C68.581 99.9973 69.7562 97.5637 70.9782 95.1457C71.727 93.6637 72.4446 92.1713 73.1362 90.6633C73.6354 89.566 73.8434 88.3752 74.0202 87.1844C74.1866 86.082 74.3478 84.9848 74.4778 83.8772C74.6079 82.7696 74.7014 81.662 74.8054 80.5492C74.9303 79.2128 75.0291 77.8764 75.1695 76.5452C75.3671 74.7096 75.7311 72.9156 76.4695 71.21C77.2443 69.4316 78.3207 67.8612 79.7819 66.582C81.4927 65.0844 83.4843 64.138 85.7099 63.67C86.9111 63.4256 88.1279 63.3424 89.3447 63.4256C91.6379 63.5764 93.7595 64.294 95.6731 65.5628C98.0703 67.154 99.6667 69.364 100.65 72.0472C101.123 73.3316 101.424 74.6524 101.575 76.0096C101.679 76.9768 101.752 77.9544 101.84 78.9216C101.955 80.1696 102.064 81.4176 102.194 82.6604C102.319 83.8616 102.464 85.0576 102.62 86.2588C102.906 88.4896 103.468 90.6321 104.539 92.6393C105.413 94.2773 106.234 95.9465 107.025 97.6261C107.722 99.1029 108.242 100.652 108.522 102.264C108.684 103.169 108.73 104.095 108.86 105.01C108.98 105.842 108.756 105.852 108.148 106.024C106.375 106.534 104.607 107.043 102.834 107.548C102.771 107.563 102.704 107.563 102.652 107.574C102.979 106.768 103.343 105.982 103.619 105.171C103.9 104.35 104.102 103.502 104.31 102.66C104.357 102.462 104.331 102.218 104.253 102.03C104.149 101.776 103.905 101.656 103.614 101.687C103.333 101.713 103.12 101.906 103.026 102.233C102.797 103.055 102.631 103.897 102.334 104.688C101.924 105.774 101.419 106.83 100.941 107.891C100.904 107.974 100.785 108.057 100.691 108.073C99.2039 108.38 97.7167 108.707 96.2191 108.957C94.9815 109.165 93.7231 109.295 92.4751 109.43C90.6863 109.628 88.8871 109.654 87.0879 109.591C85.7203 109.545 84.3475 109.42 82.9851 109.264C81.5655 109.097 80.1511 108.874 78.7419 108.64C77.9203 108.499 77.1091 108.291 76.3031 108.094C76.1835 108.062 76.0587 107.938 76.0015 107.818C75.1435 106.076 74.3998 104.292 74.015 102.379C73.9266 101.932 73.703 101.698 73.3702 101.672C72.8554 101.635 72.5538 102.072 72.6734 102.654C73.0114 104.256 73.5314 105.795 74.2438 107.272C74.2854 107.355 74.327 107.444 74.3634 107.532C74.379 107.558 74.3738 107.579 74.3738 107.631ZM80.2551 79.8212C80.2551 80.3568 80.2499 80.8716 80.2551 81.3864C80.2759 82.6032 80.4891 83.7836 80.8791 84.9328C81.6747 87.2884 83.0995 89.1344 85.3043 90.3253C86.9371 91.2093 88.6583 91.4225 90.4315 90.8141C92.5999 90.0652 94.1339 88.578 95.2103 86.5916C95.8655 85.3852 96.2919 84.0904 96.4323 82.7176C96.5207 81.8596 96.5259 80.9964 96.5727 80.1332C96.5831 79.9304 96.4791 79.816 96.3127 79.7016C95.5483 79.1816 94.7631 78.6928 94.0507 78.1104C92.6623 76.9716 91.5859 75.5676 90.8579 73.9192C90.6343 73.4148 90.4575 72.8948 90.2391 72.328C89.0639 74.1428 87.8315 75.8744 86.0947 77.1796C84.3475 78.4848 82.3871 79.296 80.2551 79.8212ZM88.1955 99.3525C88.9027 99.2953 89.6099 99.2797 90.3067 99.1757C91.9239 98.9469 93.4163 98.3489 94.7891 97.4701C95.0907 97.2777 95.3871 97.0541 95.6523 96.8149C95.9019 96.5913 95.8967 96.1805 95.6835 95.9153C95.4703 95.6449 95.1427 95.5877 94.8255 95.7749C94.6695 95.8685 94.5291 95.9829 94.3783 96.0869C92.1163 97.5949 89.6515 98.2137 86.9423 97.8497C85.1847 97.6157 83.6195 96.9293 82.2363 95.8425C80.3435 94.3605 79.0539 92.4261 78.1595 90.2108C77.4575 88.4688 77.0831 86.6644 76.9271 84.8028C76.8907 84.3868 76.5943 84.1216 76.2095 84.1528C75.8195 84.184 75.5439 84.4856 75.5907 84.8964C75.6843 85.7284 75.7519 86.5656 75.9287 87.382C76.1367 88.3284 76.4019 89.2696 76.7243 90.19C77.6603 92.8525 79.1475 95.1509 81.3783 96.9241C83.3751 98.4997 85.6579 99.2693 88.1955 99.3525ZM88.1695 69.2288C87.9355 69.2496 87.4675 69.2756 87.0099 69.3432C84.9559 69.6448 83.2139 70.5912 81.7631 72.0472C80.6191 73.1964 79.8131 74.5796 79.3659 76.1396C79.1891 76.7636 79.1007 77.4188 79.0227 78.0688C78.9759 78.4692 79.3035 78.7864 79.6727 78.7968C80.0679 78.8072 80.3331 78.5472 80.3695 78.1156C80.3903 77.8608 80.4215 77.6008 80.4683 77.346C80.8635 75.2296 81.9555 73.5344 83.6299 72.2136C84.5607 71.4804 85.6163 71.0072 86.7759 70.7628C88.1851 70.4612 89.5787 70.508 90.9307 71.0176C93.4163 71.9536 95.0959 73.7112 95.9903 76.1968C96.2191 76.8364 96.2919 77.5332 96.4271 78.2092C96.4895 78.5264 96.7651 78.7916 97.0823 78.802C97.3839 78.8176 97.7063 78.5836 97.7271 78.2508C97.7479 77.8764 97.7323 77.4864 97.6543 77.1224C97.1863 74.9592 96.1983 73.0768 94.5187 71.6052C92.7715 70.0816 90.7435 69.2444 88.1695 69.2288ZM88.2371 106.346C88.9287 106.263 89.6307 106.227 90.3119 106.086C90.9411 105.962 91.5495 105.743 92.1579 105.53C92.5011 105.41 92.6727 104.953 92.5479 104.62C92.4179 104.266 92.0643 104.11 91.6795 104.235C91.5755 104.272 91.4663 104.308 91.3623 104.35C89.6567 105.015 87.8939 105.057 86.1155 104.786C84.8051 104.589 83.5831 104.116 82.4339 103.466C82.1531 103.31 81.8827 103.143 81.5967 103.003C81.3211 102.868 81.0247 102.961 80.8375 103.206C80.5567 103.575 80.6659 103.996 81.1339 104.292C81.9763 104.828 82.8655 105.265 83.8067 105.592C85.2419 106.097 86.7239 106.284 88.2371 106.346ZM93.8999 102.394C94.0559 102.348 94.2171 102.316 94.3627 102.254C96.3595 101.391 98.0703 100.153 99.3703 98.3905C99.7239 97.9121 100.041 97.4077 100.322 96.8825C100.494 96.5653 100.317 96.2013 99.9995 96.0297C99.7083 95.8737 99.3703 95.9517 99.1467 96.2377C99.0687 96.3417 99.0011 96.4509 98.9335 96.5653C97.9767 98.1513 96.7235 99.4357 95.0855 100.33C94.5915 100.6 94.0767 100.819 93.5775 101.074C93.2967 101.214 93.1407 101.547 93.2083 101.807C93.3071 102.16 93.5567 102.368 93.8999 102.394ZM88.5543 96.1857C88.7987 96.1701 89.2043 96.1753 89.5943 96.1129C90.0935 96.0349 90.5875 95.9153 91.0763 95.7801C91.3415 95.7073 91.4715 95.4889 91.4975 95.2133C91.5235 94.9273 91.4247 94.6985 91.1855 94.5477C90.9255 94.3813 90.6551 94.4489 90.3847 94.5321C89.1939 94.8961 87.9875 94.9169 86.7863 94.6257C86.2039 94.4853 85.6475 94.2409 85.0807 94.0381C84.6231 93.8769 84.2071 94.1161 84.1447 94.5893C84.1083 94.8857 84.2747 95.1665 84.6231 95.3485C85.8035 95.9725 87.0827 96.1753 88.5543 96.1857ZM80.6867 98.9885C80.3435 99.0249 80.1199 99.1913 80.0263 99.5085C79.9327 99.8309 80.0731 100.164 80.4579 100.392C81.1807 100.819 81.9087 101.23 82.6471 101.625C82.8343 101.724 83.0735 101.786 83.2867 101.776C83.6091 101.76 83.8327 101.49 83.8847 101.157C83.9315 100.866 83.7807 100.611 83.4791 100.45C82.6939 100.028 81.9139 99.6021 81.1339 99.1809C80.9883 99.1029 80.8323 99.0509 80.6867 98.9885Z" fill="black" fill-opacity="0.5"/>
<path d="M88.1956 99.3525C85.658 99.2693 83.3752 98.4997 81.3836 96.9136C79.1527 95.1404 77.6655 92.842 76.7295 90.1796C76.4071 89.2644 76.1419 88.3232 75.9339 87.3716C75.7571 86.5604 75.6895 85.718 75.5959 84.886C75.5491 84.4752 75.8247 84.1684 76.2147 84.1424C76.5995 84.1164 76.9011 84.3764 76.9323 84.7924C77.0883 86.654 77.4627 88.4636 78.1647 90.2004C79.0591 92.4208 80.3436 94.35 82.2416 95.832C83.6248 96.9188 85.1952 97.6 86.9476 97.8393C89.6516 98.2033 92.1216 97.5844 94.3836 96.0764C94.5344 95.9776 94.6748 95.858 94.8308 95.7644C95.148 95.5772 95.4756 95.6344 95.6888 95.9048C95.8968 96.17 95.902 96.5756 95.6576 96.8044C95.3924 97.0488 95.096 97.2672 94.7944 97.4596C93.4216 98.3385 91.9292 98.9365 90.312 99.1653C89.61 99.2797 88.9028 99.3005 88.1956 99.3525Z" fill="white"/>
<path d="M88.1695 69.2288C90.7436 69.2444 92.7716 70.0816 94.5188 71.6104C96.1984 73.082 97.1864 74.9644 97.6544 77.1276C97.7324 77.4916 97.7532 77.8816 97.7272 78.256C97.7064 78.5888 97.384 78.8228 97.0824 78.8072C96.7652 78.7916 96.4896 78.5264 96.4272 78.2144C96.292 77.5384 96.2192 76.8416 95.9904 76.202C95.096 73.7164 93.4164 71.9588 90.9308 71.0228C89.5788 70.5132 88.1851 70.4664 86.7759 70.768C85.6215 71.0176 84.5607 71.4908 83.6299 72.2188C81.9503 73.5396 80.8635 75.2348 80.4683 77.3512C80.4215 77.606 80.3903 77.8608 80.3695 78.1208C80.3331 78.5524 80.0679 78.8124 79.6727 78.802C79.3035 78.7916 78.9759 78.4744 79.0227 78.074C79.1007 77.424 79.1891 76.7688 79.3659 76.1448C79.8131 74.5796 80.6191 73.2016 81.7631 72.0524C83.2139 70.5964 84.9559 69.65 87.0099 69.3484C87.4675 69.2808 87.9355 69.2548 88.1695 69.2288Z" fill="white"/>
<path d="M88.2373 106.346C86.7188 106.284 85.2368 106.102 83.8068 105.598C82.8656 105.265 81.9764 104.828 81.134 104.298C80.666 104.001 80.5568 103.58 80.8376 103.211C81.0196 102.966 81.3212 102.878 81.5968 103.008C81.8828 103.148 82.1584 103.315 82.434 103.471C83.5884 104.121 84.8104 104.594 86.1156 104.792C87.8941 105.062 89.6569 105.02 91.3625 104.355C91.4665 104.313 91.5705 104.277 91.6797 104.24C92.0645 104.116 92.4181 104.277 92.5481 104.625C92.6729 104.958 92.5013 105.416 92.1581 105.535C91.5497 105.743 90.9361 105.962 90.3121 106.092C89.6361 106.222 88.9341 106.263 88.2373 106.346Z" fill="white"/>
<path d="M93.9001 102.394C93.5517 102.368 93.3073 102.16 93.2189 101.807C93.1513 101.547 93.3073 101.214 93.5881 101.074C94.0873 100.819 94.6073 100.6 95.0961 100.33C96.7289 99.4409 97.9822 98.1513 98.9442 96.5653C99.0118 96.4561 99.0794 96.3417 99.1574 96.2377C99.381 95.9517 99.719 95.8685 100.01 96.0297C100.327 96.2013 100.504 96.5653 100.333 96.8825C100.052 97.4025 99.7346 97.9121 99.381 98.3905C98.0809 100.153 96.3701 101.391 94.3733 102.254C94.2173 102.316 94.0561 102.348 93.9001 102.394Z" fill="white"/>
<path d="M88.5544 96.1856C87.0828 96.1752 85.8088 95.9672 84.6231 95.3484C84.2747 95.1664 84.1083 94.8856 84.1447 94.5892C84.2071 94.116 84.6231 93.8716 85.0807 94.038C85.6476 94.2408 86.204 94.4852 86.7864 94.6256C87.9876 94.922 89.194 94.896 90.3848 94.532C90.65 94.4488 90.9256 94.3812 91.1856 94.5476C91.4248 94.6984 91.5236 94.9272 91.4976 95.2132C91.4716 95.4888 91.3416 95.7072 91.0764 95.78C90.5876 95.9152 90.0936 96.0348 89.5944 96.1128C89.1992 96.1804 88.7988 96.17 88.5544 96.1856Z" fill="white"/>
<path d="M80.6866 98.9885C80.8374 99.0509 80.9882 99.1029 81.1286 99.1757C81.9138 99.5969 82.6938 100.023 83.4738 100.445C83.7807 100.611 83.9263 100.861 83.8795 101.152C83.8275 101.485 83.6091 101.755 83.2814 101.771C83.0682 101.781 82.829 101.719 82.6418 101.62C81.9034 101.225 81.1754 100.814 80.4526 100.387C80.0678 100.164 79.9274 99.8309 80.021 99.5033C80.1198 99.1913 80.3434 99.0249 80.6866 98.9885Z" fill="white"/>
<defs>
<filter id="filter0_d_1_5386" x="0.580923" y="0.217237" width="175.662" height="175.662" filterUnits="userSpaceOnUse" color-interpolation-filters="sRGB">
<feFlood flood-opacity="0" result="BackgroundImageFix"/>
<feColorMatrix in="SourceAlpha" type="matrix" values="0 0 0 0 0 0 0 0 0 0 0 0 0 0 0 0 0 0 127 0" result="hardAlpha"/>
<feOffset dy="1.54"/>
<feGaussianBlur stdDeviation="9.245"/>
<feComposite in2="hardAlpha" operator="out"/>
<feColorMatrix type="matrix" values="0 0 0 0 0.0431373 0 0 0 0 0.486275 0 0 0 0 0.0941176 0 0 0 0.01 0"/>
<feBlend mode="normal" in2="BackgroundImageFix" result="effect1_dropShadow_1_5386"/>
<feBlend mode="normal" in="SourceGraphic" in2="effect1_dropShadow_1_5386" result="shape"/>
</filter>
</defs>
</svg>
